<?xml version="1.0" encoding="utf-8"?>
<!-- Generator: Adobe Illustrator 25.0.0, SVG Export Plug-In . SVG Version: 6.00 Build 0)  -->
<svg version="1.1" id="Capa_1" xmlns:svg="http://www.w3.org/2000/svg"
	 xmlns="http://www.w3.org/2000/svg" xmlns:xlink="http://www.w3.org/1999/xlink" x="0px" y="0px" viewBox="0 0 309 258"
	 style="enable-background:new 0 0 309 258;" xml:space="preserve">
<style type="text/css">
	.st0{fill:none;stroke:#840000;stroke-width:0.72;stroke-linecap:round;stroke-linejoin:round;stroke-miterlimit:10;}
	.st1{fill:none;stroke:#840000;stroke-width:0.432;stroke-linecap:round;stroke-linejoin:round;stroke-miterlimit:10;}
	
		.st2{fill-rule:evenodd;clip-rule:evenodd;fill:#840000;stroke:#840000;stroke-width:0.72;stroke-linecap:round;stroke-linejoin:round;stroke-miterlimit:10;}
	
		.st3{fill:#840000;fill-opacity:0;stroke:#840000;stroke-width:0.432;stroke-linecap:round;stroke-linejoin:round;stroke-miterlimit:10;}
	
		.st4{fill:#840000;fill-opacity:0;stroke:#840000;stroke-width:0.72;stroke-linecap:round;stroke-linejoin:round;stroke-miterlimit:10;}
	.st5{opacity:0;enable-background:new    ;}
	.st6{fill:none;}
	.st7{fill:#008484;}
	.st8{font-family:'ArialMT';}
	.st9{font-size:4.752px;}
	.st10{letter-spacing:1;}
	.st11{fill:none;stroke:#008484;stroke-width:0.432;stroke-linecap:round;stroke-linejoin:round;}
	
		.st12{fill:#008484;fill-opacity:0;stroke:#008484;stroke-width:0.432;stroke-linecap:round;stroke-linejoin:round;stroke-miterlimit:10;}
	.st13{fill:#FFFFC2;fill-opacity:0.6;}
	
		.st14{fill-rule:evenodd;clip-rule:evenodd;fill:#840000;stroke:#840000;stroke-width:0.432;stroke-linecap:round;stroke-linejoin:round;stroke-miterlimit:10;}
	.st15{fill:#840000;}
	.st16{fill:none;stroke:#840000;stroke-width:0.432;stroke-linecap:round;stroke-linejoin:round;}
	
		.st17{fill:#008400;fill-opacity:0;stroke:#008400;stroke-width:0.432;stroke-linecap:round;stroke-linejoin:round;stroke-miterlimit:10;}
	.st18{fill:#008400;stroke:#008400;stroke-width:0.72;stroke-linecap:round;stroke-linejoin:round;stroke-miterlimit:10;}
</style>
<desc>Picture generated by Eeschema-SVG</desc>
<g transform="translate(0 0) scale(1 1)">
</g>
<g>
	<g>
		<path class="st0" d="M42.2,147.1v-7.2"/>
	</g>
	<g>
		<path class="st1" d="M42.2,143.5h7.2"/>
	</g>
	<g>
		<path class="st2" d="M49.4,147.1v-7.2l-7.2,3.6L49.4,147.1z"/>
	</g>
	<g>
		<path class="st1" d="M37.2,145.7l-4.3,4.3H35h-2.2v-2.2"/>
		<path class="st1" d="M40.8,145.7l-4.3,4.3h2.2h-2.2v-2.2"/>
		<path class="st3" d="M42.2,143.5H35"/>
		<path class="st3" d="M49.4,143.5h7.2"/>
	</g>
</g>
<g>
	<g>
		<rect x="74.6" y="126.2" class="st4" width="14.4" height="5.8"/>
	</g>
	<g>
		<path class="st3" d="M89,129.1h3.6"/>
		<path class="st3" d="M74.6,129.1H71"/>
	</g>
</g>
<g>
	<g>
		<path class="st0" d="M42.2,132.7v-7.2"/>
	</g>
	<g>
		<path class="st1" d="M42.2,129.1h7.2"/>
	</g>
	<g>
		<path class="st2" d="M49.4,132.7v-7.2l-7.2,3.6L49.4,132.7z"/>
	</g>
	<g>
		<path class="st1" d="M37.2,131.3l-4.3,4.3H35h-2.2v-2.2"/>
		<path class="st1" d="M40.8,131.3l-4.3,4.3h2.2h-2.2v-2.2"/>
		<path class="st3" d="M42.2,129.1H35"/>
		<path class="st3" d="M49.4,129.1h7.2"/>
	</g>
</g>
<g>
	<g>
		<rect x="74.6" y="111.8" class="st4" width="14.4" height="5.8"/>
	</g>
	<g>
		<path class="st3" d="M89,114.7h3.6"/>
		<path class="st3" d="M74.6,114.7H71"/>
	</g>
</g>
<g>
	<g>
		<path class="st0" d="M42.2,118.3v-7.2"/>
	</g>
	<g>
		<path class="st1" d="M42.2,114.7h7.2"/>
	</g>
	<g>
		<path class="st2" d="M49.4,118.3v-7.2l-7.2,3.6L49.4,118.3z"/>
	</g>
	<g>
		<path class="st1" d="M37.2,116.9l-4.3,4.3H35h-2.2V119"/>
		<path class="st1" d="M40.8,116.9l-4.3,4.3h2.2h-2.2V119"/>
		<path class="st3" d="M42.2,114.7H35"/>
		<path class="st3" d="M49.4,114.7h7.2"/>
	</g>
</g>
<g>
	<g>
		<path class="st1" d="M18.8,163.3h3.6"/>
		<path class="st1" d="M20.2,165.1H21"/>
		<path class="st1" d="M20.6,161.5v-3.6"/>
		<path class="st1" d="M24.2,161.5H17"/>
	</g>
</g>
<g>
	<g>
		<rect x="74.6" y="97.4" class="st4" width="14.4" height="5.8"/>
	</g>
	<g>
		<path class="st3" d="M89,100.3h3.6"/>
		<path class="st3" d="M74.6,100.3H71"/>
	</g>
</g>
<g>
	<g>
		<path class="st0" d="M42.2,103.9v-7.2"/>
	</g>
	<g>
		<path class="st1" d="M42.2,100.3h7.2"/>
	</g>
	<g>
		<path class="st2" d="M49.4,103.9v-7.2l-7.2,3.6L49.4,103.9z"/>
	</g>
	<g>
		<path class="st1" d="M37.2,102.5l-4.3,4.3H35h-2.2v-2.2"/>
		<path class="st1" d="M40.8,102.5l-4.3,4.3h2.2h-2.2v-2.2"/>
		<path class="st3" d="M42.2,100.3H35"/>
		<path class="st3" d="M49.4,100.3h7.2"/>
	</g>
</g>
<g>
	<g>
		<path class="st1" d="M292.4,105.7h3.6"/>
		<path class="st1" d="M293.8,107.5h0.7"/>
		<path class="st1" d="M294.2,103.9v-3.6"/>
		<path class="st1" d="M297.8,103.9h-7.2"/>
	</g>
</g>
<g>
	<g>
		<path class="st1" d="M119.2,67.9l2.2-3.6"/>
		<path class="st1" d="M121.4,71.5v-7.2"/>
		<path class="st1" d="M121.4,64.3l2.2,3.6"/>
	</g>
	<g>
		<g class="st5">
			<rect x="116.2" y="56.9" class="st6" width="16.6" height="5.6"/>
			<text transform="matrix(1 0 0 1 116.2051 60.9985)"><tspan x="0" y="0" class="st7 st8 st9 st10">+3.3</tspan><tspan x="13.4" y="0" class="st7 st8 st9">V</tspan></text>
		</g>
		<g class="st5">
			<rect x="116.2" y="56.9" class="st6" width="16.6" height="5.6"/>
			<text transform="matrix(1 0 0 1 116.2021 60.9966)"><tspan x="0" y="0" class="st11 st8 st9 st10">+3.3</tspan><tspan x="13.4" y="0" class="st11 st8 st9">V</tspan></text>
		</g>
		<path class="st12" d="M115.3,59.4h2.7"/>
		<path class="st12" d="M116.6,60.8V58"/>
		<path class="st12" d="M119.4,57.2h2.2l-1.2,1.4h0.5l0.4,0.2l0.1,0.1l0.2,0.4v0.9l-0.2,0.3l-0.1,0.2l-0.4,0.1h-1l-0.4-0.1l-0.1-0.2
			"/>
		<path class="st12" d="M123.1,60.4l0.1,0.2l-0.1,0.1l-0.1-0.1L123.1,60.4v0.4"/>
		<path class="st12" d="M124.5,57.2h2.2l-1.2,1.4h0.6l0.3,0.2l0.2,0.1l0.1,0.4v0.9l-0.1,0.3l-0.2,0.2l-0.3,0.1H125l-0.4-0.1
			l-0.1-0.2"/>
		<path class="st12" d="M127.7,57.2l1.2,3.6l1.2-3.6"/>
	</g>
</g>
<g>
	<g>
		<rect x="143" y="13.9" class="st13" width="129.6" height="187.2"/>
	</g>
	<g>
		<rect x="143" y="13.9" class="st3" width="129.6" height="187.2"/>
		<rect x="161" y="82.3" class="st3" width="86.4" height="100.8"/>
		<rect x="143" y="13.9" class="st3" width="129.6" height="187.2"/>
	</g>
	<g>
		<path class="st14" d="M143,78.7h7.2v-54H161v43.2h7.2V24.7h18v28.8h21.6V24.7h21.6v28.8H251V24.7h14.4v43.2h7.2V17.5h-28.8v28.8
			h-7.2V17.5h-36v28.8h-7.2V17.5H143V78.7z"/>
	</g>
	<g>
		<path class="st3" d="M143,85.9h-7.2"/>
	</g>
	<g>
		<g class="st5">
			<rect x="144.4" y="83.6" class="st6" width="10.7" height="5.6"/>
			<text transform="matrix(1 0 0 1 144.4404 87.7104)"><tspan x="0" y="0" class="st7 st8 st9">VC</tspan><tspan x="7.3" y="0" class="st7 st8 st9">C</tspan></text>
		</g>
		<g class="st5">
			<rect x="144.4" y="83.6" class="st6" width="10.7" height="5.6"/>
			<text transform="matrix(1 0 0 1 144.4385 87.709)"><tspan x="0" y="0" class="st11 st8 st9">VC</tspan><tspan x="7.3" y="0" class="st11 st8 st9">C</tspan></text>
		</g>
		<path class="st12" d="M144.9,83.9l1.2,3.6l1.2-3.6"/>
		<path class="st12" d="M150.6,87.1l-0.2,0.2l-0.5,0.1h-0.3l-0.6-0.1l-0.3-0.4l-0.2-0.4l-0.1-0.6v-0.5l0.1-0.7l0.2-0.4l0.3-0.3
			l0.6-0.2h0.3l0.5,0.2l0.2,0.1"/>
		<path class="st12" d="M154.2,87.1l-0.2,0.2l-0.5,0.1h-0.3l-0.6-0.1l-0.3-0.4l-0.2-0.4L152,86v-0.5l0.1-0.7l0.2-0.4l0.3-0.3
			l0.6-0.2h0.3l0.5,0.2l0.2,0.1"/>
	</g>
	<g>
		<g class="st5">
			<rect x="138.1" y="81.1" class="st6" width="3.9" height="5.6"/>
			<text transform="matrix(1 0 0 1 138.0781 85.1904)" class="st15 st8 st9">1</text>
		</g>
		<g class="st5">
			<rect x="138.1" y="81.1" class="st6" width="3.9" height="5.6"/>
			<text transform="matrix(1 0 0 1 138.0762 85.189)" class="st16 st8 st9">1</text>
		</g>
		<path class="st3" d="M140.4,85h-2.1"/>
		<path class="st3" d="M139.4,85v-3.6l-0.4,0.5l-0.4,0.4l-0.4,0.1"/>
		<path class="st3" d="M171.8,201.1v7.2"/>
	</g>
	<g>
		<g transform="rotate(-90 81500 34800)">
			<g class="st5">
				<rect x="116100.7" y="-46531.8" class="st6" width="6.9" height="7.7"/>
				<text transform="matrix(1 0 0 1 116100.3281 -46527.3047)" class="st7 st8 st9">IO2</text>
			</g>
			<g class="st5">
				<rect x="116100.7" y="-46531.8" class="st6" width="6.9" height="7.7"/>
				<text transform="matrix(1 0 0 1 116100.3281 -46527.3086)" class="st11 st8 st9">IO2</text>
			</g>
		</g>
		<path class="st12" d="M173.4,198.6h-3.6"/>
		<path class="st12" d="M169.8,196.1v-0.6l0.2-0.4l0.3-0.4l0.7-0.1h1.2l0.7,0.1l0.4,0.4l0.1,0.4v0.6l-0.1,0.4l-0.4,0.4l-0.7,0.1H171
			l-0.7-0.1l-0.3-0.4L169.8,196.1"/>
		<path class="st12" d="M170.1,193.3L170,193l-0.2-0.3v-0.9l0.2-0.4l0.1-0.1l0.4-0.2h0.3l0.6,0.2l2,2v-2.2"/>
	</g>
	<g>
		<g transform="rotate(-90 81400 35500)">
			<g class="st5">
				<rect x="116691.4" y="-45733.3" class="st6" width="7.7" height="5.3"/>
				<text transform="matrix(1 0 0 1 116692.6484 -45730.4531)" class="st15 st8 st9">10</text>
			</g>
			<g class="st5">
				<rect x="116691.4" y="-45733.3" class="st6" width="7.7" height="5.3"/>
				<text transform="matrix(1 0 0 1 116692.6484 -45730.4531)" class="st16 st8 st9">10</text>
			</g>
		</g>
		<path class="st3" d="M170.9,205.4v2.1"/>
		<path class="st3" d="M170.9,206.4h-3.6l0.5,0.4l0.4,0.4l0.1,0.4"/>
		<path class="st3" d="M167.3,203.1v-0.4l0.2-0.3l0.1-0.2l0.4-0.1l0.6-0.2h0.9l0.7,0.2l0.3,0.1l0.2,0.2l0.1,0.3v0.4l-0.1,0.4
			l-0.2,0.1l-0.3,0.2l-0.7,0.1h-0.9l-0.6-0.1l-0.4-0.2l-0.1-0.1L167.3,203.1"/>
		<path class="st3" d="M186.2,201.1v7.2"/>
		<path class="st3" d="M185.1,207.2l2.2,2.2"/>
		<path class="st3" d="M187.3,207.2l-2.2,2.2"/>
	</g>
	<g>
		<g transform="rotate(-90 83500 34800)">
			<g class="st5">
				<rect x="118100.6" y="-48516.9" class="st6" width="6.4" height="6.9"/>
				<text transform="matrix(1 0 0 1 118100.3281 -48512.543)" class="st7 st8 st9">NC</text>
			</g>
			<g class="st5">
				<rect x="118100.6" y="-48516.9" class="st6" width="6.4" height="6.9"/>
				<text transform="matrix(1 0 0 1 118100.3281 -48512.543)" class="st11 st8 st9">NC</text>
			</g>
		</g>
		<path class="st12" d="M187.8,198.6h-3.6l3.6-2.1h-3.6"/>
		<path class="st12" d="M187.4,192.8l0.2,0.1l0.1,0.5v0.4l-0.1,0.5l-0.4,0.4l-0.4,0.1l-0.6,0.2h-0.5l-0.7-0.2l-0.4-0.1l-0.3-0.4
			l-0.2-0.5v-0.4l0.2-0.5l0.1-0.1"/>
	</g>
	<g>
		<g transform="rotate(-90 83400 35500)">
			<g class="st5">
				<rect x="118691.1" y="-47718.9" class="st6" width="8.3" height="4.9"/>
				<text transform="matrix(1 0 0 1 118692.8203 -47716.4531)" class="st15 st8 st9">1</text>
			</g>
			<g class="st5">
				<rect x="118691.1" y="-47718.9" class="st6" width="8.3" height="4.9"/>
				<text transform="matrix(1 0 0 1 118692.8203 -47716.457)" class="st16 st8 st9">1</text>
			</g>
		</g>
		<path class="st3" d="M185.3,205.4v2.1"/>
		<path class="st3" d="M185.3,206.4h-3.6l0.5,0.4l0.4,0.4l0.1,0.4"/>
		<path class="st3" d="M185.3,201.9v2.1"/>
		<path class="st3" d="M185.3,203h-3.6l0.5,0.3l0.4,0.4l0.1,0.4"/>
		<path class="st3" d="M200.6,201.1v7.2"/>
		<path class="st3" d="M199.5,207.2l2.2,2.2"/>
		<path class="st3" d="M201.7,207.2l-2.2,2.2"/>
	</g>
	<g>
		<g transform="rotate(-90 85500 34800)">
			<g class="st5">
				<rect x="120100.6" y="-50502.5" class="st6" width="6.4" height="6.9"/>
				<text transform="matrix(1 0 0 1 120100.3281 -50498.1406)" class="st7 st8 st9">NC</text>
			</g>
			<g class="st5">
				<rect x="120100.6" y="-50502.5" class="st6" width="6.4" height="6.9"/>
				<text transform="matrix(1 0 0 1 120100.3281 -50498.1445)" class="st11 st8 st9">NC</text>
			</g>
		</g>
		<path class="st12" d="M202.2,198.6h-3.6l3.6-2.1h-3.6"/>
		<path class="st12" d="M201.8,192.8l0.2,0.1l0.1,0.5v0.4l-0.1,0.5l-0.4,0.4l-0.4,0.1l-0.6,0.2h-0.5l-0.7-0.2l-0.4-0.1l-0.3-0.4
			l-0.2-0.5v-0.4l0.2-0.5l0.1-0.1"/>
	</g>
	<g>
		<g transform="rotate(-90 85400 35500)">
			<g class="st5">
				<rect x="120691.4" y="-49704.5" class="st6" width="7.7" height="5.3"/>
				<text transform="matrix(1 0 0 1 120692.6484 -49701.6523)" class="st15 st8 st9">12</text>
			</g>
			<g class="st5">
				<rect x="120691.4" y="-49704.5" class="st6" width="7.7" height="5.3"/>
				<text transform="matrix(1 0 0 1 120692.6484 -49701.6562)" class="st16 st8 st9">12</text>
			</g>
		</g>
		<path class="st3" d="M199.7,205.4v2.1"/>
		<path class="st3" d="M199.7,206.4h-3.6l0.5,0.4l0.4,0.4l0.1,0.4"/>
		<path class="st3" d="M196.4,204l-0.1-0.1l-0.2-0.4v-0.9l0.2-0.4l0.1-0.1l0.4-0.2h0.3l0.6,0.2l2,2v-2.2"/>
		<path class="st3" d="M215,201.1v7.2"/>
	</g>
	<g>
		<g transform="rotate(-90 87500 34800)">
			<g class="st5">
				<rect x="122100.7" y="-52488.6" class="st6" width="6.9" height="7.7"/>
				<text transform="matrix(1 0 0 1 122100.3281 -52484.1055)" class="st7 st8 st9">IO3</text>
			</g>
			<g class="st5">
				<rect x="122100.7" y="-52488.6" class="st6" width="6.9" height="7.7"/>
				<text transform="matrix(1 0 0 1 122100.3281 -52484.1094)" class="st11 st8 st9">IO3</text>
			</g>
		</g>
		<path class="st12" d="M216.6,198.6H213"/>
		<path class="st12" d="M213,196.1v-0.6l0.2-0.4l0.3-0.4l0.7-0.1h1.2l0.7,0.1l0.4,0.4l0.1,0.4v0.6l-0.1,0.4l-0.4,0.4l-0.7,0.1h-1.2
			l-0.7-0.1l-0.3-0.4L213,196.1"/>
		<path class="st12" d="M213,193.4v-2.2l1.4,1.2v-0.5l0.2-0.4l0.1-0.1l0.4-0.2h0.9l0.3,0.2l0.2,0.1l0.1,0.4v1l-0.1,0.4l-0.2,0.1"/>
	</g>
	<g>
		<g transform="rotate(-90 87400 35500)">
			<g class="st5">
				<rect x="122691.4" y="-51690.1" class="st6" width="7.7" height="5.3"/>
				<text transform="matrix(1 0 0 1 122692.6484 -51687.25)" class="st15 st8 st9">13</text>
			</g>
			<g class="st5">
				<rect x="122691.4" y="-51690.1" class="st6" width="7.7" height="5.3"/>
				<text transform="matrix(1 0 0 1 122692.6484 -51687.2539)" class="st16 st8 st9">13</text>
			</g>
		</g>
		<path class="st3" d="M214.1,205.4v2.1"/>
		<path class="st3" d="M214.1,206.4h-3.6l0.5,0.4l0.4,0.4l0.1,0.4"/>
		<path class="st3" d="M210.5,204.1v-2.2l1.4,1.2v-0.5l0.2-0.4l0.1-0.1l0.4-0.2h0.9l0.3,0.2l0.2,0.1l0.1,0.4v1l-0.1,0.4l-0.2,0.1"/>
		<path class="st3" d="M229.4,201.1v7.2"/>
	</g>
	<g>
		<g transform="rotate(-90 89500 34800)">
			<g class="st5">
				<rect x="124104.4" y="-54477.3" class="st6" width="6.2" height="14.3"/>
				<text transform="matrix(1 0 0 1 124100.3281 -54469.2109)" class="st7 st8 st9">PWM3</text>
			</g>
			<g class="st5">
				<rect x="124104.4" y="-54477.3" class="st6" width="6.2" height="14.3"/>
				<text transform="matrix(1 0 0 1 124100.3281 -54469.2148)" class="st11 st8 st9">PWM3</text>
			</g>
		</g>
		<path class="st12" d="M231,198.6h-3.6v-1.4l0.2-0.4l0.1-0.2l0.4-0.1h0.5l0.4,0.1l0.1,0.2l0.1,0.4v1.4"/>
		<path class="st12" d="M227.4,195.3l3.6-0.9l-2.6-0.6l2.6-0.7l-3.6-0.8"/>
		<path class="st12" d="M231,190.8h-3.6l2.6-1.2l-2.6-1.2h3.6"/>
		<path class="st12" d="M227.4,187.1v-2.2l1.4,1.2v-0.5l0.2-0.4l0.1-0.1l0.4-0.2h0.9l0.3,0.2l0.2,0.1l0.1,0.4v1l-0.1,0.4l-0.2,0.1"
			/>
	</g>
	<g>
		<g transform="rotate(-90 89400 35500)">
			<g class="st5">
				<rect x="124691.4" y="-53675.7" class="st6" width="7.7" height="5.3"/>
				<text transform="matrix(1 0 0 1 124692.6484 -53672.8516)" class="st15 st8 st9">14</text>
			</g>
			<g class="st5">
				<rect x="124691.4" y="-53675.7" class="st6" width="7.7" height="5.3"/>
				<text transform="matrix(1 0 0 1 124692.6484 -53672.8555)" class="st16 st8 st9">14</text>
			</g>
		</g>
		<path class="st3" d="M228.5,205.4v2.1"/>
		<path class="st3" d="M228.5,206.4h-3.6l0.5,0.4l0.4,0.4l0.1,0.4"/>
		<path class="st3" d="M226.1,202.3h2.4"/>
		<path class="st3" d="M224.7,203.1l2.5,0.9v-2.2"/>
		<path class="st3" d="M243.8,201.1v7.2"/>
	</g>
	<g>
		<g transform="rotate(-90 91500 34800)">
			<g class="st5">
				<rect x="126104.4" y="-56462.9" class="st6" width="6.2" height="14.3"/>
				<text transform="matrix(1 0 0 1 126100.3281 -56454.8125)" class="st7 st8 st9">PWM4</text>
			</g>
			<g class="st5">
				<rect x="126104.4" y="-56462.9" class="st6" width="6.2" height="14.3"/>
				<text transform="matrix(1 0 0 1 126100.3281 -56454.8125)" class="st11 st8 st9">PWM4</text>
			</g>
		</g>
		<path class="st12" d="M245.4,198.6h-3.6v-1.4l0.2-0.4l0.1-0.2l0.4-0.1h0.5l0.4,0.1l0.1,0.2l0.1,0.4v1.4"/>
		<path class="st12" d="M241.8,195.3l3.6-0.9l-2.6-0.6l2.6-0.7l-3.6-0.8"/>
		<path class="st12" d="M245.4,190.8h-3.6l2.6-1.2l-2.6-1.2h3.6"/>
		<path class="st12" d="M243,185.2h2.4"/>
		<path class="st12" d="M241.6,186.1l2.5,0.9v-2.2"/>
	</g>
	<g>
		<g transform="rotate(-90 91400 35500)">
			<g class="st5">
				<rect x="126691.4" y="-55661.3" class="st6" width="7.7" height="5.3"/>
				<text transform="matrix(1 0 0 1 126692.6484 -55658.4531)" class="st15 st8 st9">15</text>
			</g>
			<g class="st5">
				<rect x="126691.4" y="-55661.3" class="st6" width="7.7" height="5.3"/>
				<text transform="matrix(1 0 0 1 126692.6484 -55658.4531)" class="st16 st8 st9">15</text>
			</g>
		</g>
		<path class="st3" d="M242.9,205.4v2.1"/>
		<path class="st3" d="M242.9,206.4h-3.6l0.5,0.4l0.4,0.4l0.1,0.4"/>
		<path class="st3" d="M239.3,202.1v1.7l1.7,0.1l-0.1-0.1l-0.2-0.4v-0.9l0.2-0.4l0.1-0.1l0.4-0.2h0.9l0.3,0.2l0.2,0.1l0.1,0.4v0.9
			l-0.1,0.4l-0.2,0.1"/>
		<path class="st3" d="M258.2,201.1v7.2"/>
		<path class="st3" d="M257.1,207.2l2.2,2.2"/>
		<path class="st3" d="M259.3,207.2l-2.2,2.2"/>
	</g>
	<g>
		<g transform="rotate(-90 93500 34800)">
			<g class="st5">
				<rect x="128100.6" y="-58444.9" class="st6" width="6.4" height="6.9"/>
				<text transform="matrix(1 0 0 1 128100.3281 -58440.543)" class="st7 st8 st9">NC</text>
			</g>
			<g class="st5">
				<rect x="128100.6" y="-58444.9" class="st6" width="6.4" height="6.9"/>
				<text transform="matrix(1 0 0 1 128100.3281 -58440.543)" class="st11 st8 st9">NC</text>
			</g>
		</g>
		<path class="st12" d="M259.8,198.6h-3.6l3.6-2.1h-3.6"/>
		<path class="st12" d="M259.4,192.8l0.2,0.1l0.1,0.5v0.4l-0.1,0.5l-0.4,0.4l-0.4,0.1l-0.6,0.2h-0.5l-0.7-0.2l-0.4-0.1l-0.3-0.4
			l-0.2-0.5v-0.4l0.2-0.5l0.1-0.1"/>
	</g>
	<g>
		<g transform="rotate(-90 93400 35500)">
			<g class="st5">
				<rect x="128691.4" y="-57646.9" class="st6" width="7.7" height="5.3"/>
				<text transform="matrix(1 0 0 1 128692.6484 -57644.0547)" class="st15 st8 st9">16</text>
			</g>
			<g class="st5">
				<rect x="128691.4" y="-57646.9" class="st6" width="7.7" height="5.3"/>
				<text transform="matrix(1 0 0 1 128692.6484 -57644.0547)" class="st16 st8 st9">16</text>
			</g>
		</g>
		<path class="st3" d="M257.3,205.4v2.1"/>
		<path class="st3" d="M257.3,206.4h-3.6l0.5,0.4l0.4,0.4l0.1,0.4"/>
		<path class="st3" d="M253.7,202.3v0.7l0.2,0.3l0.1,0.2l0.5,0.4l0.7,0.1h1.4l0.3-0.1l0.2-0.2l0.1-0.4v-0.6l-0.1-0.4l-0.2-0.1
			l-0.3-0.2h-0.9l-0.4,0.2l-0.1,0.1l-0.2,0.4v0.6l0.2,0.4l0.1,0.2l0.4,0.1"/>
		<path class="st3" d="M272.6,186.7h7.2"/>
	</g>
	<g>
		<g class="st5">
			<rect x="258.7" y="184.4" class="st6" width="13.3" height="5.6"/>
			<text transform="matrix(1 0 0 1 258.7383 188.5103)"><tspan x="0" y="0" class="st7 st8 st9">ALE</tspan><tspan x="9.9" y="0" class="st7 st8 st9">D</tspan></text>
		</g>
		<g class="st5">
			<rect x="258.7" y="184.4" class="st6" width="13.3" height="5.6"/>
			<text transform="matrix(1 0 0 1 258.7363 188.5088)"><tspan x="0" y="0" class="st11 st8 st9">ALE</tspan><tspan x="9.9" y="0" class="st11 st8 st9">D</tspan></text>
		</g>
		<path class="st12" d="M258.7,187.3h1.7"/>
		<path class="st12" d="M258.4,188.3l1.2-3.6l1.2,3.6"/>
		<path class="st12" d="M263.7,188.3H262v-3.6"/>
		<path class="st12" d="M264.9,186.4h1.2"/>
		<path class="st12" d="M266.6,188.3h-1.7v-3.6h1.7"/>
		<path class="st12" d="M268.1,188.3v-3.6h0.9l0.5,0.2l0.4,0.3l0.2,0.4l0.1,0.7v0.5l-0.1,0.6l-0.2,0.4l-0.4,0.4l-0.5,0.1H268.1"/>
	</g>
	<g>
		<g class="st5">
			<rect x="273.6" y="181.9" class="st6" width="7.3" height="5.6"/>
			<text transform="matrix(1 0 0 1 273.5566 185.9902)"><tspan x="0" y="0" class="st15 st8 st9 st10">1</tspan><tspan x="4.6" y="0" class="st15 st8 st9">7</tspan></text>
		</g>
		<g class="st5">
			<rect x="273.6" y="181.9" class="st6" width="7.3" height="5.6"/>
			<text transform="matrix(1 0 0 1 273.5547 185.9888)"><tspan x="0" y="0" class="st16 st8 st9 st10">1</tspan><tspan x="4.6" y="0" class="st16 st8 st9">7</tspan></text>
		</g>
		<path class="st3" d="M275.5,185.8h-2.1"/>
		<path class="st3" d="M274.5,185.8v-3.6l-0.4,0.5l-0.4,0.4l-0.4,0.1"/>
		<path class="st3" d="M276.7,182.2h2.4l-1.5,3.6"/>
		<path class="st3" d="M272.6,172.3h7.2"/>
	</g>
	<g>
		<g class="st5">
			<rect x="258.3" y="170" class="st6" width="13.5" height="5.6"/>
			<text transform="matrix(1 0 0 1 258.3096 174.1104)"><tspan x="0" y="0" class="st7 st8 st9">RTC</tspan><tspan x="10.3" y="0" class="st7 st8 st9">A</tspan></text>
		</g>
		<g class="st5">
			<rect x="258.3" y="170" class="st6" width="13.5" height="5.6"/>
			<text transform="matrix(1 0 0 1 258.3086 174.1089)"><tspan x="0" y="0" class="st11 st8 st9">RTC</tspan><tspan x="10.3" y="0" class="st11 st8 st9">A</tspan></text>
		</g>
		<path class="st12" d="M260.8,173.9l-1.2-1.7"/>
		<path class="st12" d="M258.7,173.9v-3.6h1.4l0.3,0.2l0.2,0.1l0.1,0.4v0.5l-0.1,0.4l-0.2,0.1l-0.3,0.1h-1.4"/>
		<path class="st12" d="M261.8,170.3h2.1"/>
		<path class="st12" d="M262.9,173.9v-3.6"/>
		<path class="st12" d="M267.1,173.5l-0.1,0.2l-0.5,0.1h-0.4l-0.5-0.1l-0.4-0.4l-0.1-0.4l-0.2-0.6v-0.5l0.2-0.7l0.1-0.4l0.4-0.3
			l0.5-0.2h0.4l0.5,0.2l0.1,0.1"/>
		<path class="st12" d="M268.5,172.9h1.7"/>
		<path class="st12" d="M268.1,173.9l1.2-3.6l1.2,3.6"/>
	</g>
	<g>
		<g class="st5">
			<rect x="273.6" y="167.5" class="st6" width="7.3" height="5.6"/>
			<text transform="matrix(1 0 0 1 273.5566 171.5903)"><tspan x="0" y="0" class="st15 st8 st9 st10">1</tspan><tspan x="4.6" y="0" class="st15 st8 st9">8</tspan></text>
		</g>
		<g class="st5">
			<rect x="273.6" y="167.5" class="st6" width="7.3" height="5.6"/>
			<text transform="matrix(1 0 0 1 273.5547 171.5889)"><tspan x="0" y="0" class="st16 st8 st9 st10">1</tspan><tspan x="4.6" y="0" class="st16 st8 st9">8</tspan></text>
		</g>
		<path class="st3" d="M275.5,171.4h-2.1"/>
		<path class="st3" d="M274.5,171.4v-3.6l-0.4,0.5l-0.4,0.4l-0.4,0.1"/>
		<path class="st3" d="M277.6,169.4l-0.4-0.2L277,169l-0.1-0.4v-0.1l0.1-0.4l0.2-0.1l0.4-0.2h0.6l0.4,0.2l0.1,0.1l0.2,0.4v0.1
			l-0.2,0.4l-0.1,0.1l-0.4,0.2H277.6l-0.4,0.1l-0.2,0.1l-0.1,0.4v0.7l0.1,0.3l0.2,0.2l0.4,0.1h0.6l0.4-0.1l0.1-0.2l0.2-0.3V170
			l-0.2-0.4l-0.1-0.1l-0.4-0.1"/>
		<path class="st3" d="M272.6,157.9h7.2"/>
	</g>
	<g>
		<g class="st5">
			<rect x="252.1" y="155.6" class="st6" width="20.2" height="5.6"/>
			<text transform="matrix(1 0 0 1 252.1494 159.7104)"><tspan x="0" y="0" class="st7 st8 st9">TXD_D</tspan><tspan x="16.7" y="0" class="st7 st8 st9">D</tspan></text>
		</g>
		<g class="st5">
			<rect x="252.1" y="155.6" class="st6" width="20.2" height="5.6"/>
			<text transform="matrix(1 0 0 1 252.1484 159.709)"><tspan x="0" y="0" class="st11 st8 st9">TXD_D</tspan><tspan x="16.7" y="0" class="st11 st8 st9">D</tspan></text>
		</g>
		<path class="st12" d="M251.5,155.9h2.1"/>
		<path class="st12" d="M252.6,159.5v-3.6"/>
		<path class="st12" d="M254.5,155.9l2.4,3.6"/>
		<path class="st12" d="M256.8,155.9l-2.4,3.6"/>
		<path class="st12" d="M258.2,159.5v-3.6h0.9l0.5,0.2l0.4,0.3l0.2,0.4l0.1,0.7v0.5l-0.1,0.6l-0.2,0.4l-0.4,0.4l-0.5,0.1H258.2"/>
		<path class="st12" d="M260.9,159.9h2.8"/>
		<path class="st12" d="M264.5,159.5v-3.6h0.9l0.5,0.2l0.4,0.3l0.2,0.4l0.1,0.7v0.5l-0.1,0.6l-0.2,0.4l-0.4,0.4l-0.5,0.1H264.5"/>
		<path class="st12" d="M268.1,159.5v-3.6h0.9l0.5,0.2l0.4,0.3l0.2,0.4l0.1,0.7v0.5l-0.1,0.6l-0.2,0.4l-0.4,0.4l-0.5,0.1H268.1"/>
	</g>
	<g>
		<g class="st5">
			<rect x="273.6" y="153.1" class="st6" width="7.3" height="5.6"/>
			<text transform="matrix(1 0 0 1 273.5566 157.1904)"><tspan x="0" y="0" class="st15 st8 st9 st10">1</tspan><tspan x="4.6" y="0" class="st15 st8 st9">9</tspan></text>
		</g>
		<g class="st5">
			<rect x="273.6" y="153.1" class="st6" width="7.3" height="5.6"/>
			<text transform="matrix(1 0 0 1 273.5547 157.189)"><tspan x="0" y="0" class="st16 st8 st9 st10">1</tspan><tspan x="4.6" y="0" class="st16 st8 st9">9</tspan></text>
		</g>
		<path class="st3" d="M275.5,157h-2.1"/>
		<path class="st3" d="M274.5,157v-3.6l-0.4,0.5l-0.4,0.4l-0.4,0.1"/>
		<path class="st3" d="M277.2,157h0.6l0.4-0.1l0.1-0.2l0.4-0.5l0.2-0.6v-1.4l-0.2-0.4l-0.1-0.1l-0.4-0.2h-0.6l-0.4,0.2l-0.2,0.1
			l-0.1,0.4v0.9l0.1,0.3l0.2,0.2l0.4,0.1h0.6l0.4-0.1l0.1-0.2l0.2-0.3"/>
		<path class="st3" d="M143,100.3h-7.2"/>
	</g>
	<g>
		<g class="st5">
			<rect x="144.4" y="98" class="st6" width="15.7" height="5.6"/>
			<text transform="matrix(1 0 0 1 144.4404 102.1104)"><tspan x="0" y="0" class="st7 st8 st9">PWM</tspan><tspan x="13.1" y="0" class="st7 st8 st9">1</tspan></text>
		</g>
		<g class="st5">
			<rect x="144.4" y="98" class="st6" width="15.7" height="5.6"/>
			<text transform="matrix(1 0 0 1 144.4385 102.1089)"><tspan x="0" y="0" class="st11 st8 st9">PWM</tspan><tspan x="13.1" y="0" class="st11 st8 st9">1</tspan></text>
		</g>
		<path class="st12" d="M145.4,101.9v-3.6h1.4l0.4,0.2l0.2,0.1l0.1,0.4v0.5l-0.1,0.4l-0.2,0.1l-0.4,0.1h-1.4"/>
		<path class="st12" d="M148.8,98.3l0.9,3.6l0.6-2.6l0.7,2.6l0.9-3.6"/>
		<path class="st12" d="M153.2,101.9v-3.6l1.2,2.6l1.2-2.6v3.6"/>
		<path class="st12" d="M159.2,101.9h-2.1"/>
		<path class="st12" d="M158.2,101.9v-3.6l-0.4,0.5l-0.4,0.4l-0.4,0.1"/>
	</g>
	<g>
		<g class="st5">
			<rect x="138.1" y="95.5" class="st6" width="3.9" height="5.6"/>
			<text transform="matrix(1 0 0 1 138.0781 99.5903)" class="st15 st8 st9">2</text>
		</g>
		<g class="st5">
			<rect x="138.1" y="95.5" class="st6" width="3.9" height="5.6"/>
			<text transform="matrix(1 0 0 1 138.0762 99.5889)" class="st16 st8 st9">2</text>
		</g>
		<path class="st3" d="M138.3,96.1l0.2-0.1l0.3-0.2h0.9L140,96l0.1,0.1l0.2,0.4v0.3l-0.2,0.6l-2,2h2.2"/>
		<path class="st3" d="M272.6,143.5h7.2"/>
	</g>
	<g>
		<g class="st5">
			<rect x="251.6" y="141.2" class="st6" width="21" height="5.6"/>
			<text transform="matrix(1 0 0 1 251.6211 145.3105)"><tspan x="0" y="0" class="st7 st8 st9">RXD_D</tspan><tspan x="17.6" y="0" class="st7 st8 st9">C</tspan></text>
		</g>
		<g class="st5">
			<rect x="251.6" y="141.2" class="st6" width="21" height="5.6"/>
			<text transform="matrix(1 0 0 1 251.6191 145.3086)"><tspan x="0" y="0" class="st11 st8 st9">RXD_D</tspan><tspan x="17.6" y="0" class="st11 st8 st9">C</tspan></text>
		</g>
		<path class="st12" d="M253.2,145.1l-1.2-1.7"/>
		<path class="st12" d="M251.2,145.1v-3.6h1.4l0.4,0.2l0.1,0.1l0.1,0.4v0.5l-0.1,0.4l-0.1,0.1l-0.4,0.1h-1.4"/>
		<path class="st12" d="M254.5,141.5l2.4,3.6"/>
		<path class="st12" d="M256.8,141.5l-2.4,3.6"/>
		<path class="st12" d="M258.2,145.1v-3.6h0.9l0.5,0.2l0.4,0.3l0.2,0.4l0.1,0.7v0.5l-0.1,0.6l-0.2,0.4l-0.4,0.4l-0.5,0.1H258.2"/>
		<path class="st12" d="M260.9,145.5h2.8"/>
		<path class="st12" d="M264.5,145.1v-3.6h0.9l0.5,0.2l0.4,0.3l0.2,0.4l0.1,0.7v0.5l-0.1,0.6l-0.2,0.4l-0.4,0.4l-0.5,0.1H264.5"/>
		<path class="st12" d="M270.2,144.7l-0.1,0.2l-0.6,0.1h-0.3l-0.5-0.1l-0.4-0.4l-0.2-0.4l-0.1-0.6v-0.5l0.1-0.7l0.2-0.4l0.4-0.3
			l0.5-0.2h0.3l0.6,0.2l0.1,0.1"/>
	</g>
	<g>
		<g class="st5">
			<rect x="273.6" y="138.7" class="st6" width="7.3" height="5.6"/>
			<text transform="matrix(1 0 0 1 273.5566 142.7905)"><tspan x="0" y="0" class="st15 st8 st9 st10">2</tspan><tspan x="4.6" y="0" class="st15 st8 st9">0</tspan></text>
		</g>
		<g class="st5">
			<rect x="273.6" y="138.7" class="st6" width="7.3" height="5.6"/>
			<text transform="matrix(1 0 0 1 273.5547 142.7886)"><tspan x="0" y="0" class="st16 st8 st9 st10">2</tspan><tspan x="4.6" y="0" class="st16 st8 st9">0</tspan></text>
		</g>
		<path class="st3" d="M273.4,139.3l0.2-0.1l0.4-0.2h0.8l0.4,0.2l0.2,0.1l0.1,0.4v0.3l-0.1,0.6l-2.1,2h2.2"/>
		<path class="st3" d="M277.7,139h0.4l0.3,0.2l0.2,0.1l0.1,0.4l0.2,0.6v0.9l-0.2,0.7l-0.1,0.3l-0.2,0.2l-0.3,0.1h-0.4l-0.4-0.1
			l-0.1-0.2l-0.2-0.3l-0.1-0.7v-0.9l0.1-0.6l0.2-0.4l0.1-0.1L277.7,139"/>
		<path class="st3" d="M272.6,129.1h7.2"/>
	</g>
	<g>
		<g class="st5">
			<rect x="252.7" y="126.8" class="st6" width="19.7" height="5.6"/>
			<text transform="matrix(1 0 0 1 252.6738 130.9102)"><tspan x="0" y="0" class="st7 st8 st9">SELEC</tspan><tspan x="16.8" y="0" class="st7 st8 st9">T</tspan></text>
		</g>
		<g class="st5">
			<rect x="252.7" y="126.8" class="st6" width="19.7" height="5.6"/>
			<text transform="matrix(1 0 0 1 252.6719 130.9087)"><tspan x="0" y="0" class="st11 st8 st9">SELEC</tspan><tspan x="16.8" y="0" class="st11 st8 st9">T</tspan></text>
		</g>
		<path class="st12" d="M252.4,130.6l0.6,0.1h0.8l0.4-0.1l0.2-0.2l0.1-0.3v-0.4l-0.1-0.4l-0.2-0.1l-0.4-0.2l-0.6-0.1l-0.4-0.1
			l-0.1-0.2l-0.2-0.4v-0.3l0.2-0.4l0.1-0.1l0.4-0.2h0.9l0.5,0.2"/>
		<path class="st12" d="M256,128.8h1.2"/>
		<path class="st12" d="M257.7,130.7H256v-3.6h1.7"/>
		<path class="st12" d="M260.9,130.7h-1.7v-3.6"/>
		<path class="st12" d="M262.2,128.8h1.2"/>
		<path class="st12" d="M263.9,130.7h-1.7v-3.6h1.7"/>
		<path class="st12" d="M267.5,130.3l-0.1,0.2l-0.6,0.1h-0.3l-0.6-0.1l-0.3-0.4l-0.2-0.4l-0.1-0.6v-0.5l0.1-0.7l0.2-0.4l0.3-0.3
			l0.6-0.2h0.3l0.6,0.2l0.1,0.1"/>
		<path class="st12" d="M268.5,127.1h2.1"/>
		<path class="st12" d="M269.5,130.7v-3.6"/>
	</g>
	<g>
		<g class="st5">
			<rect x="273.6" y="124.3" class="st6" width="7.3" height="5.6"/>
			<text transform="matrix(1 0 0 1 273.5566 128.3901)"><tspan x="0" y="0" class="st15 st8 st9 st10">2</tspan><tspan x="4.6" y="0" class="st15 st8 st9">1</tspan></text>
		</g>
		<g class="st5">
			<rect x="273.6" y="124.3" class="st6" width="7.3" height="5.6"/>
			<text transform="matrix(1 0 0 1 273.5547 128.3887)"><tspan x="0" y="0" class="st16 st8 st9 st10">2</tspan><tspan x="4.6" y="0" class="st16 st8 st9">1</tspan></text>
		</g>
		<path class="st3" d="M273.4,124.9l0.2-0.1l0.4-0.2h0.8l0.4,0.2l0.2,0.1l0.1,0.4v0.3l-0.1,0.6l-2.1,2h2.2"/>
		<path class="st3" d="M278.9,128.2h-2.1"/>
		<path class="st3" d="M277.9,128.2v-3.6l-0.3,0.5l-0.4,0.4l-0.4,0.1"/>
		<path class="st3" d="M272.6,114.7h7.2"/>
	</g>
	<g>
		<g class="st5">
			<rect x="256.6" y="112.4" class="st6" width="15.3" height="5.6"/>
			<text transform="matrix(1 0 0 1 256.6416 116.5103)"><tspan x="0" y="0" class="st7 st8 st9">PWR</tspan><tspan x="11.9" y="0" class="st7 st8 st9">C</tspan></text>
		</g>
		<g class="st5">
			<rect x="256.6" y="112.4" class="st6" width="15.3" height="5.6"/>
			<text transform="matrix(1 0 0 1 256.6396 116.5088)"><tspan x="0" y="0" class="st11 st8 st9">PWR</tspan><tspan x="11.9" y="0" class="st11 st8 st9">C</tspan></text>
		</g>
		<path class="st12" d="M256.8,116.3v-3.6h1.4l0.4,0.2l0.1,0.1l0.2,0.4v0.5l-0.2,0.4l-0.1,0.1l-0.4,0.1h-1.4"/>
		<path class="st12" d="M260.1,112.7l0.8,3.6l0.7-2.6l0.6,2.6l0.9-3.6"/>
		<path class="st12" d="M266.6,116.3l-1.2-1.7"/>
		<path class="st12" d="M264.5,116.3v-3.6h1.4l0.4,0.2l0.2,0.1l0.1,0.4v0.5l-0.1,0.4l-0.2,0.1l-0.4,0.1h-1.4"/>
		<path class="st12" d="M270.2,115.9l-0.1,0.2l-0.6,0.1h-0.3l-0.5-0.1l-0.4-0.4l-0.2-0.4l-0.1-0.6v-0.5l0.1-0.7l0.2-0.4l0.4-0.3
			l0.5-0.2h0.3l0.6,0.2l0.1,0.1"/>
	</g>
	<g>
		<g class="st5">
			<rect x="273.6" y="109.9" class="st6" width="7.3" height="5.6"/>
			<text transform="matrix(1 0 0 1 273.5566 113.9902)"><tspan x="0" y="0" class="st15 st8 st9 st10">2</tspan><tspan x="4.6" y="0" class="st15 st8 st9">2</tspan></text>
		</g>
		<g class="st5">
			<rect x="273.6" y="109.9" class="st6" width="7.3" height="5.6"/>
			<text transform="matrix(1 0 0 1 273.5547 113.9888)"><tspan x="0" y="0" class="st16 st8 st9 st10">2</tspan><tspan x="4.6" y="0" class="st16 st8 st9">2</tspan></text>
		</g>
		<path class="st3" d="M273.4,110.5l0.2-0.1l0.4-0.2h0.8l0.4,0.2l0.2,0.1l0.1,0.4v0.3l-0.1,0.6l-2.1,2h2.2"/>
		<path class="st3" d="M276.8,110.5l0.1-0.1l0.4-0.2h0.9l0.4,0.2l0.1,0.1l0.2,0.4v0.3l-0.2,0.6l-2,2h2.2"/>
		<path class="st3" d="M272.6,100.3h7.2"/>
	</g>
	<g>
		<g class="st5">
			<rect x="255.3" y="98" class="st6" width="16.7" height="5.6"/>
			<text transform="matrix(1 0 0 1 255.3164 102.1104)"><tspan x="0" y="0" class="st7 st8 st9">RESE</tspan><tspan x="13.8" y="0" class="st7 st8 st9">T</tspan></text>
		</g>
		<g class="st5">
			<rect x="255.3" y="98" class="st6" width="16.7" height="5.6"/>
			<text transform="matrix(1 0 0 1 255.3154 102.1089)"><tspan x="0" y="0" class="st11 st8 st9">RESE</tspan><tspan x="13.8" y="0" class="st11 st8 st9">T</tspan></text>
		</g>
		<path class="st12" d="M257.6,101.9l-1.2-1.7"/>
		<path class="st12" d="M255.5,101.9v-3.6h1.4l0.4,0.2l0.1,0.1l0.2,0.4v0.5l-0.2,0.4l-0.1,0.1l-0.4,0.1h-1.4"/>
		<path class="st12" d="M259.1,100h1.2"/>
		<path class="st12" d="M260.8,101.9h-1.7v-3.6h1.7"/>
		<path class="st12" d="M262.2,101.8l0.5,0.1h0.9l0.4-0.1l0.1-0.2l0.2-0.3v-0.4l-0.2-0.4l-0.1-0.1l-0.4-0.2l-0.6-0.1l-0.4-0.1
			l-0.2-0.2l-0.1-0.4V99l0.1-0.4l0.2-0.1l0.4-0.2h0.9l0.5,0.2"/>
		<path class="st12" d="M265.8,100h1.2"/>
		<path class="st12" d="M267.5,101.9h-1.7v-3.6h1.7"/>
		<path class="st12" d="M268.5,98.3h2.1"/>
		<path class="st12" d="M269.5,101.9v-3.6"/>
	</g>
	<g>
		<g class="st5">
			<rect x="273.6" y="95.5" class="st6" width="7.3" height="5.6"/>
			<text transform="matrix(1 0 0 1 273.5566 99.5903)"><tspan x="0" y="0" class="st15 st8 st9 st10">2</tspan><tspan x="4.6" y="0" class="st15 st8 st9">3</tspan></text>
		</g>
		<g class="st5">
			<rect x="273.6" y="95.5" class="st6" width="7.3" height="5.6"/>
			<text transform="matrix(1 0 0 1 273.5547 99.5889)"><tspan x="0" y="0" class="st16 st8 st9 st10">2</tspan><tspan x="4.6" y="0" class="st16 st8 st9">3</tspan></text>
		</g>
		<path class="st3" d="M273.4,96.1l0.2-0.1l0.4-0.2h0.8l0.4,0.2l0.2,0.1l0.1,0.4v0.3l-0.1,0.6l-2.1,2h2.2"/>
		<path class="st3" d="M276.7,95.8h2.2l-1.2,1.4h0.5l0.4,0.2l0.1,0.1l0.2,0.4v0.9l-0.2,0.3l-0.1,0.2l-0.4,0.1h-1l-0.4-0.1l-0.1-0.2"
			/>
		<path class="st3" d="M272.6,85.9h7.2"/>
	</g>
	<g>
		<g class="st5">
			<rect x="260.6" y="83.6" class="st6" width="11.4" height="5.6"/>
			<text transform="matrix(1 0 0 1 260.6006 87.7104)"><tspan x="0" y="0" class="st7 st8 st9">GN</tspan><tspan x="7.9" y="0" class="st7 st8 st9">D</tspan></text>
		</g>
		<g class="st5">
			<rect x="260.6" y="83.6" class="st6" width="11.4" height="5.6"/>
			<text transform="matrix(1 0 0 1 260.5986 87.709)"><tspan x="0" y="0" class="st11 st8 st9">GN</tspan><tspan x="7.9" y="0" class="st11 st8 st9">D</tspan></text>
		</g>
		<path class="st12" d="M262.7,84.1l-0.4-0.2h-0.5l-0.5,0.2l-0.4,0.3l-0.1,0.4l-0.1,0.7V86l0.1,0.6l0.1,0.4l0.4,0.4l0.5,0.1h0.4
			l0.5-0.1l0.2-0.2V86h-0.7"/>
		<path class="st12" d="M264.4,87.5v-3.6l2.1,3.6v-3.6"/>
		<path class="st12" d="M268.1,87.5v-3.6h0.9l0.5,0.2l0.4,0.3l0.2,0.4l0.1,0.7V86l-0.1,0.6l-0.2,0.4l-0.4,0.4l-0.5,0.1H268.1"/>
	</g>
	<g>
		<g class="st5">
			<rect x="273.6" y="81.1" class="st6" width="7.3" height="5.6"/>
			<text transform="matrix(1 0 0 1 273.5566 85.1904)"><tspan x="0" y="0" class="st15 st8 st9 st10">2</tspan><tspan x="4.6" y="0" class="st15 st8 st9">4</tspan></text>
		</g>
		<g class="st5">
			<rect x="273.6" y="81.1" class="st6" width="7.3" height="5.6"/>
			<text transform="matrix(1 0 0 1 273.5547 85.189)"><tspan x="0" y="0" class="st16 st8 st9 st10">2</tspan><tspan x="4.6" y="0" class="st16 st8 st9">4</tspan></text>
		</g>
		<path class="st3" d="M273.4,81.7l0.2-0.1l0.4-0.2h0.8l0.4,0.2l0.2,0.1l0.1,0.4v0.3l-0.1,0.6l-2.1,2h2.2"/>
		<path class="st3" d="M278.6,82.6V85"/>
		<path class="st3" d="M277.7,81.2l-0.9,2.5h2.2"/>
		<path class="st3" d="M143,114.7h-7.2"/>
	</g>
	<g>
		<g class="st5">
			<rect x="144.4" y="112.4" class="st6" width="15.7" height="5.6"/>
			<text transform="matrix(1 0 0 1 144.4404 116.5103)"><tspan x="0" y="0" class="st7 st8 st9">PWM</tspan><tspan x="13.1" y="0" class="st7 st8 st9">2</tspan></text>
		</g>
		<g class="st5">
			<rect x="144.4" y="112.4" class="st6" width="15.7" height="5.6"/>
			<text transform="matrix(1 0 0 1 144.4385 116.5088)"><tspan x="0" y="0" class="st11 st8 st9">PWM</tspan><tspan x="13.1" y="0" class="st11 st8 st9">2</tspan></text>
		</g>
		<path class="st12" d="M145.4,116.3v-3.6h1.4l0.4,0.2l0.2,0.1l0.1,0.4v0.5l-0.1,0.4l-0.2,0.1l-0.4,0.1h-1.4"/>
		<path class="st12" d="M148.8,112.7l0.9,3.6l0.6-2.6l0.7,2.6l0.9-3.6"/>
		<path class="st12" d="M153.2,116.3v-3.6l1.2,2.6l1.2-2.6v3.6"/>
		<path class="st12" d="M157.1,113.1l0.2-0.1l0.3-0.2h0.9l0.4,0.2l0.2,0.1l0.1,0.4v0.3l-0.1,0.6l-2.1,2h2.2"/>
	</g>
	<g>
		<g class="st5">
			<rect x="138.1" y="109.9" class="st6" width="3.9" height="5.6"/>
			<text transform="matrix(1 0 0 1 138.0781 113.9902)" class="st15 st8 st9">3</text>
		</g>
		<g class="st5">
			<rect x="138.1" y="109.9" class="st6" width="3.9" height="5.6"/>
			<text transform="matrix(1 0 0 1 138.0762 113.9888)" class="st16 st8 st9">3</text>
		</g>
		<path class="st3" d="M138.2,110.2h2.2l-1.2,1.4h0.5l0.4,0.2l0.1,0.1l0.2,0.4v0.9l-0.2,0.3l-0.1,0.2l-0.4,0.1h-1l-0.4-0.1l-0.1-0.2
			"/>
		<path class="st3" d="M143,129.1h-7.2"/>
	</g>
	<g>
		<g class="st5">
			<rect x="144.4" y="126.8" class="st6" width="9.4" height="5.6"/>
			<text transform="matrix(1 0 0 1 144.4404 130.9102)"><tspan x="0" y="0" class="st7 st8 st9">IO</tspan><tspan x="6.7" y="0" class="st7 st8 st9">4</tspan></text>
		</g>
		<g class="st5">
			<rect x="144.4" y="126.8" class="st6" width="9.4" height="5.6"/>
			<text transform="matrix(1 0 0 1 144.4385 130.9087)"><tspan x="0" y="0" class="st11 st8 st9">IO</tspan><tspan x="6.7" y="0" class="st11 st8 st9">4</tspan></text>
		</g>
		<path class="st12" d="M145.4,130.7v-3.6"/>
		<path class="st12" d="M147.9,127.1h0.6l0.4,0.2l0.4,0.3l0.1,0.7v1.2l-0.1,0.7l-0.4,0.4l-0.4,0.1h-0.6l-0.4-0.1l-0.4-0.4l-0.1-0.7
			v-1.2l0.1-0.7l0.4-0.3L147.9,127.1"/>
		<path class="st12" d="M152.5,128.3v2.4"/>
		<path class="st12" d="M151.6,127l-0.9,2.5h2.2"/>
	</g>
	<g>
		<g class="st5">
			<rect x="138.1" y="124.3" class="st6" width="3.9" height="5.6"/>
			<text transform="matrix(1 0 0 1 138.0781 128.3901)" class="st15 st8 st9">4</text>
		</g>
		<g class="st5">
			<rect x="138.1" y="124.3" class="st6" width="3.9" height="5.6"/>
			<text transform="matrix(1 0 0 1 138.0762 128.3887)" class="st16 st8 st9">4</text>
		</g>
		<path class="st3" d="M140,125.8v2.4"/>
		<path class="st3" d="M139.2,124.4l-0.9,2.5h2.2"/>
		<path class="st3" d="M143,143.5h-7.2"/>
		<path class="st3" d="M134.7,142.4l2.2,2.2"/>
		<path class="st3" d="M136.9,142.4l-2.2,2.2"/>
	</g>
	<g>
		<g class="st5">
			<rect x="144.4" y="141.2" class="st6" width="7.8" height="5.6"/>
			<text transform="matrix(1 0 0 1 144.4404 145.3105)"><tspan x="0" y="0" class="st7 st8 st9">N</tspan><tspan x="4.3" y="0" class="st7 st8 st9">C</tspan></text>
		</g>
		<g class="st5">
			<rect x="144.4" y="141.2" class="st6" width="7.8" height="5.6"/>
			<text transform="matrix(1 0 0 1 144.4385 145.3086)"><tspan x="0" y="0" class="st11 st8 st9">N</tspan><tspan x="4.3" y="0" class="st11 st8 st9">C</tspan></text>
		</g>
		<path class="st12" d="M145.4,145.1v-3.6l2.1,3.6v-3.6"/>
		<path class="st12" d="M151.3,144.7l-0.1,0.2l-0.5,0.1h-0.4l-0.5-0.1l-0.4-0.4l-0.1-0.4l-0.2-0.6v-0.5l0.2-0.7l0.1-0.4l0.4-0.3
			l0.5-0.2h0.4l0.5,0.2l0.1,0.1"/>
	</g>
	<g>
		<g class="st5">
			<rect x="138.1" y="138.7" class="st6" width="3.9" height="5.6"/>
			<text transform="matrix(1 0 0 1 138.0781 142.7905)" class="st15 st8 st9">5</text>
		</g>
		<g class="st5">
			<rect x="138.1" y="138.7" class="st6" width="3.9" height="5.6"/>
			<text transform="matrix(1 0 0 1 138.0762 142.7886)" class="st16 st8 st9">5</text>
		</g>
		<path class="st3" d="M140.2,139h-1.7l-0.2,1.7l0.2-0.1l0.3-0.2h0.9l0.4,0.2l0.1,0.1l0.2,0.4v0.9l-0.2,0.3l-0.1,0.2l-0.4,0.1h-0.9
			l-0.3-0.1l-0.2-0.2"/>
		<path class="st3" d="M143,157.9h-7.2"/>
	</g>
	<g>
		<g class="st5">
			<rect x="144.4" y="155.6" class="st6" width="12.5" height="5.6"/>
			<text transform="matrix(1 0 0 1 144.4404 159.7104)"><tspan x="0" y="0" class="st7 st8 st9">STA</tspan><tspan x="9.6" y="0" class="st7 st8 st9">T</tspan></text>
		</g>
		<g class="st5">
			<rect x="144.4" y="155.6" class="st6" width="12.5" height="5.6"/>
			<text transform="matrix(1 0 0 1 144.4385 159.709)"><tspan x="0" y="0" class="st11 st8 st9">STA</tspan><tspan x="9.6" y="0" class="st11 st8 st9">T</tspan></text>
		</g>
		<path class="st12" d="M145.3,159.4l0.5,0.1h0.9l0.4-0.1l0.1-0.2l0.2-0.3v-0.4l-0.2-0.4L147,158l-0.4-0.2l-0.6-0.1l-0.4-0.1
			l-0.2-0.2l-0.1-0.4v-0.3l0.1-0.4l0.2-0.1l0.4-0.2h0.8l0.6,0.2"/>
		<path class="st12" d="M148.4,155.9h2"/>
		<path class="st12" d="M149.4,159.5v-3.6"/>
		<path class="st12" d="M151.5,158.5h1.7"/>
		<path class="st12" d="M151.1,159.5l1.2-3.6l1.2,3.6"/>
		<path class="st12" d="M154.2,155.9h2"/>
		<path class="st12" d="M155.2,159.5v-3.6"/>
	</g>
	<g>
		<g class="st5">
			<rect x="138.1" y="153.1" class="st6" width="3.9" height="5.6"/>
			<text transform="matrix(1 0 0 1 138.0781 157.1904)" class="st15 st8 st9">6</text>
		</g>
		<g class="st5">
			<rect x="138.1" y="153.1" class="st6" width="3.9" height="5.6"/>
			<text transform="matrix(1 0 0 1 138.0762 157.189)" class="st16 st8 st9">6</text>
		</g>
		<path class="st3" d="M140,153.4h-0.6l-0.4,0.2l-0.2,0.1l-0.3,0.5l-0.2,0.7v1.4l0.2,0.3l0.1,0.2l0.4,0.1h0.6l0.4-0.1l0.1-0.2
			l0.2-0.3v-0.9l-0.2-0.4L140,155l-0.4-0.2H139l-0.4,0.2l-0.1,0.1l-0.2,0.4"/>
		<path class="st3" d="M143,172.3h-7.2"/>
		<path class="st3" d="M134.7,171.2l2.2,2.2"/>
		<path class="st3" d="M136.9,171.2l-2.2,2.2"/>
	</g>
	<g>
		<g class="st5">
			<rect x="144.4" y="170" class="st6" width="7.8" height="5.6"/>
			<text transform="matrix(1 0 0 1 144.4404 174.1104)"><tspan x="0" y="0" class="st7 st8 st9">N</tspan><tspan x="4.3" y="0" class="st7 st8 st9">C</tspan></text>
		</g>
		<g class="st5">
			<rect x="144.4" y="170" class="st6" width="7.8" height="5.6"/>
			<text transform="matrix(1 0 0 1 144.4385 174.1089)"><tspan x="0" y="0" class="st11 st8 st9">N</tspan><tspan x="4.3" y="0" class="st11 st8 st9">C</tspan></text>
		</g>
		<path class="st12" d="M145.4,173.9v-3.6l2.1,3.6v-3.6"/>
		<path class="st12" d="M151.3,173.5l-0.1,0.2l-0.5,0.1h-0.4l-0.5-0.1l-0.4-0.4l-0.1-0.4l-0.2-0.6v-0.5l0.2-0.7l0.1-0.4l0.4-0.3
			l0.5-0.2h0.4l0.5,0.2l0.1,0.1"/>
	</g>
	<g>
		<g class="st5">
			<rect x="138.1" y="167.5" class="st6" width="3.9" height="5.6"/>
			<text transform="matrix(1 0 0 1 138.0781 171.5903)" class="st15 st8 st9">7</text>
		</g>
		<g class="st5">
			<rect x="138.1" y="167.5" class="st6" width="3.9" height="5.6"/>
			<text transform="matrix(1 0 0 1 138.0762 171.5889)" class="st16 st8 st9">7</text>
		</g>
		<path class="st3" d="M138.2,167.8h2.4l-1.5,3.6"/>
		<path class="st3" d="M143,186.7h-7.2"/>
		<path class="st3" d="M134.7,185.6l2.2,2.2"/>
		<path class="st3" d="M136.9,185.6l-2.2,2.2"/>
	</g>
	<g>
		<g class="st5">
			<rect x="144.4" y="184.4" class="st6" width="7.8" height="5.6"/>
			<text transform="matrix(1 0 0 1 144.4404 188.5103)"><tspan x="0" y="0" class="st7 st8 st9">N</tspan><tspan x="4.3" y="0" class="st7 st8 st9">C</tspan></text>
		</g>
		<g class="st5">
			<rect x="144.4" y="184.4" class="st6" width="7.8" height="5.6"/>
			<text transform="matrix(1 0 0 1 144.4385 188.5088)"><tspan x="0" y="0" class="st11 st8 st9">N</tspan><tspan x="4.3" y="0" class="st11 st8 st9">C</tspan></text>
		</g>
		<path class="st12" d="M145.4,188.3v-3.6l2.1,3.6v-3.6"/>
		<path class="st12" d="M151.3,187.9l-0.1,0.2l-0.5,0.1h-0.4l-0.5-0.1l-0.4-0.4l-0.1-0.4l-0.2-0.6v-0.5l0.2-0.7l0.1-0.4l0.4-0.3
			l0.5-0.2h0.4l0.5,0.2l0.1,0.1"/>
	</g>
	<g>
		<g class="st5">
			<rect x="138.1" y="181.9" class="st6" width="3.9" height="5.6"/>
			<text transform="matrix(1 0 0 1 138.0781 185.9902)" class="st15 st8 st9">8</text>
		</g>
		<g class="st5">
			<rect x="138.1" y="181.9" class="st6" width="3.9" height="5.6"/>
			<text transform="matrix(1 0 0 1 138.0762 185.9888)" class="st16 st8 st9">8</text>
		</g>
		<path class="st3" d="M139,183.8l-0.4-0.2l-0.1-0.1l-0.2-0.4v-0.1l0.2-0.4l0.1-0.1l0.4-0.2h0.6l0.4,0.2l0.1,0.1l0.2,0.4v0.1
			l-0.2,0.4l-0.1,0.1l-0.4,0.2H139l-0.4,0.1l-0.1,0.1l-0.2,0.4v0.7l0.2,0.3l0.1,0.2l0.4,0.1h0.6l0.4-0.1l0.1-0.2l0.2-0.3v-0.7
			l-0.2-0.4l-0.1-0.1l-0.4-0.1"/>
		<path class="st3" d="M157.4,201.1v7.2"/>
	</g>
	<g>
		<g transform="rotate(-90 79500 34800)">
			<g class="st5">
				<rect x="114100.7" y="-44546.2" class="st6" width="6.9" height="7.7"/>
				<text transform="matrix(1 0 0 1 114100.3281 -44541.7031)" class="st7 st8 st9">IO1</text>
			</g>
			<g class="st5">
				<rect x="114100.7" y="-44546.2" class="st6" width="6.9" height="7.7"/>
				<text transform="matrix(1 0 0 1 114100.3281 -44541.707)" class="st11 st8 st9">IO1</text>
			</g>
		</g>
		<path class="st12" d="M159,198.6h-3.6"/>
		<path class="st12" d="M155.4,196.1v-0.6l0.2-0.4l0.3-0.4l0.7-0.1h1.2l0.7,0.1l0.4,0.4l0.1,0.4v0.6l-0.1,0.4l-0.4,0.4l-0.7,0.1
			h-1.2l-0.7-0.1l-0.3-0.4L155.4,196.1"/>
		<path class="st12" d="M159,191.2v2.1"/>
		<path class="st12" d="M159,192.3h-3.6l0.5,0.3l0.4,0.4l0.1,0.4"/>
	</g>
	<g>
		<g transform="rotate(-90 79400 35500)">
			<g class="st5">
				<rect x="114691.2" y="-43746.5" class="st6" width="8.3" height="2.6"/>
				<text transform="matrix(1 0 0 1 114693.9688 -43745.2422)" class="st15 st8 st9">9</text>
			</g>
			<g class="st5">
				<rect x="114691.2" y="-43746.5" class="st6" width="8.3" height="2.6"/>
				<text transform="matrix(1 0 0 1 114693.9688 -43745.2422)" class="st16 st8 st9">9</text>
			</g>
		</g>
		<path class="st3" d="M156.5,205.4v-0.6l-0.1-0.4l-0.2-0.2l-0.5-0.3l-0.6-0.2h-1.4l-0.4,0.2l-0.1,0.1l-0.2,0.4v0.6l0.2,0.4l0.1,0.1
			l0.4,0.2h0.9l0.3-0.2l0.2-0.1l0.1-0.4v-0.6L155,204l-0.2-0.1l-0.3-0.2"/>
	</g>
	<g>
		<g transform="rotate(-90 86020 25000)">
			<g class="st5">
				<rect x="110887" y="-60823.3" class="st6" width="7.7" height="15.4"/>
				<text transform="matrix(1 0 0 1 110883.1875 -60815.3789)"><tspan x="0" y="0" class="st7 st8 st9">JDY-</tspan><tspan x="12.8" y="0" class="st7 st8 st9">1</tspan></text>
			</g>
			<g class="st5">
				<rect x="110887" y="-60823.3" class="st6" width="7.7" height="15.4"/>
				<text transform="matrix(1 0 0 1 110883.1875 -60815.3828)"><tspan x="0" y="0" class="st11 st8 st9">JDY-</tspan><tspan x="12.8" y="0" class="st11 st8 st9">1</tspan></text>
			</g>
		</g>
		<path class="st12" d="M202.3,137.5h2.6l0.5,0.2l0.4,0.4l0.1,0.5v0.3"/>
		<path class="st12" d="M205.9,135.9h-3.6V135l0.2-0.5l0.3-0.4l0.4-0.2l0.7-0.1h0.5l0.6,0.1l0.4,0.2l0.4,0.4l0.1,0.5V135.9"/>
		<path class="st12" d="M204.2,131.6h1.7"/>
		<path class="st12" d="M202.3,132.8l1.9-1.2l-1.9-1.2"/>
		<path class="st12" d="M204.6,129.2v-2.7"/>
		<path class="st12" d="M205.9,122.8v2"/>
		<path class="st12" d="M205.9,123.9h-3.6l0.5,0.4l0.4,0.3l0.1,0.4"/>
		<path class="st12" d="M202.3,119.8v0.6l0.2,0.4l0.1,0.1l0.5,0.4l0.7,0.2h1.4l0.3-0.2l0.2-0.1l0.1-0.4v-0.6l-0.1-0.4l-0.2-0.2
			l-0.3-0.1h-0.9l-0.4,0.1l-0.1,0.2l-0.2,0.4v0.6l0.2,0.4l0.1,0.1l0.4,0.2"/>
	</g>
</g>
<g>
	<g>
		<rect x="74.6" y="140.6" class="st4" width="14.4" height="5.8"/>
	</g>
	<g>
		<path class="st3" d="M89,143.5h3.6"/>
		<path class="st3" d="M74.6,143.5H71"/>
	</g>
</g>
<path class="st17" d="M135.8,114.7H92.6"/>
<path class="st17" d="M107,237.1v-93.6"/>
<path class="st17" d="M107,143.5H92.6"/>
<path class="st17" d="M92.6,129.1h28.8"/>
<path class="st17" d="M121.4,129.1v93.6"/>
<path class="st17" d="M229.4,222.7h-108"/>
<path class="st17" d="M56.6,114.7H71"/>
<path class="st17" d="M35,143.5H20.6"/>
<path class="st17" d="M20.6,143.5v14.4"/>
<path class="st17" d="M35,129.1H20.6"/>
<path class="st17" d="M20.6,129.1v14.4"/>
<path class="st17" d="M35,114.7H20.6"/>
<path class="st17" d="M20.6,114.7v14.4"/>
<path class="st17" d="M35,100.3H20.6"/>
<path class="st17" d="M20.6,100.3v14.4"/>
<path class="st17" d="M56.6,100.3H71"/>
<path class="st17" d="M135.8,100.3H92.6"/>
<path class="st17" d="M294.2,85.9v14.4"/>
<path class="st17" d="M56.6,129.1H71"/>
<path class="st17" d="M56.6,143.5H71"/>
<path class="st17" d="M229.4,208.3v14.4"/>
<path class="st17" d="M279.8,85.9h14.4"/>
<path class="st17" d="M121.4,85.9V71.5"/>
<path class="st17" d="M135.8,85.9h-14.4"/>
<path class="st17" d="M243.8,208.3v28.8"/>
<path class="st17" d="M243.8,237.1H107"/>
<g>
	<circle class="st18" cx="20.6" cy="143.5" r="1.4"/>
</g>
<g>
	<circle class="st18" cx="20.6" cy="114.7" r="1.4"/>
</g>
<g>
	<circle class="st18" cx="20.6" cy="129.1" r="1.4"/>
</g>
</svg>
