<?xml version="1.0" encoding="utf-8"?>
<!-- Generator: Adobe Illustrator 25.0.0, SVG Export Plug-In . SVG Version: 6.00 Build 0)  -->
<svg version="1.1" id="Capa_1" xmlns:svg="http://www.w3.org/2000/svg"
	 xmlns="http://www.w3.org/2000/svg" xmlns:xlink="http://www.w3.org/1999/xlink" x="0px" y="0px" viewBox="0 0 348 236.1"
	 style="enable-background:new 0 0 348 236.1;" xml:space="preserve">
<style type="text/css">
	.st0{fill:#FFFFC2;fill-opacity:0.6;}
	
		.st1{fill:#840000;fill-opacity:0;stroke:#840000;stroke-width:0.432;stroke-linecap:round;stroke-linejoin:round;stroke-miterlimit:10;}
	.st2{opacity:0;enable-background:new    ;}
	.st3{fill:none;}
	.st4{fill:#008484;}
	.st5{font-family:'ArialMT';}
	.st6{font-size:4.752px;}
	.st7{fill:none;stroke:#008484;stroke-width:0.432;stroke-linecap:round;stroke-linejoin:round;}
	
		.st8{fill:#008484;fill-opacity:0;stroke:#008484;stroke-width:0.432;stroke-linecap:round;stroke-linejoin:round;stroke-miterlimit:10;}
	.st9{fill:#840000;}
	.st10{fill:none;stroke:#840000;stroke-width:0.432;stroke-linecap:round;stroke-linejoin:round;}
	.st11{fill:none;stroke:#840000;stroke-width:0.432;stroke-linecap:round;stroke-linejoin:round;stroke-miterlimit:10;}
	.st12{letter-spacing:1;}
	
		.st13{fill-rule:evenodd;clip-rule:evenodd;fill:#840000;stroke:#840000;stroke-width:0.432;stroke-linecap:round;stroke-linejoin:round;stroke-miterlimit:10;}
	
		.st14{fill:#008400;fill-opacity:0;stroke:#008400;stroke-width:0.432;stroke-linecap:round;stroke-linejoin:round;stroke-miterlimit:10;}
	.st15{fill:none;stroke:#000000;stroke-width:0.432;stroke-linecap:round;stroke-linejoin:round;}
	.st16{fill-opacity:0;stroke:#000000;stroke-width:0.432;stroke-linecap:round;stroke-linejoin:round;stroke-miterlimit:10;}
	.st17{fill:#008400;stroke:#008400;stroke-width:0.72;stroke-linecap:round;stroke-linejoin:round;stroke-miterlimit:10;}
</style>
<desc>Picture generated by Eeschema-SVG</desc>
<g transform="translate(0 0) scale(1 1)">
</g>
<g>
	<g>
		<rect x="268.7" y="69.5" class="st0" width="57.6" height="115.2"/>
	</g>
	<g>
		<rect x="268.7" y="69.5" class="st1" width="57.6" height="115.2"/>
		<rect x="268.7" y="69.5" class="st1" width="57.6" height="115.2"/>
		<path class="st1" d="M268.7,83.9h-7.2"/>
	</g>
	<g>
		<g class="st2">
			<rect x="271.6" y="81.6" class="st3" width="11.4" height="5.6"/>
			<text transform="matrix(1 0 0 1 271.5507 85.6635)"><tspan x="0" y="0" class="st4 st5 st6">GN</tspan><tspan x="7.9" y="0" class="st4 st5 st6">D</tspan></text>
		</g>
		<g class="st2">
			<rect x="271.5" y="81.6" class="st3" width="11.4" height="5.6"/>
			<text transform="matrix(1 0 0 1 271.5487 85.6615)"><tspan x="0" y="0" class="st7 st5 st6">GN</tspan><tspan x="7.9" y="0" class="st7 st5 st6">D</tspan></text>
		</g>
		<path class="st8" d="M274.5,82.1l-0.4-0.2h-0.5l-0.5,0.2l-0.4,0.3l-0.2,0.4l-0.1,0.7v0.5l0.1,0.6l0.2,0.4l0.4,0.4l0.5,0.1h0.3
			l0.6-0.1l0.1-0.2v-1.2h-0.7"/>
		<path class="st8" d="M276.2,85.4v-3.6l2.1,3.6v-3.6"/>
		<path class="st8" d="M280,85.4v-3.6h0.9l0.5,0.2l0.4,0.3l0.1,0.4l0.1,0.7v0.5l-0.1,0.6l-0.1,0.4l-0.4,0.4l-0.5,0.1H280"/>
	</g>
	<g>
		<g class="st2">
			<text transform="matrix(1 0 0 1 263.6825 83.143)" class="st9 st5 st6">~</text>
		</g>
		<g class="st2">
			<text transform="matrix(1 0 0 1 263.6825 83.143)" class="st10 st5 st6">~</text>
		</g>
		<path class="st1" d="M268.7,170.3h-7.2"/>
	</g>
	<g>
		<g class="st2">
			<rect x="271.6" y="168" class="st3" width="8.6" height="5.6"/>
			<text transform="matrix(1 0 0 1 271.5507 172.0634)"><tspan x="0" y="0" class="st4 st5 st6">IN</tspan><tspan x="5.7" y="0" class="st4 st5 st6">T</tspan></text>
		</g>
		<g class="st2">
			<rect x="271.5" y="168" class="st3" width="8.6" height="5.6"/>
			<text transform="matrix(1 0 0 1 271.5487 172.0619)"><tspan x="0" y="0" class="st7 st5 st6">IN</tspan><tspan x="5.7" y="0" class="st7 st5 st6">T</tspan></text>
		</g>
		<path class="st8" d="M272.6,171.8v-3.6"/>
		<path class="st8" d="M274.3,171.8v-3.6l2.1,3.6v-3.6"/>
		<path class="st8" d="M277.5,168.2h2.1"/>
		<path class="st8" d="M278.6,171.8v-3.6"/>
	</g>
	<g>
		<g class="st2">
			<text transform="matrix(1 0 0 1 263.6825 169.5429)" class="st9 st5 st6">~</text>
		</g>
		<g class="st2">
			<text transform="matrix(1 0 0 1 263.6825 169.5429)" class="st10 st5 st6">~</text>
		</g>
		<path class="st1" d="M268.7,112.7h-7.2"/>
	</g>
	<g>
		<g class="st2">
			<rect x="271.6" y="110.4" class="st3" width="15.3" height="5.6"/>
			<text transform="matrix(1 0 0 1 271.5507 114.4633)"><tspan x="0" y="0" class="st4 st5 st6">PWR</tspan><tspan x="11.9" y="0" class="st4 st5 st6">C</tspan></text>
		</g>
		<g class="st2">
			<rect x="271.5" y="110.4" class="st3" width="15.3" height="5.6"/>
			<text transform="matrix(1 0 0 1 271.5487 114.4618)"><tspan x="0" y="0" class="st7 st5 st6">PWR</tspan><tspan x="11.9" y="0" class="st7 st5 st6">C</tspan></text>
		</g>
		<path class="st8" d="M272.6,114.2v-3.6h1.4l0.4,0.2l0.2,0.1l0.1,0.4v0.5l-0.1,0.4l-0.2,0.1l-0.4,0.1h-1.4"/>
		<path class="st8" d="M275.9,110.6l0.9,3.6l0.6-2.6l0.7,2.6l0.9-3.6"/>
		<path class="st8" d="M282.4,114.2l-1.2-1.7"/>
		<path class="st8" d="M280.3,114.2v-3.6h1.4l0.3,0.2l0.2,0.1l0.1,0.4v0.5l-0.1,0.4l-0.2,0.1l-0.3,0.1h-1.4"/>
		<path class="st8" d="M286,113.9l-0.1,0.2l-0.5,0.1h-0.4l-0.5-0.1l-0.4-0.4l-0.1-0.4l-0.2-0.6v-0.5l0.2-0.7l0.1-0.4l0.4-0.3
			l0.5-0.2h0.4l0.5,0.2l0.1,0.1"/>
	</g>
	<g>
		<g class="st2">
			<text transform="matrix(1 0 0 1 263.6825 111.9433)" class="st9 st5 st6">~</text>
		</g>
		<g class="st2">
			<text transform="matrix(1 0 0 1 263.6825 111.9433)" class="st10 st5 st6">~</text>
		</g>
		<path class="st1" d="M268.7,155.9h-7.2"/>
	</g>
	<g>
		<g class="st2">
			<rect x="271.6" y="153.6" class="st3" width="11.1" height="5.6"/>
			<text transform="matrix(1 0 0 1 271.5507 157.6635)"><tspan x="0" y="0" class="st4 st5 st6">RX</tspan><tspan x="7.7" y="0" class="st4 st5 st6">D</tspan></text>
		</g>
		<g class="st2">
			<rect x="271.5" y="153.6" class="st3" width="11.1" height="5.6"/>
			<text transform="matrix(1 0 0 1 271.5487 157.6615)"><tspan x="0" y="0" class="st7 st5 st6">RX</tspan><tspan x="7.7" y="0" class="st7 st5 st6">D</tspan></text>
		</g>
		<path class="st8" d="M274.6,157.4l-1.2-1.7"/>
		<path class="st8" d="M272.6,157.4v-3.6h1.4l0.4,0.2l0.2,0.1l0.1,0.4v0.5l-0.1,0.4l-0.2,0.1l-0.4,0.1h-1.4"/>
		<path class="st8" d="M275.9,153.8l2.4,3.6"/>
		<path class="st8" d="M278.2,153.8l-2.4,3.6"/>
		<path class="st8" d="M279.6,157.4v-3.6h0.9l0.5,0.2l0.4,0.3l0.1,0.4l0.2,0.7v0.5l-0.2,0.6l-0.1,0.4l-0.4,0.4l-0.5,0.1H279.6"/>
	</g>
	<g>
		<g class="st2">
			<text transform="matrix(1 0 0 1 263.6825 155.143)" class="st9 st5 st6">~</text>
		</g>
		<g class="st2">
			<text transform="matrix(1 0 0 1 263.6825 155.143)" class="st10 st5 st6">~</text>
		</g>
		<path class="st1" d="M268.7,141.5h-7.2"/>
	</g>
	<g>
		<g class="st2">
			<rect x="271.6" y="139.2" class="st3" width="10.2" height="5.6"/>
			<text transform="matrix(1 0 0 1 271.5507 143.2631)"><tspan x="0" y="0" class="st4 st5 st6">TX</tspan><tspan x="6.8" y="0" class="st4 st5 st6">D</tspan></text>
		</g>
		<g class="st2">
			<rect x="271.5" y="139.2" class="st3" width="10.2" height="5.6"/>
			<text transform="matrix(1 0 0 1 271.5487 143.2616)"><tspan x="0" y="0" class="st7 st5 st6">TX</tspan><tspan x="6.8" y="0" class="st7 st5 st6">D</tspan></text>
		</g>
		<path class="st8" d="M272.1,139.4h2.1"/>
		<path class="st8" d="M273.1,143v-3.6"/>
		<path class="st8" d="M275,139.4l2.4,3.6"/>
		<path class="st8" d="M277.4,139.4L275,143"/>
		<path class="st8" d="M278.8,143v-3.6h0.9l0.5,0.2l0.4,0.3l0.1,0.4l0.2,0.7v0.5l-0.2,0.6l-0.1,0.4l-0.4,0.4l-0.5,0.1H278.8"/>
	</g>
	<g>
		<g class="st2">
			<text transform="matrix(1 0 0 1 263.6825 140.7431)" class="st9 st5 st6">~</text>
		</g>
		<g class="st2">
			<text transform="matrix(1 0 0 1 263.6825 140.7431)" class="st10 st5 st6">~</text>
		</g>
		<path class="st1" d="M297.5,69.5v-7.2"/>
	</g>
	<g>
		<g transform="rotate(-90 52500 35400)">
			<g class="st2">
				<rect x="87819.6" y="-16807.1" class="st3" width="6" height="10"/>
				<text transform="matrix(1 0 0 1 87817.625 -16801.0117)" class="st4 st5 st6">VCC</text>
			</g>
			<g class="st2">
				<rect x="87819.6" y="-16807.1" class="st3" width="6" height="10"/>
				<text transform="matrix(1 0 0 1 87817.625 -16801.0137)" class="st7 st5 st6">VCC</text>
			</g>
		</g>
		<path class="st8" d="M295.5,82.5l3.6-1.2l-3.6-1.2"/>
		<path class="st8" d="M298.7,76.8l0.2,0.1l0.1,0.6v0.3l-0.1,0.5l-0.4,0.4l-0.4,0.2l-0.6,0.1H297l-0.7-0.1l-0.4-0.2l-0.3-0.4
			l-0.2-0.5v-0.3l0.2-0.6l0.1-0.1"/>
		<path class="st8" d="M298.7,73.2l0.2,0.1l0.1,0.6v0.3l-0.1,0.5l-0.4,0.4l-0.4,0.2l-0.6,0.1H297l-0.7-0.1l-0.4-0.2l-0.3-0.4
			l-0.2-0.5v-0.3l0.2-0.6l0.1-0.1"/>
	</g>
	<g>
		<g transform="rotate(-90 52400 34500)">
			<g class="st2">
				<text transform="matrix(1 0 0 1 86832.75 -17603.25)" class="st9 st5 st6">~</text>
			</g>
			<g class="st2">
				<text transform="matrix(1 0 0 1 86832.75 -17603.25)" class="st10 st5 st6">~</text>
			</g>
		</g>
	</g>
	<g>
		<g class="st2">
			<rect x="290.8" y="124.9" class="st3" width="12" height="5.6"/>
			<text transform="matrix(1 0 0 1 290.8358 129.0072)"><tspan x="0" y="0" class="st4 st5 st6">MC</tspan><tspan x="8.5" y="0" class="st4 st5 st6">U</tspan></text>
		</g>
		<g class="st2">
			<rect x="290.8" y="124.9" class="st3" width="12" height="5.6"/>
			<text transform="matrix(1 0 0 1 290.8339 129.0058)"><tspan x="0" y="0" class="st7 st5 st6">MC</tspan><tspan x="8.5" y="0" class="st7 st5 st6">U</tspan></text>
		</g>
		<path class="st8" d="M291.4,128.8v-3.6l1.2,2.6l1.2-2.6v3.6"/>
		<path class="st8" d="M297.5,128.4l-0.1,0.2l-0.5,0.1h-0.4l-0.5-0.1l-0.4-0.4l-0.1-0.4l-0.2-0.6v-0.5l0.2-0.7l0.1-0.4l0.4-0.3
			l0.5-0.2h0.4l0.5,0.2l0.1,0.1"/>
		<path class="st8" d="M299.1,125.2v3l0.1,0.3l0.2,0.2l0.3,0.1h0.7l0.4-0.1l0.1-0.2l0.1-0.3v-3"/>
	</g>
</g>
<g>
	<g>
		<path class="st11" d="M230.9,103.7h3.6"/>
		<path class="st11" d="M232.3,105.5h0.7"/>
		<path class="st11" d="M232.7,101.9v-3.6"/>
		<path class="st11" d="M236.3,101.9h-7.2"/>
	</g>
</g>
<g>
	<g>
		<path class="st11" d="M295.3,44.3l2.2-3.6"/>
		<path class="st11" d="M297.5,47.9v-7.2"/>
		<path class="st11" d="M297.5,40.7l2.2,3.6"/>
	</g>
	<g>
		<g class="st2">
			<rect x="292.3" y="33.3" class="st3" width="16.6" height="5.6"/>
			<text transform="matrix(1 0 0 1 292.2753 37.3515)"><tspan x="0" y="0" class="st4 st5 st6 st12">+3.3</tspan><tspan x="13.4" y="0" class="st4 st5 st6">V</tspan></text>
		</g>
		<g class="st2">
			<rect x="292.3" y="33.3" class="st3" width="16.6" height="5.6"/>
			<text transform="matrix(1 0 0 1 292.2733 37.3495)"><tspan x="0" y="0" class="st7 st5 st6 st12">+3.3</tspan><tspan x="13.4" y="0" class="st7 st5 st6">V</tspan></text>
		</g>
		<path class="st8" d="M291.4,35.8h2.7"/>
		<path class="st8" d="M292.7,37.1v-2.7"/>
		<path class="st8" d="M295.5,33.5h2.2l-1.2,1.4h0.5l0.4,0.2l0.1,0.1l0.2,0.4v0.9l-0.2,0.3l-0.1,0.2l-0.4,0.1h-1l-0.4-0.1l-0.1-0.2"
			/>
		<path class="st8" d="M299.2,36.8l0.1,0.2l-0.1,0.1l-0.1-0.1L299.2,36.8v0.4"/>
		<path class="st8" d="M300.6,33.5h2.2l-1.2,1.4h0.6l0.3,0.2l0.2,0.1l0.1,0.4v0.9l-0.1,0.3l-0.2,0.2l-0.3,0.1h-1.1l-0.4-0.1
			l-0.1-0.2"/>
		<path class="st8" d="M303.8,33.5l1.2,3.6l1.2-3.6"/>
	</g>
</g>
<g>
	<g>
		<path class="st11" d="M43.3,65.9l2.2-3.6"/>
		<path class="st11" d="M45.5,69.5v-7.2"/>
		<path class="st11" d="M45.5,62.3l2.2,3.6"/>
	</g>
	<g>
		<g class="st2">
			<rect x="40.3" y="54.9" class="st3" width="16.6" height="5.6"/>
			<text transform="matrix(1 0 0 1 40.2753 58.9511)"><tspan x="0" y="0" class="st4 st5 st6 st12">+3.3</tspan><tspan x="13.4" y="0" class="st4 st5 st6">V</tspan></text>
		</g>
		<g class="st2">
			<rect x="40.3" y="54.9" class="st3" width="16.6" height="5.6"/>
			<text transform="matrix(1 0 0 1 40.2733 58.9496)"><tspan x="0" y="0" class="st7 st5 st6 st12">+3.3</tspan><tspan x="13.4" y="0" class="st7 st5 st6">V</tspan></text>
		</g>
		<path class="st8" d="M39.4,57.4h2.7"/>
		<path class="st8" d="M40.7,58.7V56"/>
		<path class="st8" d="M43.5,55.1h2.2l-1.2,1.4H45l0.4,0.2l0.1,0.1l0.2,0.4v0.9l-0.2,0.3l-0.1,0.2L45,58.7h-1l-0.4-0.1l-0.1-0.2"/>
		<path class="st8" d="M47.2,58.4l0.1,0.2l-0.1,0.1l-0.1-0.1L47.2,58.4v0.4"/>
		<path class="st8" d="M48.6,55.1h2.2l-1.2,1.4h0.6l0.3,0.2l0.2,0.1l0.1,0.4v0.9l-0.1,0.3l-0.2,0.2l-0.3,0.1h-1.1l-0.4-0.1l-0.1-0.2
			"/>
		<path class="st8" d="M51.8,55.1l1.2,3.6l1.2-3.6"/>
	</g>
</g>
<g>
	<g>
		<rect x="67.1" y="11.9" class="st0" width="129.6" height="187.2"/>
	</g>
	<g>
		<rect x="67.1" y="11.9" class="st1" width="129.6" height="187.2"/>
		<rect x="85.1" y="80.3" class="st1" width="86.4" height="100.8"/>
		<rect x="67.1" y="11.9" class="st1" width="129.6" height="187.2"/>
	</g>
	<g>
		<path class="st13" d="M67.1,76.7h7.2v-54h10.8v43.2h7.2V22.7h18v28.8h21.6V22.7h21.6v28.8h21.6V22.7h14.4v43.2h7.2V15.5h-28.8
			v28.8h-7.2V15.5h-36v28.8h-7.2V15.5H67.1V76.7z"/>
	</g>
	<g>
		<path class="st1" d="M67.1,83.9h-7.2"/>
	</g>
	<g>
		<g class="st2">
			<rect x="68.5" y="81.6" class="st3" width="10.7" height="5.6"/>
			<text transform="matrix(1 0 0 1 68.5106 85.6635)"><tspan x="0" y="0" class="st4 st5 st6">VC</tspan><tspan x="7.3" y="0" class="st4 st5 st6">C</tspan></text>
		</g>
		<g class="st2">
			<rect x="68.5" y="81.6" class="st3" width="10.7" height="5.6"/>
			<text transform="matrix(1 0 0 1 68.5087 85.6615)"><tspan x="0" y="0" class="st7 st5 st6">VC</tspan><tspan x="7.3" y="0" class="st7 st5 st6">C</tspan></text>
		</g>
		<path class="st8" d="M69,81.8l1.2,3.6l1.2-3.6"/>
		<path class="st8" d="M74.7,85.1l-0.2,0.2L74,85.4h-0.3l-0.6-0.1l-0.3-0.4l-0.2-0.4l-0.1-0.6v-0.5l0.1-0.7l0.2-0.4l0.3-0.3l0.6-0.2
			H74l0.5,0.2l0.2,0.1"/>
		<path class="st8" d="M78.3,85.1l-0.2,0.2l-0.5,0.1h-0.3l-0.6-0.1l-0.3-0.4l-0.2-0.4l-0.1-0.6v-0.5l0.1-0.7l0.2-0.4l0.3-0.3
			l0.6-0.2h0.3l0.5,0.2l0.2,0.1"/>
	</g>
	<g>
		<g class="st2">
			<rect x="62.1" y="79.1" class="st3" width="3.9" height="5.6"/>
			<text transform="matrix(1 0 0 1 62.1493 83.1435)" class="st9 st5 st6">1</text>
		</g>
		<g class="st2">
			<rect x="62.1" y="79.1" class="st3" width="3.9" height="5.6"/>
			<text transform="matrix(1 0 0 1 62.1469 83.1415)" class="st10 st5 st6">1</text>
		</g>
		<path class="st1" d="M64.5,82.9h-2.1"/>
		<path class="st1" d="M63.5,82.9v-3.6l-0.4,0.5l-0.4,0.4l-0.4,0.1"/>
		<path class="st1" d="M95.9,199.1v7.2"/>
	</g>
	<g>
		<g transform="rotate(-90 24500 52800)">
			<g class="st2">
				<rect x="77102.8" y="28392.3" class="st3" width="6.9" height="7.7"/>
				<text transform="matrix(1 0 0 1 77102.375 28396.7656)" class="st4 st5 st6">IO2</text>
			</g>
			<g class="st2">
				<rect x="77102.8" y="28392.3" class="st3" width="6.9" height="7.7"/>
				<text transform="matrix(1 0 0 1 77102.375 28396.7637)" class="st7 st5 st6">IO2</text>
			</g>
		</g>
		<path class="st8" d="M97.5,196.5h-3.6"/>
		<path class="st8" d="M93.9,194.1v-0.6l0.2-0.4l0.3-0.4l0.7-0.1h1.2l0.7,0.1l0.4,0.4l0.1,0.4v0.6l-0.1,0.4l-0.4,0.4l-0.7,0.1h-1.2
			l-0.7-0.1l-0.3-0.4L93.9,194.1"/>
		<path class="st8" d="M94.2,191.2l-0.1-0.2l-0.2-0.3v-0.9l0.2-0.4l0.1-0.1l0.4-0.2h0.3l0.6,0.2l2,2v-2.2"/>
	</g>
	<g>
		<g transform="rotate(-90 24400 53500)">
			<g class="st2">
				<rect x="77693.5" y="29190.8" class="st3" width="7.7" height="5.3"/>
				<text transform="matrix(1 0 0 1 77694.6953 29193.6172)" class="st9 st5 st6">10</text>
			</g>
			<g class="st2">
				<rect x="77693.5" y="29190.8" class="st3" width="7.7" height="5.3"/>
				<text transform="matrix(1 0 0 1 77694.6953 29193.6152)" class="st10 st5 st6">10</text>
			</g>
		</g>
		<path class="st1" d="M94.9,203.3v2.1"/>
		<path class="st1" d="M94.9,204.3h-3.6l0.5,0.4l0.4,0.4l0.1,0.4"/>
		<path class="st1" d="M91.3,201.1v-0.4l0.2-0.3l0.1-0.2l0.4-0.1l0.6-0.2h0.9l0.7,0.2l0.3,0.1l0.2,0.2l0.1,0.3v0.4l-0.1,0.4
			l-0.2,0.1l-0.3,0.2l-0.7,0.1h-0.9l-0.6-0.1l-0.4-0.2l-0.1-0.1L91.3,201.1"/>
		<path class="st1" d="M110.3,199.1v7.2"/>
		<path class="st1" d="M109.2,205.2l2.2,2.2"/>
		<path class="st1" d="M111.4,205.2l-2.2,2.2"/>
	</g>
	<g>
		<g transform="rotate(-90 26500 52800)">
			<g class="st2">
				<rect x="79102.6" y="26407.2" class="st3" width="6.4" height="6.9"/>
				<text transform="matrix(1 0 0 1 79102.375 26411.5293)" class="st4 st5 st6">NC</text>
			</g>
			<g class="st2">
				<rect x="79102.6" y="26407.2" class="st3" width="6.4" height="6.9"/>
				<text transform="matrix(1 0 0 1 79102.375 26411.5273)" class="st7 st5 st6">NC</text>
			</g>
		</g>
		<path class="st8" d="M111.9,196.5h-3.6l3.6-2.1h-3.6"/>
		<path class="st8" d="M111.5,190.7l0.2,0.1l0.1,0.5v0.4l-0.1,0.5l-0.4,0.4l-0.4,0.1l-0.6,0.2h-0.5l-0.7-0.2l-0.4-0.1l-0.3-0.4
			l-0.2-0.5v-0.4l0.2-0.5l0.1-0.1"/>
	</g>
	<g>
		<g transform="rotate(-90 26400 53500)">
			<g class="st2">
				<rect x="79693.2" y="27205.2" class="st3" width="8.3" height="4.9"/>
				<text transform="matrix(1 0 0 1 79694.8672 27207.6172)" class="st9 st5 st6">1</text>
			</g>
			<g class="st2">
				<rect x="79693.2" y="27205.2" class="st3" width="8.3" height="4.9"/>
				<text transform="matrix(1 0 0 1 79694.8672 27207.6152)" class="st10 st5 st6">1</text>
			</g>
		</g>
		<path class="st1" d="M109.3,203.3v2.1"/>
		<path class="st1" d="M109.3,204.3h-3.6l0.5,0.4l0.4,0.4l0.1,0.4"/>
		<path class="st1" d="M109.3,199.9v2.1"/>
		<path class="st1" d="M109.3,200.9h-3.6l0.5,0.3l0.4,0.4l0.1,0.4"/>
		<path class="st1" d="M124.7,199.1v7.2"/>
		<path class="st1" d="M123.6,205.2l2.2,2.2"/>
		<path class="st1" d="M125.8,205.2l-2.2,2.2"/>
	</g>
	<g>
		<g transform="rotate(-90 28500 52800)">
			<g class="st2">
				<rect x="81102.6" y="24421.6" class="st3" width="6.4" height="6.9"/>
				<text transform="matrix(1 0 0 1 81102.375 24425.9277)" class="st4 st5 st6">NC</text>
			</g>
			<g class="st2">
				<rect x="81102.6" y="24421.6" class="st3" width="6.4" height="6.9"/>
				<text transform="matrix(1 0 0 1 81102.375 24425.9258)" class="st7 st5 st6">NC</text>
			</g>
		</g>
		<path class="st8" d="M126.3,196.5h-3.6l3.6-2.1h-3.6"/>
		<path class="st8" d="M125.9,190.7l0.2,0.1l0.1,0.5v0.4l-0.1,0.5l-0.4,0.4l-0.4,0.1l-0.6,0.2h-0.5l-0.7-0.2l-0.4-0.1l-0.3-0.4
			l-0.2-0.5v-0.4l0.2-0.5l0.1-0.1"/>
	</g>
	<g>
		<g transform="rotate(-90 28400 53500)">
			<g class="st2">
				<rect x="81693.5" y="25219.6" class="st3" width="7.7" height="5.3"/>
				<text transform="matrix(1 0 0 1 81694.6953 25222.418)" class="st9 st5 st6">12</text>
			</g>
			<g class="st2">
				<rect x="81693.5" y="25219.6" class="st3" width="7.7" height="5.3"/>
				<text transform="matrix(1 0 0 1 81694.6953 25222.416)" class="st10 st5 st6">12</text>
			</g>
		</g>
		<path class="st1" d="M123.7,203.3v2.1"/>
		<path class="st1" d="M123.7,204.3h-3.6l0.5,0.4l0.4,0.4l0.1,0.4"/>
		<path class="st1" d="M120.5,201.9l-0.1-0.1l-0.2-0.4v-0.9l0.2-0.4l0.1-0.1l0.4-0.2h0.3l0.6,0.2l2,2v-2.2"/>
		<path class="st1" d="M139.1,199.1v7.2"/>
	</g>
	<g>
		<g transform="rotate(-90 30500 52800)">
			<g class="st2">
				<rect x="83102.8" y="22435.5" class="st3" width="6.9" height="7.7"/>
				<text transform="matrix(1 0 0 1 83102.375 22439.9648)" class="st4 st5 st6">IO3</text>
			</g>
			<g class="st2">
				<rect x="83102.8" y="22435.5" class="st3" width="6.9" height="7.7"/>
				<text transform="matrix(1 0 0 1 83102.375 22439.9629)" class="st7 st5 st6">IO3</text>
			</g>
		</g>
		<path class="st8" d="M140.7,196.5h-3.6"/>
		<path class="st8" d="M137.1,194.1v-0.6l0.2-0.4l0.3-0.4l0.7-0.1h1.2l0.7,0.1l0.4,0.4l0.1,0.4v0.6l-0.1,0.4l-0.4,0.4l-0.7,0.1h-1.2
			l-0.7-0.1l-0.3-0.4L137.1,194.1"/>
		<path class="st8" d="M137.1,191.4v-2.2l1.4,1.2v-0.5l0.2-0.4l0.1-0.1l0.4-0.2h0.9l0.3,0.2l0.2,0.1l0.1,0.4v1l-0.1,0.4l-0.2,0.1"/>
	</g>
	<g>
		<g transform="rotate(-90 30400 53500)">
			<g class="st2">
				<rect x="83693.5" y="23234" class="st3" width="7.7" height="5.3"/>
				<text transform="matrix(1 0 0 1 83694.6953 23236.8184)" class="st9 st5 st6">13</text>
			</g>
			<g class="st2">
				<rect x="83693.5" y="23234" class="st3" width="7.7" height="5.3"/>
				<text transform="matrix(1 0 0 1 83694.6953 23236.8164)" class="st10 st5 st6">13</text>
			</g>
		</g>
		<path class="st1" d="M138.1,203.3v2.1"/>
		<path class="st1" d="M138.1,204.3h-3.6l0.5,0.4l0.4,0.4l0.1,0.4"/>
		<path class="st1" d="M134.5,202.1v-2.2l1.4,1.2v-0.5l0.2-0.4l0.1-0.1l0.4-0.2h0.9l0.3,0.2l0.2,0.1l0.1,0.4v1l-0.1,0.4l-0.2,0.1"/>
		<path class="st1" d="M153.5,199.1v7.2"/>
	</g>
	<g>
		<g transform="rotate(-90 32500 52800)">
			<g class="st2">
				<rect x="85106.4" y="20446.7" class="st3" width="6.2" height="14.3"/>
				<text transform="matrix(1 0 0 1 85102.375 20454.8594)" class="st4 st5 st6">PWM3</text>
			</g>
			<g class="st2">
				<rect x="85106.4" y="20446.7" class="st3" width="6.2" height="14.3"/>
				<text transform="matrix(1 0 0 1 85102.375 20454.8574)" class="st7 st5 st6">PWM3</text>
			</g>
		</g>
		<path class="st8" d="M155.1,196.5h-3.6v-1.4l0.2-0.4l0.1-0.2l0.4-0.1h0.5l0.4,0.1l0.1,0.2l0.1,0.4v1.4"/>
		<path class="st8" d="M151.5,193.2l3.6-0.9l-2.6-0.6l2.6-0.7l-3.6-0.8"/>
		<path class="st8" d="M155.1,188.8h-3.6l2.6-1.2l-2.6-1.2h3.6"/>
		<path class="st8" d="M151.5,185v-2.2l1.4,1.2v-0.5l0.2-0.4l0.1-0.1l0.4-0.2h0.9l0.3,0.2l0.2,0.1l0.1,0.4v1l-0.1,0.4l-0.2,0.1"/>
	</g>
	<g>
		<g transform="rotate(-90 32400 53500)">
			<g class="st2">
				<rect x="85693.5" y="21248.4" class="st3" width="7.7" height="5.3"/>
				<text transform="matrix(1 0 0 1 85694.6953 21251.2188)" class="st9 st5 st6">14</text>
			</g>
			<g class="st2">
				<rect x="85693.5" y="21248.4" class="st3" width="7.7" height="5.3"/>
				<text transform="matrix(1 0 0 1 85694.6953 21251.2168)" class="st10 st5 st6">14</text>
			</g>
		</g>
		<path class="st1" d="M152.5,203.3v2.1"/>
		<path class="st1" d="M152.5,204.3h-3.6l0.5,0.4l0.4,0.4l0.1,0.4"/>
		<path class="st1" d="M150.2,200.2h2.4"/>
		<path class="st1" d="M148.8,201.1l2.5,0.9v-2.2"/>
		<path class="st1" d="M167.9,199.1v7.2"/>
	</g>
	<g>
		<g transform="rotate(-90 34500 52800)">
			<g class="st2">
				<rect x="87106.4" y="18461.1" class="st3" width="6.2" height="14.3"/>
				<text transform="matrix(1 0 0 1 87102.375 18469.2578)" class="st4 st5 st6">PWM4</text>
			</g>
			<g class="st2">
				<rect x="87106.4" y="18461.1" class="st3" width="6.2" height="14.3"/>
				<text transform="matrix(1 0 0 1 87102.375 18469.2578)" class="st7 st5 st6">PWM4</text>
			</g>
		</g>
		<path class="st8" d="M169.5,196.5h-3.6v-1.4l0.2-0.4l0.1-0.2l0.4-0.1h0.5l0.4,0.1l0.1,0.2l0.1,0.4v1.4"/>
		<path class="st8" d="M165.9,193.2l3.6-0.9l-2.6-0.6l2.6-0.7l-3.6-0.8"/>
		<path class="st8" d="M169.5,188.8h-3.6l2.6-1.2l-2.6-1.2h3.6"/>
		<path class="st8" d="M167.1,183.2h2.4"/>
		<path class="st8" d="M165.7,184l2.5,0.9v-2.2"/>
	</g>
	<g>
		<g transform="rotate(-90 34400 53500)">
			<g class="st2">
				<rect x="87693.5" y="19262.8" class="st3" width="7.7" height="5.3"/>
				<text transform="matrix(1 0 0 1 87694.6953 19265.6172)" class="st9 st5 st6">15</text>
			</g>
			<g class="st2">
				<rect x="87693.5" y="19262.8" class="st3" width="7.7" height="5.3"/>
				<text transform="matrix(1 0 0 1 87694.6953 19265.6152)" class="st10 st5 st6">15</text>
			</g>
		</g>
		<path class="st1" d="M166.9,203.3v2.1"/>
		<path class="st1" d="M166.9,204.3h-3.6l0.5,0.4l0.4,0.4l0.1,0.4"/>
		<path class="st1" d="M163.3,200.1v1.7l1.7,0.1l-0.1-0.1l-0.2-0.4v-0.9l0.2-0.4l0.1-0.1l0.4-0.2h0.9l0.3,0.2l0.2,0.1l0.1,0.4v0.9
			l-0.1,0.4l-0.2,0.1"/>
		<path class="st1" d="M182.3,199.1v7.2"/>
		<path class="st1" d="M181.2,205.2l2.2,2.2"/>
		<path class="st1" d="M183.4,205.2l-2.2,2.2"/>
	</g>
	<g>
		<g transform="rotate(-90 36500 52800)">
			<g class="st2">
				<rect x="89102.6" y="16479.2" class="st3" width="6.4" height="6.9"/>
				<text transform="matrix(1 0 0 1 89102.375 16483.5293)" class="st4 st5 st6">NC</text>
			</g>
			<g class="st2">
				<rect x="89102.6" y="16479.2" class="st3" width="6.4" height="6.9"/>
				<text transform="matrix(1 0 0 1 89102.375 16483.5273)" class="st7 st5 st6">NC</text>
			</g>
		</g>
		<path class="st8" d="M183.9,196.5h-3.6l3.6-2.1h-3.6"/>
		<path class="st8" d="M183.5,190.7l0.2,0.1l0.1,0.5v0.4l-0.1,0.5l-0.4,0.4l-0.4,0.1l-0.6,0.2h-0.5l-0.7-0.2l-0.4-0.1l-0.3-0.4
			l-0.2-0.5v-0.4l0.2-0.5l0.1-0.1"/>
	</g>
	<g>
		<g transform="rotate(-90 36400 53500)">
			<g class="st2">
				<rect x="89693.5" y="17277.2" class="st3" width="7.7" height="5.3"/>
				<text transform="matrix(1 0 0 1 89694.6953 17280.0176)" class="st9 st5 st6">16</text>
			</g>
			<g class="st2">
				<rect x="89693.5" y="17277.2" class="st3" width="7.7" height="5.3"/>
				<text transform="matrix(1 0 0 1 89694.6953 17280.0156)" class="st10 st5 st6">16</text>
			</g>
		</g>
		<path class="st1" d="M181.3,203.3v2.1"/>
		<path class="st1" d="M181.3,204.3h-3.6l0.5,0.4l0.4,0.4l0.1,0.4"/>
		<path class="st1" d="M177.7,200.2v0.7l0.2,0.3l0.1,0.2l0.5,0.4l0.7,0.1h1.4l0.3-0.1l0.2-0.2l0.1-0.4v-0.6l-0.1-0.4l-0.2-0.1
			l-0.3-0.2h-0.9l-0.4,0.2l-0.1,0.1l-0.2,0.4v0.6l0.2,0.4l0.1,0.2l0.4,0.1"/>
		<path class="st1" d="M196.7,184.7h7.2"/>
	</g>
	<g>
		<g class="st2">
			<rect x="182.8" y="182.4" class="st3" width="13.3" height="5.6"/>
			<text transform="matrix(1 0 0 1 182.809 186.4633)"><tspan x="0" y="0" class="st4 st5 st6">ALE</tspan><tspan x="9.9" y="0" class="st4 st5 st6">D</tspan></text>
		</g>
		<g class="st2">
			<rect x="182.8" y="182.4" class="st3" width="13.3" height="5.6"/>
			<text transform="matrix(1 0 0 1 182.8075 186.4618)"><tspan x="0" y="0" class="st7 st5 st6">ALE</tspan><tspan x="9.9" y="0" class="st7 st5 st6">D</tspan></text>
		</g>
		<path class="st8" d="M182.8,185.2h1.7"/>
		<path class="st8" d="M182.5,186.2l1.2-3.6l1.2,3.6"/>
		<path class="st8" d="M187.8,186.2h-1.7v-3.6"/>
		<path class="st8" d="M189,184.4h1.2"/>
		<path class="st8" d="M190.7,186.2H189v-3.6h1.7"/>
		<path class="st8" d="M192.2,186.2v-3.6h0.9l0.5,0.2l0.4,0.3l0.2,0.4l0.1,0.7v0.5l-0.1,0.6l-0.2,0.4l-0.4,0.4l-0.5,0.1H192.2"/>
	</g>
	<g>
		<g class="st2">
			<rect x="197.6" y="179.9" class="st3" width="7.3" height="5.6"/>
			<text transform="matrix(1 0 0 1 197.6278 183.9433)"><tspan x="0" y="0" class="st9 st5 st6 st12">1</tspan><tspan x="4.6" y="0" class="st9 st5 st6">7</tspan></text>
		</g>
		<g class="st2">
			<rect x="197.6" y="179.9" class="st3" width="7.3" height="5.6"/>
			<text transform="matrix(1 0 0 1 197.6254 183.9418)"><tspan x="0" y="0" class="st10 st5 st6 st12">1</tspan><tspan x="4.6" y="0" class="st10 st5 st6">7</tspan></text>
		</g>
		<path class="st1" d="M199.6,183.7h-2.1"/>
		<path class="st1" d="M198.5,183.7v-3.6l-0.4,0.5l-0.4,0.4l-0.4,0.1"/>
		<path class="st1" d="M200.8,180.1h2.4l-1.5,3.6"/>
		<path class="st1" d="M196.7,170.3h7.2"/>
	</g>
	<g>
		<g class="st2">
			<rect x="182.4" y="168" class="st3" width="13.5" height="5.6"/>
			<text transform="matrix(1 0 0 1 182.3807 172.0634)"><tspan x="0" y="0" class="st4 st5 st6">RTC</tspan><tspan x="10.3" y="0" class="st4 st5 st6">A</tspan></text>
		</g>
		<g class="st2">
			<rect x="182.4" y="168" class="st3" width="13.5" height="5.6"/>
			<text transform="matrix(1 0 0 1 182.3793 172.0619)"><tspan x="0" y="0" class="st7 st5 st6">RTC</tspan><tspan x="10.3" y="0" class="st7 st5 st6">A</tspan></text>
		</g>
		<path class="st8" d="M184.9,171.8l-1.2-1.7"/>
		<path class="st8" d="M182.8,171.8v-3.6h1.4l0.3,0.2l0.2,0.1l0.1,0.4v0.5l-0.1,0.4l-0.2,0.1l-0.3,0.1h-1.4"/>
		<path class="st8" d="M185.9,168.2h2.1"/>
		<path class="st8" d="M187,171.8v-3.6"/>
		<path class="st8" d="M191.2,171.5l-0.1,0.2l-0.5,0.1h-0.4l-0.5-0.1l-0.4-0.4l-0.1-0.4l-0.2-0.6v-0.5l0.2-0.7l0.1-0.4l0.4-0.3
			l0.5-0.2h0.4l0.5,0.2l0.1,0.1"/>
		<path class="st8" d="M192.6,170.8h1.7"/>
		<path class="st8" d="M192.2,171.8l1.2-3.6l1.2,3.6"/>
	</g>
	<g>
		<g class="st2">
			<rect x="197.6" y="165.5" class="st3" width="7.3" height="5.6"/>
			<text transform="matrix(1 0 0 1 197.6278 169.5434)"><tspan x="0" y="0" class="st9 st5 st6 st12">1</tspan><tspan x="4.6" y="0" class="st9 st5 st6">8</tspan></text>
		</g>
		<g class="st2">
			<rect x="197.6" y="165.5" class="st3" width="7.3" height="5.6"/>
			<text transform="matrix(1 0 0 1 197.6254 169.5419)"><tspan x="0" y="0" class="st10 st5 st6 st12">1</tspan><tspan x="4.6" y="0" class="st10 st5 st6">8</tspan></text>
		</g>
		<path class="st1" d="M199.6,169.3h-2.1"/>
		<path class="st1" d="M198.5,169.3v-3.6l-0.4,0.5l-0.4,0.4l-0.4,0.1"/>
		<path class="st1" d="M201.6,167.3l-0.4-0.2l-0.2-0.1l-0.1-0.4v-0.1l0.1-0.4l0.2-0.1l0.4-0.2h0.6l0.4,0.2l0.1,0.1l0.2,0.4v0.1
			l-0.2,0.4l-0.1,0.1l-0.4,0.2H201.6l-0.4,0.1l-0.2,0.1l-0.1,0.4v0.7l0.1,0.3l0.2,0.2l0.4,0.1h0.6l0.4-0.1l0.1-0.2l0.2-0.3V168
			l-0.2-0.4l-0.1-0.1l-0.4-0.1"/>
		<path class="st1" d="M196.7,155.9h7.2"/>
	</g>
	<g>
		<g class="st2">
			<rect x="176.2" y="153.6" class="st3" width="20.2" height="5.6"/>
			<text transform="matrix(1 0 0 1 176.2201 157.6635)"><tspan x="0" y="0" class="st4 st5 st6">TXD_D</tspan><tspan x="16.7" y="0" class="st4 st5 st6">D</tspan></text>
		</g>
		<g class="st2">
			<rect x="176.2" y="153.6" class="st3" width="20.2" height="5.6"/>
			<text transform="matrix(1 0 0 1 176.2186 157.6615)"><tspan x="0" y="0" class="st7 st5 st6">TXD_D</tspan><tspan x="16.7" y="0" class="st7 st5 st6">D</tspan></text>
		</g>
		<path class="st8" d="M175.6,153.8h2.1"/>
		<path class="st8" d="M176.7,157.4v-3.6"/>
		<path class="st8" d="M178.5,153.8l2.4,3.6"/>
		<path class="st8" d="M180.9,153.8l-2.4,3.6"/>
		<path class="st8" d="M182.3,157.4v-3.6h0.9l0.5,0.2l0.4,0.3l0.2,0.4l0.1,0.7v0.5l-0.1,0.6l-0.2,0.4l-0.4,0.4l-0.5,0.1H182.3"/>
		<path class="st8" d="M185,157.8h2.8"/>
		<path class="st8" d="M188.6,157.4v-3.6h0.9l0.5,0.2l0.4,0.3l0.2,0.4l0.1,0.7v0.5l-0.1,0.6l-0.2,0.4l-0.4,0.4l-0.5,0.1H188.6"/>
		<path class="st8" d="M192.2,157.4v-3.6h0.9l0.5,0.2l0.4,0.3l0.2,0.4l0.1,0.7v0.5l-0.1,0.6l-0.2,0.4l-0.4,0.4l-0.5,0.1H192.2"/>
	</g>
	<g>
		<g class="st2">
			<rect x="197.6" y="151.1" class="st3" width="7.3" height="5.6"/>
			<text transform="matrix(1 0 0 1 197.6278 155.1435)"><tspan x="0" y="0" class="st9 st5 st6 st12">1</tspan><tspan x="4.6" y="0" class="st9 st5 st6">9</tspan></text>
		</g>
		<g class="st2">
			<rect x="197.6" y="151.1" class="st3" width="7.3" height="5.6"/>
			<text transform="matrix(1 0 0 1 197.6254 155.1415)"><tspan x="0" y="0" class="st10 st5 st6 st12">1</tspan><tspan x="4.6" y="0" class="st10 st5 st6">9</tspan></text>
		</g>
		<path class="st1" d="M199.6,154.9h-2.1"/>
		<path class="st1" d="M198.5,154.9v-3.6l-0.4,0.5l-0.4,0.4l-0.4,0.1"/>
		<path class="st1" d="M201.3,154.9h0.6l0.4-0.1l0.1-0.2l0.4-0.5l0.2-0.6V152l-0.2-0.4l-0.1-0.1l-0.4-0.2h-0.6l-0.4,0.2l-0.2,0.1
			l-0.1,0.4v0.9l0.1,0.3l0.2,0.2l0.4,0.1h0.6l0.4-0.1l0.1-0.2l0.2-0.3"/>
		<path class="st1" d="M67.1,98.3h-7.2"/>
	</g>
	<g>
		<g class="st2">
			<rect x="68.5" y="96" class="st3" width="15.7" height="5.6"/>
			<text transform="matrix(1 0 0 1 68.5106 100.0634)"><tspan x="0" y="0" class="st4 st5 st6">PWM</tspan><tspan x="13.1" y="0" class="st4 st5 st6">1</tspan></text>
		</g>
		<g class="st2">
			<rect x="68.5" y="96" class="st3" width="15.7" height="5.6"/>
			<text transform="matrix(1 0 0 1 68.5087 100.0619)"><tspan x="0" y="0" class="st7 st5 st6">PWM</tspan><tspan x="13.1" y="0" class="st7 st5 st6">1</tspan></text>
		</g>
		<path class="st8" d="M69.5,99.8v-3.6h1.4l0.4,0.2l0.2,0.1l0.1,0.4v0.5l-0.1,0.4L71.2,98l-0.4,0.1h-1.4"/>
		<path class="st8" d="M72.8,96.2l0.9,3.6l0.6-2.6l0.7,2.6l0.9-3.6"/>
		<path class="st8" d="M77.3,99.8v-3.6l1.2,2.6l1.2-2.6v3.6"/>
		<path class="st8" d="M83.3,99.8h-2.1"/>
		<path class="st8" d="M82.3,99.8v-3.6l-0.4,0.5l-0.4,0.4l-0.4,0.1"/>
	</g>
	<g>
		<g class="st2">
			<rect x="62.1" y="93.5" class="st3" width="3.9" height="5.6"/>
			<text transform="matrix(1 0 0 1 62.1493 97.5434)" class="st9 st5 st6">2</text>
		</g>
		<g class="st2">
			<rect x="62.1" y="93.5" class="st3" width="3.9" height="5.6"/>
			<text transform="matrix(1 0 0 1 62.1469 97.5419)" class="st10 st5 st6">2</text>
		</g>
		<path class="st1" d="M62.4,94.1l0.2-0.1l0.3-0.2h0.9l0.4,0.2l0.1,0.1l0.2,0.4v0.3l-0.2,0.6l-2,2h2.2"/>
		<path class="st1" d="M196.7,141.5h7.2"/>
	</g>
	<g>
		<g class="st2">
			<rect x="175.7" y="139.2" class="st3" width="21" height="5.6"/>
			<text transform="matrix(1 0 0 1 175.6913 143.2631)"><tspan x="0" y="0" class="st4 st5 st6">RXD_D</tspan><tspan x="17.6" y="0" class="st4 st5 st6">C</tspan></text>
		</g>
		<g class="st2">
			<rect x="175.7" y="139.2" class="st3" width="21" height="5.6"/>
			<text transform="matrix(1 0 0 1 175.6893 143.2616)"><tspan x="0" y="0" class="st7 st5 st6">RXD_D</tspan><tspan x="17.6" y="0" class="st7 st5 st6">C</tspan></text>
		</g>
		<path class="st8" d="M177.3,143l-1.2-1.7"/>
		<path class="st8" d="M175.3,143v-3.6h1.4l0.4,0.2l0.1,0.1l0.1,0.4v0.5l-0.1,0.4l-0.1,0.1l-0.4,0.1h-1.4"/>
		<path class="st8" d="M178.5,139.4l2.4,3.6"/>
		<path class="st8" d="M180.9,139.4l-2.4,3.6"/>
		<path class="st8" d="M182.3,143v-3.6h0.9l0.5,0.2l0.4,0.3l0.2,0.4l0.1,0.7v0.5l-0.1,0.6l-0.2,0.4l-0.4,0.4l-0.5,0.1H182.3"/>
		<path class="st8" d="M185,143.4h2.8"/>
		<path class="st8" d="M188.6,143v-3.6h0.9l0.5,0.2l0.4,0.3l0.2,0.4l0.1,0.7v0.5l-0.1,0.6l-0.2,0.4l-0.4,0.4l-0.5,0.1H188.6"/>
		<path class="st8" d="M194.3,142.7l-0.1,0.2l-0.6,0.1h-0.3l-0.5-0.1l-0.4-0.4l-0.2-0.4l-0.1-0.6V141l0.1-0.7l0.2-0.4l0.4-0.3
			l0.5-0.2h0.3l0.6,0.2l0.1,0.1"/>
	</g>
	<g>
		<g class="st2">
			<rect x="197.6" y="136.7" class="st3" width="7.3" height="5.6"/>
			<text transform="matrix(1 0 0 1 197.6278 140.7431)"><tspan x="0" y="0" class="st9 st5 st6 st12">2</tspan><tspan x="4.6" y="0" class="st9 st5 st6">0</tspan></text>
		</g>
		<g class="st2">
			<rect x="197.6" y="136.7" class="st3" width="7.3" height="5.6"/>
			<text transform="matrix(1 0 0 1 197.6254 140.7416)"><tspan x="0" y="0" class="st10 st5 st6 st12">2</tspan><tspan x="4.6" y="0" class="st10 st5 st6">0</tspan></text>
		</g>
		<path class="st1" d="M197.5,137.3l0.2-0.1l0.4-0.2h0.8l0.4,0.2l0.2,0.1l0.1,0.4v0.3l-0.1,0.6l-2.1,2h2.2"/>
		<path class="st1" d="M201.8,136.9h0.4l0.3,0.2l0.2,0.1l0.1,0.4l0.2,0.6v0.9l-0.2,0.7l-0.1,0.3l-0.2,0.2l-0.3,0.1h-0.4l-0.4-0.1
			l-0.1-0.2l-0.2-0.3l-0.1-0.7v-0.9l0.1-0.6l0.2-0.4l0.1-0.1L201.8,136.9"/>
		<path class="st1" d="M196.7,127.1h7.2"/>
	</g>
	<g>
		<g class="st2">
			<rect x="176.7" y="124.8" class="st3" width="19.7" height="5.6"/>
			<text transform="matrix(1 0 0 1 176.7445 128.8632)"><tspan x="0" y="0" class="st4 st5 st6">SELEC</tspan><tspan x="16.8" y="0" class="st4 st5 st6">T</tspan></text>
		</g>
		<g class="st2">
			<rect x="176.7" y="124.8" class="st3" width="19.7" height="5.6"/>
			<text transform="matrix(1 0 0 1 176.743 128.8617)"><tspan x="0" y="0" class="st7 st5 st6">SELEC</tspan><tspan x="16.8" y="0" class="st7 st5 st6">T</tspan></text>
		</g>
		<path class="st8" d="M176.4,128.5l0.6,0.1h0.8l0.4-0.1l0.2-0.2l0.1-0.3v-0.4l-0.1-0.4l-0.2-0.1l-0.4-0.2l-0.6-0.1l-0.4-0.1
			l-0.1-0.2l-0.2-0.4v-0.3l0.2-0.4l0.1-0.1l0.4-0.2h0.9l0.5,0.2"/>
		<path class="st8" d="M180,126.8h1.2"/>
		<path class="st8" d="M181.8,128.6H180V125h1.7"/>
		<path class="st8" d="M185,128.6h-1.7V125"/>
		<path class="st8" d="M186.2,126.8h1.2"/>
		<path class="st8" d="M188,128.6h-1.7V125h1.7"/>
		<path class="st8" d="M191.6,128.3l-0.1,0.2l-0.6,0.1h-0.3l-0.6-0.1l-0.3-0.4l-0.2-0.4l-0.1-0.6v-0.5l0.1-0.7l0.2-0.4l0.3-0.3
			l0.6-0.2h0.3l0.6,0.2l0.1,0.1"/>
		<path class="st8" d="M192.6,125h2.1"/>
		<path class="st8" d="M193.6,128.6V125"/>
	</g>
	<g>
		<g class="st2">
			<rect x="197.6" y="122.3" class="st3" width="7.3" height="5.6"/>
			<text transform="matrix(1 0 0 1 197.6278 126.3432)"><tspan x="0" y="0" class="st9 st5 st6 st12">2</tspan><tspan x="4.6" y="0" class="st9 st5 st6">1</tspan></text>
		</g>
		<g class="st2">
			<rect x="197.6" y="122.3" class="st3" width="7.3" height="5.6"/>
			<text transform="matrix(1 0 0 1 197.6254 126.3417)"><tspan x="0" y="0" class="st10 st5 st6 st12">2</tspan><tspan x="4.6" y="0" class="st10 st5 st6">1</tspan></text>
		</g>
		<path class="st1" d="M197.5,122.9l0.2-0.1l0.4-0.2h0.8l0.4,0.2l0.2,0.1l0.1,0.4v0.3l-0.1,0.6l-2.1,2h2.2"/>
		<path class="st1" d="M203,126.1h-2.1"/>
		<path class="st1" d="M201.9,126.1v-3.6l-0.3,0.5l-0.4,0.4l-0.4,0.1"/>
		<path class="st1" d="M196.7,112.7h7.2"/>
	</g>
	<g>
		<g class="st2">
			<rect x="180.7" y="110.4" class="st3" width="15.3" height="5.6"/>
			<text transform="matrix(1 0 0 1 180.7123 114.4633)"><tspan x="0" y="0" class="st4 st5 st6">PWR</tspan><tspan x="11.9" y="0" class="st4 st5 st6">C</tspan></text>
		</g>
		<g class="st2">
			<rect x="180.7" y="110.4" class="st3" width="15.3" height="5.6"/>
			<text transform="matrix(1 0 0 1 180.7108 114.4618)"><tspan x="0" y="0" class="st7 st5 st6">PWR</tspan><tspan x="11.9" y="0" class="st7 st5 st6">C</tspan></text>
		</g>
		<path class="st8" d="M180.9,114.2v-3.6h1.4l0.4,0.2l0.1,0.1l0.2,0.4v0.5l-0.2,0.4l-0.1,0.1l-0.4,0.1h-1.4"/>
		<path class="st8" d="M184.2,110.6l0.8,3.6l0.7-2.6l0.6,2.6l0.9-3.6"/>
		<path class="st8" d="M190.7,114.2l-1.2-1.7"/>
		<path class="st8" d="M188.6,114.2v-3.6h1.4l0.4,0.2l0.2,0.1l0.1,0.4v0.5l-0.1,0.4l-0.2,0.1l-0.4,0.1h-1.4"/>
		<path class="st8" d="M194.3,113.9l-0.1,0.2l-0.6,0.1h-0.3l-0.5-0.1l-0.4-0.4l-0.2-0.4l-0.1-0.6v-0.5l0.1-0.7l0.2-0.4l0.4-0.3
			l0.5-0.2h0.3l0.6,0.2l0.1,0.1"/>
	</g>
	<g>
		<g class="st2">
			<rect x="197.6" y="107.9" class="st3" width="7.3" height="5.6"/>
			<text transform="matrix(1 0 0 1 197.6278 111.9433)"><tspan x="0" y="0" class="st9 st5 st6 st12">2</tspan><tspan x="4.6" y="0" class="st9 st5 st6">2</tspan></text>
		</g>
		<g class="st2">
			<rect x="197.6" y="107.9" class="st3" width="7.3" height="5.6"/>
			<text transform="matrix(1 0 0 1 197.6254 111.9418)"><tspan x="0" y="0" class="st10 st5 st6 st12">2</tspan><tspan x="4.6" y="0" class="st10 st5 st6">2</tspan></text>
		</g>
		<path class="st1" d="M197.5,108.5l0.2-0.1l0.4-0.2h0.8l0.4,0.2l0.2,0.1l0.1,0.4v0.3l-0.1,0.6l-2.1,2h2.2"/>
		<path class="st1" d="M200.9,108.5l0.1-0.1l0.4-0.2h0.9l0.4,0.2l0.1,0.1l0.2,0.4v0.3l-0.2,0.6l-2,2h2.2"/>
		<path class="st1" d="M196.7,98.3h7.2"/>
	</g>
	<g>
		<g class="st2">
			<rect x="179.4" y="96" class="st3" width="16.7" height="5.6"/>
			<text transform="matrix(1 0 0 1 179.3876 100.0634)"><tspan x="0" y="0" class="st4 st5 st6">RESE</tspan><tspan x="13.8" y="0" class="st4 st5 st6">T</tspan></text>
		</g>
		<g class="st2">
			<rect x="179.4" y="96" class="st3" width="16.7" height="5.6"/>
			<text transform="matrix(1 0 0 1 179.3856 100.0619)"><tspan x="0" y="0" class="st7 st5 st6">RESE</tspan><tspan x="13.8" y="0" class="st7 st5 st6">T</tspan></text>
		</g>
		<path class="st8" d="M181.6,99.8l-1.2-1.7"/>
		<path class="st8" d="M179.5,99.8v-3.6h1.4l0.4,0.2l0.1,0.1l0.2,0.4v0.5l-0.2,0.4l-0.1,0.1l-0.4,0.1h-1.4"/>
		<path class="st8" d="M183.1,98h1.2"/>
		<path class="st8" d="M184.9,99.8h-1.7v-3.6h1.7"/>
		<path class="st8" d="M186.2,99.7l0.5,0.1h0.9l0.4-0.1l0.1-0.2l0.2-0.3v-0.4l-0.2-0.4l-0.1-0.1l-0.4-0.2L187,98l-0.4-0.1l-0.2-0.2
			l-0.1-0.4V97l0.1-0.4l0.2-0.1l0.4-0.2h0.9l0.5,0.2"/>
		<path class="st8" d="M189.8,98h1.2"/>
		<path class="st8" d="M191.6,99.8h-1.7v-3.6h1.7"/>
		<path class="st8" d="M192.6,96.2h2.1"/>
		<path class="st8" d="M193.6,99.8v-3.6"/>
	</g>
	<g>
		<g class="st2">
			<rect x="197.6" y="93.5" class="st3" width="7.3" height="5.6"/>
			<text transform="matrix(1 0 0 1 197.6278 97.5434)"><tspan x="0" y="0" class="st9 st5 st6 st12">2</tspan><tspan x="4.6" y="0" class="st9 st5 st6">3</tspan></text>
		</g>
		<g class="st2">
			<rect x="197.6" y="93.5" class="st3" width="7.3" height="5.6"/>
			<text transform="matrix(1 0 0 1 197.6254 97.5419)"><tspan x="0" y="0" class="st10 st5 st6 st12">2</tspan><tspan x="4.6" y="0" class="st10 st5 st6">3</tspan></text>
		</g>
		<path class="st1" d="M197.5,94.1l0.2-0.1l0.4-0.2h0.8l0.4,0.2l0.2,0.1l0.1,0.4v0.3l-0.1,0.6l-2.1,2h2.2"/>
		<path class="st1" d="M200.8,93.7h2.2l-1.2,1.4h0.5l0.4,0.2l0.1,0.1l0.2,0.4v0.9l-0.2,0.3l-0.1,0.2l-0.4,0.1h-1l-0.4-0.1l-0.1-0.2"
			/>
		<path class="st1" d="M196.7,83.9h7.2"/>
	</g>
	<g>
		<g class="st2">
			<rect x="184.7" y="81.6" class="st3" width="11.4" height="5.6"/>
			<text transform="matrix(1 0 0 1 184.6708 85.6635)"><tspan x="0" y="0" class="st4 st5 st6">GN</tspan><tspan x="7.9" y="0" class="st4 st5 st6">D</tspan></text>
		</g>
		<g class="st2">
			<rect x="184.7" y="81.6" class="st3" width="11.4" height="5.6"/>
			<text transform="matrix(1 0 0 1 184.6693 85.6615)"><tspan x="0" y="0" class="st7 st5 st6">GN</tspan><tspan x="7.9" y="0" class="st7 st5 st6">D</tspan></text>
		</g>
		<path class="st8" d="M186.7,82.1l-0.4-0.2h-0.5l-0.5,0.2l-0.4,0.3l-0.1,0.4l-0.1,0.7v0.5l0.1,0.6l0.1,0.4l0.4,0.4l0.5,0.1h0.4
			l0.5-0.1l0.2-0.2v-1.2h-0.7"/>
		<path class="st8" d="M188.5,85.4v-3.6l2.1,3.6v-3.6"/>
		<path class="st8" d="M192.2,85.4v-3.6h0.9l0.5,0.2l0.4,0.3l0.2,0.4l0.1,0.7v0.5l-0.1,0.6l-0.2,0.4l-0.4,0.4l-0.5,0.1H192.2"/>
	</g>
	<g>
		<g class="st2">
			<rect x="197.6" y="79.1" class="st3" width="7.3" height="5.6"/>
			<text transform="matrix(1 0 0 1 197.6278 83.1435)"><tspan x="0" y="0" class="st9 st5 st6 st12">2</tspan><tspan x="4.6" y="0" class="st9 st5 st6">4</tspan></text>
		</g>
		<g class="st2">
			<rect x="197.6" y="79.1" class="st3" width="7.3" height="5.6"/>
			<text transform="matrix(1 0 0 1 197.6254 83.1415)"><tspan x="0" y="0" class="st10 st5 st6 st12">2</tspan><tspan x="4.6" y="0" class="st10 st5 st6">4</tspan></text>
		</g>
		<path class="st1" d="M197.5,79.7l0.2-0.1l0.4-0.2h0.8l0.4,0.2l0.2,0.1l0.1,0.4v0.3l-0.1,0.6l-2.1,2h2.2"/>
		<path class="st1" d="M202.6,80.6v2.4"/>
		<path class="st1" d="M201.8,79.2l-0.9,2.5h2.2"/>
		<path class="st1" d="M67.1,112.7h-7.2"/>
	</g>
	<g>
		<g class="st2">
			<rect x="68.5" y="110.4" class="st3" width="15.7" height="5.6"/>
			<text transform="matrix(1 0 0 1 68.5106 114.4633)"><tspan x="0" y="0" class="st4 st5 st6">PWM</tspan><tspan x="13.1" y="0" class="st4 st5 st6">2</tspan></text>
		</g>
		<g class="st2">
			<rect x="68.5" y="110.4" class="st3" width="15.7" height="5.6"/>
			<text transform="matrix(1 0 0 1 68.5087 114.4618)"><tspan x="0" y="0" class="st7 st5 st6">PWM</tspan><tspan x="13.1" y="0" class="st7 st5 st6">2</tspan></text>
		</g>
		<path class="st8" d="M69.5,114.2v-3.6h1.4l0.4,0.2l0.2,0.1l0.1,0.4v0.5l-0.1,0.4l-0.2,0.1l-0.4,0.1h-1.4"/>
		<path class="st8" d="M72.8,110.6l0.9,3.6l0.6-2.6l0.7,2.6l0.9-3.6"/>
		<path class="st8" d="M77.3,114.2v-3.6l1.2,2.6l1.2-2.6v3.6"/>
		<path class="st8" d="M81.2,111l0.2-0.1l0.3-0.2h0.9l0.4,0.2l0.2,0.1l0.1,0.4v0.3l-0.1,0.6l-2.1,2h2.2"/>
	</g>
	<g>
		<g class="st2">
			<rect x="62.1" y="107.9" class="st3" width="3.9" height="5.6"/>
			<text transform="matrix(1 0 0 1 62.1493 111.9433)" class="st9 st5 st6">3</text>
		</g>
		<g class="st2">
			<rect x="62.1" y="107.9" class="st3" width="3.9" height="5.6"/>
			<text transform="matrix(1 0 0 1 62.1469 111.9418)" class="st10 st5 st6">3</text>
		</g>
		<path class="st1" d="M62.2,108.1h2.2l-1.2,1.4h0.5l0.4,0.2l0.1,0.1l0.2,0.4v0.9l-0.2,0.3l-0.1,0.2l-0.4,0.1h-1l-0.4-0.1l-0.1-0.2"
			/>
		<path class="st1" d="M67.1,127.1h-7.2"/>
	</g>
	<g>
		<g class="st2">
			<rect x="68.5" y="124.8" class="st3" width="9.4" height="5.6"/>
			<text transform="matrix(1 0 0 1 68.5106 128.8632)"><tspan x="0" y="0" class="st4 st5 st6">IO</tspan><tspan x="6.7" y="0" class="st4 st5 st6">4</tspan></text>
		</g>
		<g class="st2">
			<rect x="68.5" y="124.8" class="st3" width="9.4" height="5.6"/>
			<text transform="matrix(1 0 0 1 68.5087 128.8617)"><tspan x="0" y="0" class="st7 st5 st6">IO</tspan><tspan x="6.7" y="0" class="st7 st5 st6">4</tspan></text>
		</g>
		<path class="st8" d="M69.5,128.6V125"/>
		<path class="st8" d="M72,125h0.6l0.4,0.2l0.4,0.3l0.1,0.7v1.2l-0.1,0.7l-0.4,0.4l-0.4,0.1H72l-0.4-0.1l-0.4-0.4l-0.1-0.7v-1.2
			l0.1-0.7l0.4-0.3L72,125"/>
		<path class="st8" d="M76.6,126.3v2.4"/>
		<path class="st8" d="M75.7,124.9l-0.9,2.5h2.2"/>
	</g>
	<g>
		<g class="st2">
			<rect x="62.1" y="122.3" class="st3" width="3.9" height="5.6"/>
			<text transform="matrix(1 0 0 1 62.1493 126.3432)" class="st9 st5 st6">4</text>
		</g>
		<g class="st2">
			<rect x="62.1" y="122.3" class="st3" width="3.9" height="5.6"/>
			<text transform="matrix(1 0 0 1 62.1469 126.3417)" class="st10 st5 st6">4</text>
		</g>
		<path class="st1" d="M64.1,123.8v2.4"/>
		<path class="st1" d="M63.3,122.4l-0.9,2.5h2.2"/>
		<path class="st1" d="M67.1,141.5h-7.2"/>
		<path class="st1" d="M58.8,140.4l2.2,2.2"/>
		<path class="st1" d="M61,140.4l-2.2,2.2"/>
	</g>
	<g>
		<g class="st2">
			<rect x="68.5" y="139.2" class="st3" width="7.8" height="5.6"/>
			<text transform="matrix(1 0 0 1 68.5106 143.2631)"><tspan x="0" y="0" class="st4 st5 st6">N</tspan><tspan x="4.3" y="0" class="st4 st5 st6">C</tspan></text>
		</g>
		<g class="st2">
			<rect x="68.5" y="139.2" class="st3" width="7.8" height="5.6"/>
			<text transform="matrix(1 0 0 1 68.5087 143.2616)"><tspan x="0" y="0" class="st7 st5 st6">N</tspan><tspan x="4.3" y="0" class="st7 st5 st6">C</tspan></text>
		</g>
		<path class="st8" d="M69.5,143v-3.6l2.1,3.6v-3.6"/>
		<path class="st8" d="M75.4,142.7l-0.1,0.2l-0.5,0.1h-0.4l-0.5-0.1l-0.4-0.4l-0.1-0.4l-0.2-0.6V141l0.2-0.7l0.1-0.4l0.4-0.3
			l0.5-0.2h0.4l0.5,0.2l0.1,0.1"/>
	</g>
	<g>
		<g class="st2">
			<rect x="62.1" y="136.7" class="st3" width="3.9" height="5.6"/>
			<text transform="matrix(1 0 0 1 62.1493 140.7431)" class="st9 st5 st6">5</text>
		</g>
		<g class="st2">
			<rect x="62.1" y="136.7" class="st3" width="3.9" height="5.6"/>
			<text transform="matrix(1 0 0 1 62.1469 140.7416)" class="st10 st5 st6">5</text>
		</g>
		<path class="st1" d="M64.3,136.9h-1.7l-0.2,1.7l0.2-0.1l0.3-0.2h0.9l0.4,0.2l0.1,0.1l0.2,0.4v0.9l-0.2,0.3l-0.1,0.2l-0.4,0.1h-0.9
			l-0.3-0.1l-0.2-0.2"/>
		<path class="st1" d="M67.1,155.9h-7.2"/>
	</g>
	<g>
		<g class="st2">
			<rect x="68.5" y="153.6" class="st3" width="12.5" height="5.6"/>
			<text transform="matrix(1 0 0 1 68.5106 157.6635)"><tspan x="0" y="0" class="st4 st5 st6">STA</tspan><tspan x="9.6" y="0" class="st4 st5 st6">T</tspan></text>
		</g>
		<g class="st2">
			<rect x="68.5" y="153.6" class="st3" width="12.5" height="5.6"/>
			<text transform="matrix(1 0 0 1 68.5087 157.6615)"><tspan x="0" y="0" class="st7 st5 st6">STA</tspan><tspan x="9.6" y="0" class="st7 st5 st6">T</tspan></text>
		</g>
		<path class="st8" d="M69.4,157.3l0.5,0.1h0.9l0.4-0.1l0.1-0.2l0.2-0.3v-0.4l-0.2-0.4l-0.1-0.1l-0.4-0.2l-0.6-0.1l-0.4-0.1
			l-0.2-0.2l-0.1-0.4v-0.3l0.1-0.4l0.2-0.1l0.4-0.2h0.8l0.6,0.2"/>
		<path class="st8" d="M72.5,153.8h2"/>
		<path class="st8" d="M73.5,157.4v-3.6"/>
		<path class="st8" d="M75.6,156.4h1.7"/>
		<path class="st8" d="M75.2,157.4l1.2-3.6l1.2,3.6"/>
		<path class="st8" d="M78.3,153.8h2"/>
		<path class="st8" d="M79.3,157.4v-3.6"/>
	</g>
	<g>
		<g class="st2">
			<rect x="62.1" y="151.1" class="st3" width="3.9" height="5.6"/>
			<text transform="matrix(1 0 0 1 62.1493 155.1435)" class="st9 st5 st6">6</text>
		</g>
		<g class="st2">
			<rect x="62.1" y="151.1" class="st3" width="3.9" height="5.6"/>
			<text transform="matrix(1 0 0 1 62.1469 155.1415)" class="st10 st5 st6">6</text>
		</g>
		<path class="st1" d="M64.1,151.3h-0.6l-0.4,0.2l-0.2,0.1l-0.3,0.5l-0.2,0.7v1.4l0.2,0.3l0.1,0.2l0.4,0.1h0.6l0.4-0.1l0.1-0.2
			l0.2-0.3v-0.9l-0.2-0.4l-0.1-0.1l-0.4-0.2h-0.6l-0.4,0.2l-0.1,0.1l-0.2,0.4"/>
		<path class="st1" d="M67.1,170.3h-7.2"/>
		<path class="st1" d="M58.8,169.2l2.2,2.2"/>
		<path class="st1" d="M61,169.2l-2.2,2.2"/>
	</g>
	<g>
		<g class="st2">
			<rect x="68.5" y="168" class="st3" width="7.8" height="5.6"/>
			<text transform="matrix(1 0 0 1 68.5106 172.0634)"><tspan x="0" y="0" class="st4 st5 st6">N</tspan><tspan x="4.3" y="0" class="st4 st5 st6">C</tspan></text>
		</g>
		<g class="st2">
			<rect x="68.5" y="168" class="st3" width="7.8" height="5.6"/>
			<text transform="matrix(1 0 0 1 68.5087 172.0619)"><tspan x="0" y="0" class="st7 st5 st6">N</tspan><tspan x="4.3" y="0" class="st7 st5 st6">C</tspan></text>
		</g>
		<path class="st8" d="M69.5,171.8v-3.6l2.1,3.6v-3.6"/>
		<path class="st8" d="M75.4,171.5l-0.1,0.2l-0.5,0.1h-0.4l-0.5-0.1l-0.4-0.4l-0.1-0.4l-0.2-0.6v-0.5l0.2-0.7l0.1-0.4l0.4-0.3
			l0.5-0.2h0.4l0.5,0.2l0.1,0.1"/>
	</g>
	<g>
		<g class="st2">
			<rect x="62.1" y="165.5" class="st3" width="3.9" height="5.6"/>
			<text transform="matrix(1 0 0 1 62.1493 169.5434)" class="st9 st5 st6">7</text>
		</g>
		<g class="st2">
			<rect x="62.1" y="165.5" class="st3" width="3.9" height="5.6"/>
			<text transform="matrix(1 0 0 1 62.1469 169.5419)" class="st10 st5 st6">7</text>
		</g>
		<path class="st1" d="M62.2,165.7h2.4l-1.5,3.6"/>
		<path class="st1" d="M67.1,184.7h-7.2"/>
		<path class="st1" d="M58.8,183.6l2.2,2.2"/>
		<path class="st1" d="M61,183.6l-2.2,2.2"/>
	</g>
	<g>
		<g class="st2">
			<rect x="68.5" y="182.4" class="st3" width="7.8" height="5.6"/>
			<text transform="matrix(1 0 0 1 68.5106 186.4633)"><tspan x="0" y="0" class="st4 st5 st6">N</tspan><tspan x="4.3" y="0" class="st4 st5 st6">C</tspan></text>
		</g>
		<g class="st2">
			<rect x="68.5" y="182.4" class="st3" width="7.8" height="5.6"/>
			<text transform="matrix(1 0 0 1 68.5087 186.4618)"><tspan x="0" y="0" class="st7 st5 st6">N</tspan><tspan x="4.3" y="0" class="st7 st5 st6">C</tspan></text>
		</g>
		<path class="st8" d="M69.5,186.2v-3.6l2.1,3.6v-3.6"/>
		<path class="st8" d="M75.4,185.9l-0.1,0.2l-0.5,0.1h-0.4l-0.5-0.1l-0.4-0.4l-0.1-0.4l-0.2-0.6v-0.5l0.2-0.7l0.1-0.4l0.4-0.3
			l0.5-0.2h0.4l0.5,0.2l0.1,0.1"/>
	</g>
	<g>
		<g class="st2">
			<rect x="62.1" y="179.9" class="st3" width="3.9" height="5.6"/>
			<text transform="matrix(1 0 0 1 62.1493 183.9433)" class="st9 st5 st6">8</text>
		</g>
		<g class="st2">
			<rect x="62.1" y="179.9" class="st3" width="3.9" height="5.6"/>
			<text transform="matrix(1 0 0 1 62.1469 183.9418)" class="st10 st5 st6">8</text>
		</g>
		<path class="st1" d="M63.1,181.7l-0.4-0.2l-0.1-0.1l-0.2-0.4v-0.1l0.2-0.4l0.1-0.1l0.4-0.2h0.6l0.4,0.2l0.1,0.1l0.2,0.4v0.1
			l-0.2,0.4l-0.1,0.1l-0.4,0.2H63.1l-0.4,0.1l-0.1,0.1l-0.2,0.4v0.7l0.2,0.3l0.1,0.2l0.4,0.1h0.6l0.4-0.1l0.1-0.2l0.2-0.3v-0.7
			l-0.2-0.4l-0.1-0.1l-0.4-0.1"/>
		<path class="st1" d="M81.5,199.1v7.2"/>
	</g>
	<g>
		<g transform="rotate(-90 22500 52800)">
			<g class="st2">
				<rect x="75102.8" y="30377.9" class="st3" width="6.9" height="7.7"/>
				<text transform="matrix(1 0 0 1 75102.375 30382.3652)" class="st4 st5 st6">IO1</text>
			</g>
			<g class="st2">
				<rect x="75102.8" y="30377.9" class="st3" width="6.9" height="7.7"/>
				<text transform="matrix(1 0 0 1 75102.375 30382.3633)" class="st7 st5 st6">IO1</text>
			</g>
		</g>
		<path class="st8" d="M83.1,196.5h-3.6"/>
		<path class="st8" d="M79.5,194.1v-0.6l0.2-0.4l0.3-0.4l0.7-0.1h1.2l0.7,0.1l0.4,0.4l0.1,0.4v0.6l-0.1,0.4l-0.4,0.4l-0.7,0.1h-1.2
			l-0.7-0.1l-0.3-0.4L79.5,194.1"/>
		<path class="st8" d="M83.1,189.1v2.1"/>
		<path class="st8" d="M83.1,190.2h-3.6l0.5,0.3l0.4,0.4l0.1,0.4"/>
	</g>
	<g>
		<g transform="rotate(-90 22400 53500)">
			<g class="st2">
				<rect x="75693.2" y="31177.6" class="st3" width="8.3" height="2.6"/>
				<text transform="matrix(1 0 0 1 75696.0156 31178.8301)" class="st9 st5 st6">9</text>
			</g>
			<g class="st2">
				<rect x="75693.2" y="31177.6" class="st3" width="8.3" height="2.6"/>
				<text transform="matrix(1 0 0 1 75696.0156 31178.8262)" class="st10 st5 st6">9</text>
			</g>
		</g>
		<path class="st1" d="M80.5,203.3v-0.6l-0.1-0.4l-0.2-0.2l-0.5-0.3l-0.6-0.2h-1.4l-0.4,0.2l-0.1,0.1l-0.2,0.4v0.6l0.2,0.4l0.1,0.1
			l0.4,0.2h0.9l0.3-0.2l0.2-0.1l0.1-0.4v-0.6l-0.1-0.4l-0.2-0.1l-0.3-0.2"/>
	</g>
	<g>
		<g transform="rotate(-90 29020 43000)">
			<g class="st2">
				<rect x="71889.1" y="14100.8" class="st3" width="7.7" height="15.4"/>
				<text transform="matrix(1 0 0 1 71885.2344 14108.6904)"><tspan x="0" y="0" class="st4 st5 st6">JDY-</tspan><tspan x="12.8" y="0" class="st4 st5 st6">1</tspan></text>
			</g>
			<g class="st2">
				<rect x="71889.1" y="14100.8" class="st3" width="7.7" height="15.4"/>
				<text transform="matrix(1 0 0 1 71885.2344 14108.6885)"><tspan x="0" y="0" class="st7 st5 st6">JDY-</tspan><tspan x="12.8" y="0" class="st7 st5 st6">1</tspan></text>
			</g>
		</g>
		<path class="st8" d="M126.4,135.5h2.6l0.5,0.2l0.4,0.4l0.1,0.5v0.3"/>
		<path class="st8" d="M130,133.8h-3.6V133l0.2-0.5l0.3-0.4l0.4-0.2l0.7-0.1h0.5l0.6,0.1l0.4,0.2l0.4,0.4l0.1,0.5V133.8"/>
		<path class="st8" d="M128.3,129.5h1.7"/>
		<path class="st8" d="M126.4,130.7l1.9-1.2l-1.9-1.2"/>
		<path class="st8" d="M128.6,127.1v-2.7"/>
		<path class="st8" d="M130,120.8v2"/>
		<path class="st8" d="M130,121.8h-3.6l0.5,0.4l0.4,0.3l0.1,0.4"/>
		<path class="st8" d="M126.4,117.7v0.6l0.2,0.4l0.1,0.1l0.5,0.4l0.7,0.2h1.4l0.3-0.2l0.2-0.1l0.1-0.4v-0.6l-0.1-0.4l-0.2-0.2
			l-0.3-0.1h-0.9l-0.4,0.1l-0.1,0.2l-0.2,0.4v0.6l0.2,0.4l0.1,0.1l0.4,0.2"/>
	</g>
</g>
<g>
	<path class="st14" d="M247.1,170.3h14.4"/>
	<path class="st14" d="M45.5,83.9V69.5"/>
	<path class="st14" d="M59.9,83.9H45.5"/>
	<path class="st14" d="M297.5,62.3V47.9"/>
	<path class="st14" d="M232.7,83.9h-28.8"/>
	<path class="st14" d="M232.7,98.3V83.9"/>
	<path class="st14" d="M247.1,220.7v-50.4"/>
	<path class="st14" d="M45.5,220.7h201.6"/>
	<path class="st14" d="M45.5,155.9v64.8"/>
	<path class="st14" d="M59.9,155.9H45.5"/>
	<path class="st14" d="M261.5,155.9h-57.6"/>
	<path class="st14" d="M261.5,141.5h-57.6"/>
	<path class="st14" d="M261.5,112.7h-57.6"/>
	<path class="st14" d="M261.5,83.9h-28.8"/>
</g>
<g>
	<g class="st2">
		<rect x="45.5" y="151.1" class="st3" width="8.6" height="5.6"/>
		<text transform="matrix(1 0 0 1 45.4706 155.1435)"><tspan x="0" y="0" class="st5 st6">IN</tspan><tspan x="5.7" y="0" class="st5 st6">T</tspan></text>
	</g>
	<g class="st2">
		<rect x="45.5" y="151.1" class="st3" width="8.6" height="5.6"/>
		<text transform="matrix(1 0 0 1 45.4686 155.1415)"><tspan x="0" y="0" class="st15 st5 st6">IN</tspan><tspan x="5.7" y="0" class="st15 st5 st6">T</tspan></text>
	</g>
	<path class="st16" d="M46.5,154.9v-3.6"/>
	<path class="st16" d="M48.2,154.9v-3.6l2.1,3.6v-3.6"/>
	<path class="st16" d="M51.4,151.3h2.1"/>
	<path class="st16" d="M52.5,154.9v-3.6"/>
</g>
<g>
	<circle class="st17" cx="232.7" cy="83.9" r="1.4"/>
</g>
<polyline class="st11" points="23.6,159.7 31.9,159.7 31.9,150.6 42.1,150.7 "/>
</svg>
