<?xml version="1.0" encoding="utf-8"?>
<!-- Generator: Adobe Illustrator 25.0.0, SVG Export Plug-In . SVG Version: 6.00 Build 0)  -->
<svg version="1.1" id="Capa_1" xmlns:svg="http://www.w3.org/2000/svg"
	 xmlns="http://www.w3.org/2000/svg" xmlns:xlink="http://www.w3.org/1999/xlink" x="0px" y="0px" viewBox="0 0 335.6 239.3"
	 style="enable-background:new 0 0 335.6 239.3;" xml:space="preserve">
<style type="text/css">
	.st0{fill:#FFFFC2;fill-opacity:0.6;}
	
		.st1{fill:#840000;fill-opacity:0;stroke:#840000;stroke-width:0.432;stroke-linecap:round;stroke-linejoin:round;stroke-miterlimit:10;}
	
		.st2{fill-rule:evenodd;clip-rule:evenodd;fill:#840000;stroke:#840000;stroke-width:0.432;stroke-linecap:round;stroke-linejoin:round;stroke-miterlimit:10;}
	.st3{opacity:0;enable-background:new    ;}
	.st4{fill:none;}
	.st5{fill:#008484;}
	.st6{font-family:'ArialMT';}
	.st7{font-size:4.752px;}
	.st8{fill:none;stroke:#008484;stroke-width:0.432;stroke-linecap:round;stroke-linejoin:round;}
	
		.st9{fill:#008484;fill-opacity:0;stroke:#008484;stroke-width:0.432;stroke-linecap:round;stroke-linejoin:round;stroke-miterlimit:10;}
	.st10{fill:#840000;}
	.st11{fill:none;stroke:#840000;stroke-width:0.432;stroke-linecap:round;stroke-linejoin:round;}
	.st12{letter-spacing:1;}
	.st13{fill:none;stroke:#840000;stroke-width:0.432;stroke-linecap:round;stroke-linejoin:round;stroke-miterlimit:10;}
	
		.st14{fill:#008400;fill-opacity:0;stroke:#008400;stroke-width:0.432;stroke-linecap:round;stroke-linejoin:round;stroke-miterlimit:10;}
	.st15{fill:none;stroke:#000000;stroke-width:0.432;stroke-linecap:round;stroke-linejoin:round;}
	.st16{fill-opacity:0;stroke:#000000;stroke-width:0.432;stroke-linecap:round;stroke-linejoin:round;stroke-miterlimit:10;}
	.st17{fill:#008400;stroke:#008400;stroke-width:0.72;stroke-linecap:round;stroke-linejoin:round;stroke-miterlimit:10;}
	.st18{fill:#840000;stroke:#840000;stroke-width:0.432;stroke-linecap:round;stroke-linejoin:round;stroke-miterlimit:10;}
</style>
<desc>Picture generated by Eeschema-SVG</desc>
<g transform="translate(0 0) scale(1 1)">
</g>
<g>
	<g>
		<rect x="60.9" y="10" class="st0" width="129.6" height="187.2"/>
	</g>
	<g>
		<rect x="60.9" y="10" class="st1" width="129.6" height="187.2"/>
		<rect x="78.9" y="78.4" class="st1" width="86.4" height="100.8"/>
		<rect x="60.9" y="10" class="st1" width="129.6" height="187.2"/>
	</g>
	<g>
		<path class="st2" d="M60.9,74.8h7.2v-54h10.8V64h7.2V20.8h18v28.8h21.6V20.8h21.6v28.8h21.6V20.8h14.4V64h7.2V13.6h-28.8v28.8
			h-7.2V13.6h-36v28.8h-7.2V13.6H60.9V74.8z"/>
	</g>
	<g>
		<path class="st1" d="M60.9,82h-7.2"/>
	</g>
	<g>
		<g class="st3">
			<rect x="62.3" y="79.7" class="st4" width="10.7" height="5.6"/>
			<text transform="matrix(1 0 0 1 62.2991 83.7574)"><tspan x="0" y="0" class="st5 st6 st7">VC</tspan><tspan x="7.3" y="0" class="st5 st6 st7">C</tspan></text>
		</g>
		<g class="st3">
			<rect x="62.3" y="79.7" class="st4" width="10.7" height="5.6"/>
			<text transform="matrix(1 0 0 1 62.2971 83.7559)"><tspan x="0" y="0" class="st8 st6 st7">VC</tspan><tspan x="7.3" y="0" class="st8 st6 st7">C</tspan></text>
		</g>
		<path class="st9" d="M62.8,79.9l1.2,3.6l1.2-3.6"/>
		<path class="st9" d="M68.5,83.2l-0.2,0.2l-0.5,0.1h-0.3l-0.6-0.1L66.6,83l-0.2-0.4L66.3,82v-0.5l0.1-0.7l0.2-0.4l0.3-0.3l0.6-0.2
			h0.3l0.5,0.2l0.2,0.1"/>
		<path class="st9" d="M72.1,83.2l-0.2,0.2l-0.5,0.1h-0.3l-0.6-0.1L70.2,83L70,82.7L69.9,82v-0.5l0.1-0.7l0.2-0.4l0.3-0.3l0.6-0.2
			h0.3l0.5,0.2l0.2,0.1"/>
	</g>
	<g>
		<g class="st3">
			<rect x="55.9" y="77.2" class="st4" width="3.9" height="5.6"/>
			<text transform="matrix(1 0 0 1 55.9377 81.2374)" class="st10 st6 st7">1</text>
		</g>
		<g class="st3">
			<rect x="55.9" y="77.2" class="st4" width="3.9" height="5.6"/>
			<text transform="matrix(1 0 0 1 55.9348 81.2359)" class="st11 st6 st7">1</text>
		</g>
		<path class="st1" d="M58.3,81h-2.1"/>
		<path class="st1" d="M57.3,81v-3.6l-0.4,0.5l-0.4,0.4l-0.4,0.1"/>
		<path class="st1" d="M89.7,197.2v7.2"/>
	</g>
	<g>
		<g transform="rotate(-90 65500 39300)">
			<g class="st3">
				<rect x="104604.7" y="-26113.9" class="st4" width="6.9" height="7.7"/>
				<text transform="matrix(1 0 0 1 104604.2812 -26109.4453)" class="st5 st6 st7">IO2</text>
			</g>
			<g class="st3">
				<rect x="104604.7" y="-26113.9" class="st4" width="6.9" height="7.7"/>
				<text transform="matrix(1 0 0 1 104604.2812 -26109.4473)" class="st8 st6 st7">IO2</text>
			</g>
		</g>
		<path class="st9" d="M91.2,194.6h-3.6"/>
		<path class="st9" d="M87.6,192.2v-0.6l0.2-0.4l0.3-0.4l0.7-0.1H90l0.7,0.1l0.4,0.4l0.1,0.4v0.6l-0.1,0.4l-0.4,0.4l-0.7,0.1h-1.2
			l-0.7-0.1l-0.3-0.4L87.6,192.2"/>
		<path class="st9" d="M88,189.3l-0.1-0.2l-0.2-0.3v-0.9l0.2-0.4l0.1-0.1l0.4-0.2h0.3l0.6,0.2l2,2v-2.2"/>
	</g>
	<g>
		<g transform="rotate(-90 65400 40000)">
			<g class="st3">
				<rect x="105195.4" y="-25315.4" class="st4" width="7.7" height="5.3"/>
				<text transform="matrix(1 0 0 1 105196.6016 -25312.5938)" class="st10 st6 st7">10</text>
			</g>
			<g class="st3">
				<rect x="105195.4" y="-25315.4" class="st4" width="7.7" height="5.3"/>
				<text transform="matrix(1 0 0 1 105196.6016 -25312.5957)" class="st11 st6 st7">10</text>
			</g>
		</g>
		<path class="st1" d="M88.7,201.4v2.1"/>
		<path class="st1" d="M88.7,202.4h-3.6l0.5,0.4l0.4,0.4l0.1,0.4"/>
		<path class="st1" d="M85.1,199.2v-0.4l0.2-0.3l0.1-0.2l0.4-0.1l0.6-0.2h0.9l0.7,0.2l0.3,0.1l0.2,0.2l0.1,0.3v0.4l-0.1,0.4
			l-0.2,0.1l-0.3,0.2l-0.7,0.1h-0.9l-0.6-0.1l-0.4-0.2l-0.1-0.1L85.1,199.2"/>
		<path class="st1" d="M104.1,197.2v7.2"/>
		<path class="st1" d="M103,203.3l2.2,2.2"/>
		<path class="st1" d="M105.1,203.3l-2.2,2.2"/>
	</g>
	<g>
		<g transform="rotate(-90 67500 39300)">
			<g class="st3">
				<rect x="106604.5" y="-28099" class="st4" width="6.4" height="6.9"/>
				<text transform="matrix(1 0 0 1 106604.2812 -28094.6836)" class="st5 st6 st7">NC</text>
			</g>
			<g class="st3">
				<rect x="106604.5" y="-28099" class="st4" width="6.4" height="6.9"/>
				<text transform="matrix(1 0 0 1 106604.2812 -28094.6855)" class="st8 st6 st7">NC</text>
			</g>
		</g>
		<path class="st9" d="M105.6,194.6H102l3.6-2.1H102"/>
		<path class="st9" d="M105.3,188.8l0.2,0.1l0.1,0.5v0.4l-0.1,0.5l-0.4,0.4l-0.4,0.1l-0.6,0.2h-0.5l-0.7-0.2l-0.4-0.1l-0.3-0.4
			l-0.2-0.5v-0.4l0.2-0.5l0.1-0.1"/>
	</g>
	<g>
		<g transform="rotate(-90 67400 40000)">
			<g class="st3">
				<rect x="107195.1" y="-27301" class="st4" width="8.3" height="4.9"/>
				<text transform="matrix(1 0 0 1 107196.7734 -27298.5938)" class="st10 st6 st7">1</text>
			</g>
			<g class="st3">
				<rect x="107195.1" y="-27301" class="st4" width="8.3" height="4.9"/>
				<text transform="matrix(1 0 0 1 107196.7734 -27298.5957)" class="st11 st6 st7">1</text>
			</g>
		</g>
		<path class="st1" d="M103.1,201.4v2.1"/>
		<path class="st1" d="M103.1,202.4h-3.6l0.5,0.4l0.4,0.4l0.1,0.4"/>
		<path class="st1" d="M103.1,197.9v2.1"/>
		<path class="st1" d="M103.1,199h-3.6l0.5,0.3l0.4,0.4l0.1,0.4"/>
		<path class="st1" d="M118.5,197.2v7.2"/>
		<path class="st1" d="M117.4,203.3l2.2,2.2"/>
		<path class="st1" d="M119.5,203.3l-2.2,2.2"/>
	</g>
	<g>
		<g transform="rotate(-90 69500 39300)">
			<g class="st3">
				<rect x="108604.5" y="-30084.6" class="st4" width="6.4" height="6.9"/>
				<text transform="matrix(1 0 0 1 108604.2812 -30080.2832)" class="st5 st6 st7">NC</text>
			</g>
			<g class="st3">
				<rect x="108604.5" y="-30084.6" class="st4" width="6.4" height="6.9"/>
				<text transform="matrix(1 0 0 1 108604.2812 -30080.2852)" class="st8 st6 st7">NC</text>
			</g>
		</g>
		<path class="st9" d="M120,194.6h-3.6l3.6-2.1h-3.6"/>
		<path class="st9" d="M119.7,188.8l0.2,0.1l0.1,0.5v0.4l-0.1,0.5l-0.4,0.4l-0.4,0.1l-0.6,0.2H118l-0.7-0.2l-0.4-0.1l-0.3-0.4
			l-0.2-0.5v-0.4l0.2-0.5l0.1-0.1"/>
	</g>
	<g>
		<g transform="rotate(-90 69400 40000)">
			<g class="st3">
				<rect x="109195.4" y="-29286.6" class="st4" width="7.7" height="5.3"/>
				<text transform="matrix(1 0 0 1 109196.6016 -29283.793)" class="st10 st6 st7">12</text>
			</g>
			<g class="st3">
				<rect x="109195.4" y="-29286.6" class="st4" width="7.7" height="5.3"/>
				<text transform="matrix(1 0 0 1 109196.6016 -29283.7949)" class="st11 st6 st7">12</text>
			</g>
		</g>
		<path class="st1" d="M117.5,201.4v2.1"/>
		<path class="st1" d="M117.5,202.4h-3.6l0.5,0.4l0.4,0.4l0.1,0.4"/>
		<path class="st1" d="M114.3,200l-0.1-0.1l-0.2-0.4v-0.9l0.2-0.4l0.1-0.1l0.4-0.2h0.3l0.6,0.2l2,2v-2.2"/>
		<path class="st1" d="M132.9,197.2v7.2"/>
	</g>
	<g>
		<g transform="rotate(-90 71500 39300)">
			<g class="st3">
				<rect x="110604.7" y="-32070.7" class="st4" width="6.9" height="7.7"/>
				<text transform="matrix(1 0 0 1 110604.2812 -32066.2461)" class="st5 st6 st7">IO3</text>
			</g>
			<g class="st3">
				<rect x="110604.7" y="-32070.7" class="st4" width="6.9" height="7.7"/>
				<text transform="matrix(1 0 0 1 110604.2812 -32066.248)" class="st8 st6 st7">IO3</text>
			</g>
		</g>
		<path class="st9" d="M134.4,194.6h-3.6"/>
		<path class="st9" d="M130.8,192.2v-0.6l0.2-0.4l0.3-0.4l0.7-0.1h1.2l0.7,0.1l0.4,0.4l0.1,0.4v0.6l-0.1,0.4l-0.4,0.4l-0.7,0.1h-1.2
			l-0.7-0.1l-0.3-0.4L130.8,192.2"/>
		<path class="st9" d="M130.8,189.5v-2.2l1.4,1.2v-0.5l0.2-0.4l0.1-0.1l0.4-0.2h0.9l0.3,0.2l0.2,0.1l0.1,0.4v1l-0.1,0.4l-0.2,0.1"/>
	</g>
	<g>
		<g transform="rotate(-90 71400 40000)">
			<g class="st3">
				<rect x="111195.4" y="-31272.2" class="st4" width="7.7" height="5.3"/>
				<text transform="matrix(1 0 0 1 111196.6016 -31269.3926)" class="st10 st6 st7">13</text>
			</g>
			<g class="st3">
				<rect x="111195.4" y="-31272.2" class="st4" width="7.7" height="5.3"/>
				<text transform="matrix(1 0 0 1 111196.6016 -31269.3945)" class="st11 st6 st7">13</text>
			</g>
		</g>
		<path class="st1" d="M131.9,201.4v2.1"/>
		<path class="st1" d="M131.9,202.4h-3.6l0.5,0.4l0.4,0.4l0.1,0.4"/>
		<path class="st1" d="M128.3,200.2v-2.2l1.4,1.2v-0.5l0.2-0.4l0.1-0.1l0.4-0.2h0.9l0.3,0.2l0.2,0.1l0.1,0.4v1l-0.1,0.4l-0.2,0.1"/>
		<path class="st1" d="M147.3,197.2v7.2"/>
	</g>
	<g>
		<g transform="rotate(-90 73500 39300)">
			<g class="st3">
				<rect x="112608.3" y="-34059.5" class="st4" width="6.2" height="14.3"/>
				<text transform="matrix(1 0 0 1 112604.2812 -34051.3516)" class="st5 st6 st7">PWM3</text>
			</g>
			<g class="st3">
				<rect x="112608.3" y="-34059.5" class="st4" width="6.2" height="14.3"/>
				<text transform="matrix(1 0 0 1 112604.2812 -34051.3555)" class="st8 st6 st7">PWM3</text>
			</g>
		</g>
		<path class="st9" d="M148.8,194.6h-3.6v-1.4l0.2-0.4l0.1-0.2l0.4-0.1h0.5l0.4,0.1l0.1,0.2l0.1,0.4v1.4"/>
		<path class="st9" d="M145.2,191.3l3.6-0.9l-2.6-0.6l2.6-0.7l-3.6-0.8"/>
		<path class="st9" d="M148.8,186.9h-3.6l2.6-1.2l-2.6-1.2h3.6"/>
		<path class="st9" d="M145.2,183.1v-2.2l1.4,1.2v-0.5l0.2-0.4l0.1-0.1l0.4-0.2h0.9l0.3,0.2l0.2,0.1l0.1,0.4v1l-0.1,0.4l-0.2,0.1"/>
	</g>
	<g>
		<g transform="rotate(-90 73400 40000)">
			<g class="st3">
				<rect x="113195.4" y="-33257.8" class="st4" width="7.7" height="5.3"/>
				<text transform="matrix(1 0 0 1 113196.6016 -33254.9922)" class="st10 st6 st7">14</text>
			</g>
			<g class="st3">
				<rect x="113195.4" y="-33257.8" class="st4" width="7.7" height="5.3"/>
				<text transform="matrix(1 0 0 1 113196.6016 -33254.9961)" class="st11 st6 st7">14</text>
			</g>
		</g>
		<path class="st1" d="M146.3,201.4v2.1"/>
		<path class="st1" d="M146.3,202.4h-3.6l0.5,0.4l0.4,0.4l0.1,0.4"/>
		<path class="st1" d="M143.9,198.3h2.4"/>
		<path class="st1" d="M142.6,199.2l2.5,0.9v-2.2"/>
		<path class="st1" d="M161.7,197.2v7.2"/>
	</g>
	<g>
		<g transform="rotate(-90 75500 39300)">
			<g class="st3">
				<rect x="114608.3" y="-36045.1" class="st4" width="6.2" height="14.3"/>
				<text transform="matrix(1 0 0 1 114604.2812 -36036.9531)" class="st5 st6 st7">PWM4</text>
			</g>
			<g class="st3">
				<rect x="114608.3" y="-36045.1" class="st4" width="6.2" height="14.3"/>
				<text transform="matrix(1 0 0 1 114604.2812 -36036.9531)" class="st8 st6 st7">PWM4</text>
			</g>
		</g>
		<path class="st9" d="M163.2,194.6h-3.6v-1.4l0.2-0.4l0.1-0.2l0.4-0.1h0.5l0.4,0.1l0.1,0.2l0.1,0.4v1.4"/>
		<path class="st9" d="M159.6,191.3l3.6-0.9l-2.6-0.6l2.6-0.7l-3.6-0.8"/>
		<path class="st9" d="M163.2,186.9h-3.6l2.6-1.2l-2.6-1.2h3.6"/>
		<path class="st9" d="M160.9,181.2h2.4"/>
		<path class="st9" d="M159.5,182.1l2.5,0.9v-2.2"/>
	</g>
	<g>
		<g transform="rotate(-90 75400 40000)">
			<g class="st3">
				<rect x="115195.4" y="-35243.4" class="st4" width="7.7" height="5.3"/>
				<text transform="matrix(1 0 0 1 115196.6016 -35240.5938)" class="st10 st6 st7">15</text>
			</g>
			<g class="st3">
				<rect x="115195.4" y="-35243.4" class="st4" width="7.7" height="5.3"/>
				<text transform="matrix(1 0 0 1 115196.6016 -35240.5938)" class="st11 st6 st7">15</text>
			</g>
		</g>
		<path class="st1" d="M160.7,201.4v2.1"/>
		<path class="st1" d="M160.7,202.4h-3.6l0.5,0.4l0.4,0.4l0.1,0.4"/>
		<path class="st1" d="M157.1,198.2v1.7l1.7,0.1l-0.1-0.1l-0.2-0.4v-0.9l0.2-0.4l0.1-0.1l0.4-0.2h0.9l0.3,0.2l0.2,0.1l0.1,0.4v0.9
			l-0.1,0.4l-0.2,0.1"/>
		<path class="st1" d="M176.1,197.2v7.2"/>
		<path class="st1" d="M175,203.3l2.2,2.2"/>
		<path class="st1" d="M177.1,203.3l-2.2,2.2"/>
	</g>
	<g>
		<g transform="rotate(-90 77500 39300)">
			<g class="st3">
				<rect x="116604.5" y="-38027" class="st4" width="6.4" height="6.9"/>
				<text transform="matrix(1 0 0 1 116604.2812 -38022.6836)" class="st5 st6 st7">NC</text>
			</g>
			<g class="st3">
				<rect x="116604.5" y="-38027" class="st4" width="6.4" height="6.9"/>
				<text transform="matrix(1 0 0 1 116604.2812 -38022.6836)" class="st8 st6 st7">NC</text>
			</g>
		</g>
		<path class="st9" d="M177.6,194.6H174l3.6-2.1H174"/>
		<path class="st9" d="M177.3,188.8l0.2,0.1l0.1,0.5v0.4l-0.1,0.5l-0.4,0.4l-0.4,0.1l-0.6,0.2h-0.5l-0.7-0.2l-0.4-0.1l-0.3-0.4
			l-0.2-0.5v-0.4l0.2-0.5l0.1-0.1"/>
	</g>
	<g>
		<g transform="rotate(-90 77400 40000)">
			<g class="st3">
				<rect x="117195.4" y="-37229" class="st4" width="7.7" height="5.3"/>
				<text transform="matrix(1 0 0 1 117196.6016 -37226.1914)" class="st10 st6 st7">16</text>
			</g>
			<g class="st3">
				<rect x="117195.4" y="-37229.1" class="st4" width="7.7" height="5.3"/>
				<text transform="matrix(1 0 0 1 117196.6016 -37226.1953)" class="st11 st6 st7">16</text>
			</g>
		</g>
		<path class="st1" d="M175.1,201.4v2.1"/>
		<path class="st1" d="M175.1,202.4h-3.6l0.5,0.4l0.4,0.4l0.1,0.4"/>
		<path class="st1" d="M171.5,198.3v0.7l0.2,0.3l0.1,0.2l0.5,0.4l0.7,0.1h1.4l0.3-0.1l0.2-0.2l0.1-0.4v-0.6l-0.1-0.4l-0.2-0.1
			l-0.3-0.2h-0.9l-0.4,0.2l-0.1,0.1l-0.2,0.4v0.6l0.2,0.4l0.1,0.2l0.4,0.1"/>
		<path class="st1" d="M190.5,182.8h7.2"/>
	</g>
	<g>
		<g class="st3">
			<rect x="176.6" y="180.5" class="st4" width="13.3" height="5.6"/>
			<text transform="matrix(1 0 0 1 176.5969 184.5572)"><tspan x="0" y="0" class="st5 st6 st7">ALE</tspan><tspan x="9.9" y="0" class="st5 st6 st7">D</tspan></text>
		</g>
		<g class="st3">
			<rect x="176.6" y="180.5" class="st4" width="13.3" height="5.6"/>
			<text transform="matrix(1 0 0 1 176.5959 184.5558)"><tspan x="0" y="0" class="st8 st6 st7">ALE</tspan><tspan x="9.9" y="0" class="st8 st6 st7">D</tspan></text>
		</g>
		<path class="st9" d="M176.6,183.3h1.7"/>
		<path class="st9" d="M176.3,184.3l1.2-3.6l1.2,3.6"/>
		<path class="st9" d="M181.6,184.3h-1.7v-3.6"/>
		<path class="st9" d="M182.8,182.5h1.2"/>
		<path class="st9" d="M184.5,184.3h-1.7v-3.6h1.7"/>
		<path class="st9" d="M186,184.3v-3.6h0.9l0.5,0.2l0.4,0.3l0.2,0.4l0.1,0.7v0.5l-0.1,0.6l-0.2,0.4l-0.4,0.4l-0.5,0.1H186"/>
	</g>
	<g>
		<g class="st3">
			<rect x="191.4" y="178" class="st4" width="7.3" height="5.6"/>
			<text transform="matrix(1 0 0 1 191.4162 182.0372)"><tspan x="0" y="0" class="st10 st6 st7 st12">1</tspan><tspan x="4.6" y="0" class="st10 st6 st7">7</tspan></text>
		</g>
		<g class="st3">
			<rect x="191.4" y="178" class="st4" width="7.3" height="5.6"/>
			<text transform="matrix(1 0 0 1 191.4133 182.0357)"><tspan x="0" y="0" class="st11 st6 st7 st12">1</tspan><tspan x="4.6" y="0" class="st11 st6 st7">7</tspan></text>
		</g>
		<path class="st1" d="M193.3,181.8h-2.1"/>
		<path class="st1" d="M192.3,181.8v-3.6l-0.4,0.5l-0.4,0.4l-0.4,0.1"/>
		<path class="st1" d="M194.6,178.2h2.4l-1.5,3.6"/>
		<path class="st1" d="M190.5,168.4h7.2"/>
	</g>
	<g>
		<g class="st3">
			<rect x="176.2" y="166.1" class="st4" width="13.5" height="5.6"/>
			<text transform="matrix(1 0 0 1 176.1692 170.1573)"><tspan x="0" y="0" class="st5 st6 st7">RTC</tspan><tspan x="10.3" y="0" class="st5 st6 st7">A</tspan></text>
		</g>
		<g class="st3">
			<rect x="176.2" y="166.1" class="st4" width="13.5" height="5.6"/>
			<text transform="matrix(1 0 0 1 176.1672 170.1559)"><tspan x="0" y="0" class="st8 st6 st7">RTC</tspan><tspan x="10.3" y="0" class="st8 st6 st7">A</tspan></text>
		</g>
		<path class="st9" d="M178.7,169.9l-1.2-1.7"/>
		<path class="st9" d="M176.6,169.9v-3.6h1.4l0.3,0.2l0.2,0.1l0.1,0.4v0.5l-0.1,0.4l-0.2,0.1l-0.3,0.1h-1.4"/>
		<path class="st9" d="M179.7,166.3h2.1"/>
		<path class="st9" d="M180.7,169.9v-3.6"/>
		<path class="st9" d="M185,169.6l-0.1,0.2l-0.5,0.1H184l-0.5-0.1l-0.4-0.4l-0.1-0.4l-0.2-0.6v-0.5l0.2-0.7l0.1-0.4l0.4-0.3l0.5-0.2
			h0.4l0.5,0.2l0.1,0.1"/>
		<path class="st9" d="M186.4,168.9h1.7"/>
		<path class="st9" d="M186,169.9l1.2-3.6l1.2,3.6"/>
	</g>
	<g>
		<g class="st3">
			<rect x="191.4" y="163.6" class="st4" width="7.3" height="5.6"/>
			<text transform="matrix(1 0 0 1 191.4162 167.6373)"><tspan x="0" y="0" class="st10 st6 st7 st12">1</tspan><tspan x="4.6" y="0" class="st10 st6 st7">8</tspan></text>
		</g>
		<g class="st3">
			<rect x="191.4" y="163.6" class="st4" width="7.3" height="5.6"/>
			<text transform="matrix(1 0 0 1 191.4133 167.6358)"><tspan x="0" y="0" class="st11 st6 st7 st12">1</tspan><tspan x="4.6" y="0" class="st11 st6 st7">8</tspan></text>
		</g>
		<path class="st1" d="M193.3,167.4h-2.1"/>
		<path class="st1" d="M192.3,167.4v-3.6l-0.4,0.5l-0.4,0.4l-0.4,0.1"/>
		<path class="st1" d="M195.4,165.4l-0.4-0.2l-0.2-0.1l-0.1-0.4v-0.1l0.1-0.4l0.2-0.1l0.4-0.2h0.6l0.4,0.2l0.1,0.1l0.2,0.4v0.1
			l-0.2,0.4l-0.1,0.1l-0.4,0.2H195.4l-0.4,0.1l-0.2,0.1l-0.1,0.4v0.7l0.1,0.3l0.2,0.2l0.4,0.1h0.6l0.4-0.1l0.1-0.2l0.2-0.3v-0.7
			l-0.2-0.4l-0.1-0.1l-0.4-0.1"/>
		<path class="st1" d="M190.5,154h7.2"/>
	</g>
	<g>
		<g class="st3">
			<rect x="170" y="151.7" class="st4" width="20.2" height="5.6"/>
			<text transform="matrix(1 0 0 1 170.008 155.7574)"><tspan x="0" y="0" class="st5 st6 st7">TXD_D</tspan><tspan x="16.7" y="0" class="st5 st6 st7">D</tspan></text>
		</g>
		<g class="st3">
			<rect x="170" y="151.7" class="st4" width="20.2" height="5.6"/>
			<text transform="matrix(1 0 0 1 170.0071 155.756)"><tspan x="0" y="0" class="st8 st6 st7">TXD_D</tspan><tspan x="16.7" y="0" class="st8 st6 st7">D</tspan></text>
		</g>
		<path class="st9" d="M169.4,151.9h2.1"/>
		<path class="st9" d="M170.4,155.5v-3.6"/>
		<path class="st9" d="M172.3,151.9l2.4,3.6"/>
		<path class="st9" d="M174.7,151.9l-2.4,3.6"/>
		<path class="st9" d="M176.1,155.5v-3.6h0.9l0.5,0.2l0.4,0.3l0.2,0.4l0.1,0.7v0.5l-0.1,0.6l-0.2,0.4l-0.4,0.4l-0.5,0.1H176.1"/>
		<path class="st9" d="M178.8,155.9h2.8"/>
		<path class="st9" d="M182.4,155.5v-3.6h0.9l0.5,0.2l0.4,0.3l0.2,0.4l0.1,0.7v0.5l-0.1,0.6l-0.2,0.4l-0.4,0.4l-0.5,0.1H182.4"/>
		<path class="st9" d="M186,155.5v-3.6h0.9l0.5,0.2l0.4,0.3l0.2,0.4l0.1,0.7v0.5l-0.1,0.6l-0.2,0.4l-0.4,0.4l-0.5,0.1H186"/>
	</g>
	<g>
		<g class="st3">
			<rect x="191.4" y="149.2" class="st4" width="7.3" height="5.6"/>
			<text transform="matrix(1 0 0 1 191.4162 153.2374)"><tspan x="0" y="0" class="st10 st6 st7 st12">1</tspan><tspan x="4.6" y="0" class="st10 st6 st7">9</tspan></text>
		</g>
		<g class="st3">
			<rect x="191.4" y="149.2" class="st4" width="7.3" height="5.6"/>
			<text transform="matrix(1 0 0 1 191.4133 153.2359)"><tspan x="0" y="0" class="st11 st6 st7 st12">1</tspan><tspan x="4.6" y="0" class="st11 st6 st7">9</tspan></text>
		</g>
		<path class="st1" d="M193.3,153h-2.1"/>
		<path class="st1" d="M192.3,153v-3.6l-0.4,0.5l-0.4,0.4l-0.4,0.1"/>
		<path class="st1" d="M195.1,153h0.6l0.4-0.1l0.1-0.2l0.4-0.5l0.2-0.6v-1.4l-0.2-0.4l-0.1-0.1l-0.4-0.2h-0.6l-0.4,0.2l-0.2,0.1
			l-0.1,0.4v0.9l0.1,0.3l0.2,0.2l0.4,0.1h0.6l0.4-0.1l0.1-0.2l0.2-0.3"/>
		<path class="st1" d="M60.9,96.4h-7.2"/>
	</g>
	<g>
		<g class="st3">
			<rect x="62.3" y="94.1" class="st4" width="15.7" height="5.6"/>
			<text transform="matrix(1 0 0 1 62.2991 98.1573)"><tspan x="0" y="0" class="st5 st6 st7">PWM</tspan><tspan x="13.1" y="0" class="st5 st6 st7">1</tspan></text>
		</g>
		<g class="st3">
			<rect x="62.3" y="94.1" class="st4" width="15.7" height="5.6"/>
			<text transform="matrix(1 0 0 1 62.2971 98.1558)"><tspan x="0" y="0" class="st8 st6 st7">PWM</tspan><tspan x="13.1" y="0" class="st8 st6 st7">1</tspan></text>
		</g>
		<path class="st9" d="M63.3,97.9v-3.6h1.4l0.4,0.2l0.2,0.1l0.1,0.4v0.5l-0.1,0.4L65,96.1l-0.4,0.1h-1.4"/>
		<path class="st9" d="M66.6,94.3l0.9,3.6l0.6-2.6l0.7,2.6l0.9-3.6"/>
		<path class="st9" d="M71.1,97.9v-3.6l1.2,2.6l1.2-2.6v3.6"/>
		<path class="st9" d="M77.1,97.9H75"/>
		<path class="st9" d="M76.1,97.9v-3.6l-0.4,0.5l-0.4,0.4L75,95.3"/>
	</g>
	<g>
		<g class="st3">
			<rect x="55.9" y="91.6" class="st4" width="3.9" height="5.6"/>
			<text transform="matrix(1 0 0 1 55.9377 95.6373)" class="st10 st6 st7">2</text>
		</g>
		<g class="st3">
			<rect x="55.9" y="91.6" class="st4" width="3.9" height="5.6"/>
			<text transform="matrix(1 0 0 1 55.9348 95.6358)" class="st11 st6 st7">2</text>
		</g>
		<path class="st1" d="M56.2,92.2l0.2-0.1l0.3-0.2h0.9l0.4,0.2l0.1,0.1l0.2,0.4v0.3l-0.2,0.6l-2,2h2.2"/>
		<path class="st1" d="M190.5,139.6h7.2"/>
	</g>
	<g>
		<g class="st3">
			<rect x="169.5" y="137.3" class="st4" width="21" height="5.6"/>
			<text transform="matrix(1 0 0 1 169.4797 141.3575)"><tspan x="0" y="0" class="st5 st6 st7">RXD_D</tspan><tspan x="17.6" y="0" class="st5 st6 st7">C</tspan></text>
		</g>
		<g class="st3">
			<rect x="169.5" y="137.3" class="st4" width="21" height="5.6"/>
			<text transform="matrix(1 0 0 1 169.4778 141.356)"><tspan x="0" y="0" class="st8 st6 st7">RXD_D</tspan><tspan x="17.6" y="0" class="st8 st6 st7">C</tspan></text>
		</g>
		<path class="st9" d="M171.1,141.1l-1.2-1.7"/>
		<path class="st9" d="M169.1,141.1v-3.6h1.4l0.4,0.2l0.1,0.1l0.1,0.4v0.5l-0.1,0.4l-0.1,0.1l-0.4,0.1h-1.4"/>
		<path class="st9" d="M172.3,137.5l2.4,3.6"/>
		<path class="st9" d="M174.7,137.5l-2.4,3.6"/>
		<path class="st9" d="M176.1,141.1v-3.6h0.9l0.5,0.2l0.4,0.3l0.2,0.4l0.1,0.7v0.5l-0.1,0.6l-0.2,0.4l-0.4,0.4l-0.5,0.1H176.1"/>
		<path class="st9" d="M178.8,141.5h2.8"/>
		<path class="st9" d="M182.4,141.1v-3.6h0.9l0.5,0.2l0.4,0.3l0.2,0.4l0.1,0.7v0.5l-0.1,0.6l-0.2,0.4l-0.4,0.4l-0.5,0.1H182.4"/>
		<path class="st9" d="M188.1,140.8l-0.1,0.2l-0.6,0.1h-0.3l-0.5-0.1l-0.4-0.4l-0.2-0.4l-0.1-0.6v-0.5l0.1-0.7l0.2-0.4l0.4-0.3
			l0.5-0.2h0.3l0.6,0.2l0.1,0.1"/>
	</g>
	<g>
		<g class="st3">
			<rect x="191.4" y="134.8" class="st4" width="7.3" height="5.6"/>
			<text transform="matrix(1 0 0 1 191.4162 138.8375)"><tspan x="0" y="0" class="st10 st6 st7 st12">2</tspan><tspan x="4.6" y="0" class="st10 st6 st7">0</tspan></text>
		</g>
		<g class="st3">
			<rect x="191.4" y="134.8" class="st4" width="7.3" height="5.6"/>
			<text transform="matrix(1 0 0 1 191.4133 138.836)"><tspan x="0" y="0" class="st11 st6 st7 st12">2</tspan><tspan x="4.6" y="0" class="st11 st6 st7">0</tspan></text>
		</g>
		<path class="st1" d="M191.3,135.4l0.2-0.1l0.4-0.2h0.8l0.4,0.2l0.2,0.1l0.1,0.4v0.3l-0.1,0.6l-2.1,2h2.2"/>
		<path class="st1" d="M195.6,135h0.4l0.3,0.2l0.2,0.1l0.1,0.4l0.2,0.6v0.9l-0.2,0.7l-0.1,0.3l-0.2,0.2l-0.3,0.1h-0.4l-0.4-0.1
			l-0.1-0.2l-0.2-0.3l-0.1-0.7v-0.9l0.1-0.6l0.2-0.4l0.1-0.1L195.6,135"/>
		<path class="st1" d="M190.5,125.2h7.2"/>
	</g>
	<g>
		<g class="st3">
			<rect x="170.5" y="122.9" class="st4" width="19.7" height="5.6"/>
			<text transform="matrix(1 0 0 1 170.5325 126.9576)"><tspan x="0" y="0" class="st5 st6 st7">SELEC</tspan><tspan x="16.8" y="0" class="st5 st6 st7">T</tspan></text>
		</g>
		<g class="st3">
			<rect x="170.5" y="122.9" class="st4" width="19.7" height="5.6"/>
			<text transform="matrix(1 0 0 1 170.5315 126.9557)"><tspan x="0" y="0" class="st8 st6 st7">SELEC</tspan><tspan x="16.8" y="0" class="st8 st6 st7">T</tspan></text>
		</g>
		<path class="st9" d="M170.2,126.6l0.6,0.1h0.8l0.4-0.1l0.2-0.2l0.1-0.3v-0.4l-0.1-0.4l-0.2-0.1l-0.4-0.2l-0.6-0.1l-0.4-0.1
			l-0.1-0.2l-0.2-0.4v-0.3l0.2-0.4l0.1-0.1l0.4-0.2h0.9l0.5,0.2"/>
		<path class="st9" d="M173.8,124.9h1.2"/>
		<path class="st9" d="M175.6,126.7h-1.7v-3.6h1.7"/>
		<path class="st9" d="M178.8,126.7h-1.7v-3.6"/>
		<path class="st9" d="M180,124.9h1.2"/>
		<path class="st9" d="M181.7,126.7H180v-3.6h1.7"/>
		<path class="st9" d="M185.3,126.4l-0.1,0.2l-0.6,0.1h-0.3l-0.6-0.1l-0.3-0.4l-0.2-0.4l-0.1-0.6v-0.5l0.1-0.7l0.2-0.4l0.3-0.3
			l0.6-0.2h0.3l0.6,0.2l0.1,0.1"/>
		<path class="st9" d="M186.4,123.1h2.1"/>
		<path class="st9" d="M187.4,126.7v-3.6"/>
	</g>
	<g>
		<g class="st3">
			<rect x="191.4" y="120.4" class="st4" width="7.3" height="5.6"/>
			<text transform="matrix(1 0 0 1 191.4162 124.4376)"><tspan x="0" y="0" class="st10 st6 st7 st12">2</tspan><tspan x="4.6" y="0" class="st10 st6 st7">1</tspan></text>
		</g>
		<g class="st3">
			<rect x="191.4" y="120.4" class="st4" width="7.3" height="5.6"/>
			<text transform="matrix(1 0 0 1 191.4133 124.4356)"><tspan x="0" y="0" class="st11 st6 st7 st12">2</tspan><tspan x="4.6" y="0" class="st11 st6 st7">1</tspan></text>
		</g>
		<path class="st1" d="M191.3,121l0.2-0.1l0.4-0.2h0.8l0.4,0.2l0.2,0.1l0.1,0.4v0.3l-0.1,0.6l-2.1,2h2.2"/>
		<path class="st1" d="M196.8,124.2h-2.1"/>
		<path class="st1" d="M195.7,124.2v-3.6l-0.3,0.5l-0.4,0.4l-0.4,0.1"/>
		<path class="st1" d="M190.5,110.8h7.2"/>
	</g>
	<g>
		<g class="st3">
			<rect x="174.5" y="108.5" class="st4" width="15.3" height="5.6"/>
			<text transform="matrix(1 0 0 1 174.5002 112.5572)"><tspan x="0" y="0" class="st5 st6 st7">PWR</tspan><tspan x="11.9" y="0" class="st5 st6 st7">C</tspan></text>
		</g>
		<g class="st3">
			<rect x="174.5" y="108.5" class="st4" width="15.3" height="5.6"/>
			<text transform="matrix(1 0 0 1 174.4993 112.5557)"><tspan x="0" y="0" class="st8 st6 st7">PWR</tspan><tspan x="11.9" y="0" class="st8 st6 st7">C</tspan></text>
		</g>
		<path class="st9" d="M174.7,112.3v-3.6h1.4l0.4,0.2l0.1,0.1l0.2,0.4v0.5l-0.2,0.4l-0.1,0.1l-0.4,0.1h-1.4"/>
		<path class="st9" d="M178,108.7l0.8,3.6l0.7-2.6l0.6,2.6l0.9-3.6"/>
		<path class="st9" d="M184.5,112.3l-1.2-1.7"/>
		<path class="st9" d="M182.4,112.3v-3.6h1.4l0.4,0.2l0.2,0.1l0.1,0.4v0.5l-0.1,0.4l-0.2,0.1l-0.4,0.1h-1.4"/>
		<path class="st9" d="M188.1,112l-0.1,0.2l-0.6,0.1h-0.3l-0.5-0.1l-0.4-0.4l-0.2-0.4l-0.1-0.6v-0.5l0.1-0.7l0.2-0.4l0.4-0.3
			l0.5-0.2h0.3l0.6,0.2l0.1,0.1"/>
	</g>
	<g>
		<g class="st3">
			<rect x="191.4" y="106" class="st4" width="7.3" height="5.6"/>
			<text transform="matrix(1 0 0 1 191.4162 110.0372)"><tspan x="0" y="0" class="st10 st6 st7 st12">2</tspan><tspan x="4.6" y="0" class="st10 st6 st7">2</tspan></text>
		</g>
		<g class="st3">
			<rect x="191.4" y="106" class="st4" width="7.3" height="5.6"/>
			<text transform="matrix(1 0 0 1 191.4133 110.0357)"><tspan x="0" y="0" class="st11 st6 st7 st12">2</tspan><tspan x="4.6" y="0" class="st11 st6 st7">2</tspan></text>
		</g>
		<path class="st1" d="M191.3,106.6l0.2-0.1l0.4-0.2h0.8l0.4,0.2l0.2,0.1l0.1,0.4v0.3l-0.1,0.6l-2.1,2h2.2"/>
		<path class="st1" d="M194.7,106.6l0.1-0.1l0.4-0.2h0.9l0.4,0.2l0.1,0.1l0.2,0.4v0.3l-0.2,0.6l-2,2h2.2"/>
		<path class="st1" d="M190.5,96.4h7.2"/>
	</g>
	<g>
		<g class="st3">
			<rect x="173.2" y="94.1" class="st4" width="16.7" height="5.6"/>
			<text transform="matrix(1 0 0 1 173.176 98.1573)"><tspan x="0" y="0" class="st5 st6 st7">RESE</tspan><tspan x="13.8" y="0" class="st5 st6 st7">T</tspan></text>
		</g>
		<g class="st3">
			<rect x="173.2" y="94.1" class="st4" width="16.7" height="5.6"/>
			<text transform="matrix(1 0 0 1 173.1741 98.1558)"><tspan x="0" y="0" class="st8 st6 st7">RESE</tspan><tspan x="13.8" y="0" class="st8 st6 st7">T</tspan></text>
		</g>
		<path class="st9" d="M175.4,97.9l-1.2-1.7"/>
		<path class="st9" d="M173.3,97.9v-3.6h1.4l0.4,0.2l0.1,0.1l0.2,0.4v0.5l-0.2,0.4l-0.1,0.1l-0.4,0.1h-1.4"/>
		<path class="st9" d="M176.9,96.1h1.2"/>
		<path class="st9" d="M178.7,97.9h-1.7v-3.6h1.7"/>
		<path class="st9" d="M180,97.8l0.5,0.1h0.9l0.4-0.1l0.1-0.2l0.2-0.3v-0.4l-0.2-0.4l-0.1-0.1l-0.4-0.2l-0.6-0.1l-0.4-0.1l-0.2-0.2
			l-0.1-0.4v-0.3l0.1-0.4l0.2-0.1l0.4-0.2h0.9l0.5,0.2"/>
		<path class="st9" d="M183.6,96.1h1.2"/>
		<path class="st9" d="M185.3,97.9h-1.7v-3.6h1.7"/>
		<path class="st9" d="M186.4,94.3h2.1"/>
		<path class="st9" d="M187.4,97.9v-3.6"/>
	</g>
	<g>
		<g class="st3">
			<rect x="191.4" y="91.6" class="st4" width="7.3" height="5.6"/>
			<text transform="matrix(1 0 0 1 191.4162 95.6373)"><tspan x="0" y="0" class="st10 st6 st7 st12">2</tspan><tspan x="4.6" y="0" class="st10 st6 st7">3</tspan></text>
		</g>
		<g class="st3">
			<rect x="191.4" y="91.6" class="st4" width="7.3" height="5.6"/>
			<text transform="matrix(1 0 0 1 191.4133 95.6358)"><tspan x="0" y="0" class="st11 st6 st7 st12">2</tspan><tspan x="4.6" y="0" class="st11 st6 st7">3</tspan></text>
		</g>
		<path class="st1" d="M191.3,92.2l0.2-0.1l0.4-0.2h0.8L193,92l0.2,0.1l0.1,0.4v0.3l-0.1,0.6l-2.1,2h2.2"/>
		<path class="st1" d="M194.6,91.8h2.2l-1.2,1.4h0.5l0.4,0.2l0.1,0.1l0.2,0.4v0.9l-0.2,0.3l-0.1,0.2l-0.4,0.1h-1l-0.4-0.1l-0.1-0.2"
			/>
		<path class="st1" d="M190.5,82h7.2"/>
	</g>
	<g>
		<g class="st3">
			<rect x="178.5" y="79.7" class="st4" width="11.4" height="5.6"/>
			<text transform="matrix(1 0 0 1 178.4592 83.7574)"><tspan x="0" y="0" class="st5 st6 st7">GN</tspan><tspan x="7.9" y="0" class="st5 st6 st7">D</tspan></text>
		</g>
		<g class="st3">
			<rect x="178.5" y="79.7" class="st4" width="11.4" height="5.6"/>
			<text transform="matrix(1 0 0 1 178.4573 83.7559)"><tspan x="0" y="0" class="st8 st6 st7">GN</tspan><tspan x="7.9" y="0" class="st8 st6 st7">D</tspan></text>
		</g>
		<path class="st9" d="M180.5,80.2l-0.4-0.2h-0.5l-0.5,0.2l-0.4,0.3l-0.1,0.4l-0.1,0.7V82l0.1,0.6l0.1,0.4l0.4,0.4l0.5,0.1h0.4
			l0.5-0.1l0.2-0.2V82H180"/>
		<path class="st9" d="M182.3,83.5v-3.6l2.1,3.6v-3.6"/>
		<path class="st9" d="M186,83.5v-3.6h0.9l0.5,0.2l0.4,0.3l0.2,0.4l0.1,0.7V82l-0.1,0.6l-0.2,0.4l-0.4,0.4l-0.5,0.1H186"/>
	</g>
	<g>
		<g class="st3">
			<rect x="191.4" y="77.2" class="st4" width="7.3" height="5.6"/>
			<text transform="matrix(1 0 0 1 191.4162 81.2374)"><tspan x="0" y="0" class="st10 st6 st7 st12">2</tspan><tspan x="4.6" y="0" class="st10 st6 st7">4</tspan></text>
		</g>
		<g class="st3">
			<rect x="191.4" y="77.2" class="st4" width="7.3" height="5.6"/>
			<text transform="matrix(1 0 0 1 191.4133 81.2359)"><tspan x="0" y="0" class="st11 st6 st7 st12">2</tspan><tspan x="4.6" y="0" class="st11 st6 st7">4</tspan></text>
		</g>
		<path class="st1" d="M191.3,77.8l0.2-0.1l0.4-0.2h0.8l0.4,0.2l0.2,0.1l0.1,0.4v0.3l-0.1,0.6l-2.1,2h2.2"/>
		<path class="st1" d="M196.4,78.6V81"/>
		<path class="st1" d="M195.6,77.3l-0.9,2.5h2.2"/>
		<path class="st1" d="M60.9,110.8h-7.2"/>
	</g>
	<g>
		<g class="st3">
			<rect x="62.3" y="108.5" class="st4" width="15.7" height="5.6"/>
			<text transform="matrix(1 0 0 1 62.2991 112.5572)"><tspan x="0" y="0" class="st5 st6 st7">PWM</tspan><tspan x="13.1" y="0" class="st5 st6 st7">2</tspan></text>
		</g>
		<g class="st3">
			<rect x="62.3" y="108.5" class="st4" width="15.7" height="5.6"/>
			<text transform="matrix(1 0 0 1 62.2971 112.5557)"><tspan x="0" y="0" class="st8 st6 st7">PWM</tspan><tspan x="13.1" y="0" class="st8 st6 st7">2</tspan></text>
		</g>
		<path class="st9" d="M63.3,112.3v-3.6h1.4L65,109l0.2,0.1l0.1,0.4v0.5l-0.1,0.4l-0.2,0.1l-0.4,0.1h-1.4"/>
		<path class="st9" d="M66.6,108.7l0.9,3.6l0.6-2.6l0.7,2.6l0.9-3.6"/>
		<path class="st9" d="M71.1,112.3v-3.6l1.2,2.6l1.2-2.6v3.6"/>
		<path class="st9" d="M75,109.1l0.2-0.1l0.3-0.2h0.9l0.4,0.2l0.2,0.1l0.1,0.4v0.3l-0.1,0.6l-2.1,2h2.2"/>
	</g>
	<g>
		<g class="st3">
			<rect x="55.9" y="106" class="st4" width="3.9" height="5.6"/>
			<text transform="matrix(1 0 0 1 55.9377 110.0372)" class="st10 st6 st7">3</text>
		</g>
		<g class="st3">
			<rect x="55.9" y="106" class="st4" width="3.9" height="5.6"/>
			<text transform="matrix(1 0 0 1 55.9348 110.0357)" class="st11 st6 st7">3</text>
		</g>
		<path class="st1" d="M56,106.2h2.2l-1.2,1.4h0.5l0.4,0.2l0.1,0.1l0.2,0.4v0.9l-0.2,0.3l-0.1,0.2l-0.4,0.1h-1l-0.4-0.1l-0.1-0.2"/>
		<path class="st1" d="M60.9,125.2h-7.2"/>
	</g>
	<g>
		<g class="st3">
			<rect x="62.3" y="122.9" class="st4" width="9.4" height="5.6"/>
			<text transform="matrix(1 0 0 1 62.2991 126.9576)"><tspan x="0" y="0" class="st5 st6 st7">IO</tspan><tspan x="6.7" y="0" class="st5 st6 st7">4</tspan></text>
		</g>
		<g class="st3">
			<rect x="62.3" y="122.9" class="st4" width="9.4" height="5.6"/>
			<text transform="matrix(1 0 0 1 62.2971 126.9557)"><tspan x="0" y="0" class="st8 st6 st7">IO</tspan><tspan x="6.7" y="0" class="st8 st6 st7">4</tspan></text>
		</g>
		<path class="st9" d="M63.3,126.7v-3.6"/>
		<path class="st9" d="M65.8,123.1h0.6l0.4,0.2l0.4,0.3l0.1,0.7v1.2l-0.1,0.7l-0.4,0.4l-0.4,0.1h-0.6l-0.4-0.1l-0.4-0.4l-0.1-0.7
			v-1.2l0.1-0.7l0.4-0.3L65.8,123.1"/>
		<path class="st9" d="M70.4,124.4v2.4"/>
		<path class="st9" d="M69.5,123l-0.9,2.5h2.2"/>
	</g>
	<g>
		<g class="st3">
			<rect x="55.9" y="120.4" class="st4" width="3.9" height="5.6"/>
			<text transform="matrix(1 0 0 1 55.9377 124.4376)" class="st10 st6 st7">4</text>
		</g>
		<g class="st3">
			<rect x="55.9" y="120.4" class="st4" width="3.9" height="5.6"/>
			<text transform="matrix(1 0 0 1 55.9348 124.4356)" class="st11 st6 st7">4</text>
		</g>
		<path class="st1" d="M57.9,121.8v2.4"/>
		<path class="st1" d="M57,120.5l-0.9,2.5h2.2"/>
		<path class="st1" d="M60.9,139.6h-7.2"/>
		<path class="st1" d="M52.6,138.5l2.2,2.2"/>
		<path class="st1" d="M54.7,138.5l-2.2,2.2"/>
	</g>
	<g>
		<g class="st3">
			<rect x="62.3" y="137.3" class="st4" width="7.8" height="5.6"/>
			<text transform="matrix(1 0 0 1 62.2991 141.3575)"><tspan x="0" y="0" class="st5 st6 st7">N</tspan><tspan x="4.3" y="0" class="st5 st6 st7">C</tspan></text>
		</g>
		<g class="st3">
			<rect x="62.3" y="137.3" class="st4" width="7.8" height="5.6"/>
			<text transform="matrix(1 0 0 1 62.2971 141.356)"><tspan x="0" y="0" class="st8 st6 st7">N</tspan><tspan x="4.3" y="0" class="st8 st6 st7">C</tspan></text>
		</g>
		<path class="st9" d="M63.3,141.1v-3.6l2.1,3.6v-3.6"/>
		<path class="st9" d="M69.1,140.8L69,141l-0.5,0.1h-0.4l-0.5-0.1l-0.4-0.4l-0.1-0.4l-0.2-0.6v-0.5l0.2-0.7l0.1-0.4l0.4-0.3l0.5-0.2
			h0.4l0.5,0.2l0.1,0.1"/>
	</g>
	<g>
		<g class="st3">
			<rect x="55.9" y="134.8" class="st4" width="3.9" height="5.6"/>
			<text transform="matrix(1 0 0 1 55.9377 138.8375)" class="st10 st6 st7">5</text>
		</g>
		<g class="st3">
			<rect x="55.9" y="134.8" class="st4" width="3.9" height="5.6"/>
			<text transform="matrix(1 0 0 1 55.9348 138.836)" class="st11 st6 st7">5</text>
		</g>
		<path class="st1" d="M58.1,135h-1.7l-0.2,1.7l0.2-0.1l0.3-0.2h0.9l0.4,0.2l0.1,0.1l0.2,0.4v0.9l-0.2,0.3l-0.1,0.2l-0.4,0.1h-0.9
			l-0.3-0.1l-0.2-0.2"/>
		<path class="st1" d="M60.9,154h-7.2"/>
	</g>
	<g>
		<g class="st3">
			<rect x="62.3" y="151.7" class="st4" width="12.5" height="5.6"/>
			<text transform="matrix(1 0 0 1 62.2991 155.7574)"><tspan x="0" y="0" class="st5 st6 st7">STA</tspan><tspan x="9.6" y="0" class="st5 st6 st7">T</tspan></text>
		</g>
		<g class="st3">
			<rect x="62.3" y="151.7" class="st4" width="12.5" height="5.6"/>
			<text transform="matrix(1 0 0 1 62.2971 155.756)"><tspan x="0" y="0" class="st8 st6 st7">STA</tspan><tspan x="9.6" y="0" class="st8 st6 st7">T</tspan></text>
		</g>
		<path class="st9" d="M63.2,155.4l0.5,0.1h0.9l0.4-0.1l0.1-0.2l0.2-0.3v-0.4l-0.2-0.4l-0.1-0.1l-0.4-0.2l-0.6-0.1l-0.4-0.1
			l-0.2-0.2l-0.1-0.4v-0.3l0.1-0.4l0.2-0.1l0.4-0.2h0.8l0.6,0.2"/>
		<path class="st9" d="M66.3,151.9h2"/>
		<path class="st9" d="M67.3,155.5v-3.6"/>
		<path class="st9" d="M69.4,154.5h1.7"/>
		<path class="st9" d="M69,155.5l1.2-3.6l1.2,3.6"/>
		<path class="st9" d="M72.1,151.9h2"/>
		<path class="st9" d="M73.1,155.5v-3.6"/>
	</g>
	<g>
		<g class="st3">
			<rect x="55.9" y="149.2" class="st4" width="3.9" height="5.6"/>
			<text transform="matrix(1 0 0 1 55.9377 153.2374)" class="st10 st6 st7">6</text>
		</g>
		<g class="st3">
			<rect x="55.9" y="149.2" class="st4" width="3.9" height="5.6"/>
			<text transform="matrix(1 0 0 1 55.9348 153.2359)" class="st11 st6 st7">6</text>
		</g>
		<path class="st1" d="M57.9,149.4h-0.6l-0.4,0.2l-0.2,0.1l-0.3,0.5l-0.2,0.7v1.4l0.2,0.3l0.1,0.2l0.4,0.1h0.6l0.4-0.1l0.1-0.2
			l0.2-0.3v-0.9l-0.2-0.4l-0.1-0.1l-0.4-0.2h-0.6l-0.4,0.2l-0.1,0.1l-0.2,0.4"/>
		<path class="st1" d="M60.9,168.4h-7.2"/>
		<path class="st1" d="M52.6,167.3l2.2,2.2"/>
		<path class="st1" d="M54.7,167.3l-2.2,2.2"/>
	</g>
	<g>
		<g class="st3">
			<rect x="62.3" y="166.1" class="st4" width="7.8" height="5.6"/>
			<text transform="matrix(1 0 0 1 62.2991 170.1573)"><tspan x="0" y="0" class="st5 st6 st7">N</tspan><tspan x="4.3" y="0" class="st5 st6 st7">C</tspan></text>
		</g>
		<g class="st3">
			<rect x="62.3" y="166.1" class="st4" width="7.8" height="5.6"/>
			<text transform="matrix(1 0 0 1 62.2971 170.1559)"><tspan x="0" y="0" class="st8 st6 st7">N</tspan><tspan x="4.3" y="0" class="st8 st6 st7">C</tspan></text>
		</g>
		<path class="st9" d="M63.3,169.9v-3.6l2.1,3.6v-3.6"/>
		<path class="st9" d="M69.1,169.6l-0.1,0.2l-0.5,0.1h-0.4l-0.5-0.1l-0.4-0.4l-0.1-0.4l-0.2-0.6v-0.5l0.2-0.7l0.1-0.4l0.4-0.3
			l0.5-0.2h0.4l0.5,0.2l0.1,0.1"/>
	</g>
	<g>
		<g class="st3">
			<rect x="55.9" y="163.6" class="st4" width="3.9" height="5.6"/>
			<text transform="matrix(1 0 0 1 55.9377 167.6373)" class="st10 st6 st7">7</text>
		</g>
		<g class="st3">
			<rect x="55.9" y="163.6" class="st4" width="3.9" height="5.6"/>
			<text transform="matrix(1 0 0 1 55.9348 167.6358)" class="st11 st6 st7">7</text>
		</g>
		<path class="st1" d="M56,163.8h2.4l-1.5,3.6"/>
		<path class="st1" d="M60.9,182.8h-7.2"/>
		<path class="st1" d="M52.6,181.7l2.2,2.2"/>
		<path class="st1" d="M54.7,181.7l-2.2,2.2"/>
	</g>
	<g>
		<g class="st3">
			<rect x="62.3" y="180.5" class="st4" width="7.8" height="5.6"/>
			<text transform="matrix(1 0 0 1 62.2991 184.5572)"><tspan x="0" y="0" class="st5 st6 st7">N</tspan><tspan x="4.3" y="0" class="st5 st6 st7">C</tspan></text>
		</g>
		<g class="st3">
			<rect x="62.3" y="180.5" class="st4" width="7.8" height="5.6"/>
			<text transform="matrix(1 0 0 1 62.2971 184.5558)"><tspan x="0" y="0" class="st8 st6 st7">N</tspan><tspan x="4.3" y="0" class="st8 st6 st7">C</tspan></text>
		</g>
		<path class="st9" d="M63.3,184.3v-3.6l2.1,3.6v-3.6"/>
		<path class="st9" d="M69.1,184l-0.1,0.2l-0.5,0.1h-0.4l-0.5-0.1l-0.4-0.4l-0.1-0.4l-0.2-0.6v-0.5l0.2-0.7l0.1-0.4l0.4-0.3l0.5-0.2
			h0.4L69,181l0.1,0.1"/>
	</g>
	<g>
		<g class="st3">
			<rect x="55.9" y="178" class="st4" width="3.9" height="5.6"/>
			<text transform="matrix(1 0 0 1 55.9377 182.0372)" class="st10 st6 st7">8</text>
		</g>
		<g class="st3">
			<rect x="55.9" y="178" class="st4" width="3.9" height="5.6"/>
			<text transform="matrix(1 0 0 1 55.9348 182.0357)" class="st11 st6 st7">8</text>
		</g>
		<path class="st1" d="M56.9,179.8l-0.4-0.2l-0.1-0.1l-0.2-0.4v-0.1l0.2-0.4l0.1-0.1l0.4-0.2h0.6l0.4,0.2l0.1,0.1l0.2,0.4v0.1
			l-0.2,0.4l-0.1,0.1l-0.4,0.2H56.9l-0.4,0.1l-0.1,0.1l-0.2,0.4v0.7l0.2,0.3l0.1,0.2l0.4,0.1h0.6l0.4-0.1l0.1-0.2l0.2-0.3v-0.7
			l-0.2-0.4l-0.1-0.1l-0.4-0.1"/>
		<path class="st1" d="M75.3,197.2v7.2"/>
	</g>
	<g>
		<g transform="rotate(-90 63500 39300)">
			<g class="st3">
				<rect x="102604.7" y="-24128.3" class="st4" width="6.9" height="7.7"/>
				<text transform="matrix(1 0 0 1 102604.2812 -24123.8457)" class="st5 st6 st7">IO1</text>
			</g>
			<g class="st3">
				<rect x="102604.7" y="-24128.3" class="st4" width="6.9" height="7.7"/>
				<text transform="matrix(1 0 0 1 102604.2812 -24123.8477)" class="st8 st6 st7">IO1</text>
			</g>
		</g>
		<path class="st9" d="M76.8,194.6h-3.6"/>
		<path class="st9" d="M73.2,192.2v-0.6l0.2-0.4l0.3-0.4l0.7-0.1h1.2l0.7,0.1l0.4,0.4l0.1,0.4v0.6l-0.1,0.4l-0.4,0.4l-0.7,0.1h-1.2
			l-0.7-0.1l-0.3-0.4L73.2,192.2"/>
		<path class="st9" d="M76.8,187.2v2.1"/>
		<path class="st9" d="M76.8,188.3h-3.6l0.5,0.3l0.4,0.4l0.1,0.4"/>
	</g>
	<g>
		<g transform="rotate(-90 63400 40000)">
			<g class="st3">
				<rect x="103195.1" y="-23328.6" class="st4" width="8.3" height="2.6"/>
				<text transform="matrix(1 0 0 1 103197.9219 -23327.3828)" class="st10 st6 st7">9</text>
			</g>
			<g class="st3">
				<rect x="103195.1" y="-23328.6" class="st4" width="8.3" height="2.6"/>
				<text transform="matrix(1 0 0 1 103197.9219 -23327.3848)" class="st11 st6 st7">9</text>
			</g>
		</g>
		<path class="st1" d="M74.3,201.4v-0.6l-0.1-0.4l-0.2-0.2l-0.5-0.3l-0.6-0.2h-1.4l-0.4,0.2l-0.1,0.1l-0.2,0.4v0.6l0.2,0.4l0.1,0.1
			l0.4,0.2h0.9l0.3-0.2l0.2-0.1L73,201v-0.6l-0.1-0.4l-0.2-0.1l-0.3-0.2"/>
	</g>
	<g>
		<g transform="rotate(-90 70020 29500)">
			<g class="st3">
				<rect x="99391" y="-40405.4" class="st4" width="7.7" height="15.4"/>
				<text transform="matrix(1 0 0 1 99387.1406 -40397.5195)"><tspan x="0" y="0" class="st5 st6 st7">JDY-</tspan><tspan x="12.8" y="0" class="st5 st6 st7">1</tspan></text>
			</g>
			<g class="st3">
				<rect x="99391" y="-40405.4" class="st4" width="7.7" height="15.4"/>
				<text transform="matrix(1 0 0 1 99387.1328 -40397.5234)"><tspan x="0" y="0" class="st8 st6 st7">JDY-</tspan><tspan x="12.8" y="0" class="st8 st6 st7">1</tspan></text>
			</g>
		</g>
		<path class="st9" d="M120.2,133.6h2.6l0.5,0.2l0.4,0.4l0.1,0.5v0.3"/>
		<path class="st9" d="M123.8,131.9h-3.6v-0.9l0.2-0.5l0.3-0.4l0.4-0.2l0.7-0.1h0.5l0.6,0.1l0.4,0.2l0.4,0.4l0.1,0.5V131.9"/>
		<path class="st9" d="M122.1,127.6h1.7"/>
		<path class="st9" d="M120.2,128.8l1.9-1.2l-1.9-1.2"/>
		<path class="st9" d="M122.4,125.2v-2.7"/>
		<path class="st9" d="M123.8,118.9v2"/>
		<path class="st9" d="M123.8,119.9h-3.6l0.5,0.4l0.4,0.3l0.1,0.4"/>
		<path class="st9" d="M120.2,115.8v0.6l0.2,0.4l0.1,0.1l0.5,0.4l0.7,0.2h1.4l0.3-0.2l0.2-0.1l0.1-0.4v-0.6l-0.1-0.4l-0.2-0.2
			l-0.3-0.1h-0.9l-0.4,0.1l-0.1,0.2l-0.2,0.4v0.6l0.2,0.4l0.1,0.1l0.4,0.2"/>
	</g>
</g>
<g>
	<g>
		<rect x="262.5" y="67.6" class="st0" width="57.6" height="115.2"/>
	</g>
	<g>
		<rect x="262.5" y="67.6" class="st1" width="57.6" height="115.2"/>
		<rect x="262.5" y="67.6" class="st1" width="57.6" height="115.2"/>
		<path class="st1" d="M262.5,139.6h-7.2"/>
	</g>
	<g>
		<g class="st3">
			<rect x="265.3" y="137.3" class="st4" width="7.6" height="5.6"/>
			<text transform="matrix(1 0 0 1 265.3391 141.3575)"><tspan x="0" y="0" class="st5 st6 st7">D</tspan><tspan x="4.2" y="0" class="st5 st6 st7">C</tspan></text>
		</g>
		<g class="st3">
			<rect x="265.3" y="137.3" class="st4" width="7.6" height="5.6"/>
			<text transform="matrix(1 0 0 1 265.3372 141.356)"><tspan x="0" y="0" class="st8 st6 st7">D</tspan><tspan x="4.2" y="0" class="st8 st6 st7">C</tspan></text>
		</g>
		<path class="st9" d="M266.3,141.1v-3.6h0.9l0.5,0.2l0.4,0.3l0.2,0.4l0.1,0.7v0.5l-0.1,0.6l-0.2,0.4l-0.4,0.4l-0.5,0.1H266.3"/>
		<path class="st9" d="M272,140.8l-0.1,0.2l-0.6,0.1H271l-0.5-0.1l-0.4-0.4l-0.2-0.4l-0.1-0.6v-0.5l0.1-0.7l0.2-0.4l0.4-0.3l0.5-0.2
			h0.3l0.6,0.2l0.1,0.1"/>
	</g>
	<g>
		<g class="st3">
			<text transform="matrix(1 0 0 1 257.4709 138.837)" class="st10 st6 st7">~</text>
		</g>
		<g class="st3">
			<text transform="matrix(1 0 0 1 257.4709 138.837)" class="st11 st6 st7">~</text>
		</g>
		<path class="st1" d="M262.5,154h-7.2"/>
	</g>
	<g>
		<g class="st3">
			<rect x="265.3" y="151.7" class="st4" width="7.6" height="5.6"/>
			<text transform="matrix(1 0 0 1 265.3391 155.7574)"><tspan x="0" y="0" class="st5 st6 st7">D</tspan><tspan x="4.2" y="0" class="st5 st6 st7">D</tspan></text>
		</g>
		<g class="st3">
			<rect x="265.3" y="151.7" class="st4" width="7.6" height="5.6"/>
			<text transform="matrix(1 0 0 1 265.3372 155.756)"><tspan x="0" y="0" class="st8 st6 st7">D</tspan><tspan x="4.2" y="0" class="st8 st6 st7">D</tspan></text>
		</g>
		<path class="st9" d="M266.3,155.5v-3.6h0.9l0.5,0.2l0.4,0.3l0.2,0.4l0.1,0.7v0.5l-0.1,0.6l-0.2,0.4l-0.4,0.4l-0.5,0.1H266.3"/>
		<path class="st9" d="M269.9,155.5v-3.6h0.9l0.5,0.2l0.4,0.3l0.2,0.4l0.1,0.7v0.5l-0.1,0.6l-0.2,0.4l-0.4,0.4l-0.5,0.1H269.9"/>
	</g>
	<g>
		<g class="st3">
			<text transform="matrix(1 0 0 1 257.4709 153.2374)" class="st10 st6 st7">~</text>
		</g>
		<g class="st3">
			<text transform="matrix(1 0 0 1 257.4709 153.2374)" class="st11 st6 st7">~</text>
		</g>
		<path class="st1" d="M262.5,82h-7.2"/>
	</g>
	<g>
		<g class="st3">
			<rect x="265.3" y="79.7" class="st4" width="11.4" height="5.6"/>
			<text transform="matrix(1 0 0 1 265.3391 83.7574)"><tspan x="0" y="0" class="st5 st6 st7">GN</tspan><tspan x="7.9" y="0" class="st5 st6 st7">D</tspan></text>
		</g>
		<g class="st3">
			<rect x="265.3" y="79.7" class="st4" width="11.4" height="5.6"/>
			<text transform="matrix(1 0 0 1 265.3372 83.7559)"><tspan x="0" y="0" class="st8 st6 st7">GN</tspan><tspan x="7.9" y="0" class="st8 st6 st7">D</tspan></text>
		</g>
		<path class="st9" d="M268.3,80.2l-0.4-0.2h-0.5l-0.5,0.2l-0.4,0.3l-0.2,0.4l-0.1,0.7V82l0.1,0.6l0.2,0.4l0.4,0.4l0.5,0.1h0.3
			l0.6-0.1l0.1-0.2V82h-0.7"/>
		<path class="st9" d="M269.9,83.5v-3.6l2.1,3.6v-3.6"/>
		<path class="st9" d="M273.8,83.5v-3.6h0.9l0.5,0.2l0.4,0.3l0.1,0.4l0.1,0.7V82l-0.1,0.6l-0.1,0.4l-0.4,0.4l-0.5,0.1H273.8"/>
	</g>
	<g>
		<g class="st3">
			<text transform="matrix(1 0 0 1 257.4709 81.2374)" class="st10 st6 st7">~</text>
		</g>
		<g class="st3">
			<text transform="matrix(1 0 0 1 257.4709 81.2374)" class="st11 st6 st7">~</text>
		</g>
		<path class="st1" d="M262.5,168.4h-7.2"/>
	</g>
	<g>
		<g class="st3">
			<rect x="265.3" y="166.1" class="st4" width="8.6" height="5.6"/>
			<text transform="matrix(1 0 0 1 265.3391 170.1573)"><tspan x="0" y="0" class="st5 st6 st7">IN</tspan><tspan x="5.7" y="0" class="st5 st6 st7">T</tspan></text>
		</g>
		<g class="st3">
			<rect x="265.3" y="166.1" class="st4" width="8.6" height="5.6"/>
			<text transform="matrix(1 0 0 1 265.3372 170.1559)"><tspan x="0" y="0" class="st8 st6 st7">IN</tspan><tspan x="5.7" y="0" class="st8 st6 st7">T</tspan></text>
		</g>
		<path class="st9" d="M266.3,169.9v-3.6"/>
		<path class="st9" d="M268.1,169.9v-3.6l2.1,3.6v-3.6"/>
		<path class="st9" d="M271.3,166.3h2.1"/>
		<path class="st9" d="M272.4,169.9v-3.6"/>
	</g>
	<g>
		<g class="st3">
			<text transform="matrix(1 0 0 1 257.4709 167.6373)" class="st10 st6 st7">~</text>
		</g>
		<g class="st3">
			<text transform="matrix(1 0 0 1 257.4709 167.6373)" class="st11 st6 st7">~</text>
		</g>
		<path class="st1" d="M262.5,110.8h-7.2"/>
	</g>
	<g>
		<g class="st3">
			<rect x="265.3" y="108.5" class="st4" width="15.3" height="5.6"/>
			<text transform="matrix(1 0 0 1 265.3391 112.5572)"><tspan x="0" y="0" class="st5 st6 st7">PWR</tspan><tspan x="11.9" y="0" class="st5 st6 st7">C</tspan></text>
		</g>
		<g class="st3">
			<rect x="265.3" y="108.5" class="st4" width="15.3" height="5.6"/>
			<text transform="matrix(1 0 0 1 265.3372 112.5557)"><tspan x="0" y="0" class="st8 st6 st7">PWR</tspan><tspan x="11.9" y="0" class="st8 st6 st7">C</tspan></text>
		</g>
		<path class="st9" d="M266.3,112.3v-3.6h1.4l0.4,0.2l0.2,0.1l0.1,0.4v0.5l-0.1,0.4l-0.2,0.1l-0.4,0.1h-1.4"/>
		<path class="st9" d="M269.7,108.7l0.9,3.6l0.6-2.6l0.7,2.6l0.9-3.6"/>
		<path class="st9" d="M276.1,112.3l-1.2-1.7"/>
		<path class="st9" d="M274.1,112.3v-3.6h1.4l0.3,0.2l0.2,0.1l0.1,0.4v0.5l-0.1,0.4l-0.2,0.1l-0.3,0.1h-1.4"/>
		<path class="st9" d="M279.7,112l-0.1,0.2l-0.5,0.1h-0.4l-0.5-0.1l-0.4-0.4l-0.1-0.4l-0.2-0.6v-0.5l0.2-0.7l0.1-0.4l0.4-0.3
			l0.5-0.2h0.4l0.5,0.2l0.1,0.1"/>
	</g>
	<g>
		<g class="st3">
			<text transform="matrix(1 0 0 1 257.4709 110.0372)" class="st10 st6 st7">~</text>
		</g>
		<g class="st3">
			<text transform="matrix(1 0 0 1 257.4709 110.0372)" class="st11 st6 st7">~</text>
		</g>
		<path class="st1" d="M291.3,67.6v-7.2"/>
	</g>
	<g>
		<g transform="rotate(-90 93500 21900)">
			<g class="st3">
				<rect x="115321.5" y="-71313.3" class="st4" width="6" height="10"/>
				<text transform="matrix(1 0 0 1 115319.5312 -71307.2266)" class="st5 st6 st7">VCC</text>
			</g>
			<g class="st3">
				<rect x="115321.5" y="-71313.3" class="st4" width="6" height="10"/>
				<text transform="matrix(1 0 0 1 115319.5312 -71307.2266)" class="st8 st6 st7">VCC</text>
			</g>
		</g>
		<path class="st9" d="M289.2,80.6l3.6-1.2l-3.6-1.2"/>
		<path class="st9" d="M292.5,74.9l0.2,0.1l0.1,0.6v0.3l-0.1,0.5l-0.4,0.4L292,77l-0.6,0.1h-0.5l-0.7-0.1l-0.4-0.2l-0.3-0.4
			l-0.2-0.5v-0.3l0.2-0.6l0.1-0.1"/>
		<path class="st9" d="M292.5,71.3l0.2,0.1l0.1,0.6v0.3l-0.1,0.5l-0.4,0.4l-0.4,0.2l-0.6,0.1h-0.5l-0.7-0.1l-0.4-0.2l-0.3-0.4
			l-0.2-0.5V72l0.2-0.6l0.1-0.1"/>
	</g>
	<g>
		<g transform="rotate(-90 93400 21000)">
			<g class="st3">
				<text transform="matrix(1 0 0 1 114334.6562 -72109.4609)" class="st10 st6 st7">~</text>
			</g>
			<g class="st3">
				<text transform="matrix(1 0 0 1 114334.6562 -72109.4609)" class="st11 st6 st7">~</text>
			</g>
		</g>
	</g>
	<g>
		<g class="st3">
			<rect x="285.1" y="123" class="st4" width="21.7" height="5.6"/>
			<text transform="matrix(1 0 0 1 285.0901 127.1012)"><tspan x="0" y="0" class="st5 st6 st7">MCU_II</tspan><tspan x="18.2" y="0" class="st5 st6 st7">C</tspan></text>
		</g>
		<g class="st3">
			<rect x="285.1" y="123" class="st4" width="21.7" height="5.6"/>
			<text transform="matrix(1 0 0 1 285.0881 127.0997)"><tspan x="0" y="0" class="st8 st6 st7">MCU_II</tspan><tspan x="18.2" y="0" class="st8 st6 st7">C</tspan></text>
		</g>
		<path class="st9" d="M285.1,126.9v-3.6l1.2,2.6l1.2-2.6v3.6"/>
		<path class="st9" d="M291.3,126.5l-0.2,0.2l-0.5,0.1h-0.4l-0.5-0.1l-0.4-0.4l-0.1-0.4l-0.1-0.6v-0.5l0.1-0.7l0.1-0.4l0.4-0.3
			l0.5-0.2h0.4l0.5,0.2l0.2,0.1"/>
		<path class="st9" d="M292.8,123.3v3l0.1,0.3l0.2,0.2l0.3,0.1h0.7l0.4-0.1l0.1-0.2l0.2-0.3v-3"/>
		<path class="st9" d="M295.7,127.2h2.8"/>
		<path class="st9" d="M299.3,126.9v-3.6"/>
		<path class="st9" d="M301,126.9v-3.6"/>
		<path class="st9" d="M304.8,126.5l-0.2,0.2l-0.5,0.1h-0.4l-0.5-0.1l-0.4-0.4l-0.1-0.4l-0.1-0.6v-0.5l0.1-0.7l0.1-0.4l0.4-0.3
			l0.5-0.2h0.4l0.5,0.2l0.2,0.1"/>
	</g>
</g>
<g>
	<g>
		<path class="st13" d="M224.7,101.8h3.6"/>
		<path class="st13" d="M226.1,103.6h0.7"/>
		<path class="st13" d="M226.5,100v-3.6"/>
		<path class="st13" d="M230.1,100h-7.2"/>
	</g>
</g>
<g>
	<g>
		<path class="st13" d="M289.1,42.4l2.2-3.6"/>
		<path class="st13" d="M291.3,46v-7.2"/>
		<path class="st13" d="M291.3,38.8l2.2,3.6"/>
	</g>
	<g>
		<g class="st3">
			<rect x="286.1" y="31.4" class="st4" width="16.6" height="5.6"/>
			<text transform="matrix(1 0 0 1 286.0637 35.4454)"><tspan x="0" y="0" class="st5 st6 st7 st12">+3.3</tspan><tspan x="13.4" y="0" class="st5 st6 st7">V</tspan></text>
		</g>
		<g class="st3">
			<rect x="286.1" y="31.4" class="st4" width="16.6" height="5.6"/>
			<text transform="matrix(1 0 0 1 286.0618 35.4439)"><tspan x="0" y="0" class="st8 st6 st7 st12">+3.3</tspan><tspan x="13.4" y="0" class="st8 st6 st7">V</tspan></text>
		</g>
		<path class="st9" d="M285.1,33.9h2.7"/>
		<path class="st9" d="M286.5,35.2v-2.7"/>
		<path class="st9" d="M289.2,31.6h2.2l-1.2,1.4h0.5l0.4,0.2l0.1,0.1l0.2,0.4v0.9l-0.2,0.3l-0.1,0.2l-0.4,0.1h-1l-0.4-0.1l-0.1-0.2"
			/>
		<path class="st9" d="M293,34.9l0.1,0.2l-0.1,0.1l-0.1-0.1L293,34.9v0.4"/>
		<path class="st9" d="M294.4,31.6h2.2l-1.2,1.4h0.6l0.3,0.2l0.2,0.1l0.1,0.4v0.9l-0.1,0.3l-0.2,0.2l-0.3,0.1h-1.1l-0.4-0.1
			l-0.1-0.2"/>
		<path class="st9" d="M297.6,31.6l1.2,3.6l1.2-3.6"/>
	</g>
</g>
<g>
	<g>
		<path class="st13" d="M37.1,64l2.2-3.6"/>
		<path class="st13" d="M39.3,67.6v-7.2"/>
		<path class="st13" d="M39.3,60.4l2.2,3.6"/>
	</g>
	<g>
		<g class="st3">
			<rect x="34.1" y="53" class="st4" width="16.6" height="5.6"/>
			<text transform="matrix(1 0 0 1 34.0637 57.0455)"><tspan x="0" y="0" class="st5 st6 st7 st12">+3.3</tspan><tspan x="13.4" y="0" class="st5 st6 st7">V</tspan></text>
		</g>
		<g class="st3">
			<rect x="34.1" y="53" class="st4" width="16.6" height="5.6"/>
			<text transform="matrix(1 0 0 1 34.0618 57.044)"><tspan x="0" y="0" class="st8 st6 st7 st12">+3.3</tspan><tspan x="13.4" y="0" class="st8 st6 st7">V</tspan></text>
		</g>
		<path class="st9" d="M33.1,55.5h2.7"/>
		<path class="st9" d="M34.5,56.8v-2.7"/>
		<path class="st9" d="M37.2,53.2h2.2l-1.2,1.4h0.5l0.4,0.2l0.1,0.1l0.2,0.4v0.9l-0.2,0.3l-0.1,0.2l-0.4,0.1h-1l-0.4-0.1l-0.1-0.2"
			/>
		<path class="st9" d="M41,56.5l0.1,0.2L41,56.8l-0.1-0.1L41,56.5v0.4"/>
		<path class="st9" d="M42.4,53.2h2.2l-1.2,1.4h0.6l0.3,0.2l0.2,0.1l0.1,0.4v0.9l-0.1,0.3l-0.2,0.2l-0.3,0.1h-1.1l-0.4-0.1l-0.1-0.2
			"/>
		<path class="st9" d="M45.6,53.2l1.2,3.6l1.2-3.6"/>
	</g>
</g>
<path class="st14" d="M255.3,154h-57.6"/>
<path class="st14" d="M39.3,82V67.6"/>
<path class="st14" d="M53.7,82H39.3"/>
<path class="st14" d="M291.3,60.4V46"/>
<path class="st14" d="M226.5,82h-28.8"/>
<path class="st14" d="M226.5,96.4V82"/>
<path class="st14" d="M240.9,168.4h14.4"/>
<path class="st14" d="M240.9,218.8v-50.4"/>
<path class="st14" d="M39.3,218.8h201.6"/>
<path class="st14" d="M39.3,154v64.8"/>
<path class="st14" d="M53.7,154H39.3"/>
<path class="st14" d="M255.3,139.6h-57.6"/>
<path class="st14" d="M255.3,82h-28.8"/>
<path class="st14" d="M255.3,110.8h-57.6"/>
<g class="st3">
	<rect x="39.3" y="149.2" class="st4" width="8.6" height="5.6"/>
	<text transform="matrix(1 0 0 1 39.259 153.2374)"><tspan x="0" y="0" class="st6 st7">IN</tspan><tspan x="5.7" y="0" class="st6 st7">T</tspan></text>
</g>
<g class="st3">
	<rect x="39.3" y="149.2" class="st4" width="8.6" height="5.6"/>
	<text transform="matrix(1 0 0 1 39.2571 153.2359)"><tspan x="0" y="0" class="st15 st6 st7">IN</tspan><tspan x="5.7" y="0" class="st15 st6 st7">T</tspan></text>
</g>
<path class="st16" d="M40.3,153v-3.6"/>
<path class="st16" d="M42,153v-3.6l2.1,3.6v-3.6"/>
<path class="st16" d="M45.2,149.4h2.1"/>
<path class="st16" d="M46.3,153v-3.6"/>
<g>
	<circle class="st17" cx="226.5" cy="82" r="1.4"/>
</g>
<g>
	<polyline class="st13" points="8.9,146.7 19.1,146.7 19.1,157.4 28.6,157.4 28.6,146.7 40.3,146.7 	"/>
	<line class="st13" x1="19.1" y1="145.1" x2="19.1" y2="140"/>
	<g>
		<line class="st13" x1="13" y1="142.6" x2="19.1" y2="142.6"/>
		<polygon class="st18" points="18.8,142.6 16.7,142 16.7,143.1 		"/>
	</g>
	<line class="st13" x1="28.6" y1="140" x2="28.6" y2="145.1"/>
	<g>
		<line class="st13" x1="34.8" y1="142.6" x2="28.6" y2="142.6"/>
		<polygon class="st18" points="28.9,142.6 31.1,143.1 31.1,142 		"/>
	</g>
	<g>
		<path class="st10" d="M20.4,137.7v0.5h-2.8c0-0.1,0-0.2,0.1-0.4c0.1-0.2,0.2-0.4,0.3-0.6s0.4-0.4,0.7-0.7c0.5-0.4,0.8-0.7,0.9-0.9
			s0.2-0.4,0.2-0.6c0-0.2-0.1-0.4-0.2-0.5s-0.3-0.2-0.6-0.2c-0.3,0-0.5,0.1-0.6,0.2s-0.2,0.4-0.2,0.6l-0.5-0.1
			c0-0.4,0.2-0.7,0.4-0.9s0.6-0.3,1-0.3c0.4,0,0.7,0.1,1,0.3s0.4,0.5,0.4,0.8c0,0.2,0,0.3-0.1,0.5s-0.2,0.3-0.4,0.5
			s-0.4,0.4-0.8,0.8c-0.3,0.3-0.5,0.4-0.6,0.5s-0.2,0.2-0.2,0.3H20.4z"/>
		<path class="st10" d="M21,136c0-0.5,0.1-0.9,0.2-1.2s0.3-0.5,0.5-0.7s0.5-0.3,0.8-0.3c0.2,0,0.4,0,0.6,0.1s0.3,0.2,0.4,0.4
			s0.2,0.4,0.3,0.6s0.1,0.6,0.1,1c0,0.5-0.1,0.9-0.2,1.2s-0.3,0.5-0.5,0.7s-0.5,0.3-0.8,0.3c-0.4,0-0.7-0.1-1-0.4
			C21.1,137.4,21,136.8,21,136z M21.5,136c0,0.7,0.1,1.2,0.2,1.4s0.4,0.4,0.6,0.4s0.4-0.1,0.6-0.4s0.2-0.7,0.2-1.4
			c0-0.7-0.1-1.2-0.2-1.4s-0.4-0.3-0.6-0.3c-0.2,0-0.4,0.1-0.6,0.3C21.6,134.9,21.5,135.3,21.5,136z"/>
		<path class="st10" d="M24.3,136c0-0.5,0.1-0.9,0.2-1.2s0.3-0.5,0.5-0.7s0.5-0.3,0.8-0.3c0.2,0,0.4,0,0.6,0.1s0.3,0.2,0.4,0.4
			s0.2,0.4,0.3,0.6s0.1,0.6,0.1,1c0,0.5-0.1,0.9-0.2,1.2s-0.3,0.5-0.5,0.7s-0.5,0.3-0.8,0.3c-0.4,0-0.7-0.1-1-0.4
			C24.4,137.4,24.3,136.8,24.3,136z M24.8,136c0,0.7,0.1,1.2,0.2,1.4s0.4,0.4,0.6,0.4s0.4-0.1,0.6-0.4s0.2-0.7,0.2-1.4
			c0-0.7-0.1-1.2-0.2-1.4s-0.4-0.3-0.6-0.3c-0.2,0-0.4,0.1-0.6,0.3C24.9,134.9,24.8,135.3,24.8,136z"/>
		<path class="st10" d="M27.8,138.2V135h0.5v0.4c0.1-0.2,0.2-0.3,0.4-0.4s0.3-0.1,0.6-0.1c0.2,0,0.4,0,0.6,0.1s0.3,0.2,0.3,0.4
			c0.2-0.4,0.6-0.5,1-0.5c0.3,0,0.5,0.1,0.7,0.3s0.2,0.4,0.2,0.8v2.1h-0.5v-2c0-0.2,0-0.4-0.1-0.5s-0.1-0.2-0.2-0.2
			s-0.2-0.1-0.3-0.1c-0.2,0-0.4,0.1-0.5,0.2s-0.2,0.4-0.2,0.7v1.8h-0.5v-2c0-0.2,0-0.4-0.1-0.5s-0.2-0.2-0.4-0.2
			c-0.1,0-0.3,0-0.4,0.1s-0.2,0.2-0.3,0.3s-0.1,0.4-0.1,0.7v1.6H27.8z"/>
		<path class="st10" d="M32.6,137.2l0.5-0.1c0,0.2,0.1,0.4,0.2,0.5s0.3,0.2,0.6,0.2c0.2,0,0.4,0,0.5-0.1s0.2-0.2,0.2-0.3
			c0-0.1-0.1-0.2-0.2-0.3c-0.1,0-0.3-0.1-0.5-0.2c-0.4-0.1-0.7-0.2-0.8-0.3s-0.3-0.2-0.3-0.3s-0.1-0.3-0.1-0.4c0-0.1,0-0.3,0.1-0.4
			s0.1-0.2,0.3-0.3c0.1-0.1,0.2-0.1,0.3-0.2s0.3-0.1,0.5-0.1c0.2,0,0.5,0,0.6,0.1s0.3,0.2,0.4,0.3s0.1,0.3,0.2,0.5l-0.5,0.1
			c0-0.2-0.1-0.3-0.2-0.4s-0.3-0.1-0.5-0.1c-0.2,0-0.4,0-0.5,0.1s-0.2,0.2-0.2,0.3c0,0.1,0,0.1,0.1,0.2c0,0.1,0.1,0.1,0.2,0.1
			c0.1,0,0.2,0.1,0.5,0.1c0.4,0.1,0.6,0.2,0.8,0.2s0.3,0.2,0.3,0.3s0.1,0.3,0.1,0.5c0,0.2-0.1,0.3-0.2,0.5s-0.3,0.3-0.4,0.4
			s-0.4,0.1-0.7,0.1c-0.4,0-0.7-0.1-0.9-0.3S32.6,137.6,32.6,137.2z"/>
	</g>
</g>
</svg>
