<?xml version="1.0" encoding="utf-8"?>
<!-- Generator: Adobe Illustrator 25.0.0, SVG Export Plug-In . SVG Version: 6.00 Build 0)  -->
<svg version="1.1" id="Capa_1" xmlns:svg="http://www.w3.org/2000/svg"
	 xmlns="http://www.w3.org/2000/svg" xmlns:xlink="http://www.w3.org/1999/xlink" x="0px" y="0px" viewBox="0 0 311.3 269.6"
	 style="enable-background:new 0 0 311.3 269.6;" xml:space="preserve">
<style type="text/css">
	.st0{fill:none;stroke:#840000;stroke-width:0.432;stroke-linecap:round;stroke-linejoin:round;stroke-miterlimit:10;}
	.st1{opacity:0;enable-background:new    ;}
	.st2{fill:none;}
	.st3{fill:#008484;}
	.st4{font-family:'ArialMT';}
	.st5{font-size:4.752px;}
	.st6{letter-spacing:1;}
	.st7{fill:none;stroke:#008484;stroke-width:0.432;stroke-linecap:round;stroke-linejoin:round;}
	
		.st8{fill:#008484;fill-opacity:0;stroke:#008484;stroke-width:0.432;stroke-linecap:round;stroke-linejoin:round;stroke-miterlimit:10;}
	.st9{fill:#FFFFC2;fill-opacity:0.6;}
	
		.st10{fill:#840000;fill-opacity:0;stroke:#840000;stroke-width:0.432;stroke-linecap:round;stroke-linejoin:round;stroke-miterlimit:10;}
	
		.st11{fill-rule:evenodd;clip-rule:evenodd;fill:#840000;stroke:#840000;stroke-width:0.432;stroke-linecap:round;stroke-linejoin:round;stroke-miterlimit:10;}
	.st12{fill:#840000;}
	.st13{fill:none;stroke:#840000;stroke-width:0.432;stroke-linecap:round;stroke-linejoin:round;}
	.st14{fill:none;stroke:#840000;stroke-width:0.72;stroke-linecap:round;stroke-linejoin:round;stroke-miterlimit:10;}
	
		.st15{fill-rule:evenodd;clip-rule:evenodd;fill:#840000;stroke:#840000;stroke-width:0.72;stroke-linecap:round;stroke-linejoin:round;stroke-miterlimit:10;}
	
		.st16{fill:#840000;fill-opacity:0;stroke:#840000;stroke-width:0.72;stroke-linecap:round;stroke-linejoin:round;stroke-miterlimit:10;}
	
		.st17{fill:#008400;fill-opacity:0;stroke:#008400;stroke-width:0.432;stroke-linecap:round;stroke-linejoin:round;stroke-miterlimit:10;}
	.st18{fill:#008400;stroke:#008400;stroke-width:0.72;stroke-linecap:round;stroke-linejoin:round;stroke-miterlimit:10;}
</style>
<desc>Picture generated by Eeschema-SVG</desc>
<g transform="translate(0 0) scale(1 1)">
</g>
<g>
	<g>
		<path class="st0" d="M124.6,69.9l2.2-3.6"/>
		<path class="st0" d="M126.8,73.5v-7.2"/>
		<path class="st0" d="M126.8,66.3l2.2,3.6"/>
	</g>
	<g>
		<g class="st1">
			<rect x="121.6" y="58.9" class="st2" width="16.6" height="5.6"/>
			<text transform="matrix(1 0 0 1 121.5931 62.9748)"><tspan x="0" y="0" class="st3 st4 st5 st6">+3.3</tspan><tspan x="13.4" y="0" class="st3 st4 st5">V</tspan></text>
		</g>
		<g class="st1">
			<rect x="121.6" y="58.9" class="st2" width="16.6" height="5.6"/>
			<text transform="matrix(1 0 0 1 121.5907 62.9733)"><tspan x="0" y="0" class="st7 st4 st5 st6">+3.3</tspan><tspan x="13.4" y="0" class="st7 st4 st5">V</tspan></text>
		</g>
		<path class="st8" d="M120.7,61.4h2.7"/>
		<path class="st8" d="M122,62.8V60"/>
		<path class="st8" d="M124.8,59.2h2.2l-1.2,1.4h0.5l0.4,0.2l0.1,0.1l0.2,0.4v0.9l-0.2,0.3l-0.1,0.2l-0.4,0.1h-1l-0.4-0.1l-0.1-0.2"
			/>
		<path class="st8" d="M128.5,62.4l0.1,0.2l-0.1,0.1l-0.1-0.1L128.5,62.4v0.4"/>
		<path class="st8" d="M129.9,59.2h2.2l-1.2,1.4h0.6l0.3,0.2l0.2,0.1l0.1,0.4v0.9l-0.1,0.3l-0.2,0.2l-0.3,0.1h-1.1l-0.4-0.1
			l-0.1-0.2"/>
		<path class="st8" d="M133.1,59.2l1.2,3.6l1.2-3.6"/>
	</g>
</g>
<g>
	<g>
		<rect x="148.4" y="15.9" class="st9" width="129.6" height="187.2"/>
	</g>
	<g>
		<rect x="148.4" y="15.9" class="st10" width="129.6" height="187.2"/>
		<rect x="166.4" y="84.3" class="st10" width="86.4" height="100.8"/>
		<rect x="148.4" y="15.9" class="st10" width="129.6" height="187.2"/>
	</g>
	<g>
		<path class="st11" d="M148.4,80.7h7.2v-54h10.8v43.2h7.2V26.7h18v28.8h21.6V26.7h21.6v28.8h21.6V26.7h14.4v43.2h7.2V19.5h-28.8
			v28.8H242V19.5h-36v28.8h-7.2V19.5h-50.4V80.7z"/>
	</g>
	<g>
		<path class="st10" d="M148.4,87.9h-7.2"/>
	</g>
	<g>
		<g class="st1">
			<rect x="149.8" y="85.6" class="st2" width="10.7" height="5.6"/>
			<text transform="matrix(1 0 0 1 149.828 89.6867)"><tspan x="0" y="0" class="st3 st4 st5">VC</tspan><tspan x="7.3" y="0" class="st3 st4 st5">C</tspan></text>
		</g>
		<g class="st1">
			<rect x="149.8" y="85.6" class="st2" width="10.7" height="5.6"/>
			<text transform="matrix(1 0 0 1 149.8265 89.6853)"><tspan x="0" y="0" class="st7 st4 st5">VC</tspan><tspan x="7.3" y="0" class="st7 st4 st5">C</tspan></text>
		</g>
		<path class="st8" d="M150.3,85.9l1.2,3.6l1.2-3.6"/>
		<path class="st8" d="M156,89.1l-0.2,0.2l-0.5,0.1H155l-0.6-0.1l-0.3-0.4l-0.2-0.4l-0.1-0.6v-0.5l0.1-0.7l0.2-0.4l0.3-0.3l0.6-0.2
			h0.3l0.5,0.2l0.2,0.1"/>
		<path class="st8" d="M159.6,89.1l-0.2,0.2l-0.5,0.1h-0.3l-0.6-0.1l-0.3-0.4l-0.2-0.4l-0.1-0.6v-0.5l0.1-0.7l0.2-0.4l0.3-0.3
			l0.6-0.2h0.3l0.5,0.2l0.2,0.1"/>
	</g>
	<g>
		<g class="st1">
			<rect x="143.5" y="83.1" class="st2" width="3.9" height="5.6"/>
			<text transform="matrix(1 0 0 1 143.4667 87.1667)" class="st12 st4 st5">1</text>
		</g>
		<g class="st1">
			<rect x="143.5" y="83.1" class="st2" width="3.9" height="5.6"/>
			<text transform="matrix(1 0 0 1 143.4647 87.1652)" class="st13 st4 st5">1</text>
		</g>
		<path class="st10" d="M145.8,87h-2.1"/>
		<path class="st10" d="M144.8,87v-3.6l-0.4,0.5l-0.4,0.4l-0.4,0.1"/>
		<path class="st10" d="M177.2,203.1v7.2"/>
	</g>
	<g>
		<g transform="rotate(-90 30500 33800)">
			<g class="st1">
				<rect x="64098.8" y="3473.6" class="st2" width="6.9" height="7.7"/>
				<text transform="matrix(1 0 0 1 64098.3516 3478.0828)" class="st3 st4 st5">IO2</text>
			</g>
			<g class="st1">
				<rect x="64098.7" y="3473.6" class="st2" width="6.9" height="7.7"/>
				<text transform="matrix(1 0 0 1 64098.3516 3478.0808)" class="st7 st4 st5">IO2</text>
			</g>
		</g>
		<path class="st8" d="M178.8,200.6h-3.6"/>
		<path class="st8" d="M175.2,198.1v-0.6l0.2-0.4l0.3-0.4l0.7-0.1h1.2l0.7,0.1l0.4,0.4l0.1,0.4v0.6l-0.1,0.4l-0.4,0.4l-0.7,0.1h-1.2
			l-0.7-0.1l-0.3-0.4L175.2,198.1"/>
		<path class="st8" d="M175.5,195.2l-0.1-0.2l-0.2-0.3v-0.9l0.2-0.4l0.1-0.1l0.4-0.2h0.3l0.6,0.2l2,2v-2.2"/>
	</g>
	<g>
		<g transform="rotate(-90 30400 34500)">
			<g class="st1">
				<rect x="64689.4" y="4272.1" class="st2" width="7.7" height="5.3"/>
				<text transform="matrix(1 0 0 1 64690.6719 4274.936)" class="st12 st4 st5">10</text>
			</g>
			<g class="st1">
				<rect x="64689.4" y="4272.1" class="st2" width="7.7" height="5.3"/>
				<text transform="matrix(1 0 0 1 64690.668 4274.9341)" class="st13 st4 st5">10</text>
			</g>
		</g>
		<path class="st10" d="M176.3,207.3v2.1"/>
		<path class="st10" d="M176.3,208.3h-3.6l0.5,0.4l0.4,0.4l0.1,0.4"/>
		<path class="st10" d="M172.7,205.1v-0.4l0.2-0.3l0.1-0.2l0.4-0.1l0.6-0.2h0.9l0.7,0.2l0.3,0.1l0.2,0.2l0.1,0.3v0.4l-0.1,0.4
			l-0.2,0.1l-0.3,0.2l-0.7,0.1H174l-0.6-0.1l-0.4-0.2l-0.1-0.1L172.7,205.1"/>
		<path class="st10" d="M191.6,203.1v7.2"/>
		<path class="st10" d="M190.5,209.2l2.2,2.2"/>
		<path class="st10" d="M192.7,209.2l-2.2,2.2"/>
	</g>
	<g>
		<g transform="rotate(-90 32500 33800)">
			<g class="st1">
				<rect x="66098.6" y="1488.5" class="st2" width="6.4" height="6.9"/>
				<text transform="matrix(1 0 0 1 66098.3516 1492.8461)" class="st3 st4 st5">NC</text>
			</g>
			<g class="st1">
				<rect x="66098.6" y="1488.5" class="st2" width="6.4" height="6.9"/>
				<text transform="matrix(1 0 0 1 66098.3516 1492.8446)" class="st7 st4 st5">NC</text>
			</g>
		</g>
		<path class="st8" d="M193.2,200.6h-3.6l3.6-2.1h-3.6"/>
		<path class="st8" d="M192.8,194.7l0.2,0.1l0.1,0.5v0.4l-0.1,0.5l-0.4,0.4l-0.4,0.1l-0.6,0.2h-0.5l-0.7-0.2l-0.4-0.1l-0.3-0.4
			l-0.2-0.5v-0.4l0.2-0.5l0.1-0.1"/>
	</g>
	<g>
		<g transform="rotate(-90 32400 34500)">
			<g class="st1">
				<rect x="66689.2" y="2286.5" class="st2" width="8.3" height="4.9"/>
				<text transform="matrix(1 0 0 1 66690.8438 2288.9348)" class="st12 st4 st5">1</text>
			</g>
			<g class="st1">
				<rect x="66689.2" y="2286.5" class="st2" width="8.3" height="4.9"/>
				<text transform="matrix(1 0 0 1 66690.8438 2288.9324)" class="st13 st4 st5">1</text>
			</g>
		</g>
		<path class="st10" d="M190.7,207.3v2.1"/>
		<path class="st10" d="M190.7,208.3h-3.6l0.5,0.4l0.4,0.4l0.1,0.4"/>
		<path class="st10" d="M190.7,203.9v2.1"/>
		<path class="st10" d="M190.7,205h-3.6l0.5,0.3l0.4,0.4l0.1,0.4"/>
		<path class="st10" d="M206,203.1v7.2"/>
		<path class="st10" d="M204.9,209.2l2.2,2.2"/>
		<path class="st10" d="M207.1,209.2l-2.2,2.2"/>
	</g>
	<g>
		<g transform="rotate(-90 34500 33800)">
			<g class="st1">
				<rect x="68098.6" y="-497.1" class="st2" width="6.4" height="6.9"/>
				<text transform="matrix(1 0 0 1 68098.3516 -492.7536)" class="st3 st4 st5">NC</text>
			</g>
			<g class="st1">
				<rect x="68098.6" y="-497.1" class="st2" width="6.4" height="6.9"/>
				<text transform="matrix(1 0 0 1 68098.3516 -492.7555)" class="st7 st4 st5">NC</text>
			</g>
		</g>
		<path class="st8" d="M207.6,200.6H204l3.6-2.1H204"/>
		<path class="st8" d="M207.2,194.7l0.2,0.1l0.1,0.5v0.4l-0.1,0.5l-0.4,0.4l-0.4,0.1l-0.6,0.2h-0.5l-0.7-0.2l-0.4-0.1l-0.3-0.4
			l-0.2-0.5v-0.4l0.2-0.5l0.1-0.1"/>
	</g>
	<g>
		<g transform="rotate(-90 34400 34500)">
			<g class="st1">
				<rect x="68689.4" y="300.9" class="st2" width="7.7" height="5.3"/>
				<text transform="matrix(1 0 0 1 68690.6719 303.7357)" class="st12 st4 st5">12</text>
			</g>
			<g class="st1">
				<rect x="68689.4" y="300.9" class="st2" width="7.7" height="5.3"/>
				<text transform="matrix(1 0 0 1 68690.6719 303.7337)" class="st13 st4 st5">12</text>
			</g>
		</g>
		<path class="st10" d="M205.1,207.3v2.1"/>
		<path class="st10" d="M205.1,208.3h-3.6l0.5,0.4l0.4,0.4l0.1,0.4"/>
		<path class="st10" d="M201.8,206l-0.1-0.1l-0.2-0.4v-0.9l0.2-0.4l0.1-0.1l0.4-0.2h0.3l0.6,0.2l2,2v-2.2"/>
		<path class="st10" d="M220.4,203.1v7.2"/>
	</g>
	<g>
		<g transform="rotate(-90 36500 33800)">
			<g class="st1">
				<rect x="70098.8" y="-2483.2" class="st2" width="6.9" height="7.7"/>
				<text transform="matrix(1 0 0 1 70098.3516 -2478.717)" class="st3 st4 st5">IO3</text>
			</g>
			<g class="st1">
				<rect x="70098.8" y="-2483.2" class="st2" width="6.9" height="7.7"/>
				<text transform="matrix(1 0 0 1 70098.3516 -2478.719)" class="st7 st4 st5">IO3</text>
			</g>
		</g>
		<path class="st8" d="M222,200.6h-3.6"/>
		<path class="st8" d="M218.4,198.1v-0.6l0.2-0.4l0.3-0.4l0.7-0.1h1.2l0.7,0.1l0.4,0.4l0.1,0.4v0.6l-0.1,0.4l-0.4,0.4l-0.7,0.1h-1.2
			l-0.7-0.1l-0.3-0.4L218.4,198.1"/>
		<path class="st8" d="M218.4,195.4v-2.2l1.4,1.2v-0.5l0.2-0.4l0.1-0.1l0.4-0.2h0.9l0.3,0.2l0.2,0.1l0.1,0.4v1l-0.1,0.4l-0.2,0.1"/>
	</g>
	<g>
		<g transform="rotate(-90 36400 34500)">
			<g class="st1">
				<rect x="70689.4" y="-1684.7" class="st2" width="7.7" height="5.3"/>
				<text transform="matrix(1 0 0 1 70690.6719 -1681.8639)" class="st12 st4 st5">13</text>
			</g>
			<g class="st1">
				<rect x="70689.4" y="-1684.7" class="st2" width="7.7" height="5.3"/>
				<text transform="matrix(1 0 0 1 70690.6719 -1681.8663)" class="st13 st4 st5">13</text>
			</g>
		</g>
		<path class="st10" d="M219.5,207.3v2.1"/>
		<path class="st10" d="M219.5,208.3h-3.6l0.5,0.4l0.4,0.4l0.1,0.4"/>
		<path class="st10" d="M215.9,206.1v-2.2l1.4,1.2v-0.5l0.2-0.4l0.1-0.1l0.4-0.2h0.9l0.3,0.2l0.2,0.1l0.1,0.4v1l-0.1,0.4l-0.2,0.1"
			/>
		<path class="st10" d="M234.8,203.1v7.2"/>
	</g>
	<g>
		<g transform="rotate(-90 38500 33800)">
			<g class="st1">
				<rect x="72102.4" y="-4471.9" class="st2" width="6.2" height="14.3"/>
				<text transform="matrix(1 0 0 1 72098.3516 -4463.8232)" class="st3 st4 st5">PWM3</text>
			</g>
			<g class="st1">
				<rect x="72102.4" y="-4471.9" class="st2" width="6.2" height="14.3"/>
				<text transform="matrix(1 0 0 1 72098.3516 -4463.8252)" class="st7 st4 st5">PWM3</text>
			</g>
		</g>
		<path class="st8" d="M236.4,200.6h-3.6v-1.4l0.2-0.4l0.1-0.2l0.4-0.1h0.5l0.4,0.1l0.1,0.2l0.1,0.4v1.4"/>
		<path class="st8" d="M232.8,197.3l3.6-0.9l-2.6-0.6l2.6-0.7l-3.6-0.8"/>
		<path class="st8" d="M236.4,192.8h-3.6l2.6-1.2l-2.6-1.2h3.6"/>
		<path class="st8" d="M232.8,189v-2.2l1.4,1.2v-0.5l0.2-0.4l0.1-0.1l0.4-0.2h0.9l0.3,0.2l0.2,0.1l0.1,0.4v1l-0.1,0.4L236,189"/>
	</g>
	<g>
		<g transform="rotate(-90 38400 34500)">
			<g class="st1">
				<rect x="72689.4" y="-3670.3" class="st2" width="7.7" height="5.3"/>
				<text transform="matrix(1 0 0 1 72690.6719 -3667.4641)" class="st12 st4 st5">14</text>
			</g>
			<g class="st1">
				<rect x="72689.4" y="-3670.3" class="st2" width="7.7" height="5.3"/>
				<text transform="matrix(1 0 0 1 72690.6719 -3667.4666)" class="st13 st4 st5">14</text>
			</g>
		</g>
		<path class="st10" d="M233.9,207.3v2.1"/>
		<path class="st10" d="M233.9,208.3h-3.6l0.5,0.4l0.4,0.4l0.1,0.4"/>
		<path class="st10" d="M231.5,204.2h2.4"/>
		<path class="st10" d="M230.1,205.1l2.5,0.9v-2.2"/>
		<path class="st10" d="M249.2,203.1v7.2"/>
	</g>
	<g>
		<g transform="rotate(-90 40500 33800)">
			<g class="st1">
				<rect x="74102.4" y="-6457.5" class="st2" width="6.2" height="14.3"/>
				<text transform="matrix(1 0 0 1 74098.3516 -6449.4233)" class="st3 st4 st5">PWM4</text>
			</g>
			<g class="st1">
				<rect x="74102.4" y="-6457.5" class="st2" width="6.2" height="14.3"/>
				<text transform="matrix(1 0 0 1 74098.3516 -6449.4253)" class="st7 st4 st5">PWM4</text>
			</g>
		</g>
		<path class="st8" d="M250.8,200.6h-3.6v-1.4l0.2-0.4l0.1-0.2l0.4-0.1h0.5l0.4,0.1l0.1,0.2l0.1,0.4v1.4"/>
		<path class="st8" d="M247.2,197.3l3.6-0.9l-2.6-0.6l2.6-0.7l-3.6-0.8"/>
		<path class="st8" d="M250.8,192.8h-3.6l2.6-1.2l-2.6-1.2h3.6"/>
		<path class="st8" d="M248.4,187.2h2.4"/>
		<path class="st8" d="M247,188l2.5,0.9v-2.2"/>
	</g>
	<g>
		<g transform="rotate(-90 40400 34500)">
			<g class="st1">
				<rect x="74689.4" y="-5655.9" class="st2" width="7.7" height="5.3"/>
				<text transform="matrix(1 0 0 1 74690.6719 -5653.064)" class="st12 st4 st5">15</text>
			</g>
			<g class="st1">
				<rect x="74689.4" y="-5655.9" class="st2" width="7.7" height="5.3"/>
				<text transform="matrix(1 0 0 1 74690.6719 -5653.0659)" class="st13 st4 st5">15</text>
			</g>
		</g>
		<path class="st10" d="M248.3,207.3v2.1"/>
		<path class="st10" d="M248.3,208.3h-3.6l0.5,0.4l0.4,0.4l0.1,0.4"/>
		<path class="st10" d="M244.7,204.1v1.7l1.7,0.1l-0.1-0.1l-0.2-0.4v-0.9l0.2-0.4l0.1-0.1l0.4-0.2h0.9l0.3,0.2l0.2,0.1l0.1,0.4v0.9
			l-0.1,0.4l-0.2,0.1"/>
		<path class="st10" d="M263.6,203.1v7.2"/>
		<path class="st10" d="M262.5,209.2l2.2,2.2"/>
		<path class="st10" d="M264.7,209.2l-2.2,2.2"/>
	</g>
	<g>
		<g transform="rotate(-90 42500 33800)">
			<g class="st1">
				<rect x="76098.6" y="-8439.5" class="st2" width="6.4" height="6.9"/>
				<text transform="matrix(1 0 0 1 76098.3516 -8435.1543)" class="st3 st4 st5">NC</text>
			</g>
			<g class="st1">
				<rect x="76098.6" y="-8439.5" class="st2" width="6.4" height="6.9"/>
				<text transform="matrix(1 0 0 1 76098.3516 -8435.1562)" class="st7 st4 st5">NC</text>
			</g>
		</g>
		<path class="st8" d="M265.2,200.6h-3.6l3.6-2.1h-3.6"/>
		<path class="st8" d="M264.8,194.7l0.2,0.1l0.1,0.5v0.4l-0.1,0.5l-0.4,0.4l-0.4,0.1l-0.6,0.2h-0.5l-0.7-0.2l-0.4-0.1l-0.3-0.4
			l-0.2-0.5v-0.4l0.2-0.5l0.1-0.1"/>
	</g>
	<g>
		<g transform="rotate(-90 42400 34500)">
			<g class="st1">
				<rect x="76689.4" y="-7641.5" class="st2" width="7.7" height="5.3"/>
				<text transform="matrix(1 0 0 1 76690.6719 -7638.6636)" class="st12 st4 st5">16</text>
			</g>
			<g class="st1">
				<rect x="76689.4" y="-7641.5" class="st2" width="7.7" height="5.3"/>
				<text transform="matrix(1 0 0 1 76690.6719 -7638.6665)" class="st13 st4 st5">16</text>
			</g>
		</g>
		<path class="st10" d="M262.7,207.3v2.1"/>
		<path class="st10" d="M262.7,208.3h-3.6l0.5,0.4l0.4,0.4l0.1,0.4"/>
		<path class="st10" d="M259.1,204.2v0.7l0.2,0.3l0.1,0.2l0.5,0.4l0.7,0.1h1.4l0.3-0.1l0.2-0.2l0.1-0.4v-0.6l-0.1-0.4l-0.2-0.1
			l-0.3-0.2h-0.9l-0.4,0.2l-0.1,0.1l-0.2,0.4v0.6l0.2,0.4l0.1,0.2l0.4,0.1"/>
		<path class="st10" d="M278,188.7h7.2"/>
	</g>
	<g>
		<g class="st1">
			<rect x="264.1" y="186.4" class="st2" width="13.3" height="5.6"/>
			<text transform="matrix(1 0 0 1 264.1263 190.487)"><tspan x="0" y="0" class="st3 st4 st5">ALE</tspan><tspan x="9.9" y="0" class="st3 st4 st5">D</tspan></text>
		</g>
		<g class="st1">
			<rect x="264.1" y="186.4" class="st2" width="13.3" height="5.6"/>
			<text transform="matrix(1 0 0 1 264.1253 190.4851)"><tspan x="0" y="0" class="st7 st4 st5">ALE</tspan><tspan x="9.9" y="0" class="st7 st4 st5">D</tspan></text>
		</g>
		<path class="st8" d="M264.1,189.3h1.7"/>
		<path class="st8" d="M263.8,190.3l1.2-3.6l1.2,3.6"/>
		<path class="st8" d="M269.1,190.3h-1.7v-3.6"/>
		<path class="st8" d="M270.3,188.4h1.2"/>
		<path class="st8" d="M272,190.3h-1.7v-3.6h1.7"/>
		<path class="st8" d="M273.5,190.3v-3.6h0.9l0.5,0.2l0.4,0.3l0.2,0.4l0.1,0.7v0.5l-0.1,0.6l-0.2,0.4l-0.4,0.4l-0.5,0.1H273.5"/>
	</g>
	<g>
		<g class="st1">
			<rect x="278.9" y="183.9" class="st2" width="7.3" height="5.6"/>
			<text transform="matrix(1 0 0 1 278.9456 187.967)"><tspan x="0" y="0" class="st12 st4 st5 st6">1</tspan><tspan x="4.6" y="0" class="st12 st4 st5">7</tspan></text>
		</g>
		<g class="st1">
			<rect x="278.9" y="183.9" class="st2" width="7.3" height="5.6"/>
			<text transform="matrix(1 0 0 1 278.9437 187.965)"><tspan x="0" y="0" class="st13 st4 st5 st6">1</tspan><tspan x="4.6" y="0" class="st13 st4 st5">7</tspan></text>
		</g>
		<path class="st10" d="M280.9,187.8h-2.1"/>
		<path class="st10" d="M279.9,187.8v-3.6l-0.4,0.5l-0.4,0.4l-0.4,0.1"/>
		<path class="st10" d="M282.1,184.2h2.4l-1.5,3.6"/>
		<path class="st10" d="M278,174.3h7.2"/>
	</g>
	<g>
		<g class="st1">
			<rect x="263.7" y="172" class="st2" width="13.5" height="5.6"/>
			<text transform="matrix(1 0 0 1 263.6986 176.0866)"><tspan x="0" y="0" class="st3 st4 st5">RTC</tspan><tspan x="10.3" y="0" class="st3 st4 st5">A</tspan></text>
		</g>
		<g class="st1">
			<rect x="263.7" y="172" class="st2" width="13.5" height="5.6"/>
			<text transform="matrix(1 0 0 1 263.6966 176.0852)"><tspan x="0" y="0" class="st7 st4 st5">RTC</tspan><tspan x="10.3" y="0" class="st7 st4 st5">A</tspan></text>
		</g>
		<path class="st8" d="M266.2,175.9l-1.2-1.7"/>
		<path class="st8" d="M264.1,175.9v-3.6h1.4l0.3,0.2l0.2,0.1l0.1,0.4v0.5l-0.1,0.4l-0.2,0.1l-0.3,0.1h-1.4"/>
		<path class="st8" d="M267.2,172.3h2.1"/>
		<path class="st8" d="M268.3,175.9v-3.6"/>
		<path class="st8" d="M272.5,175.5l-0.1,0.2l-0.5,0.1h-0.4l-0.5-0.1l-0.4-0.4l-0.1-0.4l-0.2-0.6v-0.5l0.2-0.7l0.1-0.4l0.4-0.3
			l0.5-0.2h0.4l0.5,0.2l0.1,0.1"/>
		<path class="st8" d="M273.9,174.9h1.7"/>
		<path class="st8" d="M273.5,175.9l1.2-3.6l1.2,3.6"/>
	</g>
	<g>
		<g class="st1">
			<rect x="278.9" y="169.5" class="st2" width="7.3" height="5.6"/>
			<text transform="matrix(1 0 0 1 278.9456 173.5666)"><tspan x="0" y="0" class="st12 st4 st5 st6">1</tspan><tspan x="4.6" y="0" class="st12 st4 st5">8</tspan></text>
		</g>
		<g class="st1">
			<rect x="278.9" y="169.5" class="st2" width="7.3" height="5.6"/>
			<text transform="matrix(1 0 0 1 278.9437 173.5651)"><tspan x="0" y="0" class="st13 st4 st5 st6">1</tspan><tspan x="4.6" y="0" class="st13 st4 st5">8</tspan></text>
		</g>
		<path class="st10" d="M280.9,173.4h-2.1"/>
		<path class="st10" d="M279.9,173.4v-3.6l-0.4,0.5l-0.4,0.4l-0.4,0.1"/>
		<path class="st10" d="M283,171.3l-0.4-0.2l-0.2-0.1l-0.1-0.4v-0.1l0.1-0.4l0.2-0.1l0.4-0.2h0.6l0.4,0.2l0.1,0.1l0.2,0.4v0.1
			l-0.2,0.4l-0.1,0.1l-0.4,0.2H283l-0.4,0.1l-0.2,0.1l-0.1,0.4v0.7l0.1,0.3l0.2,0.2l0.4,0.1h0.6l0.4-0.1l0.1-0.2l0.2-0.3V172
			l-0.2-0.4l-0.1-0.1l-0.4-0.1"/>
		<path class="st10" d="M278,159.9h7.2"/>
	</g>
	<g>
		<g class="st1">
			<rect x="257.5" y="157.6" class="st2" width="20.2" height="5.6"/>
			<text transform="matrix(1 0 0 1 257.5374 161.6867)"><tspan x="0" y="0" class="st3 st4 st5">TXD_D</tspan><tspan x="16.7" y="0" class="st3 st4 st5">D</tspan></text>
		</g>
		<g class="st1">
			<rect x="257.5" y="157.6" class="st2" width="20.2" height="5.6"/>
			<text transform="matrix(1 0 0 1 257.5365 161.6853)"><tspan x="0" y="0" class="st7 st4 st5">TXD_D</tspan><tspan x="16.7" y="0" class="st7 st4 st5">D</tspan></text>
		</g>
		<path class="st8" d="M256.9,157.9h2.1"/>
		<path class="st8" d="M258,161.5v-3.6"/>
		<path class="st8" d="M259.8,157.9l2.4,3.6"/>
		<path class="st8" d="M262.2,157.9l-2.4,3.6"/>
		<path class="st8" d="M263.6,161.5v-3.6h0.9l0.5,0.2l0.4,0.3l0.2,0.4l0.1,0.7v0.5l-0.1,0.6l-0.2,0.4l-0.4,0.4l-0.5,0.1H263.6"/>
		<path class="st8" d="M266.3,161.8h2.8"/>
		<path class="st8" d="M269.9,161.5v-3.6h0.9l0.5,0.2l0.4,0.3l0.2,0.4l0.1,0.7v0.5l-0.1,0.6l-0.2,0.4l-0.4,0.4l-0.5,0.1H269.9"/>
		<path class="st8" d="M273.5,161.5v-3.6h0.9l0.5,0.2l0.4,0.3l0.2,0.4l0.1,0.7v0.5l-0.1,0.6l-0.2,0.4l-0.4,0.4l-0.5,0.1H273.5"/>
	</g>
	<g>
		<g class="st1">
			<rect x="278.9" y="155.1" class="st2" width="7.3" height="5.6"/>
			<text transform="matrix(1 0 0 1 278.9456 159.1667)"><tspan x="0" y="0" class="st12 st4 st5 st6">1</tspan><tspan x="4.6" y="0" class="st12 st4 st5">9</tspan></text>
		</g>
		<g class="st1">
			<rect x="278.9" y="155.1" class="st2" width="7.3" height="5.6"/>
			<text transform="matrix(1 0 0 1 278.9437 159.1652)"><tspan x="0" y="0" class="st13 st4 st5 st6">1</tspan><tspan x="4.6" y="0" class="st13 st4 st5">9</tspan></text>
		</g>
		<path class="st10" d="M280.9,159h-2.1"/>
		<path class="st10" d="M279.9,159v-3.6l-0.4,0.5l-0.4,0.4l-0.4,0.1"/>
		<path class="st10" d="M282.6,159h0.6l0.4-0.1l0.1-0.2l0.4-0.5l0.2-0.6v-1.4l-0.2-0.4l-0.1-0.1l-0.4-0.2H283l-0.4,0.2l-0.2,0.1
			l-0.1,0.4v0.9l0.1,0.3l0.2,0.2l0.4,0.1h0.6l0.4-0.1l0.1-0.2l0.2-0.3"/>
		<path class="st10" d="M148.4,102.3h-7.2"/>
	</g>
	<g>
		<g class="st1">
			<rect x="149.8" y="100" class="st2" width="15.7" height="5.6"/>
			<text transform="matrix(1 0 0 1 149.828 104.0866)"><tspan x="0" y="0" class="st3 st4 st5">PWM</tspan><tspan x="13.1" y="0" class="st3 st4 st5">1</tspan></text>
		</g>
		<g class="st1">
			<rect x="149.8" y="100" class="st2" width="15.7" height="5.6"/>
			<text transform="matrix(1 0 0 1 149.8265 104.0852)"><tspan x="0" y="0" class="st7 st4 st5">PWM</tspan><tspan x="13.1" y="0" class="st7 st4 st5">1</tspan></text>
		</g>
		<path class="st8" d="M150.8,103.9v-3.6h1.4l0.4,0.2l0.2,0.1l0.1,0.4v0.5l-0.1,0.4l-0.2,0.1l-0.4,0.1h-1.4"/>
		<path class="st8" d="M154.1,100.3l0.9,3.6l0.6-2.6l0.7,2.6l0.9-3.6"/>
		<path class="st8" d="M158.6,103.9v-3.6l1.2,2.6l1.2-2.6v3.6"/>
		<path class="st8" d="M164.6,103.9h-2.1"/>
		<path class="st8" d="M163.6,103.9v-3.6l-0.4,0.5l-0.4,0.4l-0.4,0.1"/>
	</g>
	<g>
		<g class="st1">
			<rect x="143.5" y="97.5" class="st2" width="3.9" height="5.6"/>
			<text transform="matrix(1 0 0 1 143.4667 101.5666)" class="st12 st4 st5">2</text>
		</g>
		<g class="st1">
			<rect x="143.5" y="97.5" class="st2" width="3.9" height="5.6"/>
			<text transform="matrix(1 0 0 1 143.4647 101.5651)" class="st13 st4 st5">2</text>
		</g>
		<path class="st10" d="M143.7,98.1l0.2-0.1l0.3-0.2h0.9l0.4,0.2l0.1,0.1l0.2,0.4v0.3l-0.2,0.6l-2,2h2.2"/>
		<path class="st10" d="M278,145.5h7.2"/>
	</g>
	<g>
		<g class="st1">
			<rect x="257" y="143.2" class="st2" width="21" height="5.6"/>
			<text transform="matrix(1 0 0 1 257.0091 147.2868)"><tspan x="0" y="0" class="st3 st4 st5">RXD_D</tspan><tspan x="17.6" y="0" class="st3 st4 st5">C</tspan></text>
		</g>
		<g class="st1">
			<rect x="257" y="143.2" class="st2" width="21" height="5.6"/>
			<text transform="matrix(1 0 0 1 257.0072 147.2854)"><tspan x="0" y="0" class="st7 st4 st5">RXD_D</tspan><tspan x="17.6" y="0" class="st7 st4 st5">C</tspan></text>
		</g>
		<path class="st8" d="M258.6,147.1l-1.2-1.7"/>
		<path class="st8" d="M256.6,147.1v-3.6h1.4l0.4,0.2l0.1,0.1l0.1,0.4v0.5l-0.1,0.4l-0.1,0.1l-0.4,0.1h-1.4"/>
		<path class="st8" d="M259.8,143.5l2.4,3.6"/>
		<path class="st8" d="M262.2,143.5l-2.4,3.6"/>
		<path class="st8" d="M263.6,147.1v-3.6h0.9l0.5,0.2l0.4,0.3l0.2,0.4l0.1,0.7v0.5l-0.1,0.6l-0.2,0.4l-0.4,0.4l-0.5,0.1H263.6"/>
		<path class="st8" d="M266.3,147.4h2.8"/>
		<path class="st8" d="M269.9,147.1v-3.6h0.9l0.5,0.2l0.4,0.3l0.2,0.4l0.1,0.7v0.5l-0.1,0.6l-0.2,0.4l-0.4,0.4l-0.5,0.1H269.9"/>
		<path class="st8" d="M275.6,146.7l-0.1,0.2l-0.6,0.1h-0.3l-0.5-0.1l-0.4-0.4l-0.2-0.4l-0.1-0.6v-0.5l0.1-0.7l0.2-0.4l0.4-0.3
			l0.5-0.2h0.3l0.6,0.2l0.1,0.1"/>
	</g>
	<g>
		<g class="st1">
			<rect x="278.9" y="140.7" class="st2" width="7.3" height="5.6"/>
			<text transform="matrix(1 0 0 1 278.9456 144.7668)"><tspan x="0" y="0" class="st12 st4 st5 st6">2</tspan><tspan x="4.6" y="0" class="st12 st4 st5">0</tspan></text>
		</g>
		<g class="st1">
			<rect x="278.9" y="140.7" class="st2" width="7.3" height="5.6"/>
			<text transform="matrix(1 0 0 1 278.9437 144.7653)"><tspan x="0" y="0" class="st13 st4 st5 st6">2</tspan><tspan x="4.6" y="0" class="st13 st4 st5">0</tspan></text>
		</g>
		<path class="st10" d="M278.8,141.3l0.2-0.1l0.4-0.2h0.8l0.4,0.2l0.2,0.1l0.1,0.4v0.3l-0.1,0.6l-2.1,2h2.2"/>
		<path class="st10" d="M283.1,141h0.4l0.3,0.2l0.2,0.1l0.1,0.4l0.2,0.6v0.9l-0.2,0.7l-0.1,0.3l-0.2,0.2l-0.3,0.1h-0.4l-0.4-0.1
			l-0.1-0.2l-0.2-0.3l-0.1-0.7v-0.9l0.1-0.6l0.2-0.4l0.1-0.1L283.1,141"/>
		<path class="st10" d="M278,131.1h7.2"/>
	</g>
	<g>
		<g class="st1">
			<rect x="258.1" y="128.8" class="st2" width="19.7" height="5.6"/>
			<text transform="matrix(1 0 0 1 258.0619 132.8869)"><tspan x="0" y="0" class="st3 st4 st5">SELEC</tspan><tspan x="16.8" y="0" class="st3 st4 st5">T</tspan></text>
		</g>
		<g class="st1">
			<rect x="258.1" y="128.8" class="st2" width="19.7" height="5.6"/>
			<text transform="matrix(1 0 0 1 258.0609 132.8855)"><tspan x="0" y="0" class="st7 st4 st5">SELEC</tspan><tspan x="16.8" y="0" class="st7 st4 st5">T</tspan></text>
		</g>
		<path class="st8" d="M257.8,132.5l0.6,0.1h0.8l0.4-0.1l0.2-0.2l0.1-0.3v-0.4l-0.1-0.4l-0.2-0.1l-0.4-0.2l-0.6-0.1l-0.4-0.1
			l-0.1-0.2l-0.2-0.4v-0.3l0.2-0.4l0.1-0.1l0.4-0.2h0.9l0.5,0.2"/>
		<path class="st8" d="M261.4,130.8h1.2"/>
		<path class="st8" d="M263.1,132.7h-1.7v-3.6h1.7"/>
		<path class="st8" d="M266.3,132.7h-1.7v-3.6"/>
		<path class="st8" d="M267.5,130.8h1.2"/>
		<path class="st8" d="M269.3,132.7h-1.7v-3.6h1.7"/>
		<path class="st8" d="M272.9,132.3l-0.1,0.2l-0.6,0.1h-0.3l-0.6-0.1l-0.3-0.4l-0.2-0.4l-0.1-0.6v-0.5l0.1-0.7l0.2-0.4l0.3-0.3
			l0.6-0.2h0.3l0.6,0.2l0.1,0.1"/>
		<path class="st8" d="M273.9,129.1h2.1"/>
		<path class="st8" d="M274.9,132.7v-3.6"/>
	</g>
	<g>
		<g class="st1">
			<rect x="278.9" y="126.3" class="st2" width="7.3" height="5.6"/>
			<text transform="matrix(1 0 0 1 278.9456 130.3669)"><tspan x="0" y="0" class="st12 st4 st5 st6">2</tspan><tspan x="4.6" y="0" class="st12 st4 st5">1</tspan></text>
		</g>
		<g class="st1">
			<rect x="278.9" y="126.3" class="st2" width="7.3" height="5.6"/>
			<text transform="matrix(1 0 0 1 278.9437 130.3654)"><tspan x="0" y="0" class="st13 st4 st5 st6">2</tspan><tspan x="4.6" y="0" class="st13 st4 st5">1</tspan></text>
		</g>
		<path class="st10" d="M278.8,126.9l0.2-0.1l0.4-0.2h0.8l0.4,0.2l0.2,0.1l0.1,0.4v0.3l-0.1,0.6l-2.1,2h2.2"/>
		<path class="st10" d="M284.3,130.2h-2.1"/>
		<path class="st10" d="M283.2,130.2v-3.6l-0.3,0.5l-0.4,0.4l-0.4,0.1"/>
		<path class="st10" d="M278,116.7h7.2"/>
	</g>
	<g>
		<g class="st1">
			<rect x="262" y="114.4" class="st2" width="15.3" height="5.6"/>
			<text transform="matrix(1 0 0 1 262.0296 118.487)"><tspan x="0" y="0" class="st3 st4 st5">PWR</tspan><tspan x="11.9" y="0" class="st3 st4 st5">C</tspan></text>
		</g>
		<g class="st1">
			<rect x="262" y="114.4" class="st2" width="15.3" height="5.6"/>
			<text transform="matrix(1 0 0 1 262.0287 118.4851)"><tspan x="0" y="0" class="st7 st4 st5">PWR</tspan><tspan x="11.9" y="0" class="st7 st4 st5">C</tspan></text>
		</g>
		<path class="st8" d="M262.2,118.3v-3.6h1.4l0.4,0.2l0.1,0.1l0.2,0.4v0.5l-0.2,0.4l-0.1,0.1l-0.4,0.1h-1.4"/>
		<path class="st8" d="M265.5,114.7l0.8,3.6l0.7-2.6l0.6,2.6l0.9-3.6"/>
		<path class="st8" d="M272,118.3l-1.2-1.7"/>
		<path class="st8" d="M269.9,118.3v-3.6h1.4l0.4,0.2l0.2,0.1l0.1,0.4v0.5l-0.1,0.4l-0.2,0.1l-0.4,0.1h-1.4"/>
		<path class="st8" d="M275.6,117.9l-0.1,0.2l-0.6,0.1h-0.3l-0.5-0.1l-0.4-0.4l-0.2-0.4l-0.1-0.6v-0.5l0.1-0.7l0.2-0.4l0.4-0.3
			l0.5-0.2h0.3l0.6,0.2l0.1,0.1"/>
	</g>
	<g>
		<g class="st1">
			<rect x="278.9" y="111.9" class="st2" width="7.3" height="5.6"/>
			<text transform="matrix(1 0 0 1 278.9456 115.967)"><tspan x="0" y="0" class="st12 st4 st5 st6">2</tspan><tspan x="4.6" y="0" class="st12 st4 st5">2</tspan></text>
		</g>
		<g class="st1">
			<rect x="278.9" y="111.9" class="st2" width="7.3" height="5.6"/>
			<text transform="matrix(1 0 0 1 278.9437 115.965)"><tspan x="0" y="0" class="st13 st4 st5 st6">2</tspan><tspan x="4.6" y="0" class="st13 st4 st5">2</tspan></text>
		</g>
		<path class="st10" d="M278.8,112.5l0.2-0.1l0.4-0.2h0.8l0.4,0.2l0.2,0.1l0.1,0.4v0.3l-0.1,0.6l-2.1,2h2.2"/>
		<path class="st10" d="M282.2,112.5l0.1-0.1l0.4-0.2h0.9l0.4,0.2l0.1,0.1l0.2,0.4v0.3l-0.2,0.6l-2,2h2.2"/>
		<path class="st10" d="M278,102.3h7.2"/>
	</g>
	<g>
		<g class="st1">
			<rect x="260.7" y="100" class="st2" width="16.7" height="5.6"/>
			<text transform="matrix(1 0 0 1 260.7054 104.0866)"><tspan x="0" y="0" class="st3 st4 st5">RESE</tspan><tspan x="13.8" y="0" class="st3 st4 st5">T</tspan></text>
		</g>
		<g class="st1">
			<rect x="260.7" y="100" class="st2" width="16.7" height="5.6"/>
			<text transform="matrix(1 0 0 1 260.7035 104.0852)"><tspan x="0" y="0" class="st7 st4 st5">RESE</tspan><tspan x="13.8" y="0" class="st7 st4 st5">T</tspan></text>
		</g>
		<path class="st8" d="M262.9,103.9l-1.2-1.7"/>
		<path class="st8" d="M260.9,103.9v-3.6h1.4l0.4,0.2l0.1,0.1l0.2,0.4v0.5l-0.2,0.4l-0.1,0.1l-0.4,0.1h-1.4"/>
		<path class="st8" d="M264.5,102h1.2"/>
		<path class="st8" d="M266.2,103.9h-1.7v-3.6h1.7"/>
		<path class="st8" d="M267.5,103.7l0.5,0.1h0.9l0.4-0.1l0.1-0.2l0.2-0.3v-0.4l-0.2-0.4l-0.1-0.1l-0.4-0.2l-0.6-0.1l-0.4-0.1
			l-0.2-0.2l-0.1-0.4V101l0.1-0.4l0.2-0.1l0.4-0.2h0.9l0.5,0.2"/>
		<path class="st8" d="M271.1,102h1.2"/>
		<path class="st8" d="M272.9,103.9h-1.7v-3.6h1.7"/>
		<path class="st8" d="M273.9,100.3h2.1"/>
		<path class="st8" d="M274.9,103.9v-3.6"/>
	</g>
	<g>
		<g class="st1">
			<rect x="278.9" y="97.5" class="st2" width="7.3" height="5.6"/>
			<text transform="matrix(1 0 0 1 278.9456 101.5666)"><tspan x="0" y="0" class="st12 st4 st5 st6">2</tspan><tspan x="4.6" y="0" class="st12 st4 st5">3</tspan></text>
		</g>
		<g class="st1">
			<rect x="278.9" y="97.5" class="st2" width="7.3" height="5.6"/>
			<text transform="matrix(1 0 0 1 278.9437 101.5651)"><tspan x="0" y="0" class="st13 st4 st5 st6">2</tspan><tspan x="4.6" y="0" class="st13 st4 st5">3</tspan></text>
		</g>
		<path class="st10" d="M278.8,98.1L279,98l0.4-0.2h0.8l0.4,0.2l0.2,0.1l0.1,0.4v0.3l-0.1,0.6l-2.1,2h2.2"/>
		<path class="st10" d="M282.1,97.8h2.2l-1.2,1.4h0.5l0.4,0.2l0.1,0.1l0.2,0.4v0.9l-0.2,0.3l-0.1,0.2l-0.4,0.1h-1l-0.4-0.1l-0.1-0.2
			"/>
		<path class="st10" d="M278,87.9h7.2"/>
	</g>
	<g>
		<g class="st1">
			<rect x="266" y="85.6" class="st2" width="11.4" height="5.6"/>
			<text transform="matrix(1 0 0 1 265.9886 89.6867)"><tspan x="0" y="0" class="st3 st4 st5">GN</tspan><tspan x="7.9" y="0" class="st3 st4 st5">D</tspan></text>
		</g>
		<g class="st1">
			<rect x="266" y="85.6" class="st2" width="11.4" height="5.6"/>
			<text transform="matrix(1 0 0 1 265.9867 89.6853)"><tspan x="0" y="0" class="st7 st4 st5">GN</tspan><tspan x="7.9" y="0" class="st7 st4 st5">D</tspan></text>
		</g>
		<path class="st8" d="M268.1,86.1l-0.4-0.2h-0.5l-0.5,0.2l-0.4,0.3l-0.1,0.4l-0.1,0.7V88l0.1,0.6l0.1,0.4l0.4,0.4l0.5,0.1h0.4
			l0.5-0.1l0.2-0.2V88h-0.7"/>
		<path class="st8" d="M269.8,89.5v-3.6l2.1,3.6v-3.6"/>
		<path class="st8" d="M273.5,89.5v-3.6h0.9l0.5,0.2l0.4,0.3l0.2,0.4l0.1,0.7V88l-0.1,0.6l-0.2,0.4l-0.4,0.4l-0.5,0.1H273.5"/>
	</g>
	<g>
		<g class="st1">
			<rect x="278.9" y="83.1" class="st2" width="7.3" height="5.6"/>
			<text transform="matrix(1 0 0 1 278.9456 87.1667)"><tspan x="0" y="0" class="st12 st4 st5 st6">2</tspan><tspan x="4.6" y="0" class="st12 st4 st5">4</tspan></text>
		</g>
		<g class="st1">
			<rect x="278.9" y="83.1" class="st2" width="7.3" height="5.6"/>
			<text transform="matrix(1 0 0 1 278.9437 87.1652)"><tspan x="0" y="0" class="st13 st4 st5 st6">2</tspan><tspan x="4.6" y="0" class="st13 st4 st5">4</tspan></text>
		</g>
		<path class="st10" d="M278.8,83.7l0.2-0.1l0.4-0.2h0.8l0.4,0.2l0.2,0.1l0.1,0.4v0.3l-0.1,0.6l-2.1,2h2.2"/>
		<path class="st10" d="M284,84.6V87"/>
		<path class="st10" d="M283.1,83.2l-0.9,2.5h2.2"/>
		<path class="st10" d="M148.4,116.7h-7.2"/>
	</g>
	<g>
		<g class="st1">
			<rect x="149.8" y="114.4" class="st2" width="15.7" height="5.6"/>
			<text transform="matrix(1 0 0 1 149.828 118.487)"><tspan x="0" y="0" class="st3 st4 st5">PWM</tspan><tspan x="13.1" y="0" class="st3 st4 st5">2</tspan></text>
		</g>
		<g class="st1">
			<rect x="149.8" y="114.4" class="st2" width="15.7" height="5.6"/>
			<text transform="matrix(1 0 0 1 149.8265 118.4851)"><tspan x="0" y="0" class="st7 st4 st5">PWM</tspan><tspan x="13.1" y="0" class="st7 st4 st5">2</tspan></text>
		</g>
		<path class="st8" d="M150.8,118.3v-3.6h1.4l0.4,0.2l0.2,0.1l0.1,0.4v0.5l-0.1,0.4l-0.2,0.1l-0.4,0.1h-1.4"/>
		<path class="st8" d="M154.1,114.7l0.9,3.6l0.6-2.6l0.7,2.6l0.9-3.6"/>
		<path class="st8" d="M158.6,118.3v-3.6l1.2,2.6l1.2-2.6v3.6"/>
		<path class="st8" d="M162.5,115l0.2-0.1l0.3-0.2h0.9l0.4,0.2l0.2,0.1l0.1,0.4v0.3l-0.1,0.6l-2.1,2h2.2"/>
	</g>
	<g>
		<g class="st1">
			<rect x="143.5" y="111.9" class="st2" width="3.9" height="5.6"/>
			<text transform="matrix(1 0 0 1 143.4667 115.967)" class="st12 st4 st5">3</text>
		</g>
		<g class="st1">
			<rect x="143.5" y="111.9" class="st2" width="3.9" height="5.6"/>
			<text transform="matrix(1 0 0 1 143.4647 115.965)" class="st13 st4 st5">3</text>
		</g>
		<path class="st10" d="M143.6,112.2h2.2l-1.2,1.4h0.5l0.4,0.2l0.1,0.1l0.2,0.4v0.9l-0.2,0.3l-0.1,0.2l-0.4,0.1h-1l-0.4-0.1
			l-0.1-0.2"/>
		<path class="st10" d="M148.4,131.1h-7.2"/>
	</g>
	<g>
		<g class="st1">
			<rect x="149.8" y="128.8" class="st2" width="9.4" height="5.6"/>
			<text transform="matrix(1 0 0 1 149.828 132.8869)"><tspan x="0" y="0" class="st3 st4 st5">IO</tspan><tspan x="6.7" y="0" class="st3 st4 st5">4</tspan></text>
		</g>
		<g class="st1">
			<rect x="149.8" y="128.8" class="st2" width="9.4" height="5.6"/>
			<text transform="matrix(1 0 0 1 149.8265 132.8855)"><tspan x="0" y="0" class="st7 st4 st5">IO</tspan><tspan x="6.7" y="0" class="st7 st4 st5">4</tspan></text>
		</g>
		<path class="st8" d="M150.8,132.7v-3.6"/>
		<path class="st8" d="M153.3,129.1h0.6l0.4,0.2l0.4,0.3l0.1,0.7v1.2l-0.1,0.7l-0.4,0.4l-0.4,0.1h-0.6l-0.4-0.1l-0.4-0.4l-0.1-0.7
			v-1.2l0.1-0.7l0.4-0.3L153.3,129.1"/>
		<path class="st8" d="M157.9,130.3v2.4"/>
		<path class="st8" d="M157,128.9l-0.9,2.5h2.2"/>
	</g>
	<g>
		<g class="st1">
			<rect x="143.5" y="126.3" class="st2" width="3.9" height="5.6"/>
			<text transform="matrix(1 0 0 1 143.4667 130.3669)" class="st12 st4 st5">4</text>
		</g>
		<g class="st1">
			<rect x="143.5" y="126.3" class="st2" width="3.9" height="5.6"/>
			<text transform="matrix(1 0 0 1 143.4647 130.3654)" class="st13 st4 st5">4</text>
		</g>
		<path class="st10" d="M145.4,127.8v2.4"/>
		<path class="st10" d="M144.6,126.4l-0.9,2.5h2.2"/>
		<path class="st10" d="M148.4,145.5h-7.2"/>
		<path class="st10" d="M140.1,144.4l2.2,2.2"/>
		<path class="st10" d="M142.3,144.4l-2.2,2.2"/>
	</g>
	<g>
		<g class="st1">
			<rect x="149.8" y="143.2" class="st2" width="7.8" height="5.6"/>
			<text transform="matrix(1 0 0 1 149.828 147.2868)"><tspan x="0" y="0" class="st3 st4 st5">N</tspan><tspan x="4.3" y="0" class="st3 st4 st5">C</tspan></text>
		</g>
		<g class="st1">
			<rect x="149.8" y="143.2" class="st2" width="7.8" height="5.6"/>
			<text transform="matrix(1 0 0 1 149.8265 147.2854)"><tspan x="0" y="0" class="st7 st4 st5">N</tspan><tspan x="4.3" y="0" class="st7 st4 st5">C</tspan></text>
		</g>
		<path class="st8" d="M150.8,147.1v-3.6l2.1,3.6v-3.6"/>
		<path class="st8" d="M156.7,146.7l-0.1,0.2l-0.5,0.1h-0.4l-0.5-0.1l-0.4-0.4l-0.1-0.4l-0.2-0.6v-0.5l0.2-0.7l0.1-0.4l0.4-0.3
			l0.5-0.2h0.4l0.5,0.2l0.1,0.1"/>
	</g>
	<g>
		<g class="st1">
			<rect x="143.5" y="140.7" class="st2" width="3.9" height="5.6"/>
			<text transform="matrix(1 0 0 1 143.4667 144.7668)" class="st12 st4 st5">5</text>
		</g>
		<g class="st1">
			<rect x="143.5" y="140.7" class="st2" width="3.9" height="5.6"/>
			<text transform="matrix(1 0 0 1 143.4647 144.7653)" class="st13 st4 st5">5</text>
		</g>
		<path class="st10" d="M145.6,141h-1.7l-0.2,1.7l0.2-0.1l0.3-0.2h0.9l0.4,0.2l0.1,0.1l0.2,0.4v0.9l-0.2,0.3l-0.1,0.2l-0.4,0.1h-0.9
			l-0.3-0.1l-0.2-0.2"/>
		<path class="st10" d="M148.4,159.9h-7.2"/>
	</g>
	<g>
		<g class="st1">
			<rect x="149.8" y="157.6" class="st2" width="12.5" height="5.6"/>
			<text transform="matrix(1 0 0 1 149.828 161.6867)"><tspan x="0" y="0" class="st3 st4 st5">STA</tspan><tspan x="9.6" y="0" class="st3 st4 st5">T</tspan></text>
		</g>
		<g class="st1">
			<rect x="149.8" y="157.6" class="st2" width="12.5" height="5.6"/>
			<text transform="matrix(1 0 0 1 149.8265 161.6853)"><tspan x="0" y="0" class="st7 st4 st5">STA</tspan><tspan x="9.6" y="0" class="st7 st4 st5">T</tspan></text>
		</g>
		<path class="st8" d="M150.7,161.3l0.5,0.1h0.9l0.4-0.1l0.1-0.2l0.2-0.3v-0.4l-0.2-0.4l-0.1-0.1l-0.4-0.2l-0.6-0.1l-0.4-0.1
			l-0.2-0.2l-0.1-0.4v-0.3l0.1-0.4l0.2-0.1l0.4-0.2h0.8l0.6,0.2"/>
		<path class="st8" d="M153.8,157.9h2"/>
		<path class="st8" d="M154.8,161.5v-3.6"/>
		<path class="st8" d="M156.9,160.5h1.7"/>
		<path class="st8" d="M156.5,161.5l1.2-3.6l1.2,3.6"/>
		<path class="st8" d="M159.6,157.9h2"/>
		<path class="st8" d="M160.6,161.5v-3.6"/>
	</g>
	<g>
		<g class="st1">
			<rect x="143.5" y="155.1" class="st2" width="3.9" height="5.6"/>
			<text transform="matrix(1 0 0 1 143.4667 159.1667)" class="st12 st4 st5">6</text>
		</g>
		<g class="st1">
			<rect x="143.5" y="155.1" class="st2" width="3.9" height="5.6"/>
			<text transform="matrix(1 0 0 1 143.4647 159.1652)" class="st13 st4 st5">6</text>
		</g>
		<path class="st10" d="M145.4,155.4h-0.6l-0.4,0.2l-0.2,0.1l-0.3,0.5l-0.2,0.7v1.4l0.2,0.3l0.1,0.2l0.4,0.1h0.6l0.4-0.1l0.1-0.2
			l0.2-0.3v-0.9l-0.2-0.4l-0.1-0.1l-0.4-0.2h-0.6l-0.4,0.2l-0.1,0.1l-0.2,0.4"/>
		<path class="st10" d="M148.4,174.3h-7.2"/>
		<path class="st10" d="M140.1,173.2l2.2,2.2"/>
		<path class="st10" d="M142.3,173.2l-2.2,2.2"/>
	</g>
	<g>
		<g class="st1">
			<rect x="149.8" y="172" class="st2" width="7.8" height="5.6"/>
			<text transform="matrix(1 0 0 1 149.828 176.0866)"><tspan x="0" y="0" class="st3 st4 st5">N</tspan><tspan x="4.3" y="0" class="st3 st4 st5">C</tspan></text>
		</g>
		<g class="st1">
			<rect x="149.8" y="172" class="st2" width="7.8" height="5.6"/>
			<text transform="matrix(1 0 0 1 149.8265 176.0852)"><tspan x="0" y="0" class="st7 st4 st5">N</tspan><tspan x="4.3" y="0" class="st7 st4 st5">C</tspan></text>
		</g>
		<path class="st8" d="M150.8,175.9v-3.6l2.1,3.6v-3.6"/>
		<path class="st8" d="M156.7,175.5l-0.1,0.2l-0.5,0.1h-0.4l-0.5-0.1l-0.4-0.4l-0.1-0.4l-0.2-0.6v-0.5l0.2-0.7l0.1-0.4l0.4-0.3
			l0.5-0.2h0.4l0.5,0.2l0.1,0.1"/>
	</g>
	<g>
		<g class="st1">
			<rect x="143.5" y="169.5" class="st2" width="3.9" height="5.6"/>
			<text transform="matrix(1 0 0 1 143.4667 173.5666)" class="st12 st4 st5">7</text>
		</g>
		<g class="st1">
			<rect x="143.5" y="169.5" class="st2" width="3.9" height="5.6"/>
			<text transform="matrix(1 0 0 1 143.4647 173.5651)" class="st13 st4 st5">7</text>
		</g>
		<path class="st10" d="M143.6,169.8h2.4l-1.5,3.6"/>
		<path class="st10" d="M148.4,188.7h-7.2"/>
		<path class="st10" d="M140.1,187.6l2.2,2.2"/>
		<path class="st10" d="M142.3,187.6l-2.2,2.2"/>
	</g>
	<g>
		<g class="st1">
			<rect x="149.8" y="186.4" class="st2" width="7.8" height="5.6"/>
			<text transform="matrix(1 0 0 1 149.828 190.487)"><tspan x="0" y="0" class="st3 st4 st5">N</tspan><tspan x="4.3" y="0" class="st3 st4 st5">C</tspan></text>
		</g>
		<g class="st1">
			<rect x="149.8" y="186.4" class="st2" width="7.8" height="5.6"/>
			<text transform="matrix(1 0 0 1 149.8265 190.4851)"><tspan x="0" y="0" class="st7 st4 st5">N</tspan><tspan x="4.3" y="0" class="st7 st4 st5">C</tspan></text>
		</g>
		<path class="st8" d="M150.8,190.3v-3.6l2.1,3.6v-3.6"/>
		<path class="st8" d="M156.7,189.9l-0.1,0.2l-0.5,0.1h-0.4l-0.5-0.1l-0.4-0.4l-0.1-0.4l-0.2-0.6v-0.5l0.2-0.7l0.1-0.4l0.4-0.3
			l0.5-0.2h0.4l0.5,0.2l0.1,0.1"/>
	</g>
	<g>
		<g class="st1">
			<rect x="143.5" y="183.9" class="st2" width="3.9" height="5.6"/>
			<text transform="matrix(1 0 0 1 143.4667 187.967)" class="st12 st4 st5">8</text>
		</g>
		<g class="st1">
			<rect x="143.5" y="183.9" class="st2" width="3.9" height="5.6"/>
			<text transform="matrix(1 0 0 1 143.4647 187.965)" class="st13 st4 st5">8</text>
		</g>
		<path class="st10" d="M144.4,185.7l-0.4-0.2l-0.1-0.1l-0.2-0.4v-0.1l0.2-0.4l0.1-0.1l0.4-0.2h0.6l0.4,0.2l0.1,0.1l0.2,0.4v0.1
			l-0.2,0.4l-0.1,0.1l-0.4,0.2H144.4l-0.4,0.1l-0.1,0.1l-0.2,0.4v0.7l0.2,0.3l0.1,0.2l0.4,0.1h0.6l0.4-0.1l0.1-0.2l0.2-0.3v-0.7
			l-0.2-0.4l-0.1-0.1l-0.4-0.1"/>
		<path class="st10" d="M162.8,203.1v7.2"/>
	</g>
	<g>
		<g transform="rotate(-90 28500 33800)">
			<g class="st1">
				<rect x="62098.8" y="5459.2" class="st2" width="6.9" height="7.7"/>
				<text transform="matrix(1 0 0 1 62098.3516 5463.6831)" class="st3 st4 st5">IO1</text>
			</g>
			<g class="st1">
				<rect x="62098.7" y="5459.2" class="st2" width="6.9" height="7.7"/>
				<text transform="matrix(1 0 0 1 62098.3516 5463.6812)" class="st7 st4 st5">IO1</text>
			</g>
		</g>
		<path class="st8" d="M164.4,200.6h-3.6"/>
		<path class="st8" d="M160.8,198.1v-0.6l0.2-0.4l0.3-0.4l0.7-0.1h1.2l0.7,0.1l0.4,0.4l0.1,0.4v0.6l-0.1,0.4l-0.4,0.4l-0.7,0.1H162
			l-0.7-0.1l-0.3-0.4L160.8,198.1"/>
		<path class="st8" d="M164.4,193.2v2.1"/>
		<path class="st8" d="M164.4,194.2h-3.6l0.5,0.3l0.4,0.4l0.1,0.4"/>
	</g>
	<g>
		<g transform="rotate(-90 28400 34500)">
			<g class="st1">
				<rect x="62689.2" y="6258.9" class="st2" width="8.3" height="2.6"/>
				<text transform="matrix(1 0 0 1 62691.9922 6260.1475)" class="st12 st4 st5">9</text>
			</g>
			<g class="st1">
				<rect x="62689.2" y="6258.9" class="st2" width="8.3" height="2.6"/>
				<text transform="matrix(1 0 0 1 62691.9922 6260.145)" class="st13 st4 st5">9</text>
			</g>
		</g>
		<path class="st10" d="M161.9,207.3v-0.6l-0.1-0.4l-0.2-0.2l-0.5-0.3l-0.6-0.2H159l-0.4,0.2l-0.1,0.1l-0.2,0.4v0.6l0.2,0.4l0.1,0.1
			l0.4,0.2h0.9l0.3-0.2l0.2-0.1l0.1-0.4v-0.6l-0.1-0.4l-0.2-0.1l-0.3-0.2"/>
	</g>
	<g>
		<g transform="rotate(-90 35020 24000)">
			<g class="st1">
				<rect x="58885.1" y="-10817.9" class="st2" width="7.7" height="15.4"/>
				<text transform="matrix(1 0 0 1 58881.207 -10809.9922)"><tspan x="0" y="0" class="st3 st4 st5">JDY-</tspan><tspan x="12.8" y="0" class="st3 st4 st5">1</tspan></text>
			</g>
			<g class="st1">
				<rect x="58885.1" y="-10817.9" class="st2" width="7.7" height="15.4"/>
				<text transform="matrix(1 0 0 1 58881.207 -10809.9941)"><tspan x="0" y="0" class="st7 st4 st5">JDY-</tspan><tspan x="12.8" y="0" class="st7 st4 st5">1</tspan></text>
			</g>
		</g>
		<path class="st8" d="M207.7,139.5h2.6l0.5,0.2l0.4,0.4l0.1,0.5v0.3"/>
		<path class="st8" d="M211.3,137.9h-3.6V137l0.2-0.5l0.3-0.4l0.4-0.2l0.7-0.1h0.5l0.6,0.1l0.4,0.2l0.4,0.4l0.1,0.5V137.9"/>
		<path class="st8" d="M209.6,133.5h1.7"/>
		<path class="st8" d="M207.7,134.8l1.9-1.2l-1.9-1.2"/>
		<path class="st8" d="M209.9,131.2v-2.7"/>
		<path class="st8" d="M211.3,124.8v2"/>
		<path class="st8" d="M211.3,125.8h-3.6l0.5,0.4l0.4,0.3l0.1,0.4"/>
		<path class="st8" d="M207.7,121.7v0.6l0.2,0.4l0.1,0.1l0.5,0.4l0.7,0.2h1.4l0.3-0.2l0.2-0.1l0.1-0.4v-0.6l-0.1-0.4l-0.2-0.2
			l-0.3-0.1h-0.9l-0.4,0.1l-0.1,0.2l-0.2,0.4v0.6l0.2,0.4l0.1,0.1l0.4,0.2"/>
	</g>
</g>
<g>
	<g>
		<path class="st0" d="M297.8,107.7h3.6"/>
		<path class="st0" d="M299.2,109.5h0.7"/>
		<path class="st0" d="M299.6,105.9v-3.6"/>
		<path class="st0" d="M303.2,105.9H296"/>
	</g>
</g>
<g>
	<g>
		<path class="st14" d="M33.2,134.7v-7.2"/>
	</g>
	<g>
		<path class="st0" d="M33.2,131.1h7.2"/>
	</g>
	<g>
		<path class="st15" d="M40.4,134.7v-7.2l-7.2,3.6L40.4,134.7z"/>
	</g>
	<g>
		<path class="st0" d="M28.1,133.2l-4.3,4.3H26h-2.2v-2.2"/>
		<path class="st0" d="M31.7,133.2l-4.3,4.3h2.2h-2.2v-2.2"/>
		<path class="st10" d="M33.2,131.1H26"/>
		<path class="st10" d="M40.4,131.1h7.2"/>
	</g>
</g>
<g>
	<g>
		<rect x="65.6" y="128.2" class="st16" width="14.4" height="5.8"/>
	</g>
	<g>
		<path class="st10" d="M80,131.1h3.6"/>
		<path class="st10" d="M65.6,131.1H62"/>
	</g>
</g>
<g>
	<g>
		<path class="st0" d="M9.8,194.1h3.6"/>
		<path class="st0" d="M11.2,195.9h0.7"/>
		<path class="st0" d="M11.6,192.3v-3.6"/>
		<path class="st0" d="M15.2,192.3H8"/>
	</g>
</g>
<g>
	<g>
		<path class="st14" d="M33.2,149.1v-7.2"/>
	</g>
	<g>
		<path class="st0" d="M33.2,145.5h7.2"/>
	</g>
	<g>
		<path class="st15" d="M40.4,149.1v-7.2l-7.2,3.6L40.4,149.1z"/>
	</g>
	<g>
		<path class="st0" d="M28.1,147.6l-4.3,4.3H26h-2.2v-2.2"/>
		<path class="st0" d="M31.7,147.6l-4.3,4.3h2.2h-2.2v-2.2"/>
		<path class="st10" d="M33.2,145.5H26"/>
		<path class="st10" d="M40.4,145.5h7.2"/>
	</g>
</g>
<g>
	<g>
		<rect x="65.6" y="142.6" class="st16" width="14.4" height="5.8"/>
	</g>
	<g>
		<path class="st10" d="M80,145.5h3.6"/>
		<path class="st10" d="M65.6,145.5H62"/>
	</g>
</g>
<g>
	<g>
		<path class="st14" d="M33.2,163.5v-7.2"/>
	</g>
	<g>
		<path class="st0" d="M33.2,159.9h7.2"/>
	</g>
	<g>
		<path class="st15" d="M40.4,163.5v-7.2l-7.2,3.6L40.4,163.5z"/>
	</g>
	<g>
		<path class="st0" d="M28.1,162l-4.3,4.3H26h-2.2v-2.2"/>
		<path class="st0" d="M31.7,162l-4.3,4.3h2.2h-2.2v-2.2"/>
		<path class="st10" d="M33.2,159.9H26"/>
		<path class="st10" d="M40.4,159.9h7.2"/>
	</g>
</g>
<g>
	<g>
		<rect x="65.6" y="157" class="st16" width="14.4" height="5.8"/>
	</g>
	<g>
		<path class="st10" d="M80,159.9h3.6"/>
		<path class="st10" d="M65.6,159.9H62"/>
	</g>
</g>
<g>
	<g>
		<path class="st14" d="M33.2,177.9v-7.2"/>
	</g>
	<g>
		<path class="st0" d="M33.2,174.3h7.2"/>
	</g>
	<g>
		<path class="st15" d="M40.4,177.9v-7.2l-7.2,3.6L40.4,177.9z"/>
	</g>
	<g>
		<path class="st0" d="M28.1,176.4l-4.3,4.3H26h-2.2v-2.2"/>
		<path class="st0" d="M31.7,176.4l-4.3,4.3h2.2h-2.2v-2.2"/>
		<path class="st10" d="M33.2,174.3H26"/>
		<path class="st10" d="M40.4,174.3h7.2"/>
	</g>
</g>
<g>
	<g>
		<rect x="65.6" y="171.4" class="st16" width="14.4" height="5.8"/>
	</g>
	<g>
		<path class="st10" d="M80,174.3h3.6"/>
		<path class="st10" d="M65.6,174.3H62"/>
	</g>
</g>
<path class="st17" d="M83.6,145.5h43.2"/>
<path class="st17" d="M83.6,174.3H98"/>
<path class="st17" d="M112.4,159.9H83.6"/>
<path class="st17" d="M141.2,131.1H83.6"/>
<path class="st17" d="M98,253.5v-79.2"/>
<path class="st17" d="M220.4,253.5H98"/>
<path class="st17" d="M220.4,210.3v43.2"/>
<path class="st17" d="M112.4,239.1v-79.2"/>
<path class="st17" d="M177.2,239.1h-64.8"/>
<path class="st17" d="M177.2,210.3v28.8"/>
<path class="st17" d="M126.8,224.7v-79.2"/>
<path class="st17" d="M162.8,224.7h-36"/>
<path class="st17" d="M162.8,210.3v14.4"/>
<path class="st17" d="M47.6,174.3H62"/>
<path class="st17" d="M47.6,159.9H62"/>
<path class="st17" d="M47.6,145.5H62"/>
<path class="st17" d="M47.6,131.1H62"/>
<path class="st17" d="M11.6,131.1v14.4"/>
<path class="st17" d="M26,131.1H11.6"/>
<path class="st17" d="M11.6,145.5v14.4"/>
<path class="st17" d="M26,145.5H11.6"/>
<path class="st17" d="M11.6,159.9v14.4"/>
<path class="st17" d="M26,159.9H11.6"/>
<path class="st17" d="M11.6,174.3v14.4"/>
<path class="st17" d="M26,174.3H11.6"/>
<path class="st17" d="M299.6,87.9v14.4"/>
<path class="st17" d="M285.2,87.9h14.4"/>
<path class="st17" d="M126.8,87.9V73.5"/>
<path class="st17" d="M141.2,87.9h-14.4"/>
<g>
	<circle class="st18" cx="11.6" cy="145.5" r="1.4"/>
</g>
<g>
	<circle class="st18" cx="11.6" cy="159.9" r="1.4"/>
</g>
<g>
	<circle class="st18" cx="11.6" cy="174.3" r="1.4"/>
</g>
</svg>
