<?xml version="1.0" encoding="utf-8"?>
<!-- Generator: Adobe Illustrator 25.0.0, SVG Export Plug-In . SVG Version: 6.00 Build 0)  -->
<svg version="1.1"
	 id="svg2" inkscape:output_extension="org.inkscape.output.svg.inkscape" inkscape:version="0.92.1 r15371" sodipodi:docname="drawing.svg" sodipodi:version="0.32" xmlns:cc="http://creativecommons.org/ns#" xmlns:dc="http://purl.org/dc/elements/1.1/" xmlns:freecad="http://www.freecadweb.org/wiki/index.php?title=Svg_Namespace" xmlns:inkscape="http://www.inkscape.org/namespaces/inkscape" xmlns:rdf="http://www.w3.org/1999/02/22-rdf-syntax-ns#" xmlns:sodipodi="http://sodipodi.sourceforge.net/DTD/sodipodi-0.dtd" xmlns:svg="http://www.w3.org/2000/svg"
	 xmlns="http://www.w3.org/2000/svg" xmlns:xlink="http://www.w3.org/1999/xlink" x="0px" y="0px" viewBox="0 0 640 446.8"
	 style="enable-background:new 0 0 640 446.8;" xml:space="preserve">
<style type="text/css">
	.st0{fill:none;stroke:#0066FF;stroke-width:0.9921;stroke-miterlimit:90.7087;}
	.st1{fill:#0066FF;stroke:#0066FF;stroke-width:0.9921;stroke-miterlimit:90.7087;}
	.st2{fill:#0066FF;stroke:#0066FF;stroke-miterlimit:10;}
	.st3{fill:#0066FF;enable-background:new    ;}
	.st4{font-family:'ArialMT';}
	.st5{font-size:9.4372px;}
	.st6{fill:#0066FF;}
	.st7{font-family:'Arial-BoldMT';}
	.st8{font-size:14.9816px;}
</style>
<path id="path868" class="st0" d="M212.8,147.2v151h147.9H212.8h147.9v-151H212.8z"/>
<path id="path1177" class="st0" d="M317.2,316.8h-1.9c0-1.7-1.4-3.2-3.2-3.2c-1.7,0-3.2,1.4-3.2,3.2h-1.9"/>
<path id="path1179_5_" class="st0" d="M212.8,316.8v-7.5h10v7.5"/>
<path id="path1179_1_" class="st0" d="M288.3,316.8v-7.5h10v7.5"/>
<path id="path1179_2_" class="st0" d="M269.4,316.8v-7.5h10v7.5"/>
<path id="path1179_3_" class="st0" d="M250.5,316.8v-7.5h10v7.5"/>
<polygon class="st1" points="442,316.7 371.7,316.7 371.7,308.3 434.4,308.3 434.4,288.2 390.6,288.2 390.6,248.4 433.3,248.4 
	433.3,228.3 389.8,228.3 389.8,188.6 432.1,188.6 432.1,171.7 371.7,171.7 371.7,157.7 433.7,157.7 433.7,143.3 362.5,143.3 
	362.5,128.7 441,128.7 441,197 396,197 396,217 440.5,217 440.5,256.9 398.5,256.9 398.5,276.9 442,276.9 "/>
<defs>
	
		<inkscape:perspective  id="perspective3148" inkscape:persp3d-origin="32 : 21.333333 : 1" inkscape:vp_x="0 : 32 : 1" inkscape:vp_y="0 : 1000 : 0" inkscape:vp_z="64 : 32 : 1" sodipodi:type="inkscape:persp3d">
		</inkscape:perspective>
</defs>
<sodipodi:namedview  bordercolor="#666666" borderopacity="1.0" gridtolerance="10.0" guidetolerance="10.0" id="base" inkscape:current-layer="svg2" inkscape:cx="863.62023" inkscape:cy="850.18594" inkscape:document-units="mm" inkscape:pageopacity="0.0" inkscape:pageshadow="2" inkscape:snap-text-baseline="false" inkscape:window-height="1017" inkscape:window-maximized="1" inkscape:window-width="1920" inkscape:window-x="-8" inkscape:window-y="-8" inkscape:zoom="0.5946522" objecttolerance="10.0" pagecolor="#ffffff" showgrid="false">
	</sodipodi:namedview>
<g id="g452">
</g>
<path id="path866" class="st0" d="M212.8,147.2h147.9H212.8z"/>
<path id="path886" class="st0" d="M307.1,316.7h-8.8"/>
<path id="path888" class="st0" d="M288.3,316.7h-8.8"/>
<path id="path890" class="st0" d="M277.5,316.7c-0.1-1.7-1.6-3.1-3.3-3c-1.7,0.1-2.9,1.4-3,3"/>
<path id="path892" class="st0" d="M269.4,316.7h-8.8"/>
<path id="path896" class="st0" d="M250.5,316.7h-8.8l0,0v-7.4h-10v7.4h-8.8"/>
<path id="path898" class="st0" d="M220.9,316.7c-0.1-1.7-1.6-3.1-3.3-3c-1.7,0.1-2.9,1.4-3,3"/>
<path id="_x32_2" class="st0" d="M198.9,293.6v23.1h13.8"/>
<path id="path903" class="st0" d="M198.9,283.5v-8.8"/>
<path id="_x32_4" class="st0" d="M198.9,264.6v-8.8"/>
<path id="path906" class="st0" d="M198.9,245.8v-8.8"/>
<path id="_x32_6" class="st0" d="M198.9,226.9v-8.8"/>
<path id="path909" class="st0" d="M198.9,208v-8.8"/>
<path id="_x32_8" class="st0" d="M198.9,189.1v-8.8"/>
<path id="path912" class="st0" d="M198.9,178.5c1.7-0.1,3.1-1.6,3-3.3c-0.1-1.7-1.4-2.9-3-3"/>
<path id="_x33_0" class="st0" d="M198.9,170.2v-8.8"/>
<path id="path915" class="st0" d="M198.9,151.4v-22.6"/>
<path id="_x33_2" class="st0" d="M198.9,128.7h13.8"/>
<path id="path918" class="st0" d="M214.6,128.7c0.1,1.7,1.4,3,3.2,3"/>
<path id="path920" class="st0" d="M217.8,131.7c1.7,0,3.1-1.3,3.2-3"/>
<path id="path922" class="st0" d="M222.8,128.7h8.8"/>
<path id="path924" class="st0" d="M236.7,131.7c1.7,0,3.1-1.3,3.2-3"/>
<path id="path926" class="st0" d="M241.7,128.7h8.8"/>
<path id="path928" class="st0" d="M252.4,128.7c0.1,1.7,1.4,3,3.2,3"/>
<path id="_x33_9" class="st0" d="M260.6,128.7h8.8"/>
<path id="path931" class="st0" d="M274.4,131.7c1.7,0,3.1-1.3,3.2-3"/>
<path id="_x34_1" class="st0" d="M279.4,128.7h8.8"/>
<path id="path934" class="st0" d="M290.1,128.7c0.1,1.7,1.4,3,3.2,3"/>
<path id="path936" class="st0" d="M293.2,131.7c1.7,0,3.1-1.3,3.2-3"/>
<path id="path938" class="st0" d="M298.3,128.7h8.8"/>
<path id="_x34_5" class="st0" d="M317.2,128.7h8.8"/>
<path id="path941" class="st0" d="M331,131.7c1.7,0,3.1-1.3,3.2-3"/>
<path id="_x34_7" class="st0" d="M336,128.7h8.8"/>
<path id="path944" class="st0" d="M346.7,128.7c0.1,1.7,1.4,3,3.2,3"/>
<path id="path946" class="st0" d="M349.9,131.7c1.7,0,3.1-1.3,3.2-3"/>
<path id="path948" class="st0" d="M354.9,128.7h7.5"/>
<path id="_x36_8" class="st0" d="M441,128.7h4.5"/>
<path id="path1006" class="st0" d="M279.4,128.6v7.5"/>
<path id="path1008" class="st0" d="M277.5,128.6h1.9"/>
<path id="path1010" class="st0" d="M279.4,136.2h-10"/>
<path id="path1012" class="st0" d="M269.4,136.2v-7.5"/>
<path id="path1014" class="st0" d="M269.4,128.6h1.9"/>
<path id="path1016" class="st0" d="M271.3,128.6c0,1.7,1.4,3.2,3.2,3.2l0,0"/>
<path id="path1018" class="st0" d="M274.4,131.7c1.7,0,3.2-1.4,3.2-3.2"/>
<path id="path1020" class="st0" d="M317.2,128.6v7.5"/>
<path id="path1022" class="st0" d="M315.3,128.6h1.9"/>
<path id="path1024" class="st0" d="M317.2,136.2h-10"/>
<path id="path1026" class="st0" d="M307.1,136.2v-7.5"/>
<path id="path1028" class="st0" d="M307.1,128.6h1.9"/>
<path id="path1030" class="st0" d="M309,128.6c0,1.7,1.4,3.2,3.2,3.2"/>
<path id="path1032" class="st0" d="M312.2,131.7c1.7,0,3.2-1.4,3.2-3.2"/>
<path id="path1034" class="st0" d="M206.3,208v10"/>
<path id="path1036" class="st0" d="M198.8,208h7.5"/>
<path id="path1038" class="st0" d="M206.3,218.1h-7.5"/>
<path id="path1040" class="st0" d="M198.8,218.1v-1.9"/>
<path id="path1042" class="st0" d="M198.8,216.2c1.7,0,3.2-1.4,3.2-3.2c0-1.7-1.4-3.2-3.2-3.2"/>
<path id="_x31_03" class="st0" d="M198.8,209.9V208"/>
<path id="path1052" class="st0" d="M241.7,316.8h-1.9c0-1.7-1.4-3.2-3.2-3.2c-1.7,0-3.2,1.4-3.2,3.2h-1.8"/>
<path id="path1055" class="st0" d="M241.7,128.6v7.5"/>
<path id="path1057" class="st0" d="M239.8,128.6h1.9"/>
<path id="_x31_12" class="st0" d="M241.7,136.2h-10"/>
<path id="path1060" class="st0" d="M231.6,136.2v-7.5"/>
<path id="path1062" class="st0" d="M231.6,128.6h1.9"/>
<path id="path1064" class="st0" d="M233.5,128.6c0,1.7,1.4,3.2,3.2,3.2"/>
<path id="path1066" class="st0" d="M236.7,131.7c1.7,0,3.2-1.4,3.2-3.2"/>
<path id="path1068" class="st0" d="M206.3,245.8v10"/>
<path id="_x31_18" class="st0" d="M198.8,245.8h7.5"/>
<path id="path1071" class="st0" d="M206.3,255.8h-7.5"/>
<path id="path1073" class="st0" d="M198.8,255.8v-1.9"/>
<path id="path1075" class="st0" d="M198.8,253.9c1.7,0,3.2-1.4,3.2-3.2c0-1.7-1.4-3.2-3.2-3.2"/>
<path id="path1077" class="st0" d="M198.8,247.7v-1.9"/>
<path id="path1079" class="st0" d="M298.3,128.6v7.5"/>
<path id="_x31_24" class="st0" d="M296.4,128.6h1.9"/>
<path id="path1082" class="st0" d="M298.3,136.2h-10"/>
<path id="path1084" class="st0" d="M288.3,136.2v-7.5"/>
<path id="path1086" class="st0" d="M288.3,128.6h1.9"/>
<path id="path1088" class="st0" d="M290.1,128.6c0,1.7,1.4,3.2,3.2,3.2"/>
<path id="path1090" class="st0" d="M293.2,131.7c1.7,0,3.2-1.4,3.2-3.2"/>
<path id="path1099" class="st0" d="M354.8,316.8h-1.8c0-1.7-1.4-3.2-3.2-3.2c-1.7,0-3.2,1.4-3.2,3.2h-2.3"/>
<path id="path1102" class="st0" d="M206.3,170.2v10"/>
<path id="path1104" class="st0" d="M198.8,170.2h7.5"/>
<path id="_x31_38" class="st0" d="M206.3,180.3h-7.5"/>
<path id="path1107" class="st0" d="M198.8,180.3v-1.9"/>
<path id="path1109" class="st0" d="M198.8,178.5c1.7,0,3.2-1.4,3.2-3.2c0-1.7-1.4-3.2-3.2-3.2"/>
<path id="_x31_41" class="st0" d="M198.8,172.1v-1.9"/>
<path id="path1119" class="st0" d="M260.6,316.8h-1.9c0-1.7-1.4-3.2-3.2-3.2c-1.7,0-3.2,1.4-3.2,3.2h-1.9"/>
<path id="_x31_50_1_" class="st0" d="M336,316.8"/>
<path id="path1131" class="st0" d="M445.2,128.9v188H369h-14.4v-7.4h-10v7.4h-8.8v-7.4l-10,0.1v7.3h-8.5v-7.4h-10v7.5"/>
<path id="path1137" class="st0" d="M198.8,293.6h7.5v-10h-7.5"/>
<path id="path1139" class="st0" d="M198.8,293.6v-1.9"/>
<path id="path1141" class="st0" d="M198.8,291.7c1.7,0,3.2-1.4,3.2-3.2c0-1.7-1.4-3.2-3.2-3.2"/>
<path id="path1143" class="st0" d="M198.8,285.4v-1.9"/>
<path id="path1153" class="st0" d="M298.3,316.8h-1.9c0-1.7-1.4-3.2-3.2-3.2c-1.7,0-3.2,1.4-3.2,3.2h-1.9"/>
<path id="path1161" class="st0" d="M279.4,316.8h-1.9"/>
<path id="path1165" class="st0" d="M277.5,316.8c0-1.7-1.4-3.2-3.2-3.2c-1.7,0-3.2,1.4-3.2,3.2h-1.9"/>
<path id="path1181" class="st0" d="M206.3,151.4v10"/>
<path id="path1183" class="st0" d="M198.8,151.4h7.5"/>
<path id="path1185" class="st0" d="M206.3,161.5h-7.5"/>
<path id="path1187" class="st0" d="M198.8,161.5v-1.9"/>
<path id="path1189" class="st0" d="M198.8,159.6c1.7,0,3.2-1.4,3.2-3.2s-1.4-3.2-3.2-3.2"/>
<path id="path1191" class="st0" d="M198.8,153.3v-1.9"/>
<path id="path1193" class="st0" d="M354.9,128.6v7.5"/>
<path id="path1195" class="st0" d="M353.1,128.6h1.9"/>
<path id="_x31_86" class="st0" d="M354.9,136.2h-10"/>
<path id="_x31_87" class="st0" d="M344.9,136.2v-7.5"/>
<path id="path1199" class="st0" d="M344.9,128.6h1.9"/>
<path id="path1201" class="st0" d="M346.7,128.6c0,1.7,1.4,3.2,3.2,3.2"/>
<path id="path1203" class="st0" d="M349.9,131.7c1.7,0,3.2-1.4,3.2-3.2"/>
<path id="path1205" class="st0" d="M336,128.6v7.5"/>
<path id="path1207" class="st0" d="M334.1,128.6h1.9"/>
<path id="path1209" class="st0" d="M336,136.2h-10"/>
<path id="_x31_94" class="st0" d="M326,136.2v-7.5"/>
<path id="_x31_95" class="st0" d="M326,128.6h1.9"/>
<path id="path1213" class="st0" d="M327.9,128.6c0,1.7,1.4,3.2,3.2,3.2"/>
<path id="path1215" class="st0" d="M331,131.7c1.7,0,3.2-1.4,3.2-3.2"/>
<path id="path1217" class="st0" d="M206.3,264.6v10"/>
<path id="path1219" class="st0" d="M198.8,264.6h7.5"/>
<path id="path1221" class="st0" d="M206.3,274.7h-7.5"/>
<path id="path1223" class="st0" d="M198.8,274.7v-1.9"/>
<path id="path1225" class="st0" d="M198.8,272.8c1.7,0,3.2-1.4,3.2-3.2c0-1.7-1.4-3.2-3.2-3.2"/>
<path id="path1227" class="st0" d="M198.8,266.5v-1.9"/>
<path id="_x32_04" class="st0" d="M206.3,226.9v10"/>
<path id="_x32_05" class="st0" d="M198.8,226.9h7.5"/>
<path id="path1231" class="st0" d="M206.3,236.9h-7.5"/>
<path id="path1233" class="st0" d="M198.8,236.9v-1.9"/>
<path id="path1235" class="st0" d="M198.8,235.1c1.7,0,3.2-1.4,3.2-3.2c0-1.7-1.4-3.2-3.2-3.2"/>
<path id="path1237" class="st0" d="M198.8,228.8v-1.9"/>
<path id="path1239" class="st0" d="M206.3,189.1v10"/>
<path id="path1241" class="st0" d="M198.8,189.1h7.5"/>
<path id="path1243" class="st0" d="M206.3,199.2h-7.5"/>
<path id="path1245" class="st0" d="M198.8,199.2v-1.9"/>
<path id="path1247" class="st0" d="M198.8,197.3c1.7,0,3.2-1.4,3.2-3.2c0-1.7-1.4-3.2-3.2-3.2"/>
<path id="path1249" class="st0" d="M198.8,191v-1.9"/>
<path id="path1251" class="st0" d="M222.8,128.6v7.5"/>
<path id="path1253" class="st0" d="M220.9,128.6h1.9"/>
<path id="_x32_18" class="st0" d="M222.8,136.2h-10"/>
<path id="_x32_19" class="st0" d="M212.7,136.2v-7.5"/>
<path id="path1257" class="st0" d="M212.7,128.6h1.9"/>
<path id="path1259" class="st0" d="M214.6,128.6c0,1.7,1.4,3.2,3.2,3.2"/>
<path id="path1261" class="st0" d="M217.8,131.7c1.7,0,3.2-1.4,3.2-3.2"/>
<path id="path1267" class="st0" d="M222.8,316.8h-1.9"/>
<path id="path1269" class="st0" d="M220.9,316.8c0-1.7-1.4-3.2-3.2-3.2s-3.2,1.4-3.2,3.2"/>
<path id="path1271" class="st0" d="M214.6,316.8h-1.9"/>
<path id="path1275" class="st0" d="M260.6,128.6v7.5"/>
<path id="path1277" class="st0" d="M258.7,128.6h1.9"/>
<path id="path1279" class="st0" d="M260.6,136.2h-10"/>
<path id="_x32_32" class="st0" d="M250.5,136.2v-7.5"/>
<path id="_x32_33" class="st0" d="M250.5,128.6h1.9"/>
<path id="path1283" class="st0" d="M252.4,128.6c0,1.7,1.4,3.2,3.2,3.2"/>
<path id="path1285" class="st0" d="M255.5,131.7c1.7,0,3.2-1.4,3.2-3.2"/>
<path id="path1290" freecad:basepoint1="13.2 -11.7867948532" freecad:basepoint2="11.0 -11.7867948532" freecad:dimpoint="13.2 -12.0867948532" class="st0" d="
	M195.3,317.1h-11.8v-27.7h11.8"/>
<path id="path1292" freecad:skip="1" class="st2" d="M183.5,317.1l-1.7-6.7h3.3L183.5,317.1z"/>
<path id="path1294" freecad:skip="1" class="st2" d="M183.5,289.4l1.7,6.7h-3.3L183.5,289.4z"/>
<path id="path1299" freecad:basepoint1="12.0 -6.49999959988" freecad:basepoint2="26.94 -6.49999959988" freecad:dimpoint="12.0 -5.7" class="st0" d="
	M447.2,128.4h10v188h-10"/>
<path id="path1301" freecad:skip="1" class="st2" d="M457.3,128.4l1.7,6.7h-3.3L457.3,128.4z"/>
<path id="path1303" freecad:skip="1" class="st2" d="M457.3,316.3l-1.7-6.7h3.3L457.3,316.3z"/>
<path id="path1308" freecad:basepoint1="16.0 -0.75" freecad:basepoint2="16.0 0.75" freecad:dimpoint="15.1453504562 -0.75" class="st0" d="
	M217.6,320.2V331h-18.9v-10.8"/>
<path id="path1310" freecad:skip="1" class="st2" d="M217.6,331l6.7-1.7v3.3L217.6,331z"/>
<path id="path1312" freecad:skip="1" class="st2" d="M198.6,331l-6.7,1.7v-3.3L198.6,331z"/>
<path id="path1317" freecad:basepoint1="10.0 9.8" freecad:basepoint2="10.0 -9.8" freecad:dimpoint="10.1970310211 9.8" class="st0" d="
	M198.6,120.5V118h246.6v2.5"/>
<path id="path1319" freecad:skip="1" class="st2" d="M198.6,118l6.7-1.7v3.3L198.6,118z"/>
<path id="path1321" freecad:skip="1" class="st2" d="M445.3,118l-6.7,1.7v-3.3L445.3,118z"/>
<path id="path1326" freecad:basepoint1="16.0 -0.35" freecad:basepoint2="16.0 0.35" freecad:dimpoint="15.295214653 -0.35" class="st0" d="
	M288,323.4v8.9h-8.8v-8.9"/>
<path id="path1328" freecad:skip="1" class="st2" d="M288,332.3l6.7-1.7v3.3L288,332.3z"/>
<path id="path1330" freecad:skip="1" class="st2" d="M279.2,332.3l-6.7,1.7v-3.3L279.2,332.3z"/>
<path id="path1335" freecad:basepoint1="14.0 -0.4" freecad:basepoint2="14.0 0.4" freecad:dimpoint="13.3516778946 -0.4" class="st0" d="
	M354.7,324.9v8.2h-10v-8.2"/>
<path id="path1337" freecad:skip="1" class="st2" d="M354.7,333.1l6.7-1.7v3.3L354.7,333.1z"/>
<path id="path1339" freecad:skip="1" class="st2" d="M344.6,333.1l-6.7,1.7v-3.3L344.6,333.1z"/>
<g>
	<text id="text1296" freecad:skip="1" transform="matrix(6.123234e-17 1 -1 6.123234e-17 172.1737 284.9043)" class="st3 st4 st5">2,20 mm</text>
	<text id="text1305" freecad:skip="1" transform="matrix(6.123234e-17 1 -1 6.123234e-17 461.0102 201.3779)" class="st3 st4 st5">14,94 mm</text>
	<text id="text1314" freecad:skip="1" transform="matrix(1 0 0 1 192.3647 340.3613)" class="st3 st4 st5">1,5 mm</text>
	<text id="text1323" freecad:skip="1" transform="matrix(1 0 0 1 303.6176 114.2456)" class="st3 st4 st5">19,6 mm</text>
	<text id="text1332" freecad:skip="1" transform="matrix(1 0 0 1 267.8627 343.5869)" class="st3 st4 st5">0,7 mm</text>
	<text id="text1341" freecad:skip="1" transform="matrix(1 0 0 1 333.9281 342.4863)" class="st3 st4 st5">0,8 mm</text>
	<text transform="matrix(1 0 0 1 258.6669 222.7314)" class="st6 st7 st8">JDY-16</text>
</g>
<path id="path1177_1_" class="st0" d="M335.5,316.8h-1.9c0-1.7-1.4-3.2-3.2-3.2c-1.7,0-3.2,1.4-3.2,3.2h-1.8"/>
</svg>
