<?xml version="1.0" encoding="utf-8"?>
<!-- Generator: Adobe Illustrator 25.0.0, SVG Export Plug-In . SVG Version: 6.00 Build 0)  -->
<svg version="1.1"
	 id="svg2" inkscape:output_extension="org.inkscape.output.svg.inkscape" inkscape:version="0.92.1 r15371" sodipodi:docname="drawing.svg" sodipodi:version="0.32" xmlns:cc="http://creativecommons.org/ns#" xmlns:dc="http://purl.org/dc/elements/1.1/" xmlns:freecad="http://www.freecadweb.org/wiki/index.php?title=Svg_Namespace" xmlns:inkscape="http://www.inkscape.org/namespaces/inkscape" xmlns:rdf="http://www.w3.org/1999/02/22-rdf-syntax-ns#" xmlns:sodipodi="http://sodipodi.sourceforge.net/DTD/sodipodi-0.dtd" xmlns:svg="http://www.w3.org/2000/svg"
	 xmlns="http://www.w3.org/2000/svg" xmlns:xlink="http://www.w3.org/1999/xlink" x="0px" y="0px" viewBox="0 0 640 446.8"
	 style="enable-background:new 0 0 640 446.8;" xml:space="preserve">
<style type="text/css">
	.st0{fill:none;stroke:#0066FF;stroke-width:0.9921;stroke-miterlimit:90.7087;}
	.st1{fill:#0066FF;stroke:#0066FF;stroke-width:0.9921;stroke-miterlimit:90.7087;}
	.st2{fill:#0066FF;stroke:#0066FF;stroke-miterlimit:10;}
	.st3{fill:#0066FF;enable-background:new    ;}
	.st4{font-family:'ArialMT';}
	.st5{font-size:17.0079px;}
	.st6{fill:#0066FF;}
	.st7{font-family:'Arial-BoldMT';}
	.st8{font-size:27px;}
</style>
<path id="path868" class="st0" d="M127.5,83.7v272.1H394H127.5H394V83.7H127.5z"/>
<path id="path1177" class="st0" d="M315.6,389.4h-3.4c0-3.1-2.5-5.7-5.7-5.7c-3.1,0-5.7,2.5-5.7,5.7h-3.4"/>
<path id="path1179_5_" class="st0" d="M127.5,389.4v-13.6h18.1v13.6"/>
<path id="path1179_1_" class="st0" d="M263.5,389.4v-13.6h18.1v13.6"/>
<path id="path1179_2_" class="st0" d="M229.5,389.4v-13.6h18.1v13.6"/>
<path id="path1179_3_" class="st0" d="M195.5,389.4v-13.6h18.1v13.6"/>
<polygon class="st1" points="540.6,389.2 413.9,389.2 413.9,374 526.9,374 526.9,337.8 448,337.8 448,266.1 524.9,266.1 
	524.9,229.9 446.5,229.9 446.5,158.2 522.7,158.2 522.7,127.9 413.9,127.9 413.9,102.6 525.7,102.6 525.7,76.7 397.3,76.7 
	397.3,50.4 538.7,50.4 538.7,173.4 457.7,173.4 457.7,209.5 537.8,209.5 537.8,281.3 462.1,281.3 462.1,317.4 540.6,317.4 "/>
<defs>
	
		<inkscape:perspective  id="perspective3148" inkscape:persp3d-origin="32 : 21.333333 : 1" inkscape:vp_x="0 : 32 : 1" inkscape:vp_y="0 : 1000 : 0" inkscape:vp_z="64 : 32 : 1" sodipodi:type="inkscape:persp3d">
		</inkscape:perspective>
</defs>
<sodipodi:namedview  bordercolor="#666666" borderopacity="1.0" gridtolerance="10.0" guidetolerance="10.0" id="base" inkscape:current-layer="svg2" inkscape:cx="863.62023" inkscape:cy="850.18594" inkscape:document-units="mm" inkscape:pageopacity="0.0" inkscape:pageshadow="2" inkscape:snap-text-baseline="false" inkscape:window-height="1017" inkscape:window-maximized="1" inkscape:window-width="1920" inkscape:window-x="-8" inkscape:window-y="-8" inkscape:zoom="0.5946522" objecttolerance="10.0" pagecolor="#ffffff" showgrid="false">
	</sodipodi:namedview>
<g id="g452">
</g>
<path id="path866" class="st0" d="M127.5,83.7H394H127.5z"/>
<path id="path886" class="st0" d="M297.5,389.2h-15.9"/>
<path id="path888" class="st0" d="M263.5,389.2h-15.9"/>
<path id="path890" class="st0" d="M244.2,389.2c-0.1-3.1-2.8-5.6-5.9-5.4c-3,0.1-5.3,2.5-5.4,5.4"/>
<path id="path892" class="st0" d="M229.5,389.2h-15.9"/>
<path id="path896" class="st0" d="M195.4,389.2h-15.8l0,0v-13.4h-18.1v13.4h-15.9"/>
<path id="path898" class="st0" d="M142.1,389.2c-0.1-3.1-2.8-5.6-5.9-5.4c-3,0.1-5.3,2.5-5.4,5.4"/>
<path id="_x32_2" class="st0" d="M102.5,347.5v41.7h24.9"/>
<path id="path903" class="st0" d="M102.5,329.3v-15.9"/>
<path id="_x32_4" class="st0" d="M102.5,295.3v-15.9"/>
<path id="path906" class="st0" d="M102.5,261.3v-15.9"/>
<path id="_x32_6" class="st0" d="M102.5,227.3v-15.9"/>
<path id="path909" class="st0" d="M102.5,193.3v-15.9"/>
<path id="_x32_8" class="st0" d="M102.5,159.2v-15.9"/>
<path id="path912" class="st0" d="M102.5,140c3.1-0.1,5.6-2.8,5.4-5.9c-0.1-3-2.5-5.3-5.4-5.4"/>
<path id="_x33_0" class="st0" d="M102.5,125.2v-15.9"/>
<path id="path915" class="st0" d="M102.5,91.2V50.4"/>
<path id="_x33_2" class="st0" d="M102.5,50.4h24.9"/>
<path id="path918" class="st0" d="M130.8,50.4c0.1,3,2.6,5.4,5.7,5.4"/>
<path id="path920" class="st0" d="M136.5,55.8c3,0,5.5-2.4,5.7-5.4"/>
<path id="path922" class="st0" d="M145.5,50.4h15.9"/>
<path id="path924" class="st0" d="M170.5,55.8c3,0,5.5-2.4,5.7-5.4"/>
<path id="path926" class="st0" d="M179.6,50.4h15.9"/>
<path id="path928" class="st0" d="M198.8,50.4c0.1,3,2.6,5.4,5.7,5.4"/>
<path id="_x33_9" class="st0" d="M213.6,50.4h15.9"/>
<path id="path931" class="st0" d="M238.5,55.8c3,0,5.5-2.4,5.7-5.4"/>
<path id="_x34_1" class="st0" d="M247.6,50.4h15.9"/>
<path id="path934" class="st0" d="M266.9,50.4c0.1,3,2.6,5.4,5.7,5.4"/>
<path id="path936" class="st0" d="M272.5,55.8c3,0,5.5-2.4,5.7-5.4"/>
<path id="path938" class="st0" d="M281.6,50.4h15.9"/>
<path id="_x34_5" class="st0" d="M315.6,50.4h15.9"/>
<path id="path941" class="st0" d="M340.6,55.8c3,0,5.5-2.4,5.7-5.4"/>
<path id="_x34_7" class="st0" d="M349.6,50.4h15.9"/>
<path id="path944" class="st0" d="M368.9,50.4c0.1,3,2.6,5.4,5.7,5.4"/>
<path id="path946" class="st0" d="M374.6,55.8c3,0,5.5-2.4,5.7-5.4"/>
<path id="path948" class="st0" d="M383.7,50.4h13.6"/>
<path id="_x36_8" class="st0" d="M538.7,50.4h8.2"/>
<path id="path1006" class="st0" d="M247.6,50.2v13.6"/>
<path id="path1008" class="st0" d="M244.2,50.2h3.4"/>
<path id="path1010" class="st0" d="M247.6,63.8h-18.1"/>
<path id="path1012" class="st0" d="M229.5,63.8V50.2"/>
<path id="path1014" class="st0" d="M229.5,50.2h3.4"/>
<path id="path1016" class="st0" d="M232.9,50.2c0,3.1,2.5,5.7,5.7,5.7l0,0"/>
<path id="path1018" class="st0" d="M238.5,55.8c3.1,0,5.7-2.5,5.7-5.7"/>
<path id="path1020" class="st0" d="M315.6,50.2v13.6"/>
<path id="path1022" class="st0" d="M312.2,50.2h3.4"/>
<path id="path1024" class="st0" d="M315.6,63.8h-18.1"/>
<path id="path1026" class="st0" d="M297.5,63.8V50.2"/>
<path id="path1028" class="st0" d="M297.5,50.2h3.4"/>
<path id="path1030" class="st0" d="M300.9,50.2c0,3.1,2.5,5.7,5.7,5.7"/>
<path id="path1032" class="st0" d="M306.6,55.8c3.1,0,5.7-2.5,5.7-5.7"/>
<path id="path1034" class="st0" d="M115.8,193.3v18.1"/>
<path id="path1036" class="st0" d="M102.2,193.3h13.6"/>
<path id="path1038" class="st0" d="M115.8,211.4h-13.6"/>
<path id="path1040" class="st0" d="M102.2,211.4V208"/>
<path id="path1042" class="st0" d="M102.2,208c3.1,0,5.7-2.5,5.7-5.7c0-3.1-2.5-5.7-5.7-5.7"/>
<path id="_x31_03" class="st0" d="M102.2,196.7v-3.4"/>
<path id="path1052" class="st0" d="M179.6,389.4h-3.4c0-3.1-2.5-5.7-5.7-5.7c-3.1,0-5.7,2.5-5.7,5.7h-3.3"/>
<path id="path1055" class="st0" d="M179.6,50.2v13.6"/>
<path id="path1057" class="st0" d="M176.2,50.2h3.4"/>
<path id="_x31_12" class="st0" d="M179.6,63.8h-18.1"/>
<path id="path1060" class="st0" d="M161.4,63.8V50.2"/>
<path id="path1062" class="st0" d="M161.4,50.2h3.4"/>
<path id="path1064" class="st0" d="M164.8,50.2c0,3.1,2.5,5.7,5.7,5.7"/>
<path id="path1066" class="st0" d="M170.5,55.8c3.1,0,5.7-2.5,5.7-5.7"/>
<path id="path1068" class="st0" d="M115.8,261.3v18.1"/>
<path id="_x31_18" class="st0" d="M102.2,261.3h13.6"/>
<path id="path1071" class="st0" d="M115.8,279.4h-13.6"/>
<path id="path1073" class="st0" d="M102.2,279.4V276"/>
<path id="path1075" class="st0" d="M102.2,276c3.1,0,5.7-2.5,5.7-5.7c0-3.1-2.5-5.7-5.7-5.7"/>
<path id="path1077" class="st0" d="M102.2,264.7v-3.4"/>
<path id="path1079" class="st0" d="M281.6,50.2v13.6"/>
<path id="_x31_24" class="st0" d="M278.2,50.2h3.4"/>
<path id="path1082" class="st0" d="M281.6,63.8h-18.1"/>
<path id="path1084" class="st0" d="M263.5,63.8V50.2"/>
<path id="path1086" class="st0" d="M263.5,50.2h3.4"/>
<path id="path1088" class="st0" d="M266.9,50.2c0,3.1,2.5,5.7,5.7,5.7"/>
<path id="path1090" class="st0" d="M272.5,55.8c3.1,0,5.7-2.5,5.7-5.7"/>
<path id="path1099" class="st0" d="M383.5,389.4h-3.2c0-3.1-2.5-5.7-5.7-5.7c-3.1,0-5.7,2.5-5.7,5.7h-4.1"/>
<path id="path1102" class="st0" d="M115.8,125.2v18.1"/>
<path id="path1104" class="st0" d="M102.2,125.2h13.6"/>
<path id="_x31_38" class="st0" d="M115.8,143.4h-13.6"/>
<path id="path1107" class="st0" d="M102.2,143.4V140"/>
<path id="path1109" class="st0" d="M102.2,140c3.1,0,5.7-2.5,5.7-5.7c0-3.1-2.5-5.7-5.7-5.7"/>
<path id="_x31_41" class="st0" d="M102.2,128.6v-3.4"/>
<path id="path1119" class="st0" d="M213.6,389.4h-3.4c0-3.1-2.5-5.7-5.7-5.7c-3.1,0-5.7,2.5-5.7,5.7h-3.4"/>
<path id="_x31_50_1_" class="st0" d="M349.6,389.4"/>
<path id="path1131" class="st0" d="M546.3,50.6v338.8H409h-26V376h-18.1v13.4H349V376l-18.1,0.1v13.1h-15.3v-13.4h-18.1v13.6"/>
<path id="path1137" class="st0" d="M102.2,347.5h13.6v-18.1h-13.6"/>
<path id="path1139" class="st0" d="M102.2,347.5v-3.4"/>
<path id="path1141" class="st0" d="M102.2,344.1c3.1,0,5.7-2.5,5.7-5.7c0-3.1-2.5-5.7-5.7-5.7"/>
<path id="path1143" class="st0" d="M102.2,332.7v-3.4"/>
<path id="path1153" class="st0" d="M281.6,389.4h-3.4c0-3.1-2.5-5.7-5.7-5.7c-3.1,0-5.7,2.5-5.7,5.7h-3.4"/>
<path id="path1161" class="st0" d="M247.6,389.4h-3.4"/>
<path id="path1165" class="st0" d="M244.2,389.4c0-3.1-2.5-5.7-5.7-5.7c-3.1,0-5.7,2.5-5.7,5.7h-3.4"/>
<path id="path1181" class="st0" d="M115.8,91.2v18.1"/>
<path id="path1183" class="st0" d="M102.2,91.2h13.6"/>
<path id="path1185" class="st0" d="M115.8,109.4h-13.6"/>
<path id="path1187" class="st0" d="M102.2,109.4V106"/>
<path id="path1189" class="st0" d="M102.2,106c3.1,0,5.7-2.5,5.7-5.7s-2.5-5.7-5.7-5.7"/>
<path id="path1191" class="st0" d="M102.2,94.6v-3.4"/>
<path id="path1193" class="st0" d="M383.7,50.2v13.6"/>
<path id="path1195" class="st0" d="M380.3,50.2h3.4"/>
<path id="_x31_86" class="st0" d="M383.7,63.8h-18.1"/>
<path id="_x31_87" class="st0" d="M365.5,63.8V50.2"/>
<path id="path1199" class="st0" d="M365.5,50.2h3.4"/>
<path id="path1201" class="st0" d="M368.9,50.2c0,3.1,2.5,5.7,5.7,5.7"/>
<path id="path1203" class="st0" d="M374.6,55.8c3.1,0,5.7-2.5,5.7-5.7"/>
<path id="path1205" class="st0" d="M349.6,50.2v13.6"/>
<path id="path1207" class="st0" d="M346.2,50.2h3.4"/>
<path id="path1209" class="st0" d="M349.6,63.8h-18.1"/>
<path id="_x31_94" class="st0" d="M331.5,63.8V50.2"/>
<path id="_x31_95" class="st0" d="M331.5,50.2h3.4"/>
<path id="path1213" class="st0" d="M334.9,50.2c0,3.1,2.5,5.7,5.7,5.7"/>
<path id="path1215" class="st0" d="M340.6,55.8c3.1,0,5.7-2.5,5.7-5.7"/>
<path id="path1217" class="st0" d="M115.8,295.3v18.1"/>
<path id="path1219" class="st0" d="M102.2,295.3h13.6"/>
<path id="path1221" class="st0" d="M115.8,313.4h-13.6"/>
<path id="path1223" class="st0" d="M102.2,313.4V310"/>
<path id="path1225" class="st0" d="M102.2,310c3.1,0,5.7-2.5,5.7-5.7c0-3.1-2.5-5.7-5.7-5.7"/>
<path id="path1227" class="st0" d="M102.2,298.7v-3.4"/>
<path id="_x32_04" class="st0" d="M115.8,227.3v18.1"/>
<path id="_x32_05" class="st0" d="M102.2,227.3h13.6"/>
<path id="path1231" class="st0" d="M115.8,245.4h-13.6"/>
<path id="path1233" class="st0" d="M102.2,245.4V242"/>
<path id="path1235" class="st0" d="M102.2,242c3.1,0,5.7-2.5,5.7-5.7c0-3.1-2.5-5.7-5.7-5.7"/>
<path id="path1237" class="st0" d="M102.2,230.7v-3.4"/>
<path id="path1239" class="st0" d="M115.8,159.2v18.1"/>
<path id="path1241" class="st0" d="M102.2,159.2h13.6"/>
<path id="path1243" class="st0" d="M115.8,177.4h-13.6"/>
<path id="path1245" class="st0" d="M102.2,177.4V174"/>
<path id="path1247" class="st0" d="M102.2,174c3.1,0,5.7-2.5,5.7-5.7c0-3.1-2.5-5.7-5.7-5.7"/>
<path id="path1249" class="st0" d="M102.2,162.6v-3.4"/>
<path id="path1251" class="st0" d="M145.5,50.2v13.6"/>
<path id="path1253" class="st0" d="M142.1,50.2h3.4"/>
<path id="_x32_18" class="st0" d="M145.5,63.8h-18.1"/>
<path id="_x32_19" class="st0" d="M127.4,63.8V50.2"/>
<path id="path1257" class="st0" d="M127.4,50.2h3.4"/>
<path id="path1259" class="st0" d="M130.8,50.2c0,3.1,2.5,5.7,5.7,5.7"/>
<path id="path1261" class="st0" d="M136.5,55.8c3.1,0,5.7-2.5,5.7-5.7"/>
<path id="path1267" class="st0" d="M145.5,389.4h-3.4"/>
<path id="path1269" class="st0" d="M142.1,389.4c0-3.1-2.5-5.7-5.7-5.7s-5.7,2.5-5.7,5.7"/>
<path id="path1271" class="st0" d="M130.8,389.4h-3.4"/>
<path id="path1275" class="st0" d="M213.6,50.2v13.6"/>
<path id="path1277" class="st0" d="M210.2,50.2h3.4"/>
<path id="path1279" class="st0" d="M213.6,63.8h-18.1"/>
<path id="_x32_32" class="st0" d="M195.4,63.8V50.2"/>
<path id="_x32_33" class="st0" d="M195.4,50.2h3.4"/>
<path id="path1283" class="st0" d="M198.8,50.2c0,3.1,2.5,5.7,5.7,5.7"/>
<path id="path1285" class="st0" d="M204.5,55.8c3.1,0,5.7-2.5,5.7-5.7"/>
<path id="path1290" freecad:basepoint1="13.2 -11.7867948532" freecad:basepoint2="11.0 -11.7867948532" freecad:dimpoint="13.2 -12.0867948532" class="st0" d="
	M96,389.9H74.7V340H96"/>
<path id="path1292" freecad:skip="1" class="st2" d="M74.7,389.9l-3-12.1h6L74.7,389.9z"/>
<path id="path1294" freecad:skip="1" class="st2" d="M74.7,340l3,12.1h-6L74.7,340z"/>
<path id="path1299" freecad:basepoint1="12.0 -6.49999959988" freecad:basepoint2="26.94 -6.49999959988" freecad:dimpoint="12.0 -5.7" class="st0" d="
	M549.9,49.7H568v338.8h-18.1"/>
<path id="path1301" freecad:skip="1" class="st2" d="M568.1,49.7l3,12.1h-6L568.1,49.7z"/>
<path id="path1303" freecad:skip="1" class="st2" d="M568.1,388.5l-3-12.1h6L568.1,388.5z"/>
<path id="path1308" freecad:basepoint1="16.0 -0.75" freecad:basepoint2="16.0 0.75" freecad:dimpoint="15.1453504562 -0.75" class="st0" d="
	M136.1,395.5v19.4h-34v-19.4"/>
<path id="path1310" freecad:skip="1" class="st2" d="M136.1,414.9l12.1-3v6L136.1,414.9z"/>
<path id="path1312" freecad:skip="1" class="st2" d="M102,414.9l-12.1,3v-6L102,414.9z"/>
<path id="path1317" freecad:basepoint1="10.0 9.8" freecad:basepoint2="10.0 -9.8" freecad:dimpoint="10.1970310211 9.8" class="st0" d="
	M102,35.5V31h444.5v4.5"/>
<path id="path1319" freecad:skip="1" class="st2" d="M102,31.1l12.1-3v6L102,31.1z"/>
<path id="path1321" freecad:skip="1" class="st2" d="M546.5,31.1l-12.1,3v-6L546.5,31.1z"/>
<path id="path1326" freecad:basepoint1="16.0 -0.35" freecad:basepoint2="16.0 0.35" freecad:dimpoint="15.295214653 -0.35" class="st0" d="
	M263,401.2v16h-15.9v-16"/>
<path id="path1328" freecad:skip="1" class="st2" d="M263,417.2l12.1-3v6L263,417.2z"/>
<path id="path1330" freecad:skip="1" class="st2" d="M247.2,417.2l-12.1,3v-6L247.2,417.2z"/>
<path id="path1335" freecad:basepoint1="14.0 -0.4" freecad:basepoint2="14.0 0.4" freecad:dimpoint="13.3516778946 -0.4" class="st0" d="
	M383.2,404v14.7h-18.1V404"/>
<path id="path1337" freecad:skip="1" class="st2" d="M383.2,418.7l12.1-3v6L383.2,418.7z"/>
<path id="path1339" freecad:skip="1" class="st2" d="M365.1,418.7l-12.1,3v-6L365.1,418.7z"/>
<g>
	<text id="text1296" freecad:skip="1" transform="matrix(6.123234e-17 1 -1 6.123234e-17 54.2992 331.8367)" class="st3 st4 st5">2,20 mm</text>
	<text id="text1305" freecad:skip="1" transform="matrix(6.123234e-17 1 -1 6.123234e-17 574.8461 181.3055)" class="st3 st4 st5">14,94 mm</text>
	<text id="text1314" freecad:skip="1" transform="matrix(1 0 0 1 90.6882 431.7837)" class="st3 st4 st5">1,5 mm</text>
	<text id="text1323" freecad:skip="1" transform="matrix(1 0 0 1 291.1891 24.2742)" class="st3 st4 st5">19,6 mm</text>
	<text id="text1332" freecad:skip="1" transform="matrix(1 0 0 1 226.7517 437.5972)" class="st3 st4 st5">0,7 mm</text>
	<text id="text1341" freecad:skip="1" transform="matrix(1 0 0 1 345.8147 435.6128)" class="st3 st4 st5">0,8 mm</text>
	<text transform="matrix(1 0 0 1 210.1789 219.7892)" class="st6 st7 st8">JDY-16</text>
</g>
<path id="path1177_1_" class="st0" d="M348.7,389.4h-3.4c0-3.1-2.5-5.7-5.7-5.7c-3.1,0-5.7,2.5-5.7,5.7h-3.3"/>
</svg>
