<?xml version="1.0" encoding="utf-8"?>
<!-- Generator: Adobe Illustrator 25.0.0, SVG Export Plug-In . SVG Version: 6.00 Build 0)  -->
<svg version="1.1"
	 id="svg2" inkscape:output_extension="org.inkscape.output.svg.inkscape" inkscape:version="0.92.1 r15371" sodipodi:docname="drawing.svg" sodipodi:version="0.32" xmlns:cc="http://creativecommons.org/ns#" xmlns:dc="http://purl.org/dc/elements/1.1/" xmlns:freecad="http://www.freecadweb.org/wiki/index.php?title=Svg_Namespace" xmlns:inkscape="http://www.inkscape.org/namespaces/inkscape" xmlns:rdf="http://www.w3.org/1999/02/22-rdf-syntax-ns#" xmlns:sodipodi="http://sodipodi.sourceforge.net/DTD/sodipodi-0.dtd" xmlns:svg="http://www.w3.org/2000/svg"
	 xmlns="http://www.w3.org/2000/svg" xmlns:xlink="http://www.w3.org/1999/xlink" x="0px" y="0px" viewBox="0 0 340 258"
	 style="enable-background:new 0 0 340 258;" xml:space="preserve">
<style type="text/css">
	.st0{fill:none;stroke:#0066FF;stroke-width:0.9921;stroke-miterlimit:90.7087;}
	.st1{fill:#0066FF;stroke:#0066FF;stroke-width:0.9921;stroke-miterlimit:90.7087;}
	.st2{fill:#0066FF;stroke:#0066FF;stroke-miterlimit:10;}
	.st3{fill:#0066FF;enable-background:new    ;}
	.st4{font-family:'ArialMT';}
	.st5{font-size:9.4372px;}
	.st6{fill:#0066FF;}
	.st7{font-family:'Arial-BoldMT';}
	.st8{font-size:14.9816px;}
</style>
<path id="path868" class="st0" d="M62.8,52.8v151h147.9H62.8h147.9v-151H62.8z"/>
<path id="path1177" class="st0" d="M167.2,222.4h-1.9c0-1.7-1.4-3.2-3.2-3.2c-1.7,0-3.2,1.4-3.2,3.2h-1.9"/>
<path id="path1179_5_" class="st0" d="M62.8,222.4v-7.5h10v7.5"/>
<path id="path1179_1_" class="st0" d="M138.3,222.4v-7.5h10v7.5"/>
<path id="path1179_2_" class="st0" d="M119.4,222.4v-7.5h10v7.5"/>
<path id="path1179_3_" class="st0" d="M100.5,222.4v-7.5h10v7.5"/>
<polygon class="st1" points="292,222.3 221.7,222.3 221.7,213.9 284.4,213.9 284.4,193.8 240.6,193.8 240.6,154 283.3,154 
	283.3,133.9 239.8,133.9 239.8,94.2 282.1,94.2 282.1,77.3 221.7,77.3 221.7,63.3 283.7,63.3 283.7,48.9 212.5,48.9 212.5,34.3 
	291,34.3 291,102.6 246,102.6 246,122.6 290.5,122.6 290.5,162.5 248.5,162.5 248.5,182.5 292,182.5 "/>
<defs>
	
		<inkscape:perspective  id="perspective3148" inkscape:persp3d-origin="32 : 21.333333 : 1" inkscape:vp_x="0 : 32 : 1" inkscape:vp_y="0 : 1000 : 0" inkscape:vp_z="64 : 32 : 1" sodipodi:type="inkscape:persp3d">
		</inkscape:perspective>
</defs>
<sodipodi:namedview  bordercolor="#666666" borderopacity="1.0" gridtolerance="10.0" guidetolerance="10.0" id="base" inkscape:current-layer="svg2" inkscape:cx="863.62023" inkscape:cy="850.18594" inkscape:document-units="mm" inkscape:pageopacity="0.0" inkscape:pageshadow="2" inkscape:snap-text-baseline="false" inkscape:window-height="1017" inkscape:window-maximized="1" inkscape:window-width="1920" inkscape:window-x="-8" inkscape:window-y="-8" inkscape:zoom="0.5946522" objecttolerance="10.0" pagecolor="#ffffff" showgrid="false">
	</sodipodi:namedview>
<g id="g452">
</g>
<path id="path866" class="st0" d="M62.8,52.8h147.9H62.8z"/>
<path id="path886" class="st0" d="M157.1,222.3h-8.8"/>
<path id="path888" class="st0" d="M138.3,222.3h-8.8"/>
<path id="path890" class="st0" d="M127.5,222.3c-0.1-1.7-1.6-3.1-3.3-3c-1.7,0.1-2.9,1.4-3,3"/>
<path id="path892" class="st0" d="M119.4,222.3h-8.8"/>
<path id="path896" class="st0" d="M100.5,222.3h-8.8l0,0v-7.4h-10v7.4h-8.8"/>
<path id="path898" class="st0" d="M70.9,222.3c-0.1-1.7-1.6-3.1-3.3-3c-1.7,0.1-2.9,1.4-3,3"/>
<path id="_x32_2" class="st0" d="M48.9,199.2v23.1h13.8"/>
<path id="path903" class="st0" d="M48.9,189.1v-8.8"/>
<path id="_x32_4" class="st0" d="M48.9,170.2v-8.8"/>
<path id="path906" class="st0" d="M48.9,151.4v-8.8"/>
<path id="_x32_6" class="st0" d="M48.9,132.5v-8.8"/>
<path id="path909" class="st0" d="M48.9,113.6v-8.8"/>
<path id="_x32_8" class="st0" d="M48.9,94.7v-8.8"/>
<path id="path912" class="st0" d="M48.9,84.1c1.7-0.1,3.1-1.6,3-3.3c-0.1-1.7-1.4-2.9-3-3"/>
<path id="_x33_0" class="st0" d="M48.9,75.8V67"/>
<path id="path915" class="st0" d="M48.9,57V34.3"/>
<path id="_x33_2" class="st0" d="M48.9,34.3h13.8"/>
<path id="path918" class="st0" d="M64.6,34.3c0.1,1.7,1.4,3,3.2,3"/>
<path id="path920" class="st0" d="M67.8,37.3c1.7,0,3.1-1.3,3.2-3"/>
<path id="path922" class="st0" d="M72.8,34.3h8.8"/>
<path id="path924" class="st0" d="M86.7,37.3c1.7,0,3.1-1.3,3.2-3"/>
<path id="path926" class="st0" d="M91.7,34.3h8.8"/>
<path id="path928" class="st0" d="M102.4,34.3c0.1,1.7,1.4,3,3.2,3"/>
<path id="_x33_9" class="st0" d="M110.6,34.3h8.8"/>
<path id="path931" class="st0" d="M124.4,37.3c1.7,0,3.1-1.3,3.2-3"/>
<path id="_x34_1" class="st0" d="M129.4,34.3h8.8"/>
<path id="path934" class="st0" d="M140.1,34.3c0.1,1.7,1.4,3,3.2,3"/>
<path id="path936" class="st0" d="M143.2,37.3c1.7,0,3.1-1.3,3.2-3"/>
<path id="path938" class="st0" d="M148.3,34.3h8.8"/>
<path id="_x34_5" class="st0" d="M167.2,34.3h8.8"/>
<path id="path941" class="st0" d="M181,37.3c1.7,0,3.1-1.3,3.2-3"/>
<path id="_x34_7" class="st0" d="M186,34.3h8.8"/>
<path id="path944" class="st0" d="M196.7,34.3c0.1,1.7,1.4,3,3.2,3"/>
<path id="path946" class="st0" d="M199.9,37.3c1.7,0,3.1-1.3,3.2-3"/>
<path id="path948" class="st0" d="M204.9,34.3h7.5"/>
<path id="_x36_8" class="st0" d="M291,34.3h4.5"/>
<path id="path1006" class="st0" d="M129.4,34.2v7.5"/>
<path id="path1008" class="st0" d="M127.5,34.2h1.9"/>
<path id="path1010" class="st0" d="M129.4,41.8h-10"/>
<path id="path1012" class="st0" d="M119.4,41.8v-7.5"/>
<path id="path1014" class="st0" d="M119.4,34.2h1.9"/>
<path id="path1016" class="st0" d="M121.3,34.2c0,1.7,1.4,3.2,3.2,3.2l0,0"/>
<path id="path1018" class="st0" d="M124.4,37.3c1.7,0,3.2-1.4,3.2-3.2"/>
<path id="path1020" class="st0" d="M167.2,34.2v7.5"/>
<path id="path1022" class="st0" d="M165.3,34.2h1.9"/>
<path id="path1024" class="st0" d="M167.2,41.8h-10"/>
<path id="path1026" class="st0" d="M157.1,41.8v-7.5"/>
<path id="path1028" class="st0" d="M157.1,34.2h1.9"/>
<path id="path1030" class="st0" d="M159,34.2c0,1.7,1.4,3.2,3.2,3.2"/>
<path id="path1032" class="st0" d="M162.2,37.3c1.7,0,3.2-1.4,3.2-3.2"/>
<path id="path1034" class="st0" d="M56.3,113.6v10"/>
<path id="path1036" class="st0" d="M48.8,113.6h7.5"/>
<path id="path1038" class="st0" d="M56.3,123.7h-7.5"/>
<path id="path1040" class="st0" d="M48.8,123.7v-1.9"/>
<path id="path1042" class="st0" d="M48.8,121.8c1.7,0,3.2-1.4,3.2-3.2c0-1.7-1.4-3.2-3.2-3.2"/>
<path id="_x31_03" class="st0" d="M48.8,115.5v-1.9"/>
<path id="path1052" class="st0" d="M91.7,222.4h-1.9c0-1.7-1.4-3.2-3.2-3.2c-1.7,0-3.2,1.4-3.2,3.2h-1.8"/>
<path id="path1055" class="st0" d="M91.7,34.2v7.5"/>
<path id="path1057" class="st0" d="M89.8,34.2h1.9"/>
<path id="_x31_12" class="st0" d="M91.7,41.8h-10"/>
<path id="path1060" class="st0" d="M81.6,41.8v-7.5"/>
<path id="path1062" class="st0" d="M81.6,34.2h1.9"/>
<path id="path1064" class="st0" d="M83.5,34.2c0,1.7,1.4,3.2,3.2,3.2"/>
<path id="path1066" class="st0" d="M86.7,37.3c1.7,0,3.2-1.4,3.2-3.2"/>
<path id="path1068" class="st0" d="M56.3,151.4v10"/>
<path id="_x31_18" class="st0" d="M48.8,151.4h7.5"/>
<path id="path1071" class="st0" d="M56.3,161.4h-7.5"/>
<path id="path1073" class="st0" d="M48.8,161.4v-1.9"/>
<path id="path1075" class="st0" d="M48.8,159.5c1.7,0,3.2-1.4,3.2-3.2c0-1.7-1.4-3.2-3.2-3.2"/>
<path id="path1077" class="st0" d="M48.8,153.3v-1.9"/>
<path id="path1079" class="st0" d="M148.3,34.2v7.5"/>
<path id="_x31_24" class="st0" d="M146.4,34.2h1.9"/>
<path id="path1082" class="st0" d="M148.3,41.8h-10"/>
<path id="path1084" class="st0" d="M138.3,41.8v-7.5"/>
<path id="path1086" class="st0" d="M138.3,34.2h1.9"/>
<path id="path1088" class="st0" d="M140.1,34.2c0,1.7,1.4,3.2,3.2,3.2"/>
<path id="path1090" class="st0" d="M143.2,37.3c1.7,0,3.2-1.4,3.2-3.2"/>
<path id="path1099" class="st0" d="M204.8,222.4h-1.8c0-1.7-1.4-3.2-3.2-3.2c-1.7,0-3.2,1.4-3.2,3.2h-2.3"/>
<path id="path1102" class="st0" d="M56.3,75.8v10"/>
<path id="path1104" class="st0" d="M48.8,75.8h7.5"/>
<path id="_x31_38" class="st0" d="M56.3,85.9h-7.5"/>
<path id="path1107" class="st0" d="M48.8,85.9v-1.9"/>
<path id="path1109" class="st0" d="M48.8,84.1c1.7,0,3.2-1.4,3.2-3.2c0-1.7-1.4-3.2-3.2-3.2"/>
<path id="_x31_41" class="st0" d="M48.8,77.7v-1.9"/>
<path id="path1119" class="st0" d="M110.6,222.4h-1.9c0-1.7-1.4-3.2-3.2-3.2c-1.7,0-3.2,1.4-3.2,3.2h-1.9"/>
<path id="_x31_50_1_" class="st0" d="M186,222.4"/>
<path id="path1131" class="st0" d="M295.2,34.5v188H219h-14.4V215h-10v7.4h-8.8V215l-10,0.1v7.3h-8.5v-7.4h-10v7.5"/>
<path id="path1137" class="st0" d="M48.8,199.2h7.5v-10h-7.5"/>
<path id="path1139" class="st0" d="M48.8,199.2v-1.9"/>
<path id="path1141" class="st0" d="M48.8,197.3c1.7,0,3.2-1.4,3.2-3.2c0-1.7-1.4-3.2-3.2-3.2"/>
<path id="path1143" class="st0" d="M48.8,191v-1.9"/>
<path id="path1153" class="st0" d="M148.3,222.4h-1.9c0-1.7-1.4-3.2-3.2-3.2c-1.7,0-3.2,1.4-3.2,3.2h-1.9"/>
<path id="path1161" class="st0" d="M129.4,222.4h-1.9"/>
<path id="path1165" class="st0" d="M127.5,222.4c0-1.7-1.4-3.2-3.2-3.2c-1.7,0-3.2,1.4-3.2,3.2h-1.9"/>
<path id="path1181" class="st0" d="M56.3,57v10"/>
<path id="path1183" class="st0" d="M48.8,57h7.5"/>
<path id="path1185" class="st0" d="M56.3,67.1h-7.5"/>
<path id="path1187" class="st0" d="M48.8,67.1v-1.9"/>
<path id="path1189" class="st0" d="M48.8,65.2c1.7,0,3.2-1.4,3.2-3.2s-1.4-3.2-3.2-3.2"/>
<path id="path1191" class="st0" d="M48.8,58.9V57"/>
<path id="path1193" class="st0" d="M204.9,34.2v7.5"/>
<path id="path1195" class="st0" d="M203.1,34.2h1.9"/>
<path id="_x31_86" class="st0" d="M204.9,41.8h-10"/>
<path id="_x31_87" class="st0" d="M194.9,41.8v-7.5"/>
<path id="path1199" class="st0" d="M194.9,34.2h1.9"/>
<path id="path1201" class="st0" d="M196.7,34.2c0,1.7,1.4,3.2,3.2,3.2"/>
<path id="path1203" class="st0" d="M199.9,37.3c1.7,0,3.2-1.4,3.2-3.2"/>
<path id="path1205" class="st0" d="M186,34.2v7.5"/>
<path id="path1207" class="st0" d="M184.1,34.2h1.9"/>
<path id="path1209" class="st0" d="M186,41.8h-10"/>
<path id="_x31_94" class="st0" d="M176,41.8v-7.5"/>
<path id="_x31_95" class="st0" d="M176,34.2h1.9"/>
<path id="path1213" class="st0" d="M177.9,34.2c0,1.7,1.4,3.2,3.2,3.2"/>
<path id="path1215" class="st0" d="M181,37.3c1.7,0,3.2-1.4,3.2-3.2"/>
<path id="path1217" class="st0" d="M56.3,170.2v10"/>
<path id="path1219" class="st0" d="M48.8,170.2h7.5"/>
<path id="path1221" class="st0" d="M56.3,180.3h-7.5"/>
<path id="path1223" class="st0" d="M48.8,180.3v-1.9"/>
<path id="path1225" class="st0" d="M48.8,178.4c1.7,0,3.2-1.4,3.2-3.2c0-1.7-1.4-3.2-3.2-3.2"/>
<path id="path1227" class="st0" d="M48.8,172.1v-1.9"/>
<path id="_x32_04" class="st0" d="M56.3,132.5v10"/>
<path id="_x32_05" class="st0" d="M48.8,132.5h7.5"/>
<path id="path1231" class="st0" d="M56.3,142.5h-7.5"/>
<path id="path1233" class="st0" d="M48.8,142.5v-1.9"/>
<path id="path1235" class="st0" d="M48.8,140.7c1.7,0,3.2-1.4,3.2-3.2c0-1.7-1.4-3.2-3.2-3.2"/>
<path id="path1237" class="st0" d="M48.8,134.4v-1.9"/>
<path id="path1239" class="st0" d="M56.3,94.7v10"/>
<path id="path1241" class="st0" d="M48.8,94.7h7.5"/>
<path id="path1243" class="st0" d="M56.3,104.8h-7.5"/>
<path id="path1245" class="st0" d="M48.8,104.8v-1.9"/>
<path id="path1247" class="st0" d="M48.8,102.9c1.7,0,3.2-1.4,3.2-3.2c0-1.7-1.4-3.2-3.2-3.2"/>
<path id="path1249" class="st0" d="M48.8,96.6v-1.9"/>
<path id="path1251" class="st0" d="M72.8,34.2v7.5"/>
<path id="path1253" class="st0" d="M70.9,34.2h1.9"/>
<path id="_x32_18" class="st0" d="M72.8,41.8h-10"/>
<path id="_x32_19" class="st0" d="M62.7,41.8v-7.5"/>
<path id="path1257" class="st0" d="M62.7,34.2h1.9"/>
<path id="path1259" class="st0" d="M64.6,34.2c0,1.7,1.4,3.2,3.2,3.2"/>
<path id="path1261" class="st0" d="M67.8,37.3c1.7,0,3.2-1.4,3.2-3.2"/>
<path id="path1267" class="st0" d="M72.8,222.4h-1.9"/>
<path id="path1269" class="st0" d="M70.9,222.4c0-1.7-1.4-3.2-3.2-3.2s-3.2,1.4-3.2,3.2"/>
<path id="path1271" class="st0" d="M64.6,222.4h-1.9"/>
<path id="path1275" class="st0" d="M110.6,34.2v7.5"/>
<path id="path1277" class="st0" d="M108.7,34.2h1.9"/>
<path id="path1279" class="st0" d="M110.6,41.8h-10"/>
<path id="_x32_32" class="st0" d="M100.5,41.8v-7.5"/>
<path id="_x32_33" class="st0" d="M100.5,34.2h1.9"/>
<path id="path1283" class="st0" d="M102.4,34.2c0,1.7,1.4,3.2,3.2,3.2"/>
<path id="path1285" class="st0" d="M105.5,37.3c1.7,0,3.2-1.4,3.2-3.2"/>
<path id="path1290" freecad:basepoint1="13.2 -11.7867948532" freecad:basepoint2="11.0 -11.7867948532" freecad:dimpoint="13.2 -12.0867948532" class="st0" d="
	M45.3,222.7H33.5V195h11.8"/>
<path id="path1292" freecad:skip="1" class="st2" d="M33.5,222.7l-1.7-6.7h3.3L33.5,222.7z"/>
<path id="path1294" freecad:skip="1" class="st2" d="M33.5,195l1.7,6.7h-3.3L33.5,195z"/>
<path id="path1299" freecad:basepoint1="12.0 -6.49999959988" freecad:basepoint2="26.94 -6.49999959988" freecad:dimpoint="12.0 -5.7" class="st0" d="
	M297.2,34h10v188h-10"/>
<path id="path1301" freecad:skip="1" class="st2" d="M307.3,34l1.7,6.7h-3.3L307.3,34z"/>
<path id="path1303" freecad:skip="1" class="st2" d="M307.3,221.9l-1.7-6.7h3.3L307.3,221.9z"/>
<path id="path1308" freecad:basepoint1="16.0 -0.75" freecad:basepoint2="16.0 0.75" freecad:dimpoint="15.1453504562 -0.75" class="st0" d="
	M67.6,225.8v10.8H48.7v-10.8"/>
<path id="path1310" freecad:skip="1" class="st2" d="M67.6,236.6l6.7-1.7v3.3L67.6,236.6z"/>
<path id="path1312" freecad:skip="1" class="st2" d="M48.6,236.6l-6.7,1.7v-3.3L48.6,236.6z"/>
<path id="path1317" freecad:basepoint1="10.0 9.8" freecad:basepoint2="10.0 -9.8" freecad:dimpoint="10.1970310211 9.8" class="st0" d="
	M48.6,26.1v-2.5h246.6v2.5"/>
<path id="path1319" freecad:skip="1" class="st2" d="M48.6,23.6l6.7-1.7v3.3L48.6,23.6z"/>
<path id="path1321" freecad:skip="1" class="st2" d="M295.3,23.6l-6.7,1.7V22L295.3,23.6z"/>
<path id="path1326" freecad:basepoint1="16.0 -0.35" freecad:basepoint2="16.0 0.35" freecad:dimpoint="15.295214653 -0.35" class="st0" d="
	M138,229v8.9h-8.8V229"/>
<path id="path1328" freecad:skip="1" class="st2" d="M138,237.9l6.7-1.7v3.3L138,237.9z"/>
<path id="path1330" freecad:skip="1" class="st2" d="M129.2,237.9l-6.7,1.7v-3.3L129.2,237.9z"/>
<path id="path1335" freecad:basepoint1="14.0 -0.4" freecad:basepoint2="14.0 0.4" freecad:dimpoint="13.3516778946 -0.4" class="st0" d="
	M204.7,230.5v8.2h-10v-8.2"/>
<path id="path1337" freecad:skip="1" class="st2" d="M204.7,238.7l6.7-1.7v3.3L204.7,238.7z"/>
<path id="path1339" freecad:skip="1" class="st2" d="M194.6,238.7l-6.7,1.7V237L194.6,238.7z"/>
<g>
	<text id="text1296" freecad:skip="1" transform="matrix(6.123234e-17 1 -1 6.123234e-17 22.1737 190.5043)" class="st3 st4 st5">2,20 mm</text>
	<text id="text1305" freecad:skip="1" transform="matrix(6.123234e-17 1 -1 6.123234e-17 311.0102 106.9779)" class="st3 st4 st5">14,94 mm</text>
	<text id="text1314" freecad:skip="1" transform="matrix(1 0 0 1 42.3647 245.9613)" class="st3 st4 st5">1,5 mm</text>
	<text id="text1323" freecad:skip="1" transform="matrix(1 0 0 1 153.6176 19.8456)" class="st3 st4 st5">19,6 mm</text>
	<text id="text1332" freecad:skip="1" transform="matrix(1 0 0 1 117.8627 249.1869)" class="st3 st4 st5">0,7 mm</text>
	<text id="text1341" freecad:skip="1" transform="matrix(1 0 0 1 183.9281 248.0863)" class="st3 st4 st5">0,8 mm</text>
	<text transform="matrix(1 0 0 1 108.6669 128.3315)" class="st6 st7 st8">JDY-16</text>
</g>
<path id="path1177_1_" class="st0" d="M185.5,222.4h-1.9c0-1.7-1.4-3.2-3.2-3.2c-1.7,0-3.2,1.4-3.2,3.2h-1.8"/>
</svg>
