<?xml version="1.0" encoding="utf-8"?>
<!-- Generator: Adobe Illustrator 25.0.0, SVG Export Plug-In . SVG Version: 6.00 Build 0)  -->
<svg version="1.1"
	 id="svg2" inkscape:output_extension="org.inkscape.output.svg.inkscape" inkscape:version="0.92.1 r15371" sodipodi:docname="drawing.svg" sodipodi:version="0.32" xmlns:cc="http://creativecommons.org/ns#" xmlns:dc="http://purl.org/dc/elements/1.1/" xmlns:freecad="http://www.freecadweb.org/wiki/index.php?title=Svg_Namespace" xmlns:inkscape="http://www.inkscape.org/namespaces/inkscape" xmlns:rdf="http://www.w3.org/1999/02/22-rdf-syntax-ns#" xmlns:sodipodi="http://sodipodi.sourceforge.net/DTD/sodipodi-0.dtd" xmlns:svg="http://www.w3.org/2000/svg"
	 xmlns="http://www.w3.org/2000/svg" xmlns:xlink="http://www.w3.org/1999/xlink" x="0px" y="0px" viewBox="0 0 640 472.9"
	 style="enable-background:new 0 0 640 472.9;" xml:space="preserve">
<style type="text/css">
	.st0{fill:none;stroke:#0066FF;stroke-width:0.9921;stroke-miterlimit:90.7087;}
	.st1{fill:#0066FF;stroke:#0066FF;stroke-width:0.9921;stroke-miterlimit:90.7087;}
	.st2{fill:#0066FF;}
	.st3{font-family:'Arial-BoldMT';}
	.st4{font-size:16.5489px;}
	.st5{font-family:'ArialMT';}
	.st6{font-size:7.355px;}
</style>
<defs>
	
		<inkscape:perspective  id="perspective3148" inkscape:persp3d-origin="32 : 21.333333 : 1" inkscape:vp_x="0 : 32 : 1" inkscape:vp_y="0 : 1000 : 0" inkscape:vp_z="64 : 32 : 1" sodipodi:type="inkscape:persp3d">
		</inkscape:perspective>
</defs>
<sodipodi:namedview  bordercolor="#666666" borderopacity="1.0" gridtolerance="10.0" guidetolerance="10.0" id="base" inkscape:current-layer="svg2" inkscape:cx="863.62023" inkscape:cy="850.18594" inkscape:document-units="mm" inkscape:pageopacity="0.0" inkscape:pageshadow="2" inkscape:snap-text-baseline="false" inkscape:window-height="1017" inkscape:window-maximized="1" inkscape:window-width="1920" inkscape:window-x="-8" inkscape:window-y="-8" inkscape:zoom="0.5946522" objecttolerance="10.0" pagecolor="#ffffff" showgrid="false">
	</sodipodi:namedview>
<g id="g452">
</g>
<g>
	<path id="path868" class="st0" d="M207.9,146.1v166.8h157.5H207.9h157.5V146.1H207.9z"/>
	<path id="path1177" class="st0" d="M317.3,333.5h-2.1c0-1.9-1.6-3.5-3.5-3.5c-1.9,0-3.5,1.6-3.5,3.5h-2.1"/>
	<path id="path1179_5_" class="st0" d="M202,333.5v-8.3h11.1v8.3"/>
	<path id="path1179_1_" class="st0" d="M285.4,333.5v-8.3h11.1v8.3"/>
	<path id="path1179_2_" class="st0" d="M264.5,333.5v-8.3h11.1v8.3"/>
	<path id="path1179_3_" class="st0" d="M243.7,333.5v-8.3h11.1v8.3"/>
	<polygon class="st1" points="455.2,333.4 377.6,333.4 377.6,324 446.8,324 446.8,301.9 398.5,301.9 398.5,257.9 445.6,257.9 
		445.6,235.7 397.6,235.7 397.6,191.7 444.3,191.7 444.3,173.2 377.6,173.2 377.6,157.7 446.1,157.7 446.1,141.8 367.4,141.8 
		367.4,125.7 454.1,125.7 454.1,201.1 404.4,201.1 404.4,223.2 453.5,223.2 453.5,267.2 407.1,267.2 407.1,289.4 455.2,289.4 	"/>
	<path id="path866" class="st0" d="M207.9,146.1h157.5H207.9z"/>
	<path id="path886" class="st0" d="M306.2,333.4h-9.7"/>
	<path id="path888" class="st0" d="M285.4,333.4h-9.7"/>
	<path id="path890" class="st0" d="M273.6,333.4c-0.1-1.9-1.7-3.4-3.6-3.3c-1.8,0.1-3.3,1.5-3.3,3.3"/>
	<path id="path892" class="st0" d="M264.5,333.4h-9.7"/>
	<path id="path896" class="st0" d="M243.7,333.4H234l0,0v-8.2h-11.1v8.2h-9.8"/>
	<path id="path898" class="st0" d="M211,333.4c-0.1-1.9-1.7-3.4-3.6-3.3c-1.8,0.1-3.3,1.5-3.3,3.3"/>
	<path id="_x32_2" class="st0" d="M186.7,307.8v25.6H202"/>
	<path id="path903" class="st0" d="M186.7,296.7v-9.7"/>
	<path id="_x32_4" class="st0" d="M186.7,275.8v-9.7"/>
	<path id="path906" class="st0" d="M186.7,255v-9.7"/>
	<path id="_x32_6" class="st0" d="M186.7,234.1v-9.7"/>
	<path id="path909" class="st0" d="M186.7,213.3v-9.7"/>
	<path id="_x32_8" class="st0" d="M186.7,192.4v-9.7"/>
	<path id="path912" class="st0" d="M186.7,180.6c1.9-0.1,3.4-1.7,3.3-3.6c-0.1-1.8-1.5-3.3-3.3-3.3"/>
	<path id="_x33_0" class="st0" d="M186.7,171.6v-9.7"/>
	<path id="path915" class="st0" d="M186.7,150.7v-25"/>
	<path id="_x33_2" class="st0" d="M186.7,125.7H202"/>
	<path id="path918" class="st0" d="M204.1,125.7c0.1,1.9,1.6,3.3,3.5,3.3"/>
	<path id="path920" class="st0" d="M207.5,129c1.9,0,3.4-1.5,3.5-3.3"/>
	<path id="path922" class="st0" d="M213.1,125.7h9.7"/>
	<path id="path924" class="st0" d="M228.4,129c1.9,0,3.4-1.5,3.5-3.3"/>
	<path id="path926" class="st0" d="M233.9,125.7h9.7"/>
	<path id="path928" class="st0" d="M245.8,125.7c0.1,1.9,1.6,3.3,3.5,3.3"/>
	<path id="_x33_9" class="st0" d="M254.8,125.7h9.7"/>
	<path id="path931" class="st0" d="M270.1,129c1.9,0,3.4-1.5,3.5-3.3"/>
	<path id="_x34_1" class="st0" d="M275.6,125.7h9.7"/>
	<path id="path934" class="st0" d="M287.5,125.7c0.1,1.9,1.6,3.3,3.5,3.3"/>
	<path id="path936" class="st0" d="M290.9,129c1.9,0,3.4-1.5,3.5-3.3"/>
	<path id="path938" class="st0" d="M296.5,125.7h9.7"/>
	<path id="_x34_5" class="st0" d="M317.3,125.7h9.7"/>
	<path id="path941" class="st0" d="M332.6,129c1.9,0,3.4-1.5,3.5-3.3"/>
	<path id="_x34_7" class="st0" d="M338.2,125.7h9.7"/>
	<path id="path944" class="st0" d="M350,125.7c0.1,1.9,1.6,3.3,3.5,3.3"/>
	<path id="path946" class="st0" d="M353.5,129c1.9,0,3.4-1.5,3.5-3.3"/>
	<path id="path948" class="st0" d="M359,125.7h8.4"/>
	<path id="_x36_8" class="st0" d="M454.1,125.7h5.1"/>
	<path id="path1006" class="st0" d="M275.6,125.6v8.3"/>
	<path id="path1008" class="st0" d="M273.6,125.6h2.1"/>
	<path id="path1010" class="st0" d="M275.6,133.9h-11.1"/>
	<path id="path1012" class="st0" d="M264.5,133.9v-8.3"/>
	<path id="path1014" class="st0" d="M264.5,125.6h2.1"/>
	<path id="path1016" class="st0" d="M266.6,125.6c0,1.9,1.6,3.5,3.5,3.5l0,0"/>
	<path id="path1018" class="st0" d="M270.1,129c1.9,0,3.5-1.6,3.5-3.5"/>
	<path id="path1020" class="st0" d="M317.3,125.6v8.3"/>
	<path id="path1022" class="st0" d="M315.3,125.6h2.1"/>
	<path id="path1024" class="st0" d="M317.3,133.9h-11.1"/>
	<path id="path1026" class="st0" d="M306.2,133.9v-8.3"/>
	<path id="path1028" class="st0" d="M306.2,125.6h2.1"/>
	<path id="path1030" class="st0" d="M308.3,125.6c0,1.9,1.6,3.5,3.5,3.5"/>
	<path id="path1032" class="st0" d="M311.8,129c1.9,0,3.5-1.6,3.5-3.5"/>
	<path id="path1034" class="st0" d="M194.9,213.3v11.1"/>
	<path id="path1036" class="st0" d="M186.6,213.3h8.3"/>
	<path id="path1038" class="st0" d="M194.9,224.4h-8.3"/>
	<path id="path1040" class="st0" d="M186.6,224.4v-2.1"/>
	<path id="path1042" class="st0" d="M186.6,222.3c1.9,0,3.5-1.6,3.5-3.5s-1.6-3.5-3.5-3.5"/>
	<path id="_x31_03" class="st0" d="M186.6,215.4v-2.1"/>
	<path id="path1052" class="st0" d="M233.9,333.5h-2.1c0-1.9-1.6-3.5-3.5-3.5c-1.9,0-3.5,1.6-3.5,3.5h-2"/>
	<path id="path1055" class="st0" d="M233.9,125.6v8.3"/>
	<path id="path1057" class="st0" d="M231.9,125.6h2.1"/>
	<path id="_x31_12" class="st0" d="M233.9,133.9h-11.1"/>
	<path id="path1060" class="st0" d="M222.8,133.9v-8.3"/>
	<path id="path1062" class="st0" d="M222.8,125.6h2.1"/>
	<path id="path1064" class="st0" d="M224.9,125.6c0,1.9,1.6,3.5,3.5,3.5"/>
	<path id="path1066" class="st0" d="M228.4,129c1.9,0,3.5-1.6,3.5-3.5"/>
	<path id="path1068" class="st0" d="M194.9,255v11.1"/>
	<path id="_x31_18" class="st0" d="M186.6,255h8.3"/>
	<path id="path1071" class="st0" d="M194.9,266.1h-8.3"/>
	<path id="path1073" class="st0" d="M186.6,266.1V264"/>
	<path id="path1075" class="st0" d="M186.6,264c1.9,0,3.5-1.6,3.5-3.5c0-1.9-1.6-3.5-3.5-3.5"/>
	<path id="path1077" class="st0" d="M186.6,257V255"/>
	<path id="path1079" class="st0" d="M296.5,125.6v8.3"/>
	<path id="_x31_24" class="st0" d="M294.4,125.6h2.1"/>
	<path id="path1082" class="st0" d="M296.5,133.9h-11.1"/>
	<path id="path1084" class="st0" d="M285.4,133.9v-8.3"/>
	<path id="path1086" class="st0" d="M285.4,125.6h2.1"/>
	<path id="path1088" class="st0" d="M287.5,125.6c0,1.9,1.6,3.5,3.5,3.5"/>
	<path id="path1090" class="st0" d="M290.9,129c1.9,0,3.5-1.6,3.5-3.5"/>
	<path id="path1099" class="st0" d="M358.9,333.5h-2c0-1.9-1.6-3.5-3.5-3.5c-1.9,0-3.5,1.6-3.5,3.5h-2.5"/>
	<path id="path1102" class="st0" d="M194.9,171.6v11.1"/>
	<path id="path1104" class="st0" d="M186.6,171.6h8.3"/>
	<path id="_x31_38" class="st0" d="M194.9,182.7h-8.3"/>
	<path id="path1107" class="st0" d="M186.6,182.7v-2.1"/>
	<path id="path1109" class="st0" d="M186.6,180.6c1.9,0,3.5-1.6,3.5-3.5c0-1.9-1.6-3.5-3.5-3.5"/>
	<path id="_x31_41" class="st0" d="M186.6,173.7v-2.1"/>
	<path id="path1119" class="st0" d="M254.8,333.5h-2.1c0-1.9-1.6-3.5-3.5-3.5c-1.9,0-3.5,1.6-3.5,3.5h-2.1"/>
	<path id="_x31_50_1_" class="st0" d="M338.2,333.5"/>
	<path id="path1131" class="st0" d="M458.7,125.8v207.7h-84.1h-15.9v-8.2h-11.1v8.2h-9.7v-8.2l-11.1,0.1v8h-9.3v-8.2h-11.1v8.3"/>
	<path id="path1137" class="st0" d="M186.6,307.8h8.3v-11.1h-8.3"/>
	<path id="path1139" class="st0" d="M186.6,307.8v-2.1"/>
	<path id="path1141" class="st0" d="M186.6,305.7c1.9,0,3.5-1.6,3.5-3.5c0-1.9-1.6-3.5-3.5-3.5"/>
	<path id="path1143" class="st0" d="M186.6,298.7v-2.1"/>
	<path id="path1153" class="st0" d="M296.5,333.5h-2.1c0-1.9-1.6-3.5-3.5-3.5s-3.5,1.6-3.5,3.5h-2.1"/>
	<path id="path1161" class="st0" d="M275.6,333.5h-2.1"/>
	<path id="path1165" class="st0" d="M273.6,333.5c0-1.9-1.6-3.5-3.5-3.5c-1.9,0-3.5,1.6-3.5,3.5h-2.1"/>
	<path id="path1181" class="st0" d="M194.9,150.7v11.1"/>
	<path id="path1183" class="st0" d="M186.6,150.7h8.3"/>
	<path id="path1185" class="st0" d="M194.9,161.8h-8.3"/>
	<path id="path1187" class="st0" d="M186.6,161.8v-2.1"/>
	<path id="path1189" class="st0" d="M186.6,159.8c1.9,0,3.5-1.6,3.5-3.5s-1.6-3.5-3.5-3.5"/>
	<path id="path1191" class="st0" d="M186.6,152.8v-2.1"/>
	<path id="path1193" class="st0" d="M359,125.6v8.3"/>
	<path id="path1195" class="st0" d="M357,125.6h2.1"/>
	<path id="_x31_86" class="st0" d="M359,133.9h-11.1"/>
	<path id="_x31_87" class="st0" d="M347.9,133.9v-8.3"/>
	<path id="path1199" class="st0" d="M347.9,125.6h2.1"/>
	<path id="path1201" class="st0" d="M350,125.6c0,1.9,1.6,3.5,3.5,3.5"/>
	<path id="path1203" class="st0" d="M353.5,129c1.9,0,3.5-1.6,3.5-3.5"/>
	<path id="path1205" class="st0" d="M338.2,125.6v8.3"/>
	<path id="path1207" class="st0" d="M336.1,125.6h2.1"/>
	<path id="path1209" class="st0" d="M338.2,133.9h-11.1"/>
	<path id="_x31_94" class="st0" d="M327.1,133.9v-8.3"/>
	<path id="_x31_95" class="st0" d="M327.1,125.6h2.1"/>
	<path id="path1213" class="st0" d="M329.2,125.6c0,1.9,1.6,3.5,3.5,3.5"/>
	<path id="path1215" class="st0" d="M332.6,129c1.9,0,3.5-1.6,3.5-3.5"/>
	<path id="path1217" class="st0" d="M194.9,275.8v11.1"/>
	<path id="path1219" class="st0" d="M186.6,275.8h8.3"/>
	<path id="path1221" class="st0" d="M194.9,286.9h-8.3"/>
	<path id="path1223" class="st0" d="M186.6,286.9v-2.1"/>
	<path id="path1225" class="st0" d="M186.6,284.8c1.9,0,3.5-1.6,3.5-3.5c0-1.9-1.6-3.5-3.5-3.5"/>
	<path id="path1227" class="st0" d="M186.6,277.9v-2.1"/>
	<path id="_x32_04" class="st0" d="M194.9,234.1v11.1"/>
	<path id="_x32_05" class="st0" d="M186.6,234.1h8.3"/>
	<path id="path1231" class="st0" d="M194.9,245.2h-8.3"/>
	<path id="path1233" class="st0" d="M186.6,245.2v-2.1"/>
	<path id="path1235" class="st0" d="M186.6,243.1c1.9,0,3.5-1.6,3.5-3.5c0-1.9-1.6-3.5-3.5-3.5"/>
	<path id="path1237" class="st0" d="M186.6,236.2v-2.1"/>
	<path id="path1239" class="st0" d="M194.9,192.4v11.1"/>
	<path id="path1241" class="st0" d="M186.6,192.4h8.3"/>
	<path id="path1243" class="st0" d="M194.9,203.5h-8.3"/>
	<path id="path1245" class="st0" d="M186.6,203.5v-2.1"/>
	<path id="path1247" class="st0" d="M186.6,201.5c1.9,0,3.5-1.6,3.5-3.5c0-1.9-1.6-3.5-3.5-3.5"/>
	<path id="path1249" class="st0" d="M186.6,194.5v-2.1"/>
	<path id="path1251" class="st0" d="M213.1,125.6v8.3"/>
	<path id="path1253" class="st0" d="M211,125.6h2.1"/>
	<path id="_x32_18" class="st0" d="M213.1,133.9H202"/>
	<path id="_x32_19" class="st0" d="M202,133.9v-8.3"/>
	<path id="path1257" class="st0" d="M202,125.6h2.1"/>
	<path id="path1259" class="st0" d="M204.1,125.6c0,1.9,1.6,3.5,3.5,3.5"/>
	<path id="path1261" class="st0" d="M207.5,129c1.9,0,3.5-1.6,3.5-3.5"/>
	<path id="path1267" class="st0" d="M213.1,333.5H211"/>
	<path id="path1269" class="st0" d="M211,333.5c0-1.9-1.6-3.5-3.5-3.5c-1.9,0-3.5,1.6-3.5,3.5"/>
	<path id="path1271" class="st0" d="M204.1,333.5H202"/>
	<path id="path1275" class="st0" d="M254.8,125.6v8.3"/>
	<path id="path1277" class="st0" d="M252.7,125.6h2.1"/>
	<path id="path1279" class="st0" d="M254.8,133.9h-11.1"/>
	<path id="_x32_32" class="st0" d="M243.7,133.9v-8.3"/>
	<path id="_x32_33" class="st0" d="M243.7,125.6h2.1"/>
	<path id="path1283" class="st0" d="M245.8,125.6c0,1.9,1.6,3.5,3.5,3.5"/>
	<path id="path1285" class="st0" d="M249.2,129c1.9,0,3.5-1.6,3.5-3.5"/>
	<text transform="matrix(1 0 0 1 252.7236 229.5432)" class="st2 st3 st4">JDY-16</text>
	<path id="path1177_1_" class="st0" d="M337.6,333.5h-2.1c0-1.9-1.6-3.5-3.5-3.5c-1.9,0-3.5,1.6-3.5,3.5h-2.1"/>
</g>
<text transform="matrix(6.123234e-17 1 -1 6.123234e-17 350.0093 105.5081)" class="st2 st5 st6"> VCC</text>
<text transform="matrix(6.123234e-17 1 -1 6.123234e-17 329.1709 98.969)" class="st2 st5 st6"> PWM1</text>
<text transform="matrix(6.123234e-17 1 -1 6.123234e-17 308.333 101.0129)" class="st2 st5 st6">PWM2</text>
<text transform="matrix(6.123234e-17 1 -1 6.123234e-17 287.4917 100.5979)" class="st2 st5 st6">GPIO4</text>
<text transform="matrix(6.123234e-17 1 -1 6.123234e-17 266.6553 102.4983)" class="st2 st5 st6"> NULL</text>
<text transform="matrix(6.123234e-17 1 -1 6.123234e-17 245.8125 103.4631)" class="st2 st5 st6"> STAT</text>
<text transform="matrix(6.123234e-17 1 -1 6.123234e-17 224.978 102.4983)" class="st2 st5 st6"> NULL</text>
<text transform="matrix(6.123234e-17 1 -1 6.123234e-17 204.1362 102.4983)" class="st2 st5 st6"> NULL</text>
<text transform="matrix(1 0 0 1 351.5859 142.2288)" class="st2 st5 st6">1</text>
<text transform="matrix(1 0 0 1 330.748 142.2288)" class="st2 st5 st6">2</text>
<text transform="matrix(1 0 0 1 309.9082 142.2288)" class="st2 st5 st6">3</text>
<text transform="matrix(1 0 0 1 289.0693 142.2288)" class="st2 st5 st6">4</text>
<text transform="matrix(1 0 0 1 268.2275 142.2288)" class="st2 st5 st6">5</text>
<text transform="matrix(1 0 0 1 247.3916 142.2288)" class="st2 st5 st6">6</text>
<text transform="matrix(1 0 0 1 226.5513 142.2288)" class="st2 st5 st6">7</text>
<text transform="matrix(1 0 0 1 205.7119 142.2288)" class="st2 st5 st6">8</text>
<text transform="matrix(6.123234e-17 1 -1 6.123234e-17 350.0093 334.9426)" class="st2 st5 st6"> GND</text>
<text transform="matrix(6.123234e-17 1 -1 6.123234e-17 329.1709 334.9426)" class="st2 st5 st6"> RESET</text>
<text transform="matrix(6.123234e-17 1 -1 6.123234e-17 308.333 334.9426)" class="st2 st5 st6">PWRC</text>
<text transform="matrix(6.123234e-17 1 -1 6.123234e-17 287.4917 334.9426)" class="st2 st5 st6">SELECT</text>
<text transform="matrix(6.123234e-17 1 -1 6.123234e-17 266.6553 334.9426)" class="st2 st5 st6"> RXD_DC</text>
<text transform="matrix(6.123234e-17 1 -1 6.123234e-17 245.8125 334.9426)" class="st2 st5 st6"> TXD_DD</text>
<text transform="matrix(6.123234e-17 1 -1 6.123234e-17 224.978 334.9426)" class="st2 st5 st6"> RTCA</text>
<text transform="matrix(6.123234e-17 1 -1 6.123234e-17 204.1362 334.9426)" class="st2 st5 st6"> ALED</text>
<text transform="matrix(1 0 0 1 348.5229 321.8176)" class="st2 st5 st6">24</text>
<text transform="matrix(1 0 0 1 327.6826 321.8176)" class="st2 st5 st6">23</text>
<text transform="matrix(1 0 0 1 306.8433 321.8176)" class="st2 st5 st6">22</text>
<text transform="matrix(1 0 0 1 286.0049 321.8176)" class="st2 st5 st6">21</text>
<text transform="matrix(1 0 0 1 265.1646 321.8176)" class="st2 st5 st6">20</text>
<text transform="matrix(1 0 0 1 244.3281 321.8176)" class="st2 st5 st6">19</text>
<text transform="matrix(1 0 0 1 223.4854 321.8176)" class="st2 st5 st6">18</text>
<text transform="matrix(1 0 0 1 202.6479 321.8176)" class="st2 st5 st6">17</text>
<text transform="matrix(1 0 0 1 159.1172 158.8274)" class="st2 st5 st6"> GPIO1</text>
<text transform="matrix(1 0 0 1 197.6479 158.8274)" class="st2 st5 st6"> 9</text>
<text transform="matrix(1 0 0 1 159.1172 179.6643)" class="st2 st5 st6"> GPIO2</text>
<text transform="matrix(1 0 0 1 195.6045 179.6643)" class="st2 st5 st6"> 10</text>
<text transform="matrix(1 0 0 1 163.0605 200.5022)" class="st2 st5 st6"> NULL</text>
<text transform="matrix(1 0 0 1 195.876 200.5022)" class="st2 st5 st6"> 11</text>
<text transform="matrix(1 0 0 1 163.0605 221.344)" class="st2 st5 st6"> NULL</text>
<text transform="matrix(1 0 0 1 195.6045 221.344)" class="st2 st5 st6"> 12</text>
<text transform="matrix(1 0 0 1 159.1172 242.1829)" class="st2 st5 st6"> GPIO3</text>
<text transform="matrix(1 0 0 1 195.6045 242.1829)" class="st2 st5 st6"> 13</text>
<text transform="matrix(1 0 0 1 159.5317 263.0198)" class="st2 st5 st6"> PWM3</text>
<text transform="matrix(1 0 0 1 195.6045 263.0198)" class="st2 st5 st6"> 14</text>
<text transform="matrix(1 0 0 1 159.5317 283.8577)" class="st2 st5 st6"> PWM4</text>
<text transform="matrix(1 0 0 1 195.6045 283.8577)" class="st2 st5 st6"> 15</text>
<text transform="matrix(1 0 0 1 163.0605 304.6936)" class="st2 st5 st6"> NULL</text>
<text transform="matrix(1 0 0 1 195.6045 304.6936)" class="st2 st5 st6"> 16</text>
</svg>
