<?xml version="1.0" encoding="utf-8"?>
<!-- Generator: Adobe Illustrator 25.0.0, SVG Export Plug-In . SVG Version: 6.00 Build 0)  -->
<svg version="1.1"
	 id="svg2" inkscape:output_extension="org.inkscape.output.svg.inkscape" inkscape:version="0.92.1 r15371" sodipodi:docname="drawing.svg" sodipodi:version="0.32" xmlns:cc="http://creativecommons.org/ns#" xmlns:dc="http://purl.org/dc/elements/1.1/" xmlns:freecad="http://www.freecadweb.org/wiki/index.php?title=Svg_Namespace" xmlns:inkscape="http://www.inkscape.org/namespaces/inkscape" xmlns:rdf="http://www.w3.org/1999/02/22-rdf-syntax-ns#" xmlns:sodipodi="http://sodipodi.sourceforge.net/DTD/sodipodi-0.dtd" xmlns:svg="http://www.w3.org/2000/svg"
	 xmlns="http://www.w3.org/2000/svg" xmlns:xlink="http://www.w3.org/1999/xlink" x="0px" y="0px" viewBox="0 0 640 472.9"
	 style="enable-background:new 0 0 640 472.9;" xml:space="preserve">
<style type="text/css">
	.st0{fill:none;stroke:#0066FF;stroke-width:0.9921;stroke-miterlimit:90.7087;}
	.st1{fill:#0066FF;stroke:#0066FF;stroke-width:0.9921;stroke-miterlimit:90.7087;}
	.st2{fill:#0066FF;}
	.st3{font-family:'Arial-BoldMT';}
	.st4{font-size:27px;}
	.st5{font-family:'ArialMT';}
	.st6{font-size:12px;}
</style>
<defs>
	
		<inkscape:perspective  id="perspective3148" inkscape:persp3d-origin="32 : 21.333333 : 1" inkscape:vp_x="0 : 32 : 1" inkscape:vp_y="0 : 1000 : 0" inkscape:vp_z="64 : 32 : 1" sodipodi:type="inkscape:persp3d">
		</inkscape:perspective>
</defs>
<sodipodi:namedview  bordercolor="#666666" borderopacity="1.0" gridtolerance="10.0" guidetolerance="10.0" id="base" inkscape:current-layer="svg2" inkscape:cx="863.62023" inkscape:cy="850.18594" inkscape:document-units="mm" inkscape:pageopacity="0.0" inkscape:pageshadow="2" inkscape:snap-text-baseline="false" inkscape:window-height="1017" inkscape:window-maximized="1" inkscape:window-width="1920" inkscape:window-x="-8" inkscape:window-y="-8" inkscape:zoom="0.5946522" objecttolerance="10.0" pagecolor="#ffffff" showgrid="false">
	</sodipodi:namedview>
<g id="g452">
</g>
<g>
	<path id="path868" class="st0" d="M144,91.2v272.1h257H144h257V91.2H144z"/>
	<path id="path1177" class="st0" d="M322.5,396.9h-3.4c0-3.1-2.5-5.7-5.7-5.7c-3.1,0-5.7,2.5-5.7,5.7h-3.4"/>
	<path id="path1179_5_" class="st0" d="M134.4,396.9v-13.6h18.1v13.6"/>
	<path id="path1179_1_" class="st0" d="M270.4,396.9v-13.6h18.1v13.6"/>
	<path id="path1179_2_" class="st0" d="M236.4,396.9v-13.6h18.1v13.6"/>
	<path id="path1179_3_" class="st0" d="M202.4,396.9v-13.6h18.1v13.6"/>
	<polygon class="st1" points="547.5,396.7 420.8,396.7 420.8,381.4 533.8,381.4 533.8,345.3 454.9,345.3 454.9,273.5 531.8,273.5 
		531.8,237.4 453.4,237.4 453.4,165.6 529.6,165.6 529.6,135.4 420.8,135.4 420.8,110 532.6,110 532.6,84.1 404.2,84.1 404.2,57.9 
		545.6,57.9 545.6,180.9 464.6,180.9 464.6,217 544.7,217 544.7,288.8 469,288.8 469,324.9 547.5,324.9 	"/>
	<path id="path866" class="st0" d="M144,91.2h257H144z"/>
	<path id="path886" class="st0" d="M304.4,396.7h-15.9"/>
	<path id="path888" class="st0" d="M270.4,396.7h-15.9"/>
	<path id="path890" class="st0" d="M251.1,396.7c-0.1-3.1-2.8-5.6-5.9-5.4c-3,0.1-5.3,2.5-5.4,5.4"/>
	<path id="path892" class="st0" d="M236.4,396.7h-15.9"/>
	<path id="path896" class="st0" d="M202.4,396.7h-15.8l0,0v-13.4h-18.1v13.4h-15.9"/>
	<path id="path898" class="st0" d="M149.1,396.7c-0.1-3.1-2.8-5.6-5.9-5.4c-3,0.1-5.3,2.5-5.4,5.4"/>
	<path id="_x32_2" class="st0" d="M109.4,354.9v41.7h24.9"/>
	<path id="path903" class="st0" d="M109.4,336.8v-15.9"/>
	<path id="_x32_4" class="st0" d="M109.4,302.8v-15.9"/>
	<path id="path906" class="st0" d="M109.4,268.8v-15.9"/>
	<path id="_x32_6" class="st0" d="M109.4,234.8v-15.9"/>
	<path id="path909" class="st0" d="M109.4,200.7v-15.9"/>
	<path id="_x32_8" class="st0" d="M109.4,166.7v-15.9"/>
	<path id="path912" class="st0" d="M109.4,147.4c3.1-0.1,5.6-2.8,5.4-5.9c-0.1-3-2.5-5.3-5.4-5.4"/>
	<path id="_x33_0" class="st0" d="M109.4,132.7v-15.9"/>
	<path id="path915" class="st0" d="M109.4,98.7V57.9"/>
	<path id="_x33_2" class="st0" d="M109.4,57.9h24.9"/>
	<path id="path918" class="st0" d="M137.7,57.9c0.1,3,2.6,5.4,5.7,5.4"/>
	<path id="path920" class="st0" d="M143.4,63.3c3,0,5.5-2.4,5.7-5.4"/>
	<path id="path922" class="st0" d="M152.5,57.9h15.9"/>
	<path id="path924" class="st0" d="M177.4,63.3c3,0,5.5-2.4,5.7-5.4"/>
	<path id="path926" class="st0" d="M186.5,57.9h15.9"/>
	<path id="path928" class="st0" d="M205.8,57.9c0.1,3,2.6,5.4,5.7,5.4"/>
	<path id="_x33_9" class="st0" d="M220.5,57.9h15.9"/>
	<path id="path931" class="st0" d="M245.4,63.3c3,0,5.5-2.4,5.7-5.4"/>
	<path id="_x34_1" class="st0" d="M254.5,57.9h15.9"/>
	<path id="path934" class="st0" d="M273.8,57.9c0.1,3,2.6,5.4,5.7,5.4"/>
	<path id="path936" class="st0" d="M279.5,63.3c3,0,5.5-2.4,5.7-5.4"/>
	<path id="path938" class="st0" d="M288.5,57.9h15.9"/>
	<path id="_x34_5" class="st0" d="M322.5,57.9h15.9"/>
	<path id="path941" class="st0" d="M347.5,63.3c3,0,5.5-2.4,5.7-5.4"/>
	<path id="_x34_7" class="st0" d="M356.6,57.9h15.9"/>
	<path id="path944" class="st0" d="M375.8,57.9c0.1,3,2.6,5.4,5.7,5.4"/>
	<path id="path946" class="st0" d="M381.5,63.3c3,0,5.5-2.4,5.7-5.4"/>
	<path id="path948" class="st0" d="M390.6,57.9h13.6"/>
	<path id="_x36_8" class="st0" d="M545.6,57.9h8.2"/>
	<path id="path1006" class="st0" d="M254.5,57.6v13.6"/>
	<path id="path1008" class="st0" d="M251.1,57.6h3.4"/>
	<path id="path1010" class="st0" d="M254.5,71.3h-18.1"/>
	<path id="path1012" class="st0" d="M236.4,71.3V57.6"/>
	<path id="path1014" class="st0" d="M236.4,57.6h3.4"/>
	<path id="path1016" class="st0" d="M239.8,57.6c0,3.1,2.5,5.7,5.7,5.7l0,0"/>
	<path id="path1018" class="st0" d="M245.4,63.3c3.1,0,5.7-2.5,5.7-5.7"/>
	<path id="path1020" class="st0" d="M322.5,57.6v13.6"/>
	<path id="path1022" class="st0" d="M319.1,57.6h3.4"/>
	<path id="path1024" class="st0" d="M322.5,71.3h-18.1"/>
	<path id="path1026" class="st0" d="M304.4,71.3V57.6"/>
	<path id="path1028" class="st0" d="M304.4,57.6h3.4"/>
	<path id="path1030" class="st0" d="M307.8,57.6c0,3.1,2.5,5.7,5.7,5.7"/>
	<path id="path1032" class="st0" d="M313.5,63.3c3.1,0,5.7-2.5,5.7-5.7"/>
	<path id="path1034" class="st0" d="M122.8,200.7v18.1"/>
	<path id="path1036" class="st0" d="M109.2,200.7h13.6"/>
	<path id="path1038" class="st0" d="M122.8,218.9h-13.6"/>
	<path id="path1040" class="st0" d="M109.2,218.9v-3.4"/>
	<path id="path1042" class="st0" d="M109.2,215.5c3.1,0,5.7-2.5,5.7-5.7s-2.5-5.7-5.7-5.7"/>
	<path id="_x31_03" class="st0" d="M109.2,204.1v-3.4"/>
	<path id="path1052" class="st0" d="M186.5,396.9h-3.4c0-3.1-2.5-5.7-5.7-5.7s-5.7,2.5-5.7,5.7h-3.3"/>
	<path id="path1055" class="st0" d="M186.5,57.6v13.6"/>
	<path id="path1057" class="st0" d="M183.1,57.6h3.4"/>
	<path id="_x31_12" class="st0" d="M186.5,71.3h-18.1"/>
	<path id="path1060" class="st0" d="M168.3,71.3V57.6"/>
	<path id="path1062" class="st0" d="M168.3,57.6h3.4"/>
	<path id="path1064" class="st0" d="M171.7,57.6c0,3.1,2.5,5.7,5.7,5.7"/>
	<path id="path1066" class="st0" d="M177.4,63.3c3.1,0,5.7-2.5,5.7-5.7"/>
	<path id="path1068" class="st0" d="M122.8,268.8v18.1"/>
	<path id="_x31_18" class="st0" d="M109.2,268.8h13.6"/>
	<path id="path1071" class="st0" d="M122.8,286.9h-13.6"/>
	<path id="path1073" class="st0" d="M109.2,286.9v-3.4"/>
	<path id="path1075" class="st0" d="M109.2,283.5c3.1,0,5.7-2.5,5.7-5.7c0-3.1-2.5-5.7-5.7-5.7"/>
	<path id="path1077" class="st0" d="M109.2,272.2v-3.4"/>
	<path id="path1079" class="st0" d="M288.5,57.6v13.6"/>
	<path id="_x31_24" class="st0" d="M285.1,57.6h3.4"/>
	<path id="path1082" class="st0" d="M288.5,71.3h-18.1"/>
	<path id="path1084" class="st0" d="M270.4,71.3V57.6"/>
	<path id="path1086" class="st0" d="M270.4,57.6h3.4"/>
	<path id="path1088" class="st0" d="M273.8,57.6c0,3.1,2.5,5.7,5.7,5.7"/>
	<path id="path1090" class="st0" d="M279.5,63.3c3.1,0,5.7-2.5,5.7-5.7"/>
	<path id="path1099" class="st0" d="M390.4,396.9h-3.2c0-3.1-2.5-5.7-5.7-5.7c-3.1,0-5.7,2.5-5.7,5.7h-4.1"/>
	<path id="path1102" class="st0" d="M122.8,132.7v18.1"/>
	<path id="path1104" class="st0" d="M109.2,132.7h13.6"/>
	<path id="_x31_38" class="st0" d="M122.8,150.8h-13.6"/>
	<path id="path1107" class="st0" d="M109.2,150.8v-3.4"/>
	<path id="path1109" class="st0" d="M109.2,147.4c3.1,0,5.7-2.5,5.7-5.7c0-3.1-2.5-5.7-5.7-5.7"/>
	<path id="_x31_41" class="st0" d="M109.2,136.1v-3.4"/>
	<path id="path1119" class="st0" d="M220.5,396.9h-3.4c0-3.1-2.5-5.7-5.7-5.7s-5.7,2.5-5.7,5.7h-3.4"/>
	<path id="_x31_50_1_" class="st0" d="M356.6,396.9"/>
	<path id="path1131" class="st0" d="M553.2,58.1v338.8H415.9h-26v-13.4h-18.1v13.4h-15.9v-13.4l-18.1,0.1v13.1h-15.2v-13.4h-18.1
		v13.6"/>
	<path id="path1137" class="st0" d="M109.2,354.9h13.6v-18.1h-13.6"/>
	<path id="path1139" class="st0" d="M109.2,354.9v-3.4"/>
	<path id="path1141" class="st0" d="M109.2,351.5c3.1,0,5.7-2.5,5.7-5.7c0-3.1-2.5-5.7-5.7-5.7"/>
	<path id="path1143" class="st0" d="M109.2,340.2v-3.4"/>
	<path id="path1153" class="st0" d="M288.5,396.9h-3.4c0-3.1-2.5-5.7-5.7-5.7c-3.1,0-5.7,2.5-5.7,5.7h-3.4"/>
	<path id="path1161" class="st0" d="M254.5,396.9h-3.4"/>
	<path id="path1165" class="st0" d="M251.1,396.9c0-3.1-2.5-5.7-5.7-5.7c-3.1,0-5.7,2.5-5.7,5.7h-3.4"/>
	<path id="path1181" class="st0" d="M122.8,98.7v18.1"/>
	<path id="path1183" class="st0" d="M109.2,98.7h13.6"/>
	<path id="path1185" class="st0" d="M122.8,116.8h-13.6"/>
	<path id="path1187" class="st0" d="M109.2,116.8v-3.4"/>
	<path id="path1189" class="st0" d="M109.2,113.4c3.1,0,5.7-2.5,5.7-5.7c0-3.1-2.5-5.7-5.7-5.7"/>
	<path id="path1191" class="st0" d="M109.2,102.1v-3.4"/>
	<path id="path1193" class="st0" d="M390.6,57.6v13.6"/>
	<path id="path1195" class="st0" d="M387.2,57.6h3.4"/>
	<path id="_x31_86" class="st0" d="M390.6,71.3h-18.1"/>
	<path id="_x31_87" class="st0" d="M372.4,71.3V57.6"/>
	<path id="path1199" class="st0" d="M372.4,57.6h3.4"/>
	<path id="path1201" class="st0" d="M375.8,57.6c0,3.1,2.5,5.7,5.7,5.7"/>
	<path id="path1203" class="st0" d="M381.5,63.3c3.1,0,5.7-2.5,5.7-5.7"/>
	<path id="path1205" class="st0" d="M356.6,57.6v13.6"/>
	<path id="path1207" class="st0" d="M353.2,57.6h3.4"/>
	<path id="path1209" class="st0" d="M356.6,71.3h-18.1"/>
	<path id="_x31_94" class="st0" d="M338.4,71.3V57.6"/>
	<path id="_x31_95" class="st0" d="M338.4,57.6h3.4"/>
	<path id="path1213" class="st0" d="M341.8,57.6c0,3.1,2.5,5.7,5.7,5.7"/>
	<path id="path1215" class="st0" d="M347.5,63.3c3.1,0,5.7-2.5,5.7-5.7"/>
	<path id="path1217" class="st0" d="M122.8,302.8v18.1"/>
	<path id="path1219" class="st0" d="M109.2,302.8h13.6"/>
	<path id="path1221" class="st0" d="M122.8,320.9h-13.6"/>
	<path id="path1223" class="st0" d="M109.2,320.9v-3.4"/>
	<path id="path1225" class="st0" d="M109.2,317.5c3.1,0,5.7-2.5,5.7-5.7c0-3.1-2.5-5.7-5.7-5.7"/>
	<path id="path1227" class="st0" d="M109.2,306.2v-3.4"/>
	<path id="_x32_04" class="st0" d="M122.8,234.8v18.1"/>
	<path id="_x32_05" class="st0" d="M109.2,234.8h13.6"/>
	<path id="path1231" class="st0" d="M122.8,252.9h-13.6"/>
	<path id="path1233" class="st0" d="M109.2,252.9v-3.4"/>
	<path id="path1235" class="st0" d="M109.2,249.5c3.1,0,5.7-2.5,5.7-5.7s-2.5-5.7-5.7-5.7"/>
	<path id="path1237" class="st0" d="M109.2,238.2v-3.4"/>
	<path id="path1239" class="st0" d="M122.8,166.7v18.1"/>
	<path id="path1241" class="st0" d="M109.2,166.7h13.6"/>
	<path id="path1243" class="st0" d="M122.8,184.9h-13.6"/>
	<path id="path1245" class="st0" d="M109.2,184.9v-3.4"/>
	<path id="path1247" class="st0" d="M109.2,181.5c3.1,0,5.7-2.5,5.7-5.7c0-3.1-2.5-5.7-5.7-5.7"/>
	<path id="path1249" class="st0" d="M109.2,170.1v-3.4"/>
	<path id="path1251" class="st0" d="M152.5,57.6v13.6"/>
	<path id="path1253" class="st0" d="M149.1,57.6h3.4"/>
	<path id="_x32_18" class="st0" d="M152.5,71.3h-18.1"/>
	<path id="_x32_19" class="st0" d="M134.3,71.3V57.6"/>
	<path id="path1257" class="st0" d="M134.3,57.6h3.4"/>
	<path id="path1259" class="st0" d="M137.7,57.6c0,3.1,2.5,5.7,5.7,5.7"/>
	<path id="path1261" class="st0" d="M143.4,63.3c3.1,0,5.7-2.5,5.7-5.7"/>
	<path id="path1267" class="st0" d="M152.5,396.9h-3.4"/>
	<path id="path1269" class="st0" d="M149.1,396.9c0-3.1-2.5-5.7-5.7-5.7s-5.7,2.5-5.7,5.7"/>
	<path id="path1271" class="st0" d="M137.7,396.9h-3.4"/>
	<path id="path1275" class="st0" d="M220.5,57.6v13.6"/>
	<path id="path1277" class="st0" d="M217.1,57.6h3.4"/>
	<path id="path1279" class="st0" d="M220.5,71.3h-18.1"/>
	<path id="_x32_32" class="st0" d="M202.4,71.3V57.6"/>
	<path id="_x32_33" class="st0" d="M202.4,57.6h3.4"/>
	<path id="path1283" class="st0" d="M205.8,57.6c0,3.1,2.5,5.7,5.7,5.7"/>
	<path id="path1285" class="st0" d="M211.4,63.3c3.1,0,5.7-2.5,5.7-5.7"/>
	<text transform="matrix(1 0 0 1 217.0955 227.2705)" class="st2 st3 st4">JDY-16</text>
	<path id="path1177_1_" class="st0" d="M355.6,396.9h-3.4c0-3.1-2.5-5.7-5.7-5.7c-3.1,0-5.7,2.5-5.7,5.7h-3.4"/>
</g>
<text transform="matrix(6.123234e-17 1 -1 6.123234e-17 375.8408 24.9298)" class="st2 st5 st6"> VCC</text>
<text transform="matrix(6.123234e-17 1 -1 6.123234e-17 341.8408 14.2658)" class="st2 st5 st6"> PWM1</text>
<text transform="matrix(6.123234e-17 1 -1 6.123234e-17 307.8408 17.5998)" class="st2 st5 st6">PWM2</text>
<text transform="matrix(6.123234e-17 1 -1 6.123234e-17 273.8408 16.9201)" class="st2 st5 st6">GPIO4</text>
<text transform="matrix(6.123234e-17 1 -1 6.123234e-17 239.8408 20.0202)" class="st2 st5 st6"> NULL</text>
<text transform="matrix(6.123234e-17 1 -1 6.123234e-17 205.8408 21.5959)" class="st2 st5 st6"> STAT</text>
<text transform="matrix(6.123234e-17 1 -1 6.123234e-17 171.8408 20.0202)" class="st2 st5 st6"> NULL</text>
<text transform="matrix(6.123234e-17 1 -1 6.123234e-17 137.8408 20.0202)" class="st2 st5 st6"> NULL</text>
<text transform="matrix(1 0 0 1 378.3902 84.8197)" class="st2 st5 st6">1</text>
<text transform="matrix(1 0 0 1 344.3902 84.8197)" class="st2 st5 st6">2</text>
<text transform="matrix(1 0 0 1 310.3902 84.8197)" class="st2 st5 st6">3</text>
<text transform="matrix(1 0 0 1 276.3902 84.8197)" class="st2 st5 st6">4</text>
<text transform="matrix(1 0 0 1 242.3902 84.8197)" class="st2 st5 st6">5</text>
<text transform="matrix(1 0 0 1 208.3902 84.8197)" class="st2 st5 st6">6</text>
<text transform="matrix(1 0 0 1 174.3902 84.8197)" class="st2 st5 st6">7</text>
<text transform="matrix(1 0 0 1 140.3902 84.8197)" class="st2 st5 st6">8</text>
<text transform="matrix(6.123234e-17 1 -1 6.123234e-17 375.8408 399.2658)" class="st2 st5 st6"> GND</text>
<text transform="matrix(6.123234e-17 1 -1 6.123234e-17 341.8408 399.2658)" class="st2 st5 st6"> RESET</text>
<text transform="matrix(6.123234e-17 1 -1 6.123234e-17 307.8408 399.2658)" class="st2 st5 st6">PWRC</text>
<text transform="matrix(6.123234e-17 1 -1 6.123234e-17 273.8408 399.2658)" class="st2 st5 st6">SELECT</text>
<text transform="matrix(6.123234e-17 1 -1 6.123234e-17 239.8408 399.2653)" class="st2 st5 st6"> RXD_DC</text>
<text transform="matrix(6.123234e-17 1 -1 6.123234e-17 205.8408 399.2658)" class="st2 st5 st6"> TXD_DD</text>
<text transform="matrix(6.123234e-17 1 -1 6.123234e-17 171.8408 399.2653)" class="st2 st5 st6"> RTCA</text>
<text transform="matrix(6.123234e-17 1 -1 6.123234e-17 137.8408 399.2653)" class="st2 st5 st6"> ALED</text>
<text transform="matrix(1 0 0 1 373.3902 377.8197)" class="st2 st5 st6">24</text>
<text transform="matrix(1 0 0 1 339.3902 377.8197)" class="st2 st5 st6">23</text>
<text transform="matrix(1 0 0 1 305.3902 377.8197)" class="st2 st5 st6">22</text>
<text transform="matrix(1 0 0 1 271.3902 377.8197)" class="st2 st5 st6">21</text>
<text transform="matrix(1 0 0 1 237.3902 377.8197)" class="st2 st5 st6">20</text>
<text transform="matrix(1 0 0 1 203.3902 377.8197)" class="st2 st5 st6">19</text>
<text transform="matrix(1 0 0 1 169.3902 377.8197)" class="st2 st5 st6">18</text>
<text transform="matrix(1 0 0 1 135.3901 377.8197)" class="st2 st5 st6">17</text>
<text transform="matrix(1 0 0 1 64.371 111.892)" class="st2 st5 st6"> GPIO1</text>
<text transform="matrix(1 0 0 1 127.2352 111.892)" class="st2 st5 st6"> 9</text>
<text transform="matrix(1 0 0 1 64.371 145.892)" class="st2 st5 st6"> GPIO2</text>
<text transform="matrix(1 0 0 1 123.8983 145.892)" class="st2 st5 st6"> 10</text>
<text transform="matrix(1 0 0 1 70.8051 179.892)" class="st2 st5 st6"> NULL</text>
<text transform="matrix(1 0 0 1 124.3436 179.892)" class="st2 st5 st6"> 11</text>
<text transform="matrix(1 0 0 1 70.8051 213.892)" class="st2 st5 st6"> NULL</text>
<text transform="matrix(1 0 0 1 123.8983 213.892)" class="st2 st5 st6"> 12</text>
<text transform="matrix(1 0 0 1 64.371 247.892)" class="st2 st5 st6"> GPIO3</text>
<text transform="matrix(1 0 0 1 123.8983 247.892)" class="st2 st5 st6"> 13</text>
<text transform="matrix(1 0 0 1 65.0507 281.892)" class="st2 st5 st6"> PWM3</text>
<text transform="matrix(1 0 0 1 123.8983 281.892)" class="st2 st5 st6"> 14</text>
<text transform="matrix(1 0 0 1 65.0507 315.892)" class="st2 st5 st6"> PWM4</text>
<text transform="matrix(1 0 0 1 123.8983 315.892)" class="st2 st5 st6"> 15</text>
<text transform="matrix(1 0 0 1 70.8051 349.892)" class="st2 st5 st6"> NULL</text>
<text transform="matrix(1 0 0 1 123.8983 349.892)" class="st2 st5 st6"> 16</text>
</svg>
