<?xml version="1.0" encoding="utf-8"?>
<!-- Generator: Adobe Illustrator 25.0.0, SVG Export Plug-In . SVG Version: 6.00 Build 0)  -->
<svg version="1.1"
	 id="svg2" inkscape:output_extension="org.inkscape.output.svg.inkscape" inkscape:version="0.92.1 r15371" sodipodi:docname="drawing.svg" sodipodi:version="0.32" xmlns:cc="http://creativecommons.org/ns#" xmlns:dc="http://purl.org/dc/elements/1.1/" xmlns:freecad="http://www.freecadweb.org/wiki/index.php?title=Svg_Namespace" xmlns:inkscape="http://www.inkscape.org/namespaces/inkscape" xmlns:rdf="http://www.w3.org/1999/02/22-rdf-syntax-ns#" xmlns:sodipodi="http://sodipodi.sourceforge.net/DTD/sodipodi-0.dtd" xmlns:svg="http://www.w3.org/2000/svg"
	 xmlns="http://www.w3.org/2000/svg" xmlns:xlink="http://www.w3.org/1999/xlink" x="0px" y="0px" viewBox="0 0 340 286"
	 style="enable-background:new 0 0 340 286;" xml:space="preserve">
<style type="text/css">
	.st0{fill:none;stroke:#0066FF;stroke-width:0.9921;stroke-miterlimit:90.7087;}
	.st1{fill:#0066FF;stroke:#0066FF;stroke-width:0.9921;stroke-miterlimit:90.7087;}
	.st2{fill:#0066FF;}
	.st3{font-family:'Arial-BoldMT';}
	.st4{font-size:16.5489px;}
	.st5{font-family:'ArialMT';}
	.st6{font-size:7.355px;}
</style>
<defs>
	
		<inkscape:perspective  id="perspective3148" inkscape:persp3d-origin="32 : 21.333333 : 1" inkscape:vp_x="0 : 32 : 1" inkscape:vp_y="0 : 1000 : 0" inkscape:vp_z="64 : 32 : 1" sodipodi:type="inkscape:persp3d">
		</inkscape:perspective>
</defs>
<sodipodi:namedview  bordercolor="#666666" borderopacity="1.0" gridtolerance="10.0" guidetolerance="10.0" id="base" inkscape:current-layer="svg2" inkscape:cx="863.62023" inkscape:cy="850.18594" inkscape:document-units="mm" inkscape:pageopacity="0.0" inkscape:pageshadow="2" inkscape:snap-text-baseline="false" inkscape:window-height="1017" inkscape:window-maximized="1" inkscape:window-width="1920" inkscape:window-x="-8" inkscape:window-y="-8" inkscape:zoom="0.5946522" objecttolerance="10.0" pagecolor="#ffffff" showgrid="false">
	</sodipodi:namedview>
<g id="g452">
</g>
<g>
	<path id="path868" class="st0" d="M57.9,52.7v166.8h157.5H57.9h157.5V52.7H57.9z"/>
	<path id="path1177" class="st0" d="M167.3,240h-2.1c0-1.9-1.6-3.5-3.5-3.5c-1.9,0-3.5,1.6-3.5,3.5h-2.1"/>
	<path id="path1179_5_" class="st0" d="M52,240v-8.3h11.1v8.3"/>
	<path id="path1179_1_" class="st0" d="M135.4,240v-8.3h11.1v8.3"/>
	<path id="path1179_2_" class="st0" d="M114.5,240v-8.3h11.1v8.3"/>
	<path id="path1179_3_" class="st0" d="M93.7,240v-8.3h11.1v8.3"/>
	<polygon class="st1" points="305.2,239.9 227.6,239.9 227.6,230.6 296.8,230.6 296.8,208.4 248.5,208.4 248.5,164.4 295.6,164.4 
		295.6,142.3 247.6,142.3 247.6,98.3 294.3,98.3 294.3,79.7 227.6,79.7 227.6,64.2 296.1,64.2 296.1,48.3 217.4,48.3 217.4,32.2 
		304.1,32.2 304.1,107.6 254.4,107.6 254.4,129.8 303.5,129.8 303.5,173.7 257.1,173.7 257.1,195.9 305.2,195.9 	"/>
	<path id="path866" class="st0" d="M57.9,52.7h157.5H57.9z"/>
	<path id="path886" class="st0" d="M156.2,239.9h-9.7"/>
	<path id="path888" class="st0" d="M135.4,239.9h-9.7"/>
	<path id="path890" class="st0" d="M123.6,239.9c-0.1-1.9-1.7-3.4-3.6-3.3c-1.8,0.1-3.3,1.5-3.3,3.3"/>
	<path id="path892" class="st0" d="M114.5,239.9h-9.7"/>
	<path id="path896" class="st0" d="M93.7,239.9H84l0,0v-8.2H72.9v8.2h-9.8"/>
	<path id="path898" class="st0" d="M61,239.9c-0.1-1.9-1.7-3.4-3.6-3.3c-1.8,0.1-3.3,1.5-3.3,3.3"/>
	<path id="_x32_2" class="st0" d="M36.7,214.3v25.6H52"/>
	<path id="path903" class="st0" d="M36.7,203.2v-9.7"/>
	<path id="_x32_4" class="st0" d="M36.7,182.3v-9.7"/>
	<path id="path906" class="st0" d="M36.7,161.5v-9.7"/>
	<path id="_x32_6" class="st0" d="M36.7,140.6v-9.7"/>
	<path id="path909" class="st0" d="M36.7,119.8v-9.7"/>
	<path id="_x32_8" class="st0" d="M36.7,98.9v-9.7"/>
	<path id="path912" class="st0" d="M36.7,87.1c1.9-0.1,3.4-1.7,3.3-3.6c-0.1-1.8-1.5-3.3-3.3-3.3"/>
	<path id="_x33_0" class="st0" d="M36.7,78.1v-9.7"/>
	<path id="path915" class="st0" d="M36.7,57.2v-25"/>
	<path id="_x33_2" class="st0" d="M36.7,32.2H52"/>
	<path id="path918" class="st0" d="M54.1,32.2c0.1,1.9,1.6,3.3,3.5,3.3"/>
	<path id="path920" class="st0" d="M57.5,35.6c1.9,0,3.4-1.5,3.5-3.3"/>
	<path id="path922" class="st0" d="M63.1,32.2h9.7"/>
	<path id="path924" class="st0" d="M78.4,35.6c1.9,0,3.4-1.5,3.5-3.3"/>
	<path id="path926" class="st0" d="M83.9,32.2h9.7"/>
	<path id="path928" class="st0" d="M95.8,32.2c0.1,1.9,1.6,3.3,3.5,3.3"/>
	<path id="_x33_9" class="st0" d="M104.8,32.2h9.7"/>
	<path id="path931" class="st0" d="M120.1,35.6c1.9,0,3.4-1.5,3.5-3.3"/>
	<path id="_x34_1" class="st0" d="M125.6,32.2h9.7"/>
	<path id="path934" class="st0" d="M137.5,32.2c0.1,1.9,1.6,3.3,3.5,3.3"/>
	<path id="path936" class="st0" d="M140.9,35.6c1.9,0,3.4-1.5,3.5-3.3"/>
	<path id="path938" class="st0" d="M146.5,32.2h9.7"/>
	<path id="_x34_5" class="st0" d="M167.3,32.2h9.7"/>
	<path id="path941" class="st0" d="M182.6,35.6c1.9,0,3.4-1.5,3.5-3.3"/>
	<path id="_x34_7" class="st0" d="M188.2,32.2h9.7"/>
	<path id="path944" class="st0" d="M200,32.2c0.1,1.9,1.6,3.3,3.5,3.3"/>
	<path id="path946" class="st0" d="M203.5,35.6c1.9,0,3.4-1.5,3.5-3.3"/>
	<path id="path948" class="st0" d="M209,32.2h8.4"/>
	<path id="_x36_8" class="st0" d="M304.1,32.2h5.1"/>
	<path id="path1006" class="st0" d="M125.6,32.1v8.3"/>
	<path id="path1008" class="st0" d="M123.6,32.1h2.1"/>
	<path id="path1010" class="st0" d="M125.6,40.4h-11.1"/>
	<path id="path1012" class="st0" d="M114.5,40.4v-8.3"/>
	<path id="path1014" class="st0" d="M114.5,32.1h2.1"/>
	<path id="path1016" class="st0" d="M116.6,32.1c0,1.9,1.6,3.5,3.5,3.5l0,0"/>
	<path id="path1018" class="st0" d="M120.1,35.6c1.9,0,3.5-1.6,3.5-3.5"/>
	<path id="path1020" class="st0" d="M167.3,32.1v8.3"/>
	<path id="path1022" class="st0" d="M165.3,32.1h2.1"/>
	<path id="path1024" class="st0" d="M167.3,40.4h-11.1"/>
	<path id="path1026" class="st0" d="M156.2,40.4v-8.3"/>
	<path id="path1028" class="st0" d="M156.2,32.1h2.1"/>
	<path id="path1030" class="st0" d="M158.3,32.1c0,1.9,1.6,3.5,3.5,3.5"/>
	<path id="path1032" class="st0" d="M161.8,35.6c1.9,0,3.5-1.6,3.5-3.5"/>
	<path id="path1034" class="st0" d="M44.9,119.8v11.1"/>
	<path id="path1036" class="st0" d="M36.6,119.8h8.3"/>
	<path id="path1038" class="st0" d="M44.9,130.9h-8.3"/>
	<path id="path1040" class="st0" d="M36.6,130.9v-2.1"/>
	<path id="path1042" class="st0" d="M36.6,128.8c1.9,0,3.5-1.6,3.5-3.5s-1.6-3.5-3.5-3.5"/>
	<path id="_x31_03" class="st0" d="M36.6,121.9v-2.1"/>
	<path id="path1052" class="st0" d="M83.9,240h-2.1c0-1.9-1.6-3.5-3.5-3.5c-1.9,0-3.5,1.6-3.5,3.5h-2"/>
	<path id="path1055" class="st0" d="M83.9,32.1v8.3"/>
	<path id="path1057" class="st0" d="M81.9,32.1h2.1"/>
	<path id="_x31_12" class="st0" d="M83.9,40.4H72.8"/>
	<path id="path1060" class="st0" d="M72.8,40.4v-8.3"/>
	<path id="path1062" class="st0" d="M72.8,32.1h2.1"/>
	<path id="path1064" class="st0" d="M74.9,32.1c0,1.9,1.6,3.5,3.5,3.5"/>
	<path id="path1066" class="st0" d="M78.4,35.6c1.9,0,3.5-1.6,3.5-3.5"/>
	<path id="path1068" class="st0" d="M44.9,161.5v11.1"/>
	<path id="_x31_18" class="st0" d="M36.6,161.5h8.3"/>
	<path id="path1071" class="st0" d="M44.9,172.6h-8.3"/>
	<path id="path1073" class="st0" d="M36.6,172.6v-2.1"/>
	<path id="path1075" class="st0" d="M36.6,170.5c1.9,0,3.5-1.6,3.5-3.5c0-1.9-1.6-3.5-3.5-3.5"/>
	<path id="path1077" class="st0" d="M36.6,163.6v-2.1"/>
	<path id="path1079" class="st0" d="M146.5,32.1v8.3"/>
	<path id="_x31_24" class="st0" d="M144.4,32.1h2.1"/>
	<path id="path1082" class="st0" d="M146.5,40.4h-11.1"/>
	<path id="path1084" class="st0" d="M135.4,40.4v-8.3"/>
	<path id="path1086" class="st0" d="M135.4,32.1h2.1"/>
	<path id="path1088" class="st0" d="M137.5,32.1c0,1.9,1.6,3.5,3.5,3.5"/>
	<path id="path1090" class="st0" d="M140.9,35.6c1.9,0,3.5-1.6,3.5-3.5"/>
	<path id="path1099" class="st0" d="M208.9,240h-2c0-1.9-1.6-3.5-3.5-3.5c-1.9,0-3.5,1.6-3.5,3.5h-2.5"/>
	<path id="path1102" class="st0" d="M44.9,78.1v11.1"/>
	<path id="path1104" class="st0" d="M36.6,78.1h8.3"/>
	<path id="_x31_38" class="st0" d="M44.9,89.2h-8.3"/>
	<path id="path1107" class="st0" d="M36.6,89.2v-2.1"/>
	<path id="path1109" class="st0" d="M36.6,87.1c1.9,0,3.5-1.6,3.5-3.5s-1.6-3.5-3.5-3.5"/>
	<path id="_x31_41" class="st0" d="M36.6,80.2v-2.1"/>
	<path id="path1119" class="st0" d="M104.8,240h-2.1c0-1.9-1.6-3.5-3.5-3.5s-3.5,1.6-3.5,3.5h-2.1"/>
	<path id="_x31_50_1_" class="st0" d="M188.2,240"/>
	<path id="path1131" class="st0" d="M308.7,32.4V240h-84.1h-15.9v-8.2h-11.1v8.2h-9.7v-8.2l-11.1,0.1v8h-9.3v-8.2h-11.1v8.3"/>
	<path id="path1137" class="st0" d="M36.6,214.3h8.3v-11.1h-8.3"/>
	<path id="path1139" class="st0" d="M36.6,214.3v-2.1"/>
	<path id="path1141" class="st0" d="M36.6,212.2c1.9,0,3.5-1.6,3.5-3.5c0-1.9-1.6-3.5-3.5-3.5"/>
	<path id="path1143" class="st0" d="M36.6,205.3v-2.1"/>
	<path id="path1153" class="st0" d="M146.5,240h-2.1c0-1.9-1.6-3.5-3.5-3.5c-1.9,0-3.5,1.6-3.5,3.5h-2.1"/>
	<path id="path1161" class="st0" d="M125.6,240h-2.1"/>
	<path id="path1165" class="st0" d="M123.6,240c0-1.9-1.6-3.5-3.5-3.5s-3.5,1.6-3.5,3.5h-2.1"/>
	<path id="path1181" class="st0" d="M44.9,57.2v11.1"/>
	<path id="path1183" class="st0" d="M36.6,57.2h8.3"/>
	<path id="path1185" class="st0" d="M44.9,68.4h-8.3"/>
	<path id="path1187" class="st0" d="M36.6,68.4v-2.1"/>
	<path id="path1189" class="st0" d="M36.6,66.3c1.9,0,3.5-1.6,3.5-3.5s-1.6-3.5-3.5-3.5"/>
	<path id="path1191" class="st0" d="M36.6,59.3v-2.1"/>
	<path id="path1193" class="st0" d="M209,32.1v8.3"/>
	<path id="path1195" class="st0" d="M207,32.1h2.1"/>
	<path id="_x31_86" class="st0" d="M209,40.4h-11.1"/>
	<path id="_x31_87" class="st0" d="M197.9,40.4v-8.3"/>
	<path id="path1199" class="st0" d="M197.9,32.1h2.1"/>
	<path id="path1201" class="st0" d="M200,32.1c0,1.9,1.6,3.5,3.5,3.5"/>
	<path id="path1203" class="st0" d="M203.5,35.6c1.9,0,3.5-1.6,3.5-3.5"/>
	<path id="path1205" class="st0" d="M188.2,32.1v8.3"/>
	<path id="path1207" class="st0" d="M186.1,32.1h2.1"/>
	<path id="path1209" class="st0" d="M188.2,40.4h-11.1"/>
	<path id="_x31_94" class="st0" d="M177.1,40.4v-8.3"/>
	<path id="_x31_95" class="st0" d="M177.1,32.1h2.1"/>
	<path id="path1213" class="st0" d="M179.2,32.1c0,1.9,1.6,3.5,3.5,3.5"/>
	<path id="path1215" class="st0" d="M182.6,35.6c1.9,0,3.5-1.6,3.5-3.5"/>
	<path id="path1217" class="st0" d="M44.9,182.3v11.1"/>
	<path id="path1219" class="st0" d="M36.6,182.3h8.3"/>
	<path id="path1221" class="st0" d="M44.9,193.5h-8.3"/>
	<path id="path1223" class="st0" d="M36.6,193.5v-2.1"/>
	<path id="path1225" class="st0" d="M36.6,191.4c1.9,0,3.5-1.6,3.5-3.5c0-1.9-1.6-3.5-3.5-3.5"/>
	<path id="path1227" class="st0" d="M36.6,184.4v-2.1"/>
	<path id="_x32_04" class="st0" d="M44.9,140.6v11.1"/>
	<path id="_x32_05" class="st0" d="M36.6,140.6h8.3"/>
	<path id="path1231" class="st0" d="M44.9,151.8h-8.3"/>
	<path id="path1233" class="st0" d="M36.6,151.8v-2.1"/>
	<path id="path1235" class="st0" d="M36.6,149.7c1.9,0,3.5-1.6,3.5-3.5c0-1.9-1.6-3.5-3.5-3.5"/>
	<path id="path1237" class="st0" d="M36.6,142.7v-2.1"/>
	<path id="path1239" class="st0" d="M44.9,98.9v11.1"/>
	<path id="path1241" class="st0" d="M36.6,98.9h8.3"/>
	<path id="path1243" class="st0" d="M44.9,110.1h-8.3"/>
	<path id="path1245" class="st0" d="M36.6,110.1V108"/>
	<path id="path1247" class="st0" d="M36.6,108c1.9,0,3.5-1.6,3.5-3.5s-1.6-3.5-3.5-3.5"/>
	<path id="path1249" class="st0" d="M36.6,101v-2.1"/>
	<path id="path1251" class="st0" d="M63.1,32.1v8.3"/>
	<path id="path1253" class="st0" d="M61,32.1h2.1"/>
	<path id="_x32_18" class="st0" d="M63.1,40.4H52"/>
	<path id="_x32_19" class="st0" d="M52,40.4v-8.3"/>
	<path id="path1257" class="st0" d="M52,32.1h2.1"/>
	<path id="path1259" class="st0" d="M54.1,32.1c0,1.9,1.6,3.5,3.5,3.5"/>
	<path id="path1261" class="st0" d="M57.5,35.6c1.9,0,3.5-1.6,3.5-3.5"/>
	<path id="path1267" class="st0" d="M63.1,240H61"/>
	<path id="path1269" class="st0" d="M61,240c0-1.9-1.6-3.5-3.5-3.5c-1.9,0-3.5,1.6-3.5,3.5"/>
	<path id="path1271" class="st0" d="M54.1,240H52"/>
	<path id="path1275" class="st0" d="M104.8,32.1v8.3"/>
	<path id="path1277" class="st0" d="M102.7,32.1h2.1"/>
	<path id="path1279" class="st0" d="M104.8,40.4H93.7"/>
	<path id="_x32_32" class="st0" d="M93.7,40.4v-8.3"/>
	<path id="_x32_33" class="st0" d="M93.7,32.1h2.1"/>
	<path id="path1283" class="st0" d="M95.8,32.1c0,1.9,1.6,3.5,3.5,3.5"/>
	<path id="path1285" class="st0" d="M99.2,35.6c1.9,0,3.5-1.6,3.5-3.5"/>
	<text transform="matrix(1 0 0 1 102.7236 136.0726)" class="st2 st3 st4">JDY-16</text>
	<path id="path1177_1_" class="st0" d="M187.6,240h-2.1c0-1.9-1.6-3.5-3.5-3.5c-1.9,0-3.5,1.6-3.5,3.5h-2.1"/>
</g>
<text transform="matrix(6.123234e-17 1 -1 6.123234e-17 200.0093 12.0375)" class="st2 st5 st6"> VCC</text>
<text transform="matrix(6.123234e-17 1 -1 6.123234e-17 179.1709 5.4984)" class="st2 st5 st6"> PWM1</text>
<text transform="matrix(6.123234e-17 1 -1 6.123234e-17 158.333 7.5424)" class="st2 st5 st6">PWM2</text>
<text transform="matrix(6.123234e-17 1 -1 6.123234e-17 137.4917 7.1273)" class="st2 st5 st6">GPIO4</text>
<text transform="matrix(6.123234e-17 1 -1 6.123234e-17 116.6553 9.0277)" class="st2 st5 st6"> NULL</text>
<text transform="matrix(6.123234e-17 1 -1 6.123234e-17 95.8125 9.9926)" class="st2 st5 st6"> STAT</text>
<text transform="matrix(6.123234e-17 1 -1 6.123234e-17 74.978 9.0277)" class="st2 st5 st6"> NULL</text>
<text transform="matrix(6.123234e-17 1 -1 6.123234e-17 54.1362 9.0277)" class="st2 st5 st6"> NULL</text>
<text transform="matrix(1 0 0 1 201.5859 48.7582)" class="st2 st5 st6">1</text>
<text transform="matrix(1 0 0 1 180.748 48.7582)" class="st2 st5 st6">2</text>
<text transform="matrix(1 0 0 1 159.9082 48.7582)" class="st2 st5 st6">3</text>
<text transform="matrix(1 0 0 1 139.0693 48.7582)" class="st2 st5 st6">4</text>
<text transform="matrix(1 0 0 1 118.2275 48.7582)" class="st2 st5 st6">5</text>
<text transform="matrix(1 0 0 1 97.3916 48.7582)" class="st2 st5 st6">6</text>
<text transform="matrix(1 0 0 1 76.5513 48.7582)" class="st2 st5 st6">7</text>
<text transform="matrix(1 0 0 1 55.7119 48.7582)" class="st2 st5 st6">8</text>
<text transform="matrix(6.123234e-17 1 -1 6.123234e-17 200.0093 241.472)" class="st2 st5 st6"> GND</text>
<text transform="matrix(6.123234e-17 1 -1 6.123234e-17 179.1709 241.472)" class="st2 st5 st6"> RESET</text>
<text transform="matrix(6.123234e-17 1 -1 6.123234e-17 158.333 241.472)" class="st2 st5 st6">PWRC</text>
<text transform="matrix(6.123234e-17 1 -1 6.123234e-17 137.4917 241.472)" class="st2 st5 st6">SELECT</text>
<text transform="matrix(6.123234e-17 1 -1 6.123234e-17 116.6553 241.472)" class="st2 st5 st6"> RXD_DC</text>
<text transform="matrix(6.123234e-17 1 -1 6.123234e-17 95.8125 241.472)" class="st2 st5 st6"> TXD_DD</text>
<text transform="matrix(6.123234e-17 1 -1 6.123234e-17 74.978 241.472)" class="st2 st5 st6"> RTCA</text>
<text transform="matrix(6.123234e-17 1 -1 6.123234e-17 54.1362 241.472)" class="st2 st5 st6"> ALED</text>
<text transform="matrix(1 0 0 1 198.5229 228.347)" class="st2 st5 st6">24</text>
<text transform="matrix(1 0 0 1 177.6826 228.347)" class="st2 st5 st6">23</text>
<text transform="matrix(1 0 0 1 156.8433 228.347)" class="st2 st5 st6">22</text>
<text transform="matrix(1 0 0 1 136.0049 228.347)" class="st2 st5 st6">21</text>
<text transform="matrix(1 0 0 1 115.1646 228.347)" class="st2 st5 st6">20</text>
<text transform="matrix(1 0 0 1 94.3281 228.347)" class="st2 st5 st6">19</text>
<text transform="matrix(1 0 0 1 73.4854 228.347)" class="st2 st5 st6">18</text>
<text transform="matrix(1 0 0 1 52.6479 228.347)" class="st2 st5 st6">17</text>
<text transform="matrix(1 0 0 1 9.1172 65.3568)" class="st2 st5 st6"> GPIO1</text>
<text transform="matrix(1 0 0 1 47.6479 65.3568)" class="st2 st5 st6"> 9</text>
<text transform="matrix(1 0 0 1 9.1172 86.1937)" class="st2 st5 st6"> GPIO2</text>
<text transform="matrix(1 0 0 1 45.6045 86.1937)" class="st2 st5 st6"> 10</text>
<text transform="matrix(1 0 0 1 13.0605 107.0316)" class="st2 st5 st6"> NULL</text>
<text transform="matrix(1 0 0 1 45.876 107.0316)" class="st2 st5 st6"> 11</text>
<text transform="matrix(1 0 0 1 13.0605 127.8734)" class="st2 st5 st6"> NULL</text>
<text transform="matrix(1 0 0 1 45.6045 127.8734)" class="st2 st5 st6"> 12</text>
<text transform="matrix(1 0 0 1 9.1172 148.7123)" class="st2 st5 st6"> GPIO3</text>
<text transform="matrix(1 0 0 1 45.6045 148.7123)" class="st2 st5 st6"> 13</text>
<text transform="matrix(1 0 0 1 9.5317 169.5492)" class="st2 st5 st6"> PWM3</text>
<text transform="matrix(1 0 0 1 45.6045 169.5492)" class="st2 st5 st6"> 14</text>
<text transform="matrix(1 0 0 1 9.5317 190.3871)" class="st2 st5 st6"> PWM4</text>
<text transform="matrix(1 0 0 1 45.6045 190.3871)" class="st2 st5 st6"> 15</text>
<text transform="matrix(1 0 0 1 13.0605 211.223)" class="st2 st5 st6"> NULL</text>
<text transform="matrix(1 0 0 1 45.6045 211.223)" class="st2 st5 st6"> 16</text>
</svg>
